<svg id="Layer_1" data-name="Layer 1" xmlns="http://www.w3.org/2000/svg" xmlns:xlink="http://www.w3.org/1999/xlink" viewBox="0 0 356.02 93.06"><defs><style>.cls-1,.cls-4,.cls-6{fill:#3ca649;}.cls-1,.cls-2{clip-rule:evenodd;}.cls-2,.cls-3,.cls-7{fill:#fdb917;}.cls-4,.cls-7{fill-rule:evenodd;}.cls-5{clip-path:url(#clip-path);}.cls-8{clip-path:url(#clip-path-2);}.cls-9{clip-path:url(#clip-path-3);}.cls-10{clip-path:url(#clip-path-4);}.cls-11{clip-path:url(#clip-path-6);}.cls-12{clip-path:url(#clip-path-8);}.cls-13{clip-path:url(#clip-path-10);}</style><clipPath id="clip-path"><polyline class="cls-1" points="-362.92 533.98 -384.56 515.42 -395.89 529.09 -361.38 558.71 -306.74 498.41 -319.67 486.27 -362.92 533.98"/></clipPath><clipPath id="clip-path-2"><polygon class="cls-2" points="45.6 61.57 28.86 70.46 32.06 51.64 18.52 38.3 37.23 35.56 45.6 18.43 53.96 35.56 72.67 38.3 59.14 51.64 62.33 70.46 45.6 61.57"/></clipPath><clipPath id="clip-path-3"><rect class="cls-3" x="-535.12" y="-255.78" width="2301.02" height="1204.2"/></clipPath><clipPath id="clip-path-4"><polygon class="cls-2" points="110.94 61.57 94.2 70.46 97.4 51.64 83.86 38.3 102.57 35.56 110.94 18.43 119.31 35.56 138.02 38.3 124.48 51.64 127.67 70.46 110.94 61.57"/></clipPath><clipPath id="clip-path-6"><polygon class="cls-2" points="241.62 61.57 224.88 70.46 228.08 51.64 214.54 38.3 233.25 35.56 241.62 18.43 249.99 35.56 268.7 38.3 255.16 51.64 258.35 70.46 241.62 61.57"/></clipPath><clipPath id="clip-path-8"><polygon class="cls-2" points="176.28 61.57 159.54 70.46 162.74 51.64 149.2 38.3 167.91 35.56 176.28 18.43 184.65 35.56 203.36 38.3 189.82 51.64 193.01 70.46 176.28 61.57"/></clipPath><clipPath id="clip-path-10"><polygon class="cls-2" points="306.96 61.57 290.22 70.46 293.42 51.64 279.88 38.3 298.59 35.56 306.96 18.43 315.33 35.56 334.04 38.3 320.5 51.64 323.69 70.46 306.96 61.57"/></clipPath></defs><title>5-star-rating</title><polyline class="cls-4" points="-362.92 533.98 -384.56 515.42 -395.89 529.09 -361.38 558.71 -306.74 498.41 -319.67 486.27 -362.92 533.98"/><g class="cls-5"><rect class="cls-6" x="-3186.32" y="-436.46" width="3652.18" height="4771.39" transform="translate(-80.03 -53.47) rotate(-2.32)"/></g><polygon class="cls-7" points="45.6 61.57 28.86 70.46 32.06 51.64 18.52 38.3 37.23 35.56 45.6 18.43 53.96 35.56 72.67 38.3 59.14 51.64 62.33 70.46 45.6 61.57"/><g class="cls-8"><rect class="cls-3" x="-535.12" y="-255.78" width="2301.02" height="1204.2"/><g class="cls-9"><rect class="cls-3" x="8.93" y="8.84" width="73.33" height="71.21"/></g></g><polygon class="cls-7" points="110.94 61.57 94.2 70.46 97.4 51.64 83.86 38.3 102.57 35.56 110.94 18.43 119.31 35.56 138.02 38.3 124.48 51.64 127.67 70.46 110.94 61.57"/><g class="cls-10"><rect class="cls-3" x="-535.12" y="-255.78" width="2301.02" height="1204.2"/><g class="cls-9"><rect class="cls-3" x="74.27" y="8.84" width="73.33" height="71.21"/></g></g><polygon class="cls-7" points="241.62 61.57 224.88 70.46 228.08 51.64 214.54 38.3 233.25 35.56 241.62 18.43 249.99 35.56 268.7 38.3 255.16 51.64 258.35 70.46 241.62 61.57"/><g class="cls-11"><rect class="cls-3" x="-535.12" y="-255.78" width="2301.02" height="1204.2"/><g class="cls-9"><rect class="cls-3" x="204.95" y="8.84" width="73.33" height="71.21"/></g></g><polygon class="cls-7" points="176.28 61.57 159.54 70.46 162.74 51.64 149.2 38.3 167.91 35.56 176.28 18.43 184.65 35.56 203.36 38.3 189.82 51.64 193.01 70.46 176.28 61.57"/><g class="cls-12"><rect class="cls-3" x="-535.12" y="-255.78" width="2301.02" height="1204.2"/><g class="cls-9"><rect class="cls-3" x="139.61" y="8.84" width="73.33" height="71.21"/></g></g><polygon class="cls-7" points="306.96 61.57 290.22 70.46 293.42 51.64 279.88 38.3 298.59 35.56 306.96 18.43 315.33 35.56 334.04 38.3 320.5 51.64 323.69 70.46 306.96 61.57"/><g class="cls-13"><rect class="cls-3" x="-535.12" y="-255.78" width="2301.02" height="1204.2"/><g class="cls-9"><rect class="cls-3" x="270.29" y="8.84" width="73.33" height="71.21"/></g></g></svg>