<?xml version="1.0" encoding="UTF-8" standalone="no"?>
<svg width="1402px" height="1013px" viewBox="0 0 1402 1013" version="1.1" xmlns="http://www.w3.org/2000/svg" xmlns:xlink="http://www.w3.org/1999/xlink" xmlns:sketch="http://www.bohemiancoding.com/sketch/ns">
    <!-- Generator: Sketch 3.5.2 (25235) - http://www.bohemiancoding.com/sketch -->
    <title>Group 3</title>
    <desc>Created with Sketch.</desc>
    <defs>
        <filter x="-50%" y="-50%" width="200%" height="200%" filterUnits="objectBoundingBox" id="filter-1">
            <feOffset dx="0" dy="2" in="SourceAlpha" result="shadowOffsetOuter1"></feOffset>
            <feGaussianBlur stdDeviation="2" in="shadowOffsetOuter1" result="shadowBlurOuter1"></feGaussianBlur>
            <feColorMatrix values="0 0 0 0 0   0 0 0 0 0   0 0 0 0 0  0 0 0 0.14 0" in="shadowBlurOuter1" type="matrix" result="shadowMatrixOuter1"></feColorMatrix>
            <feMerge>
                <feMergeNode in="shadowMatrixOuter1"></feMergeNode>
                <feMergeNode in="SourceGraphic"></feMergeNode>
            </feMerge>
        </filter>
        <filter x="-50%" y="-50%" width="200%" height="200%" filterUnits="objectBoundingBox" id="filter-2">
            <feOffset dx="0" dy="2" in="SourceAlpha" result="shadowOffsetOuter1"></feOffset>
            <feGaussianBlur stdDeviation="2" in="shadowOffsetOuter1" result="shadowBlurOuter1"></feGaussianBlur>
            <feColorMatrix values="0 0 0 0 0   0 0 0 0 0   0 0 0 0 0  0 0 0 0.14 0" in="shadowBlurOuter1" type="matrix" result="shadowMatrixOuter1"></feColorMatrix>
            <feMerge>
                <feMergeNode in="shadowMatrixOuter1"></feMergeNode>
                <feMergeNode in="SourceGraphic"></feMergeNode>
            </feMerge>
        </filter>
        <filter x="-50%" y="-50%" width="200%" height="200%" filterUnits="objectBoundingBox" id="filter-3">
            <feOffset dx="0" dy="2" in="SourceAlpha" result="shadowOffsetOuter1"></feOffset>
            <feGaussianBlur stdDeviation="2" in="shadowOffsetOuter1" result="shadowBlurOuter1"></feGaussianBlur>
            <feColorMatrix values="0 0 0 0 0   0 0 0 0 0   0 0 0 0 0  0 0 0 0.14 0" in="shadowBlurOuter1" type="matrix" result="shadowMatrixOuter1"></feColorMatrix>
            <feMerge>
                <feMergeNode in="shadowMatrixOuter1"></feMergeNode>
                <feMergeNode in="SourceGraphic"></feMergeNode>
            </feMerge>
        </filter>
    </defs>
    <g id="Page-1" stroke="none" stroke-width="1" fill="none" fill-rule="evenodd" sketch:type="MSPage">
        <g id="Group-3" sketch:type="MSLayerGroup" transform="translate(1.000000, -301.000000)">
            <g id="Group-2" stroke="#FFFFFF" stroke-opacity="0.1" sketch:type="MSShapeGroup">
                <polygon id="Polygon-1" points="350 605.769231 524.870514 706.730769 524.870514 908.653846 350 1009.61538 175.129486 908.653846 175.129486 706.730769 "></polygon>
                <path d="M840.384615,686.820326 L700,605.769231 L525.129486,706.730769 L525.129486,908.653846 L700,1009.61538 L874.870514,908.653846 L874.870514,736.538462 L848.393897,736.538462 C843.970493,736.538462 840.384615,732.962098 840.384615,728.52918 L840.384615,686.820326 Z" id="Polygon-1"></path>
                <path d="M699.870514,1009.61538 L699.870514,1212.5 L525,1313.46154 L350.129486,1212.5 L350.129486,1009.61538" id="Polygon-1"></path>
                <path d="M875,908.653846 L1049.87051,1009.61538 L1049.87051,1212.5 L875,1313.46154 L700.129486,1212.5" id="Polygon-1"></path>
                <path d="M174.870514,302.884615 L0,403.846154" id="Polygon-1"></path>
                <path d="M524.870514,302.884615 L350,403.846154 L175.129486,302.884615" id="Polygon-1"></path>
                <path d="M349.870514,403.846154 L349.870514,606.730769 M175,707.692308 L0.129485774,606.730769 L0.129485774,403.846154" id="Polygon-1"></path>
                <path d="M525,302.884615 L699.870514,403.846154" id="Polygon-1"></path>
                <path d="M1017.30769,623.533088 L909.615385,685.70927 L909.615385,675.316974 C909.615385,670.884056 906.029507,667.307692 901.606103,667.307692 L848.393897,667.307692 C843.960979,667.307692 840.384615,670.89357 840.384615,675.316974 L840.384615,685.858788 L700,604.807692 L700,402.884615 L874.870514,301.923077 L1049.74103,402.884615 L1049.74103,571.153846 L1025.31697,571.153846 C1020.88406,571.153846 1017.30769,574.739724 1017.30769,579.163127 L1017.30769,623.533088 Z" id="Polygon-1"></path>
                <path d="M1188.46154,684.67374 L1086.53846,625.828424 L1086.53846,579.163127 C1086.53846,574.73021 1082.95258,571.153846 1078.52918,571.153846 L1050.12949,571.153846 L1050.12949,402.884615 L1225,301.923077 L1399.87051,402.884615 L1399.87051,604.807692 L1257.69231,686.894318 L1257.69231,669.547743 C1257.69231,665.114826 1254.10643,661.538462 1249.68303,661.538462 L1196.47082,661.538462 C1192.0379,661.538462 1188.46154,665.124339 1188.46154,669.547743 L1188.46154,684.67374 Z" id="Polygon-1"></path>
                <path d="M1210.48243,730.769231 L1224.87051,730.769231 L1224.87051,730.769231 L1224.87051,908.653846 L1050,1009.61538" id="Polygon-1"></path>
            </g>
            <g id="Shape-+-%-copy" transform="translate(1184.615385, 657.692308)" filter="url(#filter-1)" fill="#FFFFFF" sketch:type="MSShapeGroup">
                <g id="Group-4">
                    <path d="M0,7.99639456 C0,3.58010779 3.5813946,0 7.99639456,0 L68.9266824,0 C73.3429691,0 76.9230769,3.5813946 76.9230769,7.99639456 L76.9230769,68.9266824 C76.9230769,73.3429691 73.3416823,76.9230769 68.9266824,76.9230769 L7.99639456,76.9230769 C3.58010779,76.9230769 0,73.3416823 0,68.9266824 L0,7.99639456 Z M17.3076923,40.256226 C17.3646384,41.0566509 18.1049379,41.7268505 18.9218434,41.7268505 C19.719089,41.7268505 20.4790485,41.0559932 20.5170125,40.256226 C20.5170125,30.3670003 28.6636964,22.3962949 38.747226,22.3962949 C45.5265252,22.3962949 51.6787392,26.0649635 54.8311133,31.8566981 L50.9594556,31.8566981 C50.1045859,31.8382824 49.3263224,32.5828025 49.3263224,33.4207164 C49.3263224,34.2586303 50.1045859,35.0228814 50.9594556,35.0038081 L58.5719306,35.0038081 C59.4071403,35.0038081 60.1860818,34.2586303 60.1860818,33.4207164 L60.1860818,25.9340805 C60.2043859,25.0961666 59.3579502,24.3325732 58.5529486,24.3325732 C57.7479469,24.3325732 56.9577795,25.1145823 56.9577795,25.9340805 L56.9577795,29.1758997 C53.102392,23.0671522 46.2471647,19.2307692 38.7465481,19.2307692 C26.9159931,19.2307692 17.3076923,28.6727568 17.3076923,40.256226 Z M56.9574417,39.9331817 C56.9574417,49.8217497 48.8297399,57.8121862 38.7468882,57.8121862 C31.948607,57.8121862 25.7957151,54.1244442 22.6630009,48.3511253 L26.5346587,48.3511253 C27.3705463,48.3511253 28.1677919,47.6059475 28.1677919,46.7686913 C28.1677919,45.9301197 27.3705463,45.1849419 26.5346587,45.1849419 L18.9221836,45.1849419 C18.067314,45.1849419 17.3080325,45.9491931 17.3080325,46.7686913 L17.3080325,54.2553272 C17.2890504,55.0938988 18.067314,55.8765656 18.9411656,55.8574922 C19.7763753,55.8574922 20.5363347,55.0945565 20.5173527,54.2553272 L20.5173527,51.0141656 C24.3910443,57.1222555 31.2462716,60.9592962 38.7468882,60.9592962 C50.5584612,60.9592962 60.185744,51.5357243 60.185744,39.9331817 C60.1287979,39.1320991 59.3688384,38.4434838 58.5526108,38.4618995 C57.7546873,38.4618995 57.0143878,39.1505148 56.9574417,39.9331817 Z" id="Mask"></path>
                </g>
            </g>
            <g id="Shape-+-%-copy" transform="translate(1011.538462, 569.230769)" filter="url(#filter-2)" fill="#FFFFFF" sketch:type="MSShapeGroup">
                <g id="Group-4">
                    <path d="M0,7.99639456 C0,3.58010779 3.5813946,0 7.99639456,0 L68.9266824,0 C73.3429691,0 76.9230769,3.5813946 76.9230769,7.99639456 L76.9230769,68.9266824 C76.9230769,73.3429691 73.3416823,76.9230769 68.9266824,76.9230769 L7.99639456,76.9230769 C3.58010779,76.9230769 0,73.3416823 0,68.9266824 L0,7.99639456 Z M14.7765152,43.1983564 C14.7765152,50.2852443 20.5329521,56.0815969 27.581274,56.0815969 L53.0472937,56.0815969 C58.5676544,56.0815969 63.0224947,51.5958663 63.0224947,46.0475346 C63.0224947,41.714777 60.2539752,37.5135701 56.3860253,36.1033945 L57.3633792,37.5 L57.3633792,34.6508218 C57.3633792,25.9683941 50.3619369,18.9184031 41.7290627,18.9184031 C34.2067313,18.9184031 27.5710101,24.286313 26.123716,31.5096 L27.581274,30.3151159 C20.5329521,30.3151159 14.7765152,36.1114684 14.7765152,43.1983564 Z" id="Mask"></path>
                </g>
            </g>
            <g id="Shape-+-%-copy" transform="translate(836.538462, 663.461538)" filter="url(#filter-3)" fill="#FFFFFF" sketch:type="MSShapeGroup">
                <g id="Group-4">
                    <path d="M0,7.99639456 C0,3.58010779 3.5813946,0 7.99639456,0 L68.9266824,0 C73.3429691,0 76.9230769,3.5813946 76.9230769,7.99639456 L76.9230769,68.9266824 C76.9230769,73.3429691 73.3416823,76.9230769 68.9266824,76.9230769 L7.99639456,76.9230769 C3.58010779,76.9230769 0,73.3416823 0,68.9266824 L0,7.99639456 Z M48.2474364,15.9616413 L25.9913238,15.9616413 C22.2439776,15.9616413 19.2040076,18.9888926 19.2040076,22.7267366 L19.2040076,54.1968166 C19.2040076,57.9339462 22.2442167,60.9614356 25.9913238,60.9614356 L52.3303545,60.9614356 C56.0767928,60.9614356 59.1176706,57.9336601 59.1176706,54.1968166 L59.1176706,27.8255391 L59.1176706,27.2405167 L58.7253673,26.8065245 L49.3747387,16.4622323 L48.9222341,15.9616413 L48.2474364,15.9616413 Z M45.8935502,30.8561977 C45.5108554,30.8561977 45.20062,30.5402394 45.20062,30.1511865 L45.20062,22.3823165 C45.20062,21.9929496 45.5193825,21.6773053 45.9052842,21.6773053 L45.8127639,21.6773053 C46.2019392,21.6773053 46.5174281,21.9954753 46.5174281,22.3755163 L46.5174281,28.8468523 C46.5174281,29.2324637 46.8369942,29.5450634 47.218703,29.5450634 L53.7184363,29.5450634 C54.1057398,29.5450634 54.4197113,29.8624524 54.4197113,30.2466914 L54.4197113,30.1545697 C54.4197113,30.5420681 54.1129756,30.8561977 53.726781,30.8561977 L45.8935502,30.8561977 Z" id="Mask"></path>
                </g>
            </g>
            <g id="logo-icon-white" transform="translate(1009.615385, 753.846154)" fill="#FFFFFF" sketch:type="MSShapeGroup">
                <g id="Page-1">
                    <g id="assets-icon-256x256">
                        <g id="Group">
                            <g id="Shape">
                                <path d="M15.3846154,48.636109 C15.3846154,54.2765123 20.5621302,58.8284167 26.9723866,58.8284167 C33.3333333,58.8284167 38.5601578,54.2765123 38.5601578,48.636109 C38.5601578,42.9957058 33.382643,38.4438013 26.9723866,38.4438013 C20.6114398,38.4438013 15.3846154,42.9957058 15.3846154,48.636109 L15.3846154,48.636109 L15.3846154,48.636109 Z M21.7948718,48.636109 C21.7948718,46.1127707 24.112426,44.0842046 26.9723866,44.0842046 C29.8323471,44.0842046 32.1499014,46.1127707 32.1499014,48.636109 C32.1499014,51.1594473 29.8323471,53.1880134 26.9723866,53.1880134 C24.112426,53.1880134 21.7948718,51.1594473 21.7948718,48.636109 L21.7948718,48.636109 L21.7948718,48.636109 Z"></path>
                                <path d="M38.4122288,74.1663555 C38.4122288,79.8067588 43.5897436,84.3586632 50,84.3586632 C56.3609467,84.3586632 61.5877712,79.8067588 61.5877712,74.1663555 C61.5877712,68.5259522 56.4102564,63.9740478 50,63.9740478 C43.5897436,63.9740478 38.4122288,68.5259522 38.4122288,74.1663555 L38.4122288,74.1663555 L38.4122288,74.1663555 Z M44.7731755,74.1663555 C44.7731755,71.6430172 47.0907298,69.5649739 49.9506903,69.5649739 C52.8106509,69.5649739 55.1282051,71.6430172 55.1282051,74.1663555 C55.1282051,76.6896938 52.8106509,78.7182599 49.9506903,78.7182599 C47.0907298,78.7677371 44.7731755,76.6896938 44.7731755,74.1663555 L44.7731755,74.1663555 L44.7731755,74.1663555 Z"></path>
                                <path d="M76.1341223,34.7330097 C76.1341223,32.1601942 72.7317554,31.1706497 70.6607495,32.7539208 C49.5069034,49.0319268 28.3037475,65.2604556 7.14990138,81.5384615 L7.14990138,58.432599 L7.14990138,41.3134802 C7.14990138,38.0479836 7.3964497,35.3267364 10.2564103,32.9518297 C11.1932939,32.1601942 12.5739645,31.665422 13.8067061,31.2696042 C14.1518738,31.1706497 16.765286,30.7253547 15.433925,30.8737864 C15.5325444,30.8737864 15.6311637,30.8243092 15.7790927,30.8243092 C21.9428008,32.8528753 30.3747535,33.7929425 38.4122288,33.7929425 C53.8954635,33.7929425 70.5621302,30.2305825 70.5621302,22.4626587 L70.5621302,11.7261016 C70.5621302,3.95817774 53.8954635,0.395817774 38.4122288,0.395817774 C22.9289941,0.395817774 6.26232742,3.95817774 6.26232742,11.7261016 L6.26232742,22.4131815 C6.26232742,24.1943615 7.14990138,25.7776326 8.72781065,27.1629948 C6.50887574,28.3009709 4.53648915,29.8347647 2.95857988,31.8138536 C-0.936883629,36.7615758 0.73964497,45.4200896 0.73964497,51.1099701 L0.73964497,87.7231143 C0.73964497,90.2959298 4.14201183,91.2854742 6.21301775,89.7022031 C27.3668639,73.4241972 48.5700197,57.1956684 69.7238659,40.9176624 L69.7238659,76.5907394 C69.7238659,79.410941 70.2169625,82.6269604 69.2307692,85.3482076 C67.800789,89.3063854 62.1794872,91.8792009 58.234714,93.2645631 C44.4280079,98.1133308 27.7120316,97.5196042 14.4970414,91.5823376 C10.8974359,89.9495892 7.79092702,95.0952203 11.2919132,96.4311053 C25.9368836,102.022031 39.2011834,102.714712 55.2268245,100.042942 C63.3629191,98.7070575 75.6410256,92.8192681 76.0848126,83.9133682 C76.9230769,67.585885 76.183432,51.0604929 76.1341223,34.7330097 L76.1341223,34.7330097 L76.1341223,34.7330097 Z M38.4615385,6.03622106 C55.3747535,6.03622106 64.2504931,10.2912621 64.2504931,11.7261016 C64.2504931,13.2104182 55.3747535,17.4159821 38.4615385,17.4159821 C21.5483235,17.4159821 12.6725838,13.160941 12.6725838,11.7261016 C12.6725838,10.2417849 21.5483235,6.03622106 38.4615385,6.03622106 L38.4615385,6.03622106 L38.4615385,6.03622106 Z M12.6725838,18.8508215 C18.9349112,21.7205004 28.8954635,23.0563854 38.4615385,23.0563854 C47.9783037,23.0563854 57.9881657,21.7205004 64.2504931,18.8508215 L64.2504931,22.3637043 C64.2504931,23.8480209 55.3747535,28.0535848 38.4615385,28.0535848 C21.5483235,28.0535848 12.6725838,23.7985437 12.6725838,22.3637043 L12.6725838,18.8508215 L12.6725838,18.8508215 L12.6725838,18.8508215 Z"></path>
                            </g>
                        </g>
                    </g>
                </g>
            </g>
        </g>
    </g>
</svg>