<?xml version="1.0" encoding="UTF-8"?>
<svg width="1440px" height="737px" viewBox="0 0 1440 737" version="1.1" xmlns="http://www.w3.org/2000/svg" xmlns:xlink="http://www.w3.org/1999/xlink">
    <!-- Generator: Sketch 48.1 (47250) - http://www.bohemiancoding.com/sketch -->
    <title>logo-float</title>
    <desc>Created with Sketch.</desc>
    <defs></defs>
    <g id="Desktop-HD" stroke="none" stroke-width="1" fill="none" fill-rule="evenodd" opacity="0.31884058">
        <g id="logo-float" transform="translate(664.739839, 278.254108) rotate(11.000000) translate(-664.739839, -278.254108) translate(-248.760161, -78.245892)" fill="#FFFFFF">
            <g id="Group" opacity="0.25">
                <g opacity="0.8" transform="translate(495.286638, 135.992577)" id="Shape">
                    <path d="M106.997984,256.0076 C117.66954,276.941447 145.505191,284.046759 169.312455,271.927976 C192.926603,259.901821 203.725615,233.124714 193.046335,212.194726 C182.374779,191.260879 154.539128,184.155567 130.731864,196.27435 C107.117716,208.304365 96.3187035,235.077613 106.997984,256.01146 L106.997984,256.0076 Z M130.797523,243.888817 C126.023711,234.525707 130.789799,222.615336 141.411145,217.208197 C152.032491,211.804918 164.469121,214.946539 169.250658,224.30965 C174.02447,233.67662 169.258382,245.586991 158.637037,250.994129 C148.015691,256.397408 135.57906,253.251928 130.797523,243.884958 L130.797523,243.888817 Z M240.815355,307.222967 C251.490773,328.156814 279.330286,335.262126 303.133688,323.143343 C326.751699,311.117187 337.546849,284.34008 326.871431,263.410093 C316.196012,242.476246 288.364224,235.370934 264.55696,247.489717 C240.749696,259.6085 230.143799,286.29298 240.811493,307.226827 L240.815355,307.222967 Z M264.437228,295.196812 C259.659554,285.833701 264.332946,273.738075 274.954292,268.334796 C285.575638,262.923798 298.116551,266.250674 302.890363,275.621503 C307.664175,284.984614 302.898087,296.894985 292.280604,302.302124 C281.751953,307.898377 269.214903,304.563782 264.441091,295.200671 L264.437228,295.196812 Z"></path>
                    <path d="M306.262157,89.5557293 C301.39565,80.0073633 286.88496,82.7630356 282.192256,92.5584087 C234.454135,192.966772 186.42634,293.282507 138.684355,393.687011 L94.9553089,307.936972 L62.5582728,244.402129 C56.3785807,232.283346 52.1454916,221.719935 58.2711114,207.497733 C60.2486129,202.789161 64.4392166,198.343034 68.2744881,194.541442 C69.3636588,193.526397 78.2237924,186.938256 73.5658495,190.002687 C73.9289064,189.809713 74.1992679,189.443062 74.7515779,189.165179 C101.478746,185.03553 134.563273,172.588691 164.411186,157.393898 C221.909359,128.111985 277.055387,83.3805532 262.359307,54.5501999 L242.043569,14.7048763 C227.339764,-14.1254771 158.714283,4.16848207 101.223834,33.4349572 C43.7295233,62.7052918 -11.4165045,107.436724 3.28343823,136.267077 L23.5064808,175.927145 C26.8782753,182.538443 33.1699744,186.733703 41.6516019,188.895015 C35.5646051,197.308692 31.1461252,206.737414 29.0295806,217.069256 C23.9313346,242.792724 46.537421,271.758159 57.3016722,292.869542 L126.59147,428.762011 C131.457978,438.306517 145.968668,435.546985 150.661371,425.751612 C198.407218,325.347109 246.427288,225.031373 294.169272,124.62687 L361.682409,257.018786 C367.012393,267.489568 374.930124,278.49296 376.420975,290.457364 C378.599316,307.852063 362.593914,328.029451 350.57055,340.63067 C308.479122,384.725286 245.284045,414.126843 184.977974,417.07549 C168.524544,417.82423 166.724709,442.795098 182.255047,441.13166 C247.219061,434.196166 297.776668,411.683789 352.22748,371.475674 C379.912501,351.136188 414.360422,306.068981 399.154517,272.178843 C371.369076,210.002539 337.349871,150.064736 306.26602,89.5595888 L306.262157,89.5557293 Z M112.065332,54.2800359 C174.866453,22.3003428 215.88416,21.3123147 218.5955,26.638404 C221.403397,32.1458892 196.40268,64.5385472 133.601559,96.5105213 C70.8004372,128.486355 29.7904552,129.470524 27.0791153,124.144434 C24.2596308,118.640809 49.2642101,86.2520101 112.065332,54.2761765 L112.065332,54.2800359 Z M40.5585688,150.593485 C69.2439273,149.404764 108.759196,135.529915 144.276977,117.440509 C179.617091,99.4553084 214.26199,75.565096 232.078815,53.0797361 L238.721984,66.1132171 C241.541469,71.6207023 216.53689,104.01336 153.735768,135.985334 C90.9346467,167.965028 49.9246647,168.956915 47.2133248,163.630826 L40.5585688,150.593485 Z"></path>
                </g>
                <g opacity="0.8" transform="translate(1176.875307, 0.000000)" id="Shape">
                    <path d="M171.576244,413.582418 C188.833034,447.418523 233.836642,458.904351 272.31295,439.313605 C310.487999,419.873378 327.937904,376.589254 310.684976,342.749289 C293.428186,308.909324 248.424578,297.423496 209.94827,317.014242 C171.769359,336.450609 154.319453,379.730874 171.572381,413.578558 L171.576244,413.582418 Z M210.052552,393.987812 C202.327937,378.847052 210.037103,359.5998 227.201198,350.854207 C244.369155,342.116333 264.487915,347.203134 272.204806,362.340035 C279.929421,377.480795 272.220255,396.728047 255.05616,405.47364 C237.88434,414.207654 217.769443,409.120853 210.04869,393.983953 L210.052552,393.987812 Z M387.90023,496.368372 C405.153158,530.208337 450.160628,541.694165 488.629212,522.103418 C526.815847,502.663192 544.26189,459.379067 527.008962,425.539103 C509.756034,391.702997 464.748564,380.21717 426.27998,399.807916 C387.795947,419.402521 370.643439,462.532267 387.90023,496.372232 L387.90023,496.368372 Z M426.07914,476.928146 C418.366112,461.791246 425.916923,442.239094 443.084881,433.50122 C460.252838,424.763346 480.518366,430.143468 488.235256,445.284228 C495.959871,460.424988 488.254568,479.67224 471.086611,488.417833 C454.069283,497.449028 433.803755,492.068906 426.083002,476.928146 L426.07914,476.928146 Z"></path>
                    <path d="M493.692697,144.506839 C485.821314,129.068899 462.369382,133.534323 454.78381,149.362071 C377.603318,311.668856 299.982522,473.828979 222.798167,636.139623 L152.117938,497.518499 L99.7450471,394.817602 C89.7532574,375.222996 82.905386,358.140915 92.812205,335.149963 C96.0179203,327.546777 102.788546,320.352697 108.975962,314.212256 C110.744899,312.564256 125.070198,301.900499 117.530974,306.863797 C118.125769,306.555038 118.566072,305.960677 119.454403,305.512977 C162.654313,298.836068 216.143411,278.712713 264.387495,254.143231 C357.326203,206.825944 446.468262,134.518492 422.703483,87.9152099 L389.862282,23.5004045 C366.097503,-23.099018 255.160442,6.46463746 162.217872,53.7819242 C69.2907518,101.099211 -19.8590321,173.410523 3.90188423,220.009945 L36.6001803,284.13143 C42.046034,294.822203 52.2232145,301.603319 65.9305442,305.088434 C56.0932467,318.700837 48.9479777,333.930365 45.5298355,350.630357 C37.2838087,392.216309 73.8328255,439.035722 91.2402458,473.169008 L203.247166,692.831599 C211.110824,708.269539 234.562756,703.804115 242.148328,687.976367 C319.324958,525.669583 396.949616,363.509459 474.130109,201.198815 L583.25961,415.21498 C591.884143,432.134962 604.68383,449.923329 607.090048,469.263209 C610.612472,497.379557 584.742736,529.996065 565.29988,550.362568 C497.261469,621.647257 395.107296,669.176815 297.622652,673.943279 C271.019077,675.147439 268.114622,715.509933 293.219621,712.827591 C398.224178,701.611928 479.962193,665.232421 567.984183,600.227115 C612.732879,567.344302 668.41963,494.496522 643.839905,439.711132 C598.921267,339.194703 543.929732,242.31005 493.688835,144.506839 L493.692697,144.506839 Z M179.775923,87.4752286 C281.296678,35.7851454 347.593188,34.1873186 351.980769,42.7978297 C356.522843,51.6978022 316.111518,104.055576 214.590763,155.74566 C113.070008,207.435743 46.7734985,209.03357 42.3859171,200.423059 C37.8477057,191.523086 78.2551677,139.165312 179.775923,87.4752286 Z M64.1770565,243.166856 C110.547921,241.248691 174.422764,218.821224 231.839829,189.585625 C288.963358,160.500545 344.966818,121.890257 373.779633,85.5416266 L384.516848,106.614415 C389.062784,115.522106 348.65146,167.879881 247.134567,219.566104 C145.60995,271.256188 79.3173023,272.854014 74.9297208,264.247363 L64.1809188,243.174574 L64.1770565,243.166856 Z"></path>
                </g>
                <g opacity="0.4" transform="translate(0.000000, 27.926996)" id="Shape">
                    <path d="M93.7036829,225.120142 C103.073641,243.499009 127.514324,249.735937 148.409408,239.091478 C169.149999,228.539645 178.62424,205.031522 169.254282,186.656514 C159.884323,168.273786 135.443641,162.032999 114.548557,172.673599 C93.8079652,183.23315 84.3337247,206.741274 93.7075452,225.116282 L93.7036829,225.120142 Z M114.598767,214.479541 C110.408163,206.258838 114.591042,195.799634 123.914653,191.052467 C133.234401,186.3053 144.153145,189.072551 148.351473,197.293254 C152.542077,205.513958 148.359198,215.973162 139.035587,220.720329 C129.711977,225.467495 118.785508,222.704104 114.594905,214.479541 L114.598767,214.479541 Z M211.183493,270.083142 C220.553451,288.46201 244.994134,294.698938 265.889218,284.054478 C286.629809,273.502646 296.10405,249.994523 286.734092,231.615655 C277.360271,213.244506 252.919589,207.003719 232.024505,217.644319 C211.129421,228.28106 201.813535,251.704275 211.183493,270.083142 Z M231.924085,259.527451 C227.725756,251.306748 231.831389,240.685445 241.155,235.938278 C250.474748,231.191112 261.482325,234.116601 265.680653,242.337304 C269.867394,250.558008 265.680653,261.017212 256.360905,265.764379 C247.122265,270.665925 236.114688,267.748154 231.924085,259.527451 Z"></path>
                    <path d="M268.639181,78.9923187 C264.363606,70.6095172 251.629578,73.0332738 247.512358,81.628347 C205.590872,169.778986 163.429922,257.844715 121.523884,345.991494 L83.132547,270.708379 L54.6943762,214.931101 C49.267834,204.290501 45.5522941,195.016158 50.9286263,182.530724 C52.6666647,178.401075 56.3474438,174.491417 59.7076515,171.156822 C60.6732284,170.261421 68.4480535,164.472194 64.3540075,167.166114 C64.674579,167.000156 64.9140421,166.6721 65.3968305,166.432812 C88.8603492,162.804896 117.908765,151.874834 144.110659,138.536454 C194.583295,112.832284 242.993458,73.5658827 230.085626,48.2553798 L212.253352,13.2768668 C199.353245,-12.0336362 139.101246,4.02182164 88.6286107,29.7182731 C38.1521128,55.426303 -10.2580506,94.6888444 2.6497814,120.007066 L20.4009471,154.819621 C23.3594747,160.624287 28.8825746,164.313955 36.3291036,166.205102 C30.9836699,173.596016 27.0981885,181.866893 25.2442808,190.936683 C20.764004,213.522389 40.616265,238.948677 50.071194,257.489643 L110.902539,376.786326 C115.174251,385.161408 127.908279,382.741511 132.029361,374.146438 C173.943123,285.995799 216.104073,197.930069 258.017835,109.779431 L317.281082,226.011683 C321.966062,235.197257 328.918215,244.861408 330.219813,255.363066 C332.13938,270.638908 318.092167,288.350085 307.532618,299.411369 C270.578059,338.122004 215.099873,363.941959 162.15536,366.527814 C147.71033,367.183927 146.134508,389.105802 159.76073,387.639198 C216.795426,381.55279 261.184927,361.796086 308.988708,326.489516 C333.29421,308.62782 363.536078,269.060379 350.184081,239.311468 C325.789746,184.719052 295.926384,132.106552 268.639181,78.9884592 L268.639181,78.9923187 Z M98.1569235,48.0199512 C153.291364,19.9460569 189.291933,19.0815323 191.67884,23.7553687 C194.142992,28.5951629 172.19736,57.0241298 117.059057,85.1018835 C61.9284783,113.168059 25.9317716,114.036443 23.5448655,109.362607 C21.0845755,104.526672 43.0302073,76.0938454 98.1646481,48.0199512 L98.1569235,48.0199512 Z M35.3789759,132.581269 C60.5612214,131.531489 95.2447436,119.350954 126.432877,103.473032 C157.458794,87.6800196 187.870604,66.7114373 203.516812,46.9701713 L209.348897,58.4135444 C211.820774,63.2533387 189.87128,91.6900245 134.736839,119.760059 C79.6023979,147.833954 43.6018288,148.698478 41.218785,144.024642 L35.3867005,132.581269 L35.3789759,132.581269 Z"></path>
                </g>
                <g opacity="0.2" transform="translate(892.193054, 108.065581)" id="Shape">
                    <path d="M55.030397,132.28771 C60.530323,143.071111 74.8710711,146.729903 87.1338977,140.485256 C99.3001666,134.290782 104.86189,120.493123 99.3619635,109.713581 C93.8620375,98.9301803 79.5212894,95.2713884 67.2584628,101.516035 C55.0921939,107.710509 49.530471,121.508168 55.030397,132.28771 Z M67.2932236,126.043063 C64.8290713,121.218706 67.285499,115.082125 72.7545265,112.303296 C78.2274164,109.512888 84.6349847,111.133872 87.0952746,115.958228 C89.5555645,120.782585 87.0952746,126.919166 81.6301093,129.697995 C76.1610818,132.488403 69.7496512,130.867419 67.2893613,126.043063 L67.2932236,126.043063 Z M123.968725,158.66343 C129.464789,169.454551 143.805537,173.113342 156.064501,166.868696 C168.23077,160.674222 173.792493,146.876563 168.296429,136.097021 C162.800366,125.31362 148.459618,121.654828 136.200653,127.895616 C123.933964,134.140262 118.472661,147.887748 123.968725,158.66729 L123.968725,158.66343 Z M136.134994,152.472816 C133.674704,147.64846 136.080922,141.419251 141.553812,138.632703 C147.022839,135.853874 153.480617,137.563626 155.940907,142.387982 C158.40506,147.212338 155.948632,153.348919 150.479604,156.135468 C145.056925,159.014643 138.599146,157.293313 136.138856,152.468957 L136.134994,152.472816 Z"></path>
                    <path d="M157.675084,46.5453897 C155.172308,41.6206868 147.698743,43.0448367 145.277076,48.0891837 C120.685764,99.8062834 95.9476836,151.484788 71.3525088,203.209607 L48.8352556,159.033941 L32.1423622,126.305508 C28.9559584,120.06472 26.7737546,114.618987 29.9331222,107.293684 C30.9527714,104.869928 33.1118014,102.577394 35.0815782,100.616775 C35.6416128,100.095745 40.2068604,96.6993979 37.8045051,98.2779273 C37.9976205,98.1814402 38.1366636,97.9923254 38.4224743,97.8533839 C52.1838763,95.7229482 69.232102,89.308484 84.6040862,81.4814484 C114.220261,66.4024403 142.627533,43.357455 135.05741,28.5061566 L124.590557,7.98141508 C117.020434,-6.86988339 81.6648701,2.55111962 52.0486955,17.6301277 C22.4325209,32.7091358 -5.97475145,55.754121 1.59537143,70.6054195 L12.0158773,91.0375333 C13.7539157,94.4415991 16.9905295,96.6029108 21.3626617,97.7144425 C18.2264679,102.052504 15.9477064,106.900017 14.8585357,112.226106 C12.2321665,125.479578 23.8770239,140.400347 29.4271599,151.284095 L65.1148821,221.275856 C67.625382,226.1967 75.0989472,224.776409 77.5128895,219.732062 C102.115789,168.007244 126.850007,116.336458 151.445181,64.6077797 L186.221399,132.804881 C188.963637,138.200441 193.046096,143.870024 193.814696,150.033622 C194.934765,158.987627 186.6926,169.38508 180.497459,175.876734 C158.814464,198.593663 126.262936,213.738282 95.1945336,215.258919 C86.7167684,215.644868 85.7936769,228.504672 93.792516,227.647866 C127.259411,224.073983 153.310676,212.48009 181.351029,191.766234 C195.618393,181.287732 213.361834,158.072929 205.529075,140.612619 C191.215363,108.578893 173.692073,77.7030125 157.675084,46.5415302 L157.675084,46.5453897 Z M57.6413169,28.3672151 C89.9958676,11.8949329 111.12269,11.3854809 112.524708,14.1257153 C113.969211,16.9662963 101.092277,33.6547096 68.7377266,50.1231323 C36.3870382,66.5954145 15.2602157,67.1048665 13.8620603,64.3646322 C12.413695,61.5240512 25.2944908,44.8356378 57.6451792,28.3672151 L57.6413169,28.3672151 Z M20.8064894,77.9808954 C35.5836782,77.3710968 55.9380392,70.2233305 74.2376526,60.9065336 C92.4407083,51.6437694 110.284569,39.3397311 119.465275,27.753557 L122.891141,34.469061 C124.339507,37.3057825 111.458711,53.9903363 79.1080225,70.4626185 C46.7573341,86.9349007 25.6305116,87.4443528 24.2323562,84.7041184 L20.8064894,77.9886144 L20.8064894,77.9808954 Z"></path>
                </g>
                <g opacity="0.9" transform="translate(953.078709, 420.683870)" id="Shape">
                    <path d="M55.3854909,132.28771 C60.8892792,143.071111 75.2300273,146.729903 87.4928539,140.485256 C99.6591228,134.290782 105.220846,120.493123 99.7209197,109.713581 C94.2171314,98.9301803 79.8763833,95.2713884 67.617419,101.516035 C55.4511501,107.710509 49.8894272,121.500449 55.3854909,132.28771 Z M67.6521798,126.043063 C65.1918898,121.218706 67.6521798,115.082125 73.117345,112.303296 C78.5940972,109.512888 85.0055278,111.133872 87.4619554,115.958228 C89.9222454,120.782585 87.46968,126.919166 81.9967902,129.697995 C76.5239003,132.488403 70.1124697,130.867419 67.6521798,126.043063 Z M124.327681,158.66343 C129.823745,169.454551 144.164493,173.113342 156.423457,166.868696 C168.589726,160.674222 174.151449,146.876563 168.655386,136.097021 C163.159322,125.31362 148.818574,121.654828 136.55961,127.895616 C124.292921,134.140262 118.831618,147.887748 124.327681,158.66729 L124.327681,158.66343 Z M136.49395,152.472816 C134.03366,147.64846 136.439878,141.419251 141.912768,138.632703 C147.381795,135.853874 153.839574,137.563626 156.299864,142.387982 C158.760154,147.212338 156.299864,153.348919 150.834698,156.135468 C145.412019,159.014643 138.95424,157.293313 136.49395,152.468957 L136.49395,152.472816 Z"></path>
                    <path d="M158.045627,46.5453897 C155.535127,41.6206868 148.057699,43.0448367 145.639895,48.0891837 C121.04472,99.8062834 96.3105021,151.484788 71.7153274,203.209607 L49.1903495,159.033941 L32.5051807,126.305508 C29.3187769,120.06472 27.1365731,114.618987 30.2920784,107.293684 C31.3117276,104.869928 33.4707576,102.577394 35.4443968,100.616775 C36.0082937,100.095745 40.5696789,96.6993979 38.1711859,98.2779273 C38.3565767,98.1814402 38.4994821,97.9923254 38.7814305,97.8533839 C52.5544194,95.7229482 69.6026451,89.308484 84.9746293,81.4814484 C114.590804,66.4024403 142.998076,43.357455 135.424091,28.5061566 L124.957238,7.98141508 C117.387115,-6.86988339 82.0315509,2.55111962 52.4153763,17.6301277 C22.7992017,32.7091358 -5.60807062,55.754121 1.96205226,70.6054195 L12.3825581,91.0375333 C14.1205966,94.4415991 17.3649349,96.6029108 21.7293425,97.7144425 C18.5931487,102.052504 16.3143873,106.900017 15.2252165,112.226106 C12.5988474,125.479578 24.2514294,140.400347 29.7977031,151.284095 L65.4854252,221.275856 C67.9959252,226.1967 75.4694903,224.776409 77.8834326,219.732062 C102.486332,168.007244 127.22055,116.336458 151.815725,64.6077797 L186.591942,132.804881 C189.33418,138.200441 193.41664,143.870024 194.181376,150.033622 C195.301446,158.987627 187.059281,169.38508 180.86414,175.876734 C159.181145,198.593663 126.629617,213.738282 95.5612144,215.258919 C87.0911739,215.644868 86.1642201,228.504672 94.1630591,227.647866 C127.626092,224.073983 153.673494,212.48009 181.721572,191.766234 C195.985074,181.287732 213.728515,158.072929 205.899618,140.612619 C191.582043,108.578893 174.058754,77.7030125 158.045627,46.5415302 L158.045627,46.5453897 Z M58.0041354,28.3672151 C90.3548238,11.8949329 111.481646,11.3854809 112.879802,14.1257153 C114.328167,16.9662963 101.447371,33.6547096 69.0966828,50.1231323 C36.7459944,66.5954145 15.6191719,67.1048665 14.2210166,64.3646322 C12.7726512,61.5240512 25.653447,44.8356378 58.0041354,28.3672151 Z M21.1654456,77.9808954 C35.9426345,77.3710968 56.2969955,70.2233305 74.5966088,60.9065336 C92.7996645,51.6437694 110.643526,39.3397311 119.824231,27.753557 L123.250098,34.469061 C124.702325,37.3057825 111.825392,53.9903363 79.470841,70.4626185 C47.1201526,86.9349007 25.9933301,87.4443528 24.5951747,84.7041184 L21.1693079,77.9886144 L21.1654456,77.9808954 Z"></path>
                </g>
                <g opacity="0.7" transform="translate(281.037188, 378.229535)" id="Shape">
                    <path d="M55.3854909,131.901761 C60.8892792,142.685162 75.2300273,146.343954 87.4928539,140.103167 C99.6591228,133.912553 105.220846,120.118753 99.7209197,109.335352 C94.2171314,98.5519507 79.8763833,94.8892994 67.617419,101.133946 C55.4511501,107.32842 49.8894272,121.126079 55.3854909,131.905621 L55.3854909,131.901761 Z M67.6521798,125.657114 C65.1918898,120.832758 67.6521798,114.696177 73.117345,111.917347 C78.5940972,109.12694 85.0055278,110.747923 87.4619554,115.57228 C89.9222454,120.396636 87.46968,126.533217 81.9967902,129.319766 C76.5239003,132.098595 70.1124697,130.477611 67.6521798,125.653255 L67.6521798,125.657114 Z M124.327681,158.285201 C129.823745,169.068602 144.164493,172.727394 156.423457,166.486607 C168.589726,160.288274 174.151449,146.494474 168.655386,135.714932 C163.159322,124.927672 148.818574,121.26888 136.55961,127.513527 C124.292921,133.750454 118.831618,147.49794 124.327681,158.281341 L124.327681,158.285201 Z M136.49395,152.090727 C134.03366,147.266371 136.439878,141.033303 141.912768,138.250614 C147.381795,135.471785 153.839574,137.185396 156.299864,142.009752 C158.760154,146.834109 156.299864,152.97069 150.834698,155.749519 C145.412019,158.632554 138.95424,156.918943 136.49395,152.094587 L136.49395,152.090727 Z"></path>
                    <path d="M158.045627,46.1594412 C155.535127,41.2347383 148.057699,42.6588882 145.639895,47.7032352 C121.04472,99.4203349 96.3105021,151.09884 71.7153274,202.827518 L49.1903495,158.651852 L32.5051807,125.923419 C29.3187769,119.678772 27.1365731,114.236898 30.2920784,106.907736 C31.3117276,104.483979 33.4707576,102.191445 35.4443968,100.230827 C36.0082937,99.7097962 40.5696789,96.3134494 38.1711859,97.8958383 C38.3565767,97.7993511 38.4994821,97.6063769 38.7814305,97.4635759 C52.5544194,95.3408592 69.6026451,88.9225355 84.9746293,81.0993593 C114.590804,66.0164918 142.998076,42.975366 135.424091,28.1240676 L124.957238,7.59160709 C117.387115,-7.25583189 82.0315509,2.16517111 52.4153763,17.2403197 C22.7992017,32.3231873 -5.60807062,55.372032 1.96205226,70.219471 L12.3825581,90.6515848 C14.1205966,94.0556506 17.3649349,96.2208218 21.7293425,97.328494 C18.5931487,101.666555 16.3143873,106.521787 15.2252165,111.840158 C12.5988474,125.093629 24.2514294,140.014399 29.7977031,150.898146 L65.4854252,220.893767 C67.9959252,225.810751 75.4694903,224.390461 77.8834326,219.349973 C102.486332,167.621295 127.22055,115.94665 151.815725,64.2218312 L186.591942,132.418932 C189.33418,137.814492 193.41664,143.484076 194.181376,149.647673 C195.301446,158.609398 187.059281,169.002991 180.86414,175.490785 C159.181145,198.207714 126.629617,213.352334 95.5612144,214.872971 C87.0911739,215.258919 86.1642201,228.118723 94.1630591,227.261918 C127.626092,223.691894 153.673494,212.094141 181.721572,191.380285 C195.985074,180.901783 213.728515,157.686981 205.899618,140.23053 C191.582043,108.196804 174.058754,77.3209235 158.045627,46.1555817 L158.045627,46.1594412 Z M58.0041354,27.9812666 C90.3548238,11.5089844 111.481646,10.9995324 112.879802,13.7397668 C114.328167,16.5803478 101.447371,33.2687611 69.0966828,49.7371838 C36.7459944,66.209466 15.6191719,66.718918 14.2210166,63.9786837 C12.7726512,61.1381027 25.653447,44.4496893 58.0041354,27.9812666 Z M21.1654456,77.5988064 C35.9426345,76.9812888 56.2969955,69.8412414 74.5966088,60.5205851 C92.7996645,51.2578209 110.643526,38.9537826 119.824231,27.3676085 L123.250098,34.0831125 C124.702325,36.9236935 111.825392,53.6121068 79.470841,70.0805295 C47.1201526,86.5528117 25.9933301,87.0622637 24.5951747,84.3220293 L21.1693079,77.6065254 L21.1654456,77.5988064 Z"></path>
                </g>
            </g>
        </g>
    </g>
</svg>