<svg xmlns="http://www.w3.org/2000/svg" viewBox="0 0 902.78 248.89">
  <g id="b93dcdc6-a670-4c12-8b27-f25f98ffc9fc" data-name="Layer 2">
    <g id="e458cdde-4535-458a-b630-8e4c00382ba7" data-name="Layer 1">
      <polygon points="199.98 0 0 0 0 47.45 72.4 47.45 72.4 246.03 127.93 246.03 127.93 47.45 199.98 47.45 199.98 0" fill="#1a1a1a"/>
      <path d="M549.2.07H501.39V47.42h47.8V167.3c0,22.49-11.25,32-31.63,32a79.73,79.73,0,0,1-15.47-1.76V245c6,1.41,21.09,2.81,28.47,2.81,42.88,0,71.35-25.3,71.35-78.37V0H549.2Z" fill="#1a1a1a"/>
      <path d="M228.71,66.08c-30.25,0-56.92,14.29-69.35,37.71a56.13,56.13,0,0,0-6.48,19.11l-.09.47h0a39.64,39.64,0,0,0-.36,8.43h45.32c1.76-17.22,14.06-27.41,30.93-27.41,19,0,30.93,10.54,30.93,28.11v1.06l-32,3.16C176.61,142,151,161,151,196.12c0,29.52,24.26,52.72,58.7,52.72,19.68,0,39.71-9.84,49.91-25.31V246h49.91V140.94C309.55,91,276.86,66.08,228.71,66.08Zm30.93,105.09v1.4c-.35,20.74-14.06,39.37-37.26,39.37-14.41,0-22.14-7.74-22.14-17.58,0-10.19,8.79-19,26.36-20.73l33-3.87Z" fill="#1a1a1a"/>
      <path d="M690.32,66.08c-30.25,0-56.91,14.29-69.35,37.71a56.13,56.13,0,0,0-6.48,19.11l-.1.52h0a39.64,39.64,0,0,0-.36,8.43h45.36c1.76-17.22,14.06-27.41,30.93-27.41,19,0,30.93,10.54,30.93,28.11v1.06l-32,3.16c-51,5.27-76.62,24.25-76.62,59.4,0,29.52,24.26,52.72,58.7,52.72,19.68,0,39.71-9.84,49.91-25.31v22.5h49.91V140.94C771.16,91,738.47,66.08,690.32,66.08Zm30.93,105.09v1.4c-.35,20.74-14.06,39.37-37.26,39.37-14.41,0-22.14-7.74-22.14-17.58,0-10.19,8.79-19,26.36-20.73l33-3.87Z" fill="#1a1a1a"/>
      <path d="M889.52,66.08c-21.08,0-43.93,14.41-52,33.39V68.89H785.84V246h51.67V182c0-50.26,22.14-67.83,45.34-67.83A61.4,61.4,0,0,1,901.6,117l1.18-49.59A73.74,73.74,0,0,0,889.52,66.08Z" fill="#1a1a1a"/>
      <polygon points="438.33 68.89 405.29 117.15 372.26 68.89 317.08 68.89 377.44 157.84 317.08 246.03 373.31 246.03 405.29 198.89 437.28 246.03 493.51 246.03 433.15 157.84 493.51 68.89 438.33 68.89" fill="#1a1a1a"/>
    </g>
  </g>
</svg>
