<?xml version="1.0" encoding="utf-8"?>
<!-- Generator: Adobe Illustrator 24.2.3, SVG Export Plug-In . SVG Version: 6.00 Build 0)  -->
<svg version="1.1" id="Layer_1" xmlns="http://www.w3.org/2000/svg" xmlns:xlink="http://www.w3.org/1999/xlink" x="0px" y="0px"
	 width="90px" height="80px" viewBox="0 0 90 80" style="enable-background:new 0 0 90 80;" xml:space="preserve">
<style type="text/css">
	.st0{fill:#2D3047;}
</style>
<g>
	<path class="st0" d="M39.1,43.8c-1.1-1.8-2.8-3.2-4.8-4l5.6-21.4H28.7l-7.4,19.9c-1.2,3.2-2,5.5-2.5,7.1c-0.4,1.6-0.6,3.2-0.6,4.9
		c0,0.3,0,0.6,0,0.9c0.3,6.1,5.4,10.8,11.5,10.5c3,0.1,5.9-1.1,8-3.2l0,0c2.2-2.2,3.3-5.2,3.2-8.2C40.9,48,40.3,45.7,39.1,43.8z"/>
	<path class="st0" d="M68.7,43.8c-1.1-1.8-2.8-3.2-4.8-4l5.6-21.4H58.3l-7.4,19.9c-1.2,3.2-2,5.5-2.5,7.1c-0.4,1.6-0.6,3.2-0.6,4.9
		c0,0.3,0,0.6,0,0.9c0.3,6.1,5.4,10.8,11.5,10.5c3,0.1,5.9-1.1,8-3.2l0,0c2.2-2.2,3.3-5.2,3.2-8.2C70.5,48,69.9,45.7,68.7,43.8z"/>
</g>
</svg>
