<svg id="Layer_1" data-name="Layer 1" xmlns="http://www.w3.org/2000/svg" viewBox="0 0 90 80">
  <defs>
    <style>
      .cls-1 {
        fill: #fff;
      }
    </style>
  </defs>
  <title>quote-icon-white</title>
  <g>
    <path class="cls-1" d="M39.1,43.8a9.93,9.93,0,0,0-4.8-4l5.6-21.4H28.7L21.3,38.3c-1.2,3.2-2,5.5-2.5,7.1a19.93,19.93,0,0,0-.6,4.9v.9A11,11,0,0,0,29.7,61.7a10.86,10.86,0,0,0,8-3.2h0a11.07,11.07,0,0,0,3.2-8.2A12.24,12.24,0,0,0,39.1,43.8Z"/>
    <path class="cls-1" d="M68.7,43.8a9.93,9.93,0,0,0-4.8-4l5.6-21.4H58.3L50.9,38.3c-1.2,3.2-2,5.5-2.5,7.1a19.93,19.93,0,0,0-.6,4.9v.9A11,11,0,0,0,59.3,61.7a10.86,10.86,0,0,0,8-3.2h0a11.07,11.07,0,0,0,3.2-8.2A12.24,12.24,0,0,0,68.7,43.8Z"/>
  </g>
</svg>
