<svg id="Layer_1" data-name="Layer 1" xmlns="http://www.w3.org/2000/svg" xmlns:xlink="http://www.w3.org/1999/xlink" viewBox="0 0 195 144"><defs><style>.cls-1{fill:#eae9ea;}.cls-2{fill:none;}.cls-3{fill:#7f7f7f;}.cls-4{clip-path:url(#clip-path);}.cls-5{fill:#c2bfc0;}.cls-6{fill:#3ba735;}.cls-7{fill:#fff;}.cls-8{fill:#343147;}.cls-9{fill:#efefef;}.cls-10{fill:#f4f4f5;}.cls-11{fill:#e9eef4;}.cls-12{clip-path:url(#clip-path-2);}.cls-13{clip-path:url(#clip-path-4);}.cls-14{clip-path:url(#clip-path-7);}.cls-15{fill:#369637;}.cls-16{fill:#232230;}.cls-17{fill:#ebc738;}.cls-18{fill:#cecece;}.cls-19{fill:#ddd;}.cls-20{fill:#d6b32c;}.cls-21{clip-path:url(#clip-path-9);}.cls-22{fill:#a8a8a8;}.cls-23{fill:#3d3d3d;}.cls-24{clip-path:url(#clip-path-10);}.cls-25{fill:#e5e5e5;}</style><clipPath id="clip-path"><path class="cls-1" d="M149.52,104.5H50.78c-3.58,0-6.48-2.59-6.48-5.78V16.94a3,3,0,0,1,3.1-2.77H153.13A2.73,2.73,0,0,1,156,16.73v82C156,101.91,153.1,104.5,149.52,104.5Z"/></clipPath><clipPath id="clip-path-2"><circle class="cls-2" cx="-458.5" cy="75.5" r="62.5" transform="translate(-187.68 -302.1) rotate(-45)"/></clipPath><clipPath id="clip-path-4"><path class="cls-2" d="M35.4,33.24s-24.32,11.5-25.29,37.9S25,108.26,38.28,111c11.67,2.4,26,8.29,38.06,13.6,6.9,3,38.57,20.35,78.88,1.38,23.85-11.23,35-36.45,25.56-62.39-8.39-23.11-33.67-30.36-39.44-31.74S50,25.81,35.4,33.24"/></clipPath><clipPath id="clip-path-7"><rect class="cls-2" x="-14.86" y="-12.18" width="228.86" height="164.17"/></clipPath><clipPath id="clip-path-9"><path class="cls-2" d="M90.56,108.37a1.78,1.78,0,0,0,.55,2.06c1.06.75,18.73,3.08,18.73,3.08l20.74,3a3.07,3.07,0,0,0,1.84-.28l5.15-2.52v-3.14l-9.95-5.21s-7.63-.5-16-.5c-9.55,0-20,.66-21.09,3.46"/></clipPath><clipPath id="clip-path-10"><path class="cls-3" d="M127.29,45.31a5.62,5.62,0,0,1,3.28,1.18,3.3,3.3,0,0,0,2.82,1.06,3.11,3.11,0,0,1,2.9,1c1,1,1.49,1.66,2.46,2s1.37-.13,1.37-.13c.4-2.17,1.79-2,2.29-1.16a8.74,8.74,0,0,1,.73,4.76,1.37,1.37,0,0,1-1,.85,32.26,32.26,0,0,0,1,6.87c.62,2.28,6.27,4.48,6.27,4.48-2,.09-13.42,12.94-13.42,12.94l-1.8-8.4a8.73,8.73,0,0,0,.52-4.89c-.17-1.11-.35-2.08-.35-2.08l-.75.23c-.75.22-2,0-3.62-2.3s-3.22-5.91-3.31-7.77a28.4,28.4,0,0,0-1-5.25,20.11,20.11,0,0,1-.53-4.38A3.85,3.85,0,0,0,127.29,45.31Z"/></clipPath></defs><path class="cls-1" d="M149.52,104.5H50.78c-3.58,0-6.48-2.59-6.48-5.78V16.94a3,3,0,0,1,3.1-2.77H153.13A2.73,2.73,0,0,1,156,16.73v82C156,101.91,153.1,104.5,149.52,104.5Z"/><g class="cls-4"><rect class="cls-5" x="39.75" y="12.26" width="121.49" height="7.39"/></g><circle class="cls-6" cx="47.73" cy="17.01" r="1.06"/><circle class="cls-7" cx="51.83" cy="17.01" r="1.06"/><circle class="cls-8" cx="55.94" cy="17.01" r="1.06"/><rect class="cls-7" x="47" y="22" width="106" height="80"/><rect class="cls-9" x="50.17" y="25.88" width="100.31" height="18.46"/><rect class="cls-10" x="115.96" y="63.94" width="50.59" height="18.46" transform="translate(68.08 214.43) rotate(-90)"/><rect class="cls-10" x="98.43" y="27.01" width="3.94" height="46.5" transform="translate(50.14 150.67) rotate(-90)"/><rect class="cls-10" x="93.99" y="38.3" width="2.38" height="36.04" transform="translate(38.86 151.5) rotate(-90)"/><rect class="cls-11" x="50.17" y="48.29" width="22.69" height="13.31"/><rect class="cls-10" x="98.43" y="43.62" width="3.94" height="46.5" transform="translate(33.53 167.28) rotate(-90)"/><rect class="cls-10" x="92.02" y="57.28" width="1.97" height="31.7" transform="translate(19.88 166.14) rotate(-90)"/><rect class="cls-11" x="50.17" y="64.9" width="22.69" height="13.31"/><rect class="cls-10" x="98.43" y="60.8" width="3.94" height="46.5" transform="translate(16.35 184.46) rotate(-90)"/><rect class="cls-10" x="96.86" y="69.62" width="1.97" height="41.38" transform="translate(7.53 188.16) rotate(-90)"/><rect class="cls-11" x="50.17" y="82.08" width="22.69" height="13.31"/><g class="cls-12"><rect class="cls-2" x="-803.5" y="-267" width="1280" height="1025"/></g><g class="cls-13"><path class="cls-1" d="M149.52,104.5H50.78c-3.58,0-6.48-2.59-6.48-5.78V16.94a3,3,0,0,1,3.1-2.77H153.13A2.73,2.73,0,0,1,156,16.73v82C156,101.91,153.1,104.5,149.52,104.5Z"/><g class="cls-4"><rect class="cls-5" x="39.75" y="12.26" width="121.49" height="7.39"/></g><circle class="cls-6" cx="47.73" cy="17.01" r="1.06"/><circle class="cls-7" cx="51.83" cy="17.01" r="1.06"/><circle class="cls-8" cx="55.94" cy="17.01" r="1.06"/><rect class="cls-7" x="47" y="22" width="106" height="80"/><rect class="cls-9" x="50.17" y="25.88" width="100.31" height="18.46"/><rect class="cls-10" x="115.96" y="63.94" width="50.59" height="18.46" transform="translate(68.08 214.43) rotate(-90)"/><rect class="cls-10" x="98.43" y="27.01" width="3.94" height="46.5" transform="translate(50.14 150.67) rotate(-90)"/><rect class="cls-10" x="93.99" y="38.3" width="2.38" height="36.04" transform="translate(38.86 151.5) rotate(-90)"/><rect class="cls-11" x="50.17" y="48.29" width="22.69" height="13.31"/><rect class="cls-10" x="98.43" y="43.62" width="3.94" height="46.5" transform="translate(33.53 167.28) rotate(-90)"/><rect class="cls-10" x="92.02" y="57.28" width="1.97" height="31.7" transform="translate(19.88 166.14) rotate(-90)"/><rect class="cls-11" x="50.17" y="64.9" width="22.69" height="13.31"/><rect class="cls-10" x="98.43" y="60.8" width="3.94" height="46.5" transform="translate(16.35 184.46) rotate(-90)"/><rect class="cls-10" x="96.86" y="69.62" width="1.97" height="41.38" transform="translate(7.53 188.16) rotate(-90)"/><rect class="cls-11" x="50.17" y="82.08" width="22.69" height="13.31"/><path class="cls-1" d="M149.52,104.5H50.78c-3.58,0-6.48-2.59-6.48-5.78V16.94a3,3,0,0,1,3.1-2.77H153.13A2.73,2.73,0,0,1,156,16.73v82C156,101.91,153.1,104.5,149.52,104.5Z"/><g class="cls-4"><rect class="cls-5" x="39.75" y="12.26" width="121.49" height="7.39"/></g><circle class="cls-6" cx="47.56" cy="17.18" r="0.89"/><circle class="cls-7" cx="51" cy="17.18" r="0.89"/><circle class="cls-8" cx="54.44" cy="17.18" r="0.89"/><g class="cls-14"><path class="cls-9" d="M35.4,33.24s-24.32,11.5-25.29,37.9S25,108.26,38.28,111c11.67,2.4,26,8.29,38.06,13.6,6.9,3,38.57,20.35,78.88,1.38,23.85-11.23,35-36.45,25.56-62.39-8.39-23.11-33.67-30.36-39.44-31.74S50,25.81,35.4,33.24"/><path class="cls-1" d="M149.52,104.5H50.78c-3.58,0-6.48-2.59-6.48-5.78V16.94a3,3,0,0,1,3.1-2.77H153.13A2.73,2.73,0,0,1,156,16.73v82C156,101.91,153.1,104.5,149.52,104.5Z"/><g class="cls-4"><rect class="cls-5" x="39.75" y="12.26" width="121.49" height="7.39"/></g><circle class="cls-6" cx="47.73" cy="17.01" r="1.06"/><circle class="cls-7" cx="51.83" cy="17.01" r="1.06"/><circle class="cls-8" cx="55.94" cy="17.01" r="1.06"/><rect class="cls-7" x="47" y="22" width="106" height="80"/><rect class="cls-9" x="50.17" y="25.88" width="100.31" height="18.46"/><rect class="cls-10" x="115.96" y="63.94" width="50.59" height="18.46" transform="translate(68.08 214.43) rotate(-90)"/><rect class="cls-10" x="98.43" y="27.01" width="3.94" height="46.5" transform="translate(50.14 150.67) rotate(-90)"/><rect class="cls-10" x="93.99" y="38.3" width="2.38" height="36.04" transform="translate(38.86 151.5) rotate(-90)"/><rect class="cls-11" x="50.17" y="48.29" width="22.69" height="13.31"/><rect class="cls-10" x="98.43" y="43.62" width="3.94" height="46.5" transform="translate(33.53 167.28) rotate(-90)"/><rect class="cls-10" x="92.02" y="57.28" width="1.97" height="31.7" transform="translate(19.88 166.14) rotate(-90)"/><rect class="cls-11" x="50.17" y="64.9" width="22.69" height="13.31"/><rect class="cls-10" x="98.43" y="60.8" width="3.94" height="46.5" transform="translate(16.35 184.46) rotate(-90)"/><rect class="cls-10" x="96.86" y="69.62" width="1.97" height="41.38" transform="translate(7.53 188.16) rotate(-90)"/><rect class="cls-11" x="50.17" y="82.08" width="22.69" height="13.31"/><path class="cls-15" d="M39.55,97.21s1.09-6.3,1.31-10.32c.23-4.32-2.57-12.23,2.33-14,4.43-1.58,6.6,6.1,6.6,6.1a34.9,34.9,0,0,0-3.3,2c0,.14,3.78.27,3.85.5A32.46,32.46,0,0,1,49.93,95a27.94,27.94,0,0,1-5.5,10.51L38,104.92Z"/><path class="cls-6" d="M32.27,111a25.39,25.39,0,0,0-5.91-13.2c-5.43-6.46-6.73-12.16-3-15.39s10.24-.21,12.72,4.5c0,0-2.68,5-2.41,5.31s3.92-3.35,3.92-3.35,4,9.68,3.84,16.49-1.23,8-1.23,8Z"/><path class="cls-6" d="M38,111a50.43,50.43,0,0,1,8.11-14.66c5.63-6.92,12.32-11.39,17.24-7.13,4.09,3.54-3.3,11.68-4.74,13.74s-3.09,4.12-3.09,4.12a36.08,36.08,0,0,0-3.08-2.25.07.07,0,0,0-.09.1,26.91,26.91,0,0,0,2.14,3s-2.89,5.08-3.44,6S44.09,118,44.09,118Z"/></g><polygon class="cls-16" points="109.76 135.61 112.58 124.09 126.39 123.84 134.08 133.5 132.45 138.59 115.64 138.02 109.76 135.61"/><path class="cls-17" d="M120.09,82.26s.15-5.9,2-9.22c1.41-2.63,6.27-4.66,7.69-5.08s19.66-1.74,19.66-1.74,9.9,4.87,11.08,9.38c.34,1.3-8.3,30.54-8.3,30.54l-23.28,6.06L115.3,95.86Z"/><path class="cls-18" d="M90,108.37a1.78,1.78,0,0,0,.54,2.06c1.07.75,18.74,3.08,18.74,3.08l20.73,3a3.11,3.11,0,0,0,1.85-.28l5.15-2.52v-3.14l-10-5.21S92,103.12,90,108.37"/><path class="cls-19" d="M125.54,108.63H90.3a2.73,2.73,0,0,1-2.61-2.25L84,81.39a1.78,1.78,0,0,1,1.8-2.1h35.85a2.73,2.73,0,0,1,2.61,2.25l3.64,24.39a2.28,2.28,0,0,1-2.32,2.7"/><path class="cls-10" d="M107.84,95A2.9,2.9,0,1,1,105,91.78,3,3,0,0,1,107.84,95"/><path class="cls-8" d="M151.27,110.54s.92,3.76,1.93,6.73,4.89,10.79,1.29,18.91c0,0-20.24,5.43-23.67,0s-5-9.87-9.2-10.46c-3.52-.49-9,2.91-10.53,10.44,0,0-10-.71-11.58-3.64,0,0,4.79-12.57,5.59-14.71s2.84-7.36,6.56-7.48,18.49,4.64,18.87,4.72,5.35-.08,6.23-1.29,10.33-7.45,14.51-3.22"/><path class="cls-20" d="M133.64,64s-4.18,4.66-5.15,8.38c0,0,5.53-3.65,5.68-1.62s1-6,1-6Z"/><path class="cls-20" d="M156.38,71.45c1.74-.34,4.61,2.7,5,8.72s-.84,20.62-1.34,23.34-1.89,7.08-3.77,7.58S137.68,113,137.68,113L133,108.23c.28,0,17.31-6.57,17.76-7.61s-.48-7.7-.27-13.51.23-14.58,5.88-15.66"/><rect class="cls-2" x="-14.86" y="-12.18" width="228.86" height="164.17"/><g class="cls-21"><polygon class="cls-22" points="128.18 108 137.68 113 140.23 108.63 129.9 103.19 127.18 103.92 128.18 108"/></g><path class="cls-20" d="M144.81,62.62s4.29,2.24,4.79,4.08S144.15,75,144,75s1.85-1.88-.53-2.89a9.41,9.41,0,0,0-5.13-.35s5.51-7.18,6.49-9.17"/></g><path class="cls-15" d="M42.78,112.07s8.18-5.84,17.59-1.72,11.35,10.56,9.26,14-7.82,2.92-10.94-1.26c-2.56-3.44-2.9-6.43-10.37-9.32a32.78,32.78,0,0,0-5.54-1.72"/><path class="cls-23" d="M132.89,68.45c-3.37.83-6.12.55-8.28-.62-2.46-1.33-3.69-4.66-4.51-5.76s-2.68-2-3.77-4.56-.3-5-.27-6.48-1.22-2.44-1.49-5.06,1.29-4,2.51-6.22.69-3.7,2-5.28c1.6-1.92,4-1.46,5.8-2.65S127.59,29,130,28.68c2.94-.41,5.24,1.15,8.25,1.18,2.14,0,6.44-.92,9.86.51,3.25,1.36,4.23,5,7,7A9.29,9.29,0,0,1,159,44.87c-.13,3.11-1,4.42-.5,7.55a10.57,10.57,0,0,1-2,8.4,10.4,10.4,0,0,1-8.29,4.05,18.32,18.32,0,0,1-5.59-.71,2.32,2.32,0,0,0-2.59.3A16.25,16.25,0,0,1,132.89,68.45Z"/><path class="cls-3" d="M127.29,45.31a5.62,5.62,0,0,1,3.28,1.18,3.3,3.3,0,0,0,2.82,1.06,3.11,3.11,0,0,1,2.9,1c1,1,1.49,1.66,2.46,2s1.37-.13,1.37-.13c.4-2.17,1.79-2,2.29-1.16a8.74,8.74,0,0,1,.73,4.76,1.37,1.37,0,0,1-1,.85,32.26,32.26,0,0,0,1,6.87c.62,2.28,6.27,4.48,6.27,4.48-2,.09-13.42,12.94-13.42,12.94l-1.8-8.4a8.73,8.73,0,0,0,.52-4.89c-.17-1.11-.35-2.08-.35-2.08l-.75.23c-.75.22-2,0-3.62-2.3s-3.22-5.91-3.31-7.77a28.4,28.4,0,0,0-1-5.25,20.11,20.11,0,0,1-.53-4.38A3.85,3.85,0,0,0,127.29,45.31Z"/><g class="cls-24"><path class="cls-3" d="M133.49,65.46s1.44,3.2,1.29,1.23,3.84-5,3-4.56-3.45,1.67-3.45,1.67Z"/></g><path class="cls-25" d="M142.85,46.23c.13-2.29-1.92-6.58-6.48-8.07-4.81-1.56-9.74,1.61-9.74,1.61C139.78,36.91,142.86,46.23,142.85,46.23Z"/></svg>