<?xml version="1.0" encoding="UTF-8"?>
<svg width="295px" height="271px" viewBox="0 0 295 271" version="1.1" xmlns="http://www.w3.org/2000/svg" xmlns:xlink="http://www.w3.org/1999/xlink">
    <title>stripe-and-taxjar</title>
    <g id="Page-1" stroke="none" stroke-width="1" fill="none" fill-rule="evenodd">
        <g id="stripe-and-taxjar" transform="translate(0.000000, 0.000000)" fill-rule="nonzero">
            <g id="Plus-Sign" transform="translate(133.000000, 118.000000)" fill="#000000">
                <polygon id="Combined-Shape" points="15 0 15 10 25 10 25 15 15 15 15 26 10 26 10 15 0 15 0 10 10 10 10 0"></polygon>
            </g>
            <g id="Stripe-Logo" transform="translate(39.000000, 182.000000)" fill="#FFFFFF">
                <path d="M214,45.6452924 C214,30.5093861 206.661369,18.56621 192.635115,18.56621 C178.549678,18.56621 170.027397,30.5093861 170.027397,45.5270431 C170.027397,63.3235579 180.088423,72.3105023 194.528955,72.3105023 C201.571674,72.3105023 206.898099,70.7141372 210.92251,68.4674011 L210.92251,56.6424743 C206.898099,58.6527118 202.281864,59.8943292 196.422795,59.8943292 C190.682092,59.8943292 185.592397,57.8840916 184.941389,50.9073848 L213.881635,50.9073848 C213.881635,50.1387646 214,47.0642836 214,45.6452924 Z M184.763842,40.0284522 C184.763842,33.3473685 188.847435,30.5685107 192.575932,30.5685107 C196.186065,30.5685107 200.032928,33.3473685 200.032928,40.0284522 L184.763842,40.0284522 Z" id="Shape"></path>
                <path d="M146.756817,18.56621 C140.91157,18.56621 137.153911,21.3042672 135.066323,23.2090026 L134.290933,19.5185778 L121.16895,19.5185778 L121.16895,88.9223744 L136.080294,85.7676564 L136.13994,68.9226526 C138.287173,70.4702501 141.448378,72.6726004 146.697171,72.6726004 C157.373694,72.6726004 167.09589,64.1012911 167.09589,45.2325059 C167.036245,27.9708412 157.194758,18.56621 146.756817,18.56621 Z M143.178094,59.5775444 C139.659017,59.5775444 137.571429,58.3275618 136.13994,56.7799643 L136.080294,34.6969381 C137.631074,32.9707716 139.778308,31.780312 143.178094,31.780312 C148.605823,31.780312 152.363482,37.8516561 152.363482,45.6491667 C152.363482,53.6252463 148.665469,59.5775444 143.178094,59.5775444 Z" id="Shape"></path>
                <polygon id="Path" points="100.648402 15.6347032 116.283105 12.3495905 116.283105 0 100.648402 3.22427731"></polygon>
                <rect id="Rectangle" x="100.648402" y="19.543379" width="15.6347032" height="51.7899543"></rect>
                <path d="M84.2674969,23.5927704 L83.3080946,19.1822814 L70.3561644,19.1822814 L70.3561644,71.3333333 L85.3468244,71.3333333 L85.3468244,35.9898204 C88.8846202,31.4005279 94.8808842,32.2349447 96.739726,32.8905579 L96.739726,19.1822814 C94.8209215,18.467067 87.8052927,17.1558405 84.2674969,23.5927704 Z" id="Path"></path>
                <path d="M54.957873,7.8173516 L40.1247186,10.8844296 L40.0639269,58.1292279 C40.0639269,66.8586038 46.8117964,73.2876712 55.8089557,73.2876712 C60.7938682,73.2876712 64.4413652,72.4029372 66.4474886,71.3412563 L66.4474886,59.3678555 C64.5021569,60.134625 54.8970814,62.8478095 54.8970814,54.1184335 L54.8970814,33.1797277 L66.4474886,33.1797277 L66.4474886,20.6165042 L54.8970814,20.6165042 L54.957873,7.8173516 Z" id="Path"></path>
                <path d="M14.7944918,34.5713784 C14.7944918,32.2680516 16.6657319,31.3821567 19.7649732,31.3821567 C24.2091684,31.3821567 29.8228886,32.7405289 34.2670837,35.161975 L34.2670837,21.2829545 C29.4135548,19.3339856 24.6185021,18.56621 19.7649732,18.56621 C7.89429404,18.56621 0,24.8265342 0,35.2800943 C0,51.580561 22.2209758,48.9819359 22.2209758,56.0100356 C22.2209758,58.7267801 19.8819257,59.612675 16.6072556,59.612675 C11.7537267,59.612675 5.55524395,57.6046465 0.643238773,54.8879021 L0.643238773,68.9441016 C6.08153022,71.306488 11.5782979,72.3105023 16.6072556,72.3105023 C28.770316,72.3105023 37.1324201,66.2273571 37.1324201,55.6556777 C37.0739438,38.0558984 14.7944918,41.1860605 14.7944918,34.5713784 Z" id="Path"></path>
            </g>
            <g id="TaxJar-Logo" fill="#FFFFFF">
                <g id="Group" transform="translate(0.000000, 0.000000)">
                    <path d="M11.7391347,38.115085 C11.7391347,42.5860626 15.8539847,46.1628448 20.858532,46.1628448 C25.8630793,46.1628448 29.9779293,42.5860626 29.9779293,38.115085 C29.9779293,33.6441072 25.8630793,30.0673251 20.858532,30.0673251 C15.8539847,30.0673251 11.7391347,33.7558817 11.7391347,38.115085 Z M16.8548942,38.115085 C16.8548942,36.103145 18.7455009,34.5383028 20.9697441,34.5383028 C23.1939874,34.5383028 25.0845942,36.103145 25.0845942,38.115085 C25.0845942,40.1270249 23.1939874,41.6918671 20.9697441,41.6918671 C18.6342887,41.8036415 16.8548942,40.1270249 16.8548942,38.115085 Z M29.9779293,58.346259 C29.9779293,62.8172368 34.0927793,66.3940189 39.0973266,66.3940189 C44.1018739,66.3940189 48.2167239,62.8172368 48.2167239,58.346259 C48.2167239,53.8752814 44.1018739,50.2984992 39.0973266,50.2984992 C33.9815671,50.2984992 29.9779293,53.8752814 29.9779293,58.346259 Z M34.9824766,58.346259 C34.9824766,56.334319 36.8730834,54.7694769 39.0973266,54.7694769 C41.3215699,54.7694769 43.2121766,56.4460935 43.2121766,58.346259 C43.2121766,60.358199 41.3215699,61.9230412 39.0973266,61.9230412 C36.7618712,62.0348157 34.9824766,60.358199 34.9824766,58.346259 Z" id="Shape"></path>
                    <path d="M59.7827887,27.1611896 C59.7827887,25.1492496 57.1136968,24.3668285 55.4455145,25.5963474 C38.7636901,38.4504083 21.9706536,51.3044692 5.28882928,64.1585301 L5.28882928,32.3028139 C5.28882928,29.7320018 5.5112536,27.6082873 7.73549685,25.7081218 C8.51398197,25.0374751 9.62610361,24.7021518 10.5158009,24.3668285 C10.7382252,24.255054 12.8512563,23.9197307 11.8503469,24.0315051 L12.0727712,24.0315051 C16.9661063,25.5963474 23.638836,26.3787685 29.9779293,26.3787685 C42.2112671,26.3787685 55.3343023,23.5844074 55.3343023,17.436813 L55.3343023,8.94195541 C55.3343023,2.79436107 42.2112671,0 29.9779293,0 C17.7445914,0 4.62155631,2.79436107 4.62155631,8.94195541 L4.62155631,17.3250386 C4.62155631,18.7781064 5.28882928,20.0076253 6.62337522,21.1253697 C4.84398063,22.0195652 3.28701036,23.249084 2.06367657,24.8139262 C-1.05026397,28.7260318 0.284281977,35.5442728 0.284281977,40.1270249 L0.284281977,69.0766055 C0.284281977,71.0885455 2.95337387,71.8709666 4.62155631,70.6414477 C21.3033806,57.7873868 38.0964171,44.9333259 54.7782414,32.079265 L54.7782414,60.358199 C54.7782414,62.5936879 55.2230902,65.1645 54.3333928,67.2882144 C53.2212712,70.4178989 48.7727847,72.4298388 45.6588442,73.5475832 C34.7600522,77.3479143 21.5258049,76.9008165 11.0718618,72.20629 C8.1803455,70.8649966 5.73367793,75.000651 8.51398197,76.006621 C20.0800469,80.3658243 30.5339901,80.9246965 43.2121766,78.8009821 C49.662482,77.6832376 59.3379401,73.1004855 59.6715766,66.0586956 C60.3388495,53.0928603 59.7827887,40.1270249 59.7827887,27.1611896 L59.7827887,27.1611896 Z M29.9779293,4.47097771 C43.3233887,4.47097771 50.329755,7.82421098 50.329755,8.94195541 C50.329755,10.0596998 43.3233887,13.4129331 29.9779293,13.4129331 C16.6324699,13.4129331 9.62610361,10.0596998 9.62610361,8.94195541 C9.62610361,7.82421098 16.6324699,4.47097771 29.9779293,4.47097771 L29.9779293,4.47097771 Z M9.62610361,14.642452 C14.5194388,16.8779408 22.4155023,17.9956853 29.9779293,17.9956853 C37.5403563,17.9956853 45.4364198,16.8779408 50.329755,14.642452 L50.329755,17.436813 C50.329755,18.5545575 43.3233887,21.9077907 29.9779293,21.9077907 C16.6324699,21.9077907 9.62610361,18.5545575 9.62610361,17.436813 L9.62610361,14.642452 L9.62610361,14.642452 Z" id="Shape"></path>
                </g>
                <polygon id="Path" points="87.4075723 17.6388385 67 17.6388385 67 10 116 10 116 17.6388385 95.5924278 17.6388385 95.5924278 71 87.4075723 71"></polygon>
                <path d="M130.003482,66.2102473 C128.435288,68.3250883 126.531051,69.9946997 123.954731,70.9964665 C121.490423,71.9982332 118.914104,72.5547703 116.225769,72.5547703 C114.54556,72.5547703 112.865351,72.3321555 111.185143,71.8869258 C109.504934,71.4416961 108.048752,70.6625442 106.592571,69.54947 C105.248404,68.4363958 104.128265,67.1007067 103.232154,65.4310954 C102.336042,63.7614841 102,61.6466431 102,59.1978798 C102,54.6342756 103.568195,50.9611308 106.592571,48.1784452 C109.616947,45.3957597 114.097505,44.0600706 119.922229,44.0600706 C120.81834,44.0600706 121.826465,44.0600706 122.946605,44.1713781 C123.954731,44.2826855 124.962856,44.2826855 125.970981,44.3939929 C126.867092,44.5053003 127.763204,44.5053003 128.435288,44.6166078 C129.107371,44.7279151 129.667441,44.7279151 129.891469,44.8392226 L129.891469,43.2809187 C129.891469,40.0530036 128.995357,37.8268551 127.091121,36.3798586 C125.298897,35.0441696 122.722577,34.2650176 119.586187,34.2650176 C116.449797,34.2650176 113.985491,34.7102473 112.193268,35.6007067 C110.401045,36.4911661 108.83285,37.3816254 107.600696,38.2720848 L103.904237,32.7067138 C104.57632,32.1501766 105.472432,31.4823321 106.480557,30.8144876 C107.488683,30.2579505 108.608822,29.5901059 109.952989,29.1448763 C111.297156,28.5883392 112.865351,28.1431095 114.54556,27.8091872 C116.225769,27.475265 118.24202,27.2526501 120.370284,27.2526501 C125.634939,27.2526501 129.779454,28.5883392 132.80383,31.2597173 C135.828207,33.9310954 137.284388,37.7155477 137.284388,42.6130742 L137.284388,67.5459364 C137.284388,68.9929328 137.284388,70.328622 137.396402,71.3303887 L130.003482,71.3303887 L130.003482,66.2102473 Z M130.003482,51.0724381 C129.779454,50.9611308 129.331399,50.9611308 128.659315,50.8498233 C127.987231,50.7385159 127.203134,50.6272085 126.307022,50.6272085 C125.410912,50.5159011 124.5148,50.5159011 123.506674,50.4045936 C122.498549,50.2932862 121.490423,50.2932862 120.594313,50.2932862 C118.354033,50.2932862 116.561811,50.5159011 115.217644,51.0724381 C113.873476,51.6289753 112.753337,52.2968198 111.96924,53.1872791 C111.185143,53.9664311 110.625073,54.9681978 110.401045,55.9699646 C110.065003,56.9717315 109.952989,57.9734983 109.952989,58.8639576 C109.952989,61.2014134 110.737086,62.9823321 112.193268,64.2067138 C113.761463,65.4310954 115.777714,65.9876325 118.466048,65.9876325 C120.034243,65.9876325 121.37841,65.7650177 122.834591,65.2084806 C124.178758,64.6519435 125.410912,63.8727915 126.419037,62.9823321 C127.427162,62.0918728 128.323273,60.9787986 128.995357,59.754417 C129.667441,58.5300353 130.003482,57.3056537 130.003482,55.9699646 L130.003482,51.0724381 L130.003482,51.0724381 Z M159.351132,49.2915194 L144.677308,28.5883392 L154.534533,28.5883392 L164.391759,42.7243816 L174.024957,28.5883392 L182.762043,28.5883392 L168.536274,48.6236749 L184.778294,71.3303887 L174.921068,71.3303887 L163.607661,55.1908128 L152.518282,71.3303887 L143.557168,71.3303887 L159.351132,49.2915194 Z M192.731283,58.975265 C194.411492,60.9787986 196.091701,62.425795 197.883924,63.4275618 C199.564133,64.3180212 201.692397,64.7632508 204.04469,64.7632508 C205.500871,64.7632508 206.733024,64.540636 207.965177,64.0954063 C209.19733,63.6501767 210.205455,62.8710248 211.213581,61.9805653 C212.109693,60.9787986 212.89379,59.754417 213.45386,58.1961131 C214.013929,56.6378092 214.237957,54.8568905 214.237957,52.6307421 L214.237957,10 L222.639001,10 L222.639001,53.2985866 C222.639001,56.860424 222.190946,59.8657243 221.182821,62.3144876 C220.174695,64.7632508 218.830528,66.7667845 217.150319,68.4363958 C215.470111,69.9946997 213.565873,71.1077738 211.325595,71.8869258 C209.085316,72.5547703 206.733024,73 204.268717,73 C199.900174,73 196.427742,72.220848 193.627394,70.6625442 C190.827046,69.1042403 188.586768,67.1007067 186.794545,64.540636 L192.731283,58.975265 Z M255.571097,66.2102473 C254.002902,68.3250883 252.098665,69.9946997 249.522345,70.9964665 C247.058038,71.9982332 244.481718,72.5547703 241.905397,72.5547703 C240.225188,72.5547703 238.54498,72.3321555 236.864771,71.8869258 C235.184562,71.4416961 233.728381,70.6625442 232.272199,69.54947 C230.928032,68.4363958 229.807893,67.1007067 228.911782,65.4310954 C228.01567,63.7614841 227.679629,61.6466431 227.679629,59.1978798 C227.679629,54.6342756 229.247824,50.9611308 232.272199,48.1784452 C235.296576,45.3957597 239.777133,44.0600706 245.601857,44.0600706 C246.497969,44.0600706 247.506094,44.0600706 248.626234,44.1713781 C249.634359,44.2826855 250.642484,44.2826855 251.650609,44.3939929 C252.546721,44.5053003 253.442833,44.5053003 254.114916,44.6166078 C254.787,44.7279151 255.347069,44.7279151 255.571097,44.8392226 L255.571097,43.2809187 C255.571097,40.0530036 254.674985,37.8268551 252.770749,36.3798586 C250.978526,35.0441696 248.402205,34.2650176 245.265816,34.2650176 C242.129426,34.2650176 239.665119,34.7102473 237.872896,35.6007067 C236.080673,36.4911661 234.512478,37.3816254 233.280325,38.2720848 L229.583866,32.7067138 C230.255949,32.1501766 231.15206,31.4823321 232.160186,30.8144876 C233.168311,30.2579505 234.28845,29.5901059 235.632618,29.1448763 C236.976785,28.5883392 238.54498,28.1431095 240.225188,27.8091872 C241.905397,27.475265 243.921648,27.2526501 246.049913,27.2526501 C251.314567,27.2526501 255.459083,28.5883392 258.483459,31.2597173 C261.507835,33.9310954 262.964016,37.7155477 262.964016,42.6130742 L262.964016,67.5459364 C262.964016,68.9929328 262.964016,70.328622 263.07603,71.3303887 L255.683111,71.3303887 L255.571097,66.2102473 Z M255.571097,51.0724381 C255.347069,50.9611308 254.899014,50.9611308 254.22693,50.8498233 C253.554846,50.7385159 252.770749,50.6272085 251.874637,50.6272085 C250.978526,50.5159011 250.082415,50.5159011 249.074289,50.4045936 C248.066164,50.2932862 247.058038,50.2932862 246.161927,50.2932862 C243.921648,50.2932862 242.129426,50.5159011 240.785258,51.0724381 C239.441091,51.6289753 238.320952,52.2968198 237.536855,53.1872791 C236.752757,53.9664311 236.192688,54.9681978 235.968659,55.9699646 C235.632618,56.9717315 235.520604,57.9734983 235.520604,58.8639576 C235.520604,61.2014134 236.304701,62.9823321 237.760882,64.2067138 C239.329077,65.4310954 241.345328,65.9876325 244.033662,65.9876325 C245.601857,65.9876325 246.946025,65.7650177 248.402205,65.2084806 C249.746373,64.6519435 250.978526,63.8727915 251.986651,62.9823321 C252.994776,62.0918728 253.890888,60.9787986 254.562972,59.754417 C255.235055,58.5300353 255.571097,57.3056537 255.571097,55.9699646 L255.571097,51.0724381 L255.571097,51.0724381 Z M269.572838,71.3303887 L269.572838,32.7067138 C269.572838,31.3710247 269.572838,29.9240282 269.460824,28.5883392 L276.965758,28.5883392 L277.189785,35.4893993 C277.637841,34.7102473 278.309925,33.9310954 278.982009,33.0406361 C279.766106,32.1501766 280.662217,31.3710247 281.782357,30.5918728 C282.902496,29.8127208 284.134649,29.2561837 285.59083,28.6996466 C287.047011,28.1431095 288.615206,27.9204947 290.519443,27.9204947 C291.415555,27.9204947 292.199652,28.0318021 292.983749,28.1431095 C293.767846,28.2544169 294.43993,28.4770318 295,28.6996466 L293.207777,36.3798586 C292.199652,35.9346289 290.855485,35.7120141 289.175276,35.7120141 C287.495066,35.7120141 285.926872,36.0459364 284.470691,36.7137809 C283.014509,37.3816254 281.782357,38.2720848 280.774231,39.4964664 C279.766106,40.7208481 278.869994,42.0565371 278.309925,43.7261484 C277.749855,45.2844523 277.413813,46.9540636 277.413813,48.7349823 L277.413813,71.2190813 L269.572838,71.2190813 L269.572838,71.3303887 L269.572838,71.3303887 Z" id="Shape"></path>
            </g>
        </g>
    </g>
</svg>