<?xml version="1.0" encoding="UTF-8"?>
<svg width="625px" height="90px" viewBox="0 0 625 90" version="1.1" xmlns="http://www.w3.org/2000/svg" xmlns:xlink="http://www.w3.org/1999/xlink">
    <title>stripe-and-taxjar</title>
    <g id="Page-1" stroke="none" stroke-width="1" fill="none" fill-rule="evenodd">
        <g id="stripe-and-taxjar" transform="translate(0.000000, 0.000000)" fill-rule="nonzero">
            <g id="Plus-Sign" transform="translate(338.000000, 37.000000)" fill="#000000">
                <polygon id="Combined-Shape" points="15 0 15 10 25 10 25 15 15 15 15 26 10 26 10 15 0 15 0 10 10 10 10 0"></polygon>
            </g>
            <g id="Stripe-Logo" transform="translate(411.000000, 1.000000)" fill="#FFFFFF">
                <path d="M214,45.6452924 C214,30.5093861 206.661369,18.56621 192.635115,18.56621 C178.549678,18.56621 170.027397,30.5093861 170.027397,45.5270431 C170.027397,63.3235579 180.088423,72.3105023 194.528955,72.3105023 C201.571674,72.3105023 206.898099,70.7141372 210.92251,68.4674011 L210.92251,56.6424743 C206.898099,58.6527118 202.281864,59.8943292 196.422795,59.8943292 C190.682092,59.8943292 185.592397,57.8840916 184.941389,50.9073848 L213.881635,50.9073848 C213.881635,50.1387646 214,47.0642836 214,45.6452924 Z M184.763842,40.0284522 C184.763842,33.3473685 188.847435,30.5685107 192.575932,30.5685107 C196.186065,30.5685107 200.032928,33.3473685 200.032928,40.0284522 L184.763842,40.0284522 Z" id="Shape"></path>
                <path d="M146.756817,18.56621 C140.91157,18.56621 137.153911,21.3042672 135.066323,23.2090026 L134.290933,19.5185778 L121.16895,19.5185778 L121.16895,88.9223744 L136.080294,85.7676564 L136.13994,68.9226526 C138.287173,70.4702501 141.448378,72.6726004 146.697171,72.6726004 C157.373694,72.6726004 167.09589,64.1012911 167.09589,45.2325059 C167.036245,27.9708412 157.194758,18.56621 146.756817,18.56621 Z M143.178094,59.5775444 C139.659017,59.5775444 137.571429,58.3275618 136.13994,56.7799643 L136.080294,34.6969381 C137.631074,32.9707716 139.778308,31.780312 143.178094,31.780312 C148.605823,31.780312 152.363482,37.8516561 152.363482,45.6491667 C152.363482,53.6252463 148.665469,59.5775444 143.178094,59.5775444 Z" id="Shape"></path>
                <polygon id="Path" points="100.648402 15.6347032 116.283105 12.3495905 116.283105 0 100.648402 3.22427731"></polygon>
                <rect id="Rectangle" x="100.648402" y="19.543379" width="15.6347032" height="51.7899543"></rect>
                <path d="M84.2674969,23.5927704 L83.3080946,19.1822814 L70.3561644,19.1822814 L70.3561644,71.3333333 L85.3468244,71.3333333 L85.3468244,35.9898204 C88.8846202,31.4005279 94.8808842,32.2349447 96.739726,32.8905579 L96.739726,19.1822814 C94.8209215,18.467067 87.8052927,17.1558405 84.2674969,23.5927704 Z" id="Path"></path>
                <path d="M54.957873,7.8173516 L40.1247186,10.8844296 L40.0639269,58.1292279 C40.0639269,66.8586038 46.8117964,73.2876712 55.8089557,73.2876712 C60.7938682,73.2876712 64.4413652,72.4029372 66.4474886,71.3412563 L66.4474886,59.3678555 C64.5021569,60.134625 54.8970814,62.8478095 54.8970814,54.1184335 L54.8970814,33.1797277 L66.4474886,33.1797277 L66.4474886,20.6165042 L54.8970814,20.6165042 L54.957873,7.8173516 Z" id="Path"></path>
                <path d="M14.7944918,34.5713784 C14.7944918,32.2680516 16.6657319,31.3821567 19.7649732,31.3821567 C24.2091684,31.3821567 29.8228886,32.7405289 34.2670837,35.161975 L34.2670837,21.2829545 C29.4135548,19.3339856 24.6185021,18.56621 19.7649732,18.56621 C7.89429404,18.56621 0,24.8265342 0,35.2800943 C0,51.580561 22.2209758,48.9819359 22.2209758,56.0100356 C22.2209758,58.7267801 19.8819257,59.612675 16.6072556,59.612675 C11.7537267,59.612675 5.55524395,57.6046465 0.643238773,54.8879021 L0.643238773,68.9441016 C6.08153022,71.306488 11.5782979,72.3105023 16.6072556,72.3105023 C28.770316,72.3105023 37.1324201,66.2273571 37.1324201,55.6556777 C37.0739438,38.0558984 14.7944918,41.1860605 14.7944918,34.5713784 Z" id="Path"></path>
            </g>
            <g id="TaxJar-Logo" transform="translate(0.000000, 0.000000)" fill="#FFFFFF">
                <g id="Group" transform="translate(0.000000, 0.000000)">
                    <path d="M11.9347869,39.0679621 C11.9347869,43.6507142 16.1182178,47.3169159 21.2061742,47.3169159 C26.2941306,47.3169159 30.4775614,43.6507142 30.4775614,39.0679621 C30.4775614,34.4852099 26.2941306,30.8190082 21.2061742,30.8190082 C16.1182178,30.8190082 11.9347869,34.5997787 11.9347869,39.0679621 Z M17.1358091,39.0679621 C17.1358091,37.0057236 19.0579259,35.4017603 21.3192399,35.4017603 C23.5805539,35.4017603 25.5026707,37.0057236 25.5026707,39.0679621 C25.5026707,41.1302005 23.5805539,42.7341638 21.3192399,42.7341638 C18.9448602,42.8487326 17.1358091,41.1302005 17.1358091,39.0679621 Z M30.4775614,59.8049155 C30.4775614,64.3876677 34.6609923,68.0538694 39.7489487,68.0538694 C44.8369051,68.0538694 49.020336,64.3876677 49.020336,59.8049155 C49.020336,55.2221634 44.8369051,51.5559616 39.7489487,51.5559616 C34.5479265,51.5559616 30.4775614,55.2221634 30.4775614,59.8049155 Z M35.5655179,59.8049155 C35.5655179,57.742677 37.4876348,56.1387138 39.7489487,56.1387138 C42.0102627,56.1387138 43.9323796,57.8572458 43.9323796,59.8049155 C43.9323796,61.867154 42.0102627,63.4711173 39.7489487,63.4711173 C37.374569,63.5856861 35.5655179,61.867154 35.5655179,59.8049155 Z" id="Shape"></path>
                    <path d="M60.7791685,27.8402193 C60.7791685,25.7779808 58.0655918,24.9759992 56.3696064,26.236256 C39.4097516,39.4116685 22.3368312,52.5870809 5.37697643,65.7624933 L5.37697643,33.1103842 C5.37697643,30.4753018 5.60310783,28.2984945 7.8644218,26.3508248 C8.65588167,25.663412 9.78653867,25.3197056 10.6910643,24.9759992 C10.9171957,24.8614304 13.0654439,24.517724 12.0478527,24.6322928 L12.273984,24.6322928 C17.2488747,26.236256 24.0328166,27.0382377 30.4775614,27.0382377 C42.9147882,27.0382377 56.2565406,24.1740176 56.2565406,17.8727334 L56.2565406,9.1655043 C56.2565406,2.86422009 42.9147882,0 30.4775614,0 C18.0403346,0 4.69858224,2.86422009 4.69858224,9.1655043 L4.69858224,17.7581646 C4.69858224,19.247559 5.37697643,20.5078159 6.73376481,21.6535039 C4.92471364,22.5700543 3.34179386,23.8303111 2.09807118,25.4342744 C-1.06776837,29.4441826 0.289020009,36.4328796 0.289020009,41.1302005 L0.289020009,70.8035207 C0.289020009,72.8657592 3.00259676,73.6677408 4.69858224,72.4074839 C21.658437,59.2320715 38.7313574,46.0566591 55.6912121,32.8812466 L55.6912121,61.867154 C55.6912121,64.1585301 56.143475,66.7936125 55.2389494,68.9704198 C54.1082924,72.1783463 49.5856645,74.2405848 46.4198249,75.3862728 C35.3393864,79.2816121 21.8845684,78.8233369 11.2563928,74.0114472 C8.31668459,72.6366215 5.82923923,76.8756672 8.65588167,77.9067865 C20.4147143,82.3749699 31.0428899,82.9478139 43.9323796,80.7710066 C50.49019,79.6253186 60.3269058,74.9279976 60.6661029,67.7101629 C61.344497,54.4201818 60.7791685,41.1302005 60.7791685,27.8402193 L60.7791685,27.8402193 Z M30.4775614,4.58275215 C44.0454452,4.58275215 51.1685842,8.01981626 51.1685842,9.1655043 C51.1685842,10.3111923 44.0454452,13.7482564 30.4775614,13.7482564 C16.9096777,13.7482564 9.78653867,10.3111923 9.78653867,9.1655043 C9.78653867,8.01981626 16.9096777,4.58275215 30.4775614,4.58275215 L30.4775614,4.58275215 Z M9.78653867,15.0085133 C14.7614294,17.2998894 22.789094,18.4455774 30.4775614,18.4455774 C38.1660289,18.4455774 46.1936935,17.2998894 51.1685842,15.0085133 L51.1685842,17.8727334 C51.1685842,19.0184214 44.0454452,22.4554855 30.4775614,22.4554855 C16.9096777,22.4554855 9.78653867,19.0184214 9.78653867,17.8727334 L9.78653867,15.0085133 L9.78653867,15.0085133 Z" id="Shape"></path>
                </g>
                <polygon id="Path" points="88.8240533 17.8892922 68 17.8892922 68 10 118 10 118 17.8892922 97.1759468 17.8892922 97.1759468 73 88.8240533 73"></polygon>
                <path d="M132.728961,67.9946996 C131.12014,70.1766784 129.16657,71.8992933 126.523506,72.9328622 C123.995357,73.9664311 121.352293,74.540636 118.594312,74.540636 C116.870575,74.540636 115.146837,74.3109541 113.4231,73.8515901 C111.699362,73.3922262 110.205456,72.5883392 108.71155,71.4399293 C107.33256,70.2915195 106.183401,68.9134275 105.264075,67.1908128 C104.344748,65.4681979 104,63.2862191 104,60.7597173 C104,56.0512367 105.608822,52.2614841 108.71155,49.3904594 C111.814277,46.5194347 116.410912,45.1413427 122.386535,45.1413427 C123.305862,45.1413427 124.340104,45.1413427 125.489263,45.2561837 C126.523506,45.3710247 127.557748,45.3710247 128.591991,45.4858657 C129.511317,45.6007067 130.430644,45.6007067 131.12014,45.7155477 C131.809635,45.8303886 132.384214,45.8303886 132.614046,45.9452297 L132.614046,44.3374558 C132.614046,41.0070672 131.694719,38.7102473 129.74115,37.2173144 C127.902496,35.8392226 125.259431,35.0353356 122.041788,35.0353356 C118.824144,35.0353356 116.295996,35.4946996 114.457342,36.4134276 C112.618689,37.3321555 111.009867,38.2508834 109.745792,39.1696113 L105.953569,33.4275618 C106.643065,32.8533568 107.562391,32.1643109 108.596634,31.475265 C109.630877,30.9010601 110.780035,30.2120141 112.159025,29.7526501 C113.538015,29.1784452 115.146837,28.7190813 116.870575,28.3745583 C118.594312,28.0300354 120.662798,27.8003533 122.846198,27.8003533 C128.247244,27.8003533 132.499129,29.1784452 135.601857,31.9346289 C138.704585,34.6908127 140.198491,38.5954064 140.198491,43.6484099 L140.198491,69.3727915 C140.198491,70.8657244 140.198491,72.2438163 140.313407,73.2773851 L132.728961,73.2773851 L132.728961,67.9946996 Z M132.728961,52.3763251 C132.499129,52.2614841 132.039466,52.2614841 131.349971,52.1466431 C130.660476,52.0318021 129.856065,51.9169611 128.936738,51.9169611 C128.017412,51.8021202 127.098085,51.8021202 126.063842,51.6872791 C125.0296,51.5724382 123.995357,51.5724382 123.076031,51.5724382 C120.777713,51.5724382 118.93906,51.8021202 117.56007,52.3763251 C116.181079,52.95053 115.031921,53.639576 114.22751,54.5583039 C113.4231,55.3621908 112.84852,56.3957597 112.618689,57.4293286 C112.273941,58.4628975 112.159025,59.4964665 112.159025,60.4151944 C112.159025,62.8268551 112.963436,64.6643109 114.457342,65.9275619 C116.066164,67.1908128 118.134649,67.7650177 120.892629,67.7650177 C122.501452,67.7650177 123.880441,67.5353357 125.374348,66.9611308 C126.753337,66.3869258 128.017412,65.5830388 129.051654,64.6643109 C130.085896,63.745583 131.005223,62.5971732 131.694719,61.3339223 C132.384214,60.0706714 132.728961,58.8074204 132.728961,57.4293286 L132.728961,52.3763251 L132.728961,52.3763251 Z M162.836913,50.5388693 L147.782937,29.1784452 L157.895531,29.1784452 L168.008125,43.7632509 L177.890888,29.1784452 L186.854324,29.1784452 L172.260011,49.8498233 L188.922809,73.2773851 L178.810215,73.2773851 L167.203715,56.6254417 L155.827046,73.2773851 L146.633779,73.2773851 L162.836913,50.5388693 Z M197.081834,60.5300353 C198.805572,62.5971732 200.529309,64.090106 202.367963,65.1236749 C204.091701,66.0424028 206.275101,66.5017667 208.688334,66.5017667 C210.18224,66.5017667 211.446315,66.2720848 212.710389,65.8127208 C213.974463,65.3533569 215.008706,64.54947 216.042949,63.630742 C216.962276,62.5971732 217.766686,61.3339223 218.341265,59.7261484 C218.915845,58.1183745 219.145676,56.2809187 219.145676,53.984099 L219.145676,10 L227.764364,10 L227.764364,54.6731449 C227.764364,58.3480565 227.304701,61.4487632 226.270459,63.975265 C225.236216,66.5017667 223.857226,68.5689046 222.133488,70.2915195 C220.409751,71.8992933 218.456181,73.0477032 216.157864,73.8515901 C213.859547,74.540636 211.446315,75 208.918166,75 C204.436448,75 200.874057,74.196113 198.001161,72.5883392 C195.128265,70.9805654 192.829948,68.9134275 190.991294,66.2720848 L197.081834,60.5300353 Z M261.549623,67.9946996 C259.940801,70.1766784 257.987231,71.8992933 255.344168,72.9328622 C252.816018,73.9664311 250.172954,74.540636 247.529889,74.540636 C245.806152,74.540636 244.082414,74.3109541 242.358677,73.8515901 C240.634939,73.3922262 239.141033,72.5883392 237.647127,71.4399293 C236.268137,70.2915195 235.118978,68.9134275 234.199652,67.1908128 C233.280325,65.4681979 232.935578,63.2862191 232.935578,60.7597173 C232.935578,56.0512367 234.544399,52.2614841 237.647127,49.3904594 C240.749855,46.5194347 245.346489,45.1413427 251.322112,45.1413427 C252.241439,45.1413427 253.275682,45.1413427 254.424841,45.2561837 C255.459083,45.3710247 256.493326,45.3710247 257.527568,45.4858657 C258.446895,45.6007067 259.366222,45.6007067 260.055717,45.7155477 C260.745212,45.8303886 261.319791,45.8303886 261.549623,45.9452297 L261.549623,44.3374558 C261.549623,41.0070672 260.630296,38.7102473 258.676727,37.2173144 C256.838073,35.8392226 254.195008,35.0353356 250.977366,35.0353356 C247.759722,35.0353356 245.231573,35.4946996 243.39292,36.4134276 C241.554266,37.3321555 239.945444,38.2508834 238.68137,39.1696113 L234.889147,33.4275618 C235.578642,32.8533568 236.497968,32.1643109 237.532211,31.475265 C238.566454,30.9010601 239.715612,30.2120141 241.094603,29.7526501 C242.473593,29.1784452 244.082414,28.7190813 245.806152,28.3745583 C247.529889,28.0300354 249.598375,27.8003533 251.781776,27.8003533 C257.182821,27.8003533 261.434707,29.1784452 264.537435,31.9346289 C267.640162,34.6908127 269.134068,38.5954064 269.134068,43.6484099 L269.134068,69.3727915 C269.134068,70.8657244 269.134068,72.2438163 269.248985,73.2773851 L261.664539,73.2773851 L261.549623,67.9946996 Z M261.549623,52.3763251 C261.319791,52.2614841 260.860128,52.2614841 260.170633,52.1466431 C259.481137,52.0318021 258.676727,51.9169611 257.7574,51.9169611 C256.838073,51.8021202 255.918747,51.8021202 254.884504,51.6872791 C253.850262,51.5724382 252.816018,51.5724382 251.896692,51.5724382 C249.598375,51.5724382 247.759722,51.8021202 246.380731,52.3763251 C245.001741,52.95053 243.852583,53.639576 243.048172,54.5583039 C242.243761,55.3621908 241.669182,56.3957597 241.43935,57.4293286 C241.094603,58.4628975 240.979687,59.4964665 240.979687,60.4151944 C240.979687,62.8268551 241.784097,64.6643109 243.278004,65.9275619 C244.886825,67.1908128 246.95531,67.7650177 249.713291,67.7650177 C251.322112,67.7650177 252.701103,67.5353357 254.195008,66.9611308 C255.573999,66.3869258 256.838073,65.5830388 257.872316,64.6643109 C258.906558,63.745583 259.825885,62.5971732 260.51538,61.3339223 C261.204875,60.0706714 261.549623,58.8074204 261.549623,57.4293286 L261.549623,52.3763251 L261.549623,52.3763251 Z M275.914104,73.2773851 L275.914104,33.4275618 C275.914104,32.04947 275.914104,30.5565371 275.799187,29.1784452 L283.498549,29.1784452 L283.728381,36.2985865 C284.188044,35.4946996 284.877539,34.6908127 285.567035,33.7720848 C286.371445,32.8533568 287.290772,32.04947 288.439931,31.245583 C289.589089,30.441696 290.853163,29.8674912 292.347069,29.2932862 C293.840975,28.7190813 295.449797,28.4893993 297.403366,28.4893993 C298.322693,28.4893993 299.127104,28.6042402 299.931515,28.7190813 C300.735925,28.8339222 301.425421,29.0636042 302,29.2932862 L300.161346,37.2173144 C299.127104,36.7579505 297.748114,36.5282685 296.024376,36.5282685 C294.300638,36.5282685 292.691817,36.8727915 291.19791,37.5618374 C289.704004,38.2508834 288.439931,39.1696113 287.405688,40.4328622 C286.371445,41.6961131 285.452118,43.0742049 284.877539,44.7968198 C284.30296,46.4045936 283.958212,48.1272085 283.958212,49.9646643 L283.958212,73.1625442 L275.914104,73.1625442 L275.914104,73.2773851 L275.914104,73.2773851 Z" id="Shape"></path>
            </g>
        </g>
    </g>
</svg>