<?xml version="1.0" encoding="UTF-8"?>
<svg width="674px" height="400px" viewBox="0 0 674 400" version="1.1" xmlns="http://www.w3.org/2000/svg" xmlns:xlink="http://www.w3.org/1999/xlink">
    <title>Artboard</title>
    <defs>
        <polygon id="path-1" points="0.400371429 0.654942857 79.6507714 0.654942857 79.6507714 79.6253143 0.400371429 79.6253143"></polygon>
        <polygon id="path-3" points="0.747290323 0.678461538 19.8977581 0.678461538 19.8977581 26.5846154 0.747290323 26.5846154"></polygon>
        <polygon id="path-5" points="0.599677419 0.258461538 7.21227419 0.258461538 7.21227419 27.6923077 0.599677419 27.6923077"></polygon>
        <polygon id="path-7" points="0.104790323 0.717692308 15.9685645 0.717692308 15.9685645 19.9384615 0.104790323 19.9384615"></polygon>
    </defs>
    <g id="Artboard" stroke="none" stroke-width="1" fill="none" fill-rule="evenodd">
        <rect fill="#FFFFFF" x="0" y="0" width="674" height="400"></rect>
        <g id="Group-2">
            <g id="Group-3">
                <polygon id="Rectangle" fill="#FFFFFF" points="0 0 674 0 674 400 0 400"></polygon>
                <g id="acumatica" transform="translate(66.000000, 131.000000)">
                    <g id="Clipped">
                        <mask id="mask-2" fill="white">
                            <use xlink:href="#path-1"></use>
                        </mask>
                        <g id="acumatica-logo-a"></g>
                        <path d="M55.6929731,55.7502542 L40.0253282,55.7502542 C31.3708726,55.7502542 24.3576833,48.7596302 24.3576833,40.1404896 C24.3576833,31.5157947 31.3708726,24.5207273 40.0253282,24.5207273 C48.6797838,24.5207273 55.6929731,31.5157947 55.6929731,40.1404896 L55.6929731,55.7502542 Z M40.0253282,0.6539616 C18.1384402,0.6539616 0.40030888,18.333253 0.40030888,40.1404896 C0.40030888,61.9499479 18.1384402,79.6247959 40.0253282,79.6247959 L79.6503475,79.6247959 L79.6503475,40.1404896 C79.6503475,18.333253 61.9066564,0.6539616 40.0253282,0.6539616 L40.0253282,0.6539616 Z" id="Shape" fill="#49C8F5" fill-rule="nonzero" mask="url(#mask-2)"></path>
                    </g>
                    <path d="M135.100988,20.0761025 L139.894596,20.0761025 L147.74631,54.4505593 L127.049448,54.4505593 L135.100988,20.0761025 Z M125.825102,9 L109,80 L121.032597,80 L124.499187,66.0401456 L150.090122,66.0401456 L153.968507,80 L166,80 L149.375828,9 L125.825102,9 Z" id="Shape" fill="#0D1130" fill-rule="nonzero"></path>
                    <path d="M208.083319,29.5253421 L207.669656,39.6370435 C207.669656,39.6370435 199.581593,38.7178987 195.69116,38.7178987 C185.242,38.7178987 182.887556,42.5962683 182.887556,53.6315494 C182.887556,65.8864436 185.034613,69.8668173 195.789863,69.8668173 C199.684732,69.8668173 207.772794,68.9476725 207.772794,68.9476725 L208.083319,79.0649175 C208.083319,79.0649175 197.634159,80.8976634 192.20441,80.8976634 C176.637135,80.8976634 171,73.0389201 171,53.6315494 C171,35.3462228 177.250421,27.5828311 192.514935,27.5828311 C198.041168,27.5828311 208.083319,29.5253421 208.083319,29.5253421 M258.986657,28.8102054 L258.986657,79.7734018 L247.312032,79.7734018 L247.312032,77.217758 C247.312032,77.217758 239.321563,80.8998809 233.79533,80.8998809 C219.042073,80.8998809 216.073234,73.3449321 216.073234,55.4665128 L216.073234,28.8102054 L227.74675,28.8102054 L227.74675,55.3634 C227.74675,66.1924556 228.36669,70.3812722 236.150883,70.3812722 C240.654602,70.3812722 247.312032,68.0307452 247.312032,68.0307452 L247.312032,28.8102054 L258.986657,28.8102054 Z M268.006073,79.7737345 L268.006073,28.810538 L279.581995,28.810538 L279.581995,31.5679723 C279.581995,31.5679723 283.884982,29.2174453 288.492948,28.402522 C290.331699,27.9889623 292.276915,27.6851677 293.818449,27.6851677 C299.039703,27.8913932 302.727185,29.3216667 305.285688,31.9759883 C309.792734,30.2397028 317.066778,27.5864899 323.109813,27.5864899 C337.035743,27.5864899 340.925067,35.2445515 340.925067,53.1174271 L340.925067,79.7737345 L329.251551,79.7737345 L329.251551,57.7142597 C329.251551,43.9248705 329.050819,38.5142233 320.858508,38.5142233 C315.837987,38.5142233 309.792734,40.9667544 309.691813,41.0632147 C310.00012,41.7805689 310.409348,48.6248159 310.409348,53.3236526 L310.409348,79.7737345 L298.734723,79.7737345 L298.734723,53.5254431 C298.734723,42.6963875 297.706664,38.5142233 290.331699,38.5142233 C285.826871,38.5142233 279.685133,40.8614242 279.685133,40.8614242 L279.685133,79.7737345 L268.006073,79.7737345 Z M389.1824,65.8831174 C389.285539,69.4621275 390.405646,70.4788413 393.381139,70.9955137 L392.968585,80.8998809 C384.978116,80.8998809 382.317583,79.6713978 379.248933,77.319762 C379.248933,77.319762 370.436681,80.8998809 362.549351,80.8998809 C352.817724,80.8998809 347.6985,74.6665492 347.6985,64.5548478 C347.6985,53.6293319 353.737099,49.8485313 364.801765,49.033608 L377.503339,48.0102418 L377.503339,44.9479042 C377.503339,40.9664218 375.044648,38.8176852 371.154215,38.8176852 C363.57741,38.8176852 351.387092,39.73683 351.387092,39.73683 L350.977865,29.8269192 C350.977865,29.8269192 364.18626,27.5817224 371.76972,27.5817224 C383.035117,27.5817224 389.1824,32.284994 389.1824,44.8436827 L389.1824,65.8831174 Z M366.237942,57.7128183 C361.831816,58.1219431 359.476264,60.0622367 359.476264,64.252162 C359.476264,68.5429827 361.320559,70.8912923 364.704171,70.8912923 C370.132811,70.8912923 377.503339,68.8478859 377.503339,68.8478859 L377.503339,57.0996856 L366.237942,57.7128183 Z M413.867792,39.3302553 L413.867792,60.1678995 C413.867792,67.2161545 414.069635,69.8649324 419.193295,69.8649324 C422.066759,69.8649324 427.49318,69.5600291 427.49318,69.5600291 L428,79.5686177 C428,79.5686177 421.140728,81 417.556386,81 C405.773076,81 402.193168,76.5073888 402.193168,61.7988549 L402.193168,39.3302553 L395.743124,39.3302553 L395.743124,28.8116467 L402.193168,28.8116467 L402.193168,14 L413.867792,14 L413.867792,28.8116467 L427.695021,28.8116467 L427.695021,39.3302553 L413.867792,39.3302553 Z" id="Shape" fill="#0D1130" fill-rule="nonzero"></path>
                    <path d="M436,80 L448,80 L448,28.7471234 L436,28.7471234 L436,80 Z M436,20.4268657 L448,20.4268657 L448,8 L436,8 L436,20.4268657 Z" id="Shape" fill="#0D1130" fill-rule="nonzero"></path>
                    <path d="M491.964914,29.9320219 L491.556944,39.983385 C491.556944,39.983385 483.48932,39.0697249 479.609739,39.0697249 C469.198224,39.0697249 466.845489,42.9249517 466.845489,53.8943833 C466.845489,66.0761505 468.992581,70.0327726 479.709244,70.0327726 C483.592141,70.0327726 491.655344,69.1191125 491.655344,69.1191125 L491.964914,79.1759862 C491.964914,79.1759862 481.551188,80.9977958 476.14034,80.9977958 C460.618702,80.9977958 455,73.1859469 455,53.8943833 C455,35.7181684 461.231209,28.0011021 476.444382,28.0011021 C481.958052,28.0011021 491.964914,29.9320219 491.964914,29.9320219 M537.815272,66.0728441 C537.913671,69.6304976 539.038075,70.6411445 542,71.1547339 L541.588714,81 C533.62391,81 530.971555,79.7788476 527.906809,77.4412444 C527.906809,77.4412444 519.127172,81 511.262979,81 C501.566792,81 496.458881,74.8038637 496.458881,64.7525006 C496.458881,53.8921791 502.484447,50.1339392 513.515103,49.3238786 L526.172109,48.306619 L526.172109,45.2625548 C526.172109,41.3048306 523.726503,39.168916 519.841395,39.168916 C512.287878,39.168916 500.136135,40.0825761 500.136135,40.0825761 L499.729271,30.2317994 C499.729271,30.2317994 512.90149,28 520.456113,28 C531.686884,28 537.815272,32.6752064 537.815272,45.1589553 L537.815272,66.0728441 Z M514.941338,57.9512986 C510.553178,58.3579821 508.200443,60.2866976 508.200443,64.451621 C508.200443,68.7168375 510.044598,71.0511344 513.412281,71.0511344 C518.823129,71.0511344 526.172109,69.0199214 526.172109,69.0199214 L526.172109,57.3418245 L514.941338,57.9512986 Z" id="Shape" fill="#0D1130" fill-rule="nonzero"></path>
                    <polygon id="Path" fill="#49C8F5" fill-rule="nonzero" points="180 111 180 114.744921 187.270029 114.744921 187.270029 136 191.729971 136 191.729971 114.744921 199 114.744921 199 111"></polygon>
                    <g id="Group" transform="translate(203.000000, 109.000000)">
                        <path d="M0.199144435,0.258756923 L4.59539359,0.258756923 L4.59539359,7.21284923 L4.44135309,10.8427569 C5.23150324,10.1050338 6.10476876,9.44706462 7.06004147,8.87549538 C8.01642235,8.30171077 9.14346682,8.01371077 10.4433913,8.01371077 C12.4558915,8.01371077 13.9220467,8.65838769 14.8396404,9.94441846 C15.7561259,11.2304492 16.2149228,13.0714338 16.2149228,15.4662646 L16.2149228,27.2343877 L11.8197818,27.2343877 L11.8197818,16.0389415 C11.8197818,14.4870646 11.5903834,13.3904492 11.1315865,12.7535262 C10.6727897,12.1154954 9.92031852,11.7975877 8.87528121,11.7975877 C8.06075056,11.7975877 7.34041732,11.9969723 6.71649792,12.3890954 C6.09147032,12.7856492 5.38443553,13.3638646 4.59539359,14.1281723 L4.59539359,27.2343877 L0.199144435,27.2343877 L0.199144435,0.258756923 Z M20.4952537,17.8736123 C20.4952537,16.3438892 20.7379506,14.9681354 21.2222362,13.7474585 C21.7054135,12.5245662 22.3492806,11.4910892 23.1516211,10.6514585 C23.9550696,9.81182769 24.8782045,9.16050462 25.9232416,8.70192 C26.9682789,8.24333538 28.0376968,8.01404308 29.1337115,8.01404308 C30.4081474,8.01404308 31.5296507,8.23115077 32.4982217,8.66536615 C33.4656848,9.09736615 34.2757826,9.71102769 34.9251908,10.4997046 C35.575707,11.2883815 36.0655337,12.2321354 36.396887,13.3254277 C36.7282402,14.4209354 36.894471,15.6172431 36.894471,16.9176738 C36.894471,17.7838892 36.830195,18.4717662 36.7038598,18.9813046 L24.7762497,18.9813046 C24.9801594,20.6871508 25.5730489,21.9997662 26.5549185,22.9169354 C27.5345718,23.8341046 28.7901681,24.2915815 30.3194908,24.2915815 C31.1351296,24.2915815 31.8931419,24.1719508 32.5935276,23.9282585 C33.2950212,23.6867815 33.9887576,23.3489354 34.6769529,22.9169354 L36.1674885,25.6673354 C35.2753835,26.2533046 34.2824318,26.7362585 33.1864171,27.1173046 C32.0904024,27.5016738 30.9434102,27.6921969 29.7454406,27.6921969 C28.4455162,27.6921969 27.2353563,27.4673354 26.1149612,27.0231508 C24.9923494,26.5767508 24.0126963,25.9353969 23.1715687,25.0935508 C22.3304412,24.25392 21.6743838,23.2281969 21.2022885,22.0185969 C20.7301932,20.8078892 20.4952537,19.4277046 20.4952537,17.8736123 L20.4952537,17.8736123 Z M33.0711637,16.1921354 C33.0711637,14.6889969 32.7586501,13.5181662 32.1347305,12.67632 C31.5108111,11.8366892 30.5488893,11.4168738 29.2489649,11.4168738 C28.1274613,11.4168738 27.1467,11.8167508 26.3055724,12.6176123 C25.4644448,13.4217969 24.9424802,14.6136738 24.7396788,16.1921354 L33.0711637,16.1921354 Z" id="Shape" fill="#49C8F5" fill-rule="nonzero"></path>
                        <g transform="translate(47.651290, 1.107692)" id="Clipped">
                            <g>
                                <mask id="mask-4" fill="white">
                                    <use xlink:href="#path-3"></use>
                                </mask>
                                <g id="acumatica-logo-c"></g>
                                <path d="M0.746708516,13.7089108 C0.746708516,11.6696492 1.04592386,9.84306462 1.64435455,8.22694154 C2.24389344,6.60749538 3.06507332,5.23949538 4.11121884,4.11961846 C5.15514792,2.99752615 6.37749802,2.14571077 7.78048552,1.55974154 C9.1812566,0.973772308 10.6850908,0.679126154 12.2908798,0.679126154 C13.8190945,0.679126154 15.1888358,1.00035692 16.3989956,1.63395692 C17.6091555,2.27198769 18.6098646,3.00971077 19.4000147,3.85155692 L16.9154192,6.60306462 C16.2770931,5.96614154 15.5966552,5.46103385 14.8696728,5.09217231 C14.1437985,4.72331077 13.2960217,4.53943385 12.3285588,4.53943385 C11.2824133,4.53943385 10.3337898,4.74989538 9.48047195,5.16971077 C8.62604591,5.58952615 7.88798139,6.18768 7.26295379,6.96417231 C6.63903438,7.74177231 6.15585701,8.68995692 5.81120526,9.81094154 C5.46766172,10.9319262 5.29478175,12.1935877 5.29478175,13.5926031 C5.29478175,16.4471262 5.91316013,18.6824492 7.14880867,20.2985723 C8.38445723,21.9180185 10.0600632,22.7266338 12.1767347,22.7266338 C13.2960217,22.7266338 14.2712421,22.5073108 15.0990712,22.0775262 C15.9280085,21.6422031 16.6993192,21.0318646 17.411895,20.24208 L19.8975988,22.9548185 C18.8780502,24.1256492 17.7177596,25.0262031 16.4189433,25.6487262 C15.1190189,26.2734646 13.6783524,26.5847262 12.0991603,26.5847262 C10.4933713,26.5847262 9.00283562,26.30448 7.62644502,25.7450954 C6.25116264,25.1834954 5.05208485,24.3549415 4.03364448,23.2594338 C3.0152041,22.1661415 2.2117555,20.8147569 1.62551506,19.2108185 C1.03927463,17.6057723 0.746708516,15.7714338 0.746708516,13.7089108" id="Path" fill="#49C8F5" fill-rule="nonzero" mask="url(#mask-4)"></path>
                            </g>
                        </g>
                        <g transform="translate(70.923387, 0.000000)" id="Clipped">
                            <g>
                                <mask id="mask-6" fill="white">
                                    <use xlink:href="#path-5"></use>
                                </mask>
                                <g id="acumatica-logo-e"></g>
                                <path d="M0.600092996,0.258756923 L4.99634216,0.258756923 L4.99634216,22.6485415 C4.99634216,23.1846646 5.0971888,23.5579569 5.30220673,23.7750646 C5.50500824,23.99328 5.72221641,24.1007262 5.95161484,24.1007262 L6.23974815,24.1007262 C6.32840452,24.1007262 6.46138913,24.0741415 6.63981014,24.0242954 L7.21275211,27.3108185 C6.62540346,27.5633723 5.8507682,27.6929723 4.88219704,27.6929723 C3.30189673,27.6929723 2.19369176,27.2222031 1.55647389,26.2773415 C0.919256031,25.3380185 0.600092996,24.05088 0.600092996,22.4192492 L0.600092996,0.258756923 Z" id="Path" fill="#49C8F5" fill-rule="nonzero" mask="url(#mask-6)"></path>
                            </g>
                        </g>
                        <path d="M80.8503133,17.8736123 C80.8503133,16.31952 81.0941184,14.9293662 81.5772958,13.7086892 C82.0626895,12.4857969 82.7187469,11.45232 83.546576,10.6126892 C84.3744051,9.77416615 85.3241368,9.12948923 86.3935545,8.68530462 C87.4651889,8.23890462 88.585584,8.01404308 89.7580649,8.01404308 C90.9294377,8.01404308 92.056482,8.23890462 93.1403065,8.68530462 C94.2241309,9.12948923 95.1727544,9.77416615 95.9895014,10.6126892 C96.802924,11.45232 97.4589812,12.4857969 97.9565654,13.7086892 C98.4541493,14.9293662 98.7023872,16.31952 98.7023872,17.8736123 C98.7023872,19.4277046 98.4541493,20.8145354 97.9565654,22.0385354 C97.4589812,23.2592123 96.802924,24.2915815 95.9895014,25.1312123 C95.1727544,25.9719508 94.2241309,26.6088738 93.1403065,27.0430892 C92.056482,27.4750892 90.9294377,27.6921969 89.7580649,27.6921969 C88.585584,27.6921969 87.4651889,27.4750892 86.3935545,27.0430892 C85.3241368,26.6088738 84.3744051,25.9719508 83.546576,25.1312123 C82.7187469,24.2915815 82.0626895,23.2592123 81.5772958,22.0385354 C81.0941184,20.8145354 80.8503133,19.4277046 80.8503133,17.8736123 M85.3618157,17.8736123 C85.3618157,19.7577969 85.7507958,21.2664738 86.5287557,22.4007508 C87.3056073,23.53392 88.3827825,24.1010585 89.7580649,24.1010585 C91.1344554,24.1010585 92.2160636,23.53392 93.007322,22.4007508 C93.797472,21.2664738 94.1931013,19.7577969 94.1931013,17.8736123 C94.1931013,15.9628431 93.797472,14.4397662 93.007322,13.3054892 C92.2160636,12.1745354 91.1344554,11.6073969 89.7580649,11.6073969 C88.3827825,11.6073969 87.3056073,12.1745354 86.5287557,13.3054892 C85.7507958,14.4397662 85.3618157,15.9628431 85.3618157,17.8736123" id="Shape" fill="#49C8F5" fill-rule="nonzero"></path>
                        <g transform="translate(102.954387, 7.753846)" id="Clipped">
                            <g>
                                <mask id="mask-8" fill="white">
                                    <use xlink:href="#path-7"></use>
                                </mask>
                                <g id="acumatica-logo-g"></g>
                                <path d="M0.104991185,0.718449231 L4.50124033,0.718449231 L4.50124033,11.9150031 C4.50124033,13.4690954 4.73063876,14.5634954 5.18943563,15.2015262 C5.64712429,15.8384492 6.38629701,16.1552492 7.40473738,16.1552492 C8.22148446,16.1552492 8.94070949,15.9514338 9.56573709,15.5449108 C10.1885483,15.13728 10.8601205,14.47488 11.5715881,13.5588185 L11.5715881,0.718449231 L15.9678372,0.718449231 L15.9678372,19.4794338 L12.3761449,19.4794338 L12.030385,16.7279262 L11.9173481,16.7279262 C11.100601,17.6960492 10.2151452,18.4725415 9.25876432,19.0607262 C8.30349162,19.6455877 7.17533895,19.9391262 5.87652272,19.9391262 C3.86402248,19.9391262 2.39786728,19.2955569 1.48138176,18.0073108 C0.563788046,16.72128 0.104991185,14.8825108 0.104991185,12.4865723 L0.104991185,0.718449231 Z" id="Path" fill="#49C8F5" fill-rule="nonzero" mask="url(#mask-8)"></path>
                            </g>
                        </g>
                        <path d="M123.548675,17.8736123 C123.548675,16.3438892 123.770316,14.9681354 124.216923,13.7474585 C124.66353,12.5245662 125.255311,11.4910892 125.9967,10.6514585 C126.734765,9.81182769 127.582541,9.16050462 128.535598,8.70192 C129.491979,8.24333538 130.479389,8.01404308 131.500046,8.01404308 C132.570572,8.01404308 133.474867,8.20013538 134.21404,8.56899692 C134.952105,8.93896615 135.691277,9.44296615 136.43045,10.0776738 L136.277518,7.06142769 L136.277518,0.259089231 L140.673767,0.259089231 L140.673767,27.2336123 L137.043287,27.2336123 L136.736315,25.2087508 L136.584491,25.2087508 C135.896295,25.8966277 135.092847,26.4825969 134.175253,26.9655508 C133.257659,27.45072 132.290196,27.6921969 131.271756,27.6921969 C128.900197,27.6921969 127.019573,26.8326277 125.632101,25.1123815 C124.24352,23.3943508 123.548675,20.9817969 123.548675,17.8736123 M128.096749,17.8348431 C128.096749,19.8718892 128.461348,21.4204431 129.18833,22.4771815 C129.914205,23.53392 130.964783,24.0633969 132.341174,24.0633969 C133.740836,24.0633969 135.054059,23.3633354 136.277518,21.9609969 L136.277518,13.2113354 C135.613703,12.6253662 134.972052,12.2177354 134.347025,11.9895508 C133.721997,11.7591508 133.091429,11.6461662 132.454211,11.6461662 C131.232969,11.6461662 130.199013,12.1789662 129.358994,13.2501046 C128.518975,14.3190277 128.096749,15.8465354 128.096749,17.8348431" id="Shape" fill="#49C8F5" fill-rule="nonzero"></path>
                    </g>
                    <polygon id="Path" fill="#49C8F5" fill-rule="nonzero" points="359 111 359 136 374 136 374 132.252771 363.307796 132.252771 363.307796 124.876062 372.030914 124.876062 372.030914 121.131141 363.307796 121.131141 363.307796 114.744921 373.630376 114.744921 373.630376 111"></polygon>
                    <path d="M392.640264,135.999557 L387.253063,126.213604 L383.431175,126.213604 L383.431175,135.999557 L379,135.999557 L379,111 L387.445819,111 C388.743046,111 389.951649,111.128544 391.073844,111.384523 C392.194931,111.638287 393.163143,112.053838 393.977371,112.624528 C394.792707,113.199651 395.435228,113.956508 395.907148,114.901748 C396.37796,115.843664 396.615028,117.016072 396.615028,118.416757 C396.615028,120.327184 396.161941,121.870818 395.259089,123.042118 C394.354021,124.213418 393.149849,125.054494 391.647681,125.564236 L397.606504,135.999557 L392.640264,135.999557 Z M383.431175,122.698596 L386.986085,122.698596 C388.693195,122.698596 389.998176,122.341776 390.904351,121.62592 C391.804988,120.914496 392.259183,119.845145 392.259183,118.416757 C392.259183,116.965098 391.804988,115.95891 390.904351,115.395977 C389.998176,114.83526 388.693195,114.55601 386.986085,114.55601 L383.431175,114.55601 L383.431175,122.698596 Z M402.078113,111.000443 L410.486267,111.000443 C411.861039,111.000443 413.129463,111.127879 414.287108,111.383858 C415.444752,111.637622 416.447305,112.072011 417.287013,112.683702 C418.127829,113.296502 418.789181,114.092144 419.274395,115.072844 C419.757393,116.053545 420,117.269171 420,118.723046 C420,120.098243 419.757393,121.296138 419.274395,122.314516 C418.789181,123.335109 418.121182,124.182834 417.267073,124.856581 C416.41518,125.532544 415.408195,126.030097 414.248335,126.34924 C413.089583,126.667275 411.83556,126.825739 410.486267,126.825739 L406.511504,126.825739 L406.511504,136 L402.078113,136 L402.078113,111.000443 Z M410.140636,123.270837 C413.809649,123.270837 415.643047,121.754907 415.643047,118.723046 C415.643047,117.143951 415.184421,116.053545 414.267167,115.455152 C413.351022,114.85565 411.975142,114.556453 410.140636,114.556453 L406.511504,114.556453 L406.511504,123.270837 L410.140636,123.270837 Z" id="Shape" fill="#49C8F5" fill-rule="nonzero"></path>
                </g>
            </g>
        </g>
    </g>
</svg>