<?xml version="1.0" encoding="utf-8"?>
<!-- Generator: Adobe Illustrator 25.2.0, SVG Export Plug-In . SVG Version: 6.00 Build 0)  -->
<svg version="1.1" id="Layer_1" xmlns="http://www.w3.org/2000/svg" xmlns:xlink="http://www.w3.org/1999/xlink" x="0px" y="0px"
	 viewBox="0 0 674 400" style="enable-background:new 0 0 674 400;" xml:space="preserve">
<style type="text/css">
	.st0{fill:#FFFFFF;}
	.st1{fill:#1A1A1A;}
	.st2{fill:none;}
	.st3{fill:#46AF2B;}
	.st4{font-family:'Matter-Bold';}
	.st5{font-size:31px;}
</style>
<rect x="-4" y="-10" class="st0" width="703" height="424"/>
<g>
	<g>
		<polygon class="st1" points="238.7,206 252.2,206 252.2,157.7 269.6,157.7 269.6,146.2 221.2,146.2 221.2,157.7 238.7,157.7 		"/>
		<path class="st1" d="M354.2,186.9c0,5.5-2.7,7.8-7.7,7.8c-1.3,0-2.5-0.2-3.7-0.4v11.5c1.5,0.3,5.1,0.7,6.9,0.7
			c10.4,0,17.3-6.1,17.3-19v-41.2h-12.8v0h-11.6v11.5h11.6V186.9z"/>
		<path class="st1" d="M259.8,171.4c-0.8,1.4-1.3,3-1.6,4.6l0,0.1c-0.1,0.7-0.1,1.4-0.1,2h11c0.4-4.2,3.4-6.7,7.5-6.7
			c4.6,0,7.5,2.6,7.5,6.8v0.3l-7.7,0.8c-12.4,1.3-18.6,5.9-18.6,14.4c0,7.2,5.9,12.8,14.2,12.8c4.8,0,9.6-2.4,12.1-6.1v5.5h12.1
			v-25.5c0-12.1-7.9-18.2-19.6-18.2C269.3,162.3,262.8,165.7,259.8,171.4z M284.1,188.1c-0.1,5-3.4,9.6-9,9.6
			c-3.5,0-5.4-1.9-5.4-4.3c0-2.5,2.1-4.6,6.4-5l8-0.9l0,0.3V188.1z"/>
		<path class="st1" d="M388.1,179.4c-12.4,1.3-18.6,5.9-18.6,14.4c0,7.2,5.9,12.8,14.2,12.8c4.8,0,9.6-2.4,12.1-6.1v5.5H408v-25.5
			c0-12.1-7.9-18.2-19.6-18.2c-7.3,0-13.8,3.5-16.8,9.2c-0.8,1.4-1.3,3-1.6,4.6l0,0.1c-0.1,0.7-0.1,1.4-0.1,2h11
			c0.4-4.2,3.4-6.7,7.5-6.7c4.6,0,7.5,2.6,7.5,6.8v0.3L388.1,179.4z M395.9,188.1c-0.1,5-3.4,9.6-9,9.6c-3.5,0-5.4-1.9-5.4-4.3
			c0-2.5,2.1-4.6,6.4-5l8-0.9l0,0.3V188.1z"/>
		<path class="st1" d="M424,190.4c0-12.2,5.4-16.5,11-16.5c1.5,0,3.1,0.2,4.5,0.7l0.3-12c-1.1-0.2-2.1-0.3-3.2-0.3
			c-5.1,0-10.6,3.5-12.6,8.1v-7.4h-12.5v43H424V190.4z"/>
		<polygon class="st1" points="311.6,206 319.3,194.5 327.1,206 340.7,206 326.1,184.6 340.7,162.9 327.3,162.9 319.3,174.7 
			311.3,162.9 298,162.9 312.6,184.6 298,206 		"/>
	</g>
</g>
<rect x="54.2" y="227.4" class="st2" width="552.7" height="93.8"/>
<text transform="matrix(1 0 0 1 106.0087 249.3341)" class="st3 st4 st5">Consumer’s Guide to Sales Tax</text>
</svg>
