<?xml version="1.0" encoding="UTF-8" standalone="no"?>
<svg width="674px" height="400px" viewBox="0 0 674 400" version="1.1" xmlns="http://www.w3.org/2000/svg" xmlns:xlink="http://www.w3.org/1999/xlink">
    <!-- Generator: Sketch 3.7.2 (28276) - http://www.bohemiancoding.com/sketch -->
    <title>ebay</title>
    <desc>Created with Sketch.</desc>
    <defs></defs>
    <g id="Page-1" stroke="none" stroke-width="1" fill="none" fill-rule="evenodd">
        <g id="ebay">
            <g id="Page-1">
                <g id="ebay">
                    <g id="Page-1">
                        <g id="Group-2">
                            <rect id="Rectangle-1" fill="#FFFFFF" x="0" y="0" width="674" height="400"></rect>
                            <g id="ebay" transform="translate(175.763158, 134.712766)">
                                <g id="Page-1">
                                    <g id="Homepage-Copy">
                                        <g id="Recommendation">
                                            <g id="Group">
                                                <g id="Oval-61-+-logo-icon-white">
                                                    <g id="Group">
                                                        <g id="ebay-copy">
                                                            <path d="M41.8462089,28.390103 C19.0793075,28.390103 0.107663404,38.071045 0.107663404,67.2780057 C0.107663404,90.4163489 12.8647207,104.987487 42.4340754,104.987487 C77.2385907,104.987487 79.4696861,82.0082714 79.4696861,82.0082714 L62.6052564,82.0082714 C62.6052564,82.0082714 58.9893814,94.3816957 41.4053087,94.3816957 C27.0835618,94.3816957 16.7828001,84.6848201 16.7828001,71.0932385 L81.2332866,71.0932385 L81.2332866,62.5643203 C81.2332866,49.1179731 72.7167779,28.390103 41.8462089,28.390103 L41.8462089,28.390103 L41.8462089,28.390103 Z M41.2583414,39.2904995 C54.8911616,39.2904995 64.1851486,47.661345 64.1851486,60.2074772 L17.1558015,60.2074772 C17.1558015,46.8882231 29.2868224,39.2904995 41.2583414,39.2904995 L41.2583414,39.2904995 L41.2583414,39.2904995 Z" id="e" fill="#E53238"></path>
                                                            <path d="M81.2213239,0.107991333 L81.2213239,90.3198661 C81.2213239,95.4405779 80.8566817,102.630645 80.8566817,102.630645 L96.9417939,102.630645 C96.9417939,102.630645 97.5191437,97.4666373 97.5191437,92.7472366 C97.5191437,92.7472366 105.466228,105.208441 127.07494,105.208441 C149.829784,105.208441 165.286281,89.3743829 165.286281,66.6887946 C165.286281,45.5847187 151.088989,28.6110566 127.111676,28.6110566 C104.658616,28.6110566 97.6815954,40.7635264 97.6815954,40.7635264 L97.6815954,0.107991333 L81.2213239,0.107991333 L81.2213239,0.107991333 Z M122.959866,39.7692329 C138.412175,39.7692329 148.238148,51.2637369 148.238148,66.6887946 C148.238148,83.2293692 136.889478,94.0502641 123.070095,94.0502641 C106.577872,94.0502641 97.6815954,81.1437701 97.6815954,66.8360976 C97.6815954,53.5041346 105.664486,39.7692329 122.959866,39.7692329 L122.959866,39.7692329 L122.959866,39.7692329 Z" id="b" fill="#0064D2"></path>
                                                            <path d="M205.261224,28.390103 C171.010143,28.390103 168.813484,47.187189 168.813484,50.1908973 L185.861618,50.1908973 C185.861618,50.1908973 186.755618,39.216848 204.085494,39.216848 C215.346727,39.216848 224.07297,44.3830765 224.07297,54.3153713 L224.07297,57.8506348 L204.085494,57.8506348 C177.550699,57.8506348 163.52268,65.6308554 163.52268,81.4190609 C163.52268,96.9569232 176.484121,105.410982 193.999905,105.410982 C217.871198,105.410982 225.560999,92.1905686 225.560999,92.1905686 C225.560999,97.4489255 225.965481,102.630645 225.965481,102.630645 L241.121104,102.630645 C241.121104,102.630645 240.533233,96.2077417 240.533233,92.0985038 L240.533233,56.5801498 C240.533233,33.2912514 221.791148,28.390103 205.261224,28.390103 L205.261224,28.390103 L205.261224,28.390103 Z M224.07297,68.4564265 L224.07297,73.170112 C224.07297,79.3180423 220.287916,94.6026492 198.004749,94.6026492 C185.802563,94.6026492 180.570824,88.498934 180.570824,81.4190609 C180.570824,68.5393756 198.189161,68.4564265 224.07297,68.4564265 L224.07297,68.4564265 L224.07297,68.4564265 Z" id="a" fill="#F5AF02"></path>
                                                            <polygon id="y" fill="#86B817" points="231.353067 31.3391252 250.532226 31.3391252 278.056983 86.6091878 305.518766 31.3391252 322.892333 31.3391252 272.871164 129.73727 254.647289 129.73727 269.081524 102.307445"></polygon>
                                                        </g>
                                                    </g>
                                                </g>
                                            </g>
                                        </g>
                                    </g>
                                </g>
                            </g>
                        </g>
                    </g>
                </g>
            </g>
        </g>
    </g>
</svg>