<svg data-name="Layer 1" xmlns="http://www.w3.org/2000/svg" viewBox="0 0 920 546"><g data-name="mPJYLe.tif"><path d="M455.58 400.75a13.24 13.24 0 0 0-2.61-1.06c-12.72-2.44-20.93-10-24.06-22.36a96.1 96.1 0 0 1-2.74-21.11c-.4-15.92-.13-31.85-.11-47.79a24.72 24.72 0 0 1 .39-3h12V311c0 16.42 0 32.85.18 49.28a56.58 56.58 0 0 0 1.58 11.78c3.33 14.58 13.48 19 26.84 17.51 9-1 15.2-6.15 17.41-14.84a86.73 86.73 0 0 0 2.44-19.13c.35-14.76.11-29.53.11-44.3v-5.78h12a33.77 33.77 0 0 1 .36 3.59c0 16.26.33 32.53-.13 48.78a86.92 86.92 0 0 1-3.23 21c-3.25 11.54-11.49 18.26-23.25 20.71a23.27 23.27 0 0 0-3.16 1.11zm-85.91 0c-4.15-1-8.33-1.88-12.45-3-2.7-.71-5.34-1.68-8.18-2.59v-10.31c6.5 1.52 12.87 3.58 19.4 4.36a67.1 67.1 0 0 0 16.8-.53 19.07 19.07 0 0 0 8.45-3.94c7.24-5.5 7.1-16.31-.58-21.17-5.12-3.25-11.08-5.18-16.59-7.86-6.54-3.17-13.55-5.76-19.4-9.93C344 336.42 345.29 317.5 359 309c6-3.75 12.68-4.73 19.49-5.35 7.49-.69 19.47 1.79 26.8 5.62V319c-6.87-1.52-13.73-3.62-20.74-4.38-4.81-.53-9.92.35-14.73 1.4-5.07 1.11-8.35 4.64-9.21 10-.91 5.61 1.42 9.9 6.26 12.43 5.42 2.84 11.18 5 16.74 7.61s11.6 5 16.91 8.35c8.22 5.13 11.37 13 10.39 22.62-1.07 10.37-6.81 17-16.31 20.63-3.53 1.33-7.29 2.09-10.94 3.12zM153.79 247.12c-9.48 0-19 .07-28.44 0-24.09-.21-44.22-16.24-48.71-39.81-6.23-32.65 17.88-56.66 42.63-58.52 13.56-1 27.24-.62 40.87-.65 9.47 0 19-.22 28.4.61 23.09 2 41.52 21.81 43.34 44.82 2.22 28.07-19.35 53.77-50.64 53.57-9.15-.07-18.3-.02-27.45-.02zm.1-17.67h26.47c17.87 0 32-13.42 32.75-30.2.75-15.93-11-32.93-31.54-33.4-18.47-.42-37-.39-55.42 0a31.88 31.88 0 0 0-31.51 33.44c.82 16.68 14.91 30.14 32.79 30.17q13.23.01 26.46-.01zm164.5-13.22l36.39 30.58h-28l-56.29-48.88c2.2-.17 3.53-.35 4.87-.35 16 0 32 0 47.93-.05 9.57-.05 16.66-7.22 16.45-16.29a15.42 15.42 0 0 0-15.31-15.34c-20.62-.32-41.26 0-61.89.07-.14 0-.28.18-1.12.77v80.1h-19.14v-98.47c1.78-.1 3.4-.26 5-.26h76.4c16.72 0 29.82 9.72 33.86 24.84 5.69 21.23-9.73 41.51-32.17 42.27-2.24.08-4.48 0-6.72 0zm426-9.92c3.25 13.45 16 23.07 30.08 23.12 20.8.07 41.6 0 62.4 0h6.41L832 247.12c-13.62 0-27.09.09-40.55 0-8.63-.08-17.35.21-25.88-.87C740 243 721.49 218.35 724 192.91c2.08-21.41 19.66-44.08 48.48-44.71 22-.48 43.93-.1 65.9-.08.78 0 1.56.18 3.09.37l-10.87 17.26h-5.1c-16.64 0-33.28-.13-49.92 0-12.59.12-22.39 5.45-28.81 16.47a27.91 27.91 0 0 0-1.68 3.59 27.42 27.42 0 0 0-.76 2.7h92.26c-4.07 6.37-7.65 12-11.36 17.76zM502.22 247h-22.16c-3.52-5.7-7.08-11.46-10.75-17.42H418.1L406.74 212h50.64l-26.45-42.64-49.06 77.59h-22.2a33.87 33.87 0 0 1 1.71-3.55q28.44-44.44 57-88.87c6.26-9.72 18.53-10 24.73-.4 19.57 30.24 38.94 60.6 58.38 90.92a15.37 15.37 0 0 1 .73 1.95zM89.5 305.28H108l39.08 58.6 1.14-.35v-58.09H168v93.09h-18.72l-39.06-58.77-1 .28v58.53H89.5zM610.72 148.1l-11.39 17.65h-5.41c-16.47 0-32.94-.07-49.41 0-16.12.08-28.92 10.17-32.19 25.18a31.78 31.78 0 0 0 30.62 38.46c21 .17 41.92 0 62.88 0h6.27c-4.05 6.35-7.57 11.89-11.25 17.67H543.5c-25.86-.05-45.86-16.75-50.44-42.06-4.78-26.35 15.76-53.63 42.46-56.34 3.8-.39 7.63-.58 11.44-.6 19.13-.05 38.26 0 57.39 0zM188.27 305.29h60.24v17.24h-40.17v20.24h36.6V360h-36.59v21.72H250v16.92h-61.73zm540.19-76.04L717 246.92c-1.24.07-2.39.19-3.53.19H632.6a17.43 17.43 0 0 1-5.85-.85c-3.7-1.37-6.22-4.12-6.23-8.17-.09-29.7 0-59.4 0-89.53h18.93v80.71zM309.38 398.7H289v-76.12h-27.85v-17h75.36v16.9h-27.13zm338.51-10.16h46.56v9.94h-58.72v-92.93h57.39v10.16h-45.19v30.13h41.54v10.73h-41.58zm-70.05-72.66h-29.55v-10.39h71c.09 1.73.21 3.34.25 4.95s0 3.24 0 5.34h-29.37v82.73h-12.33zm-45.93 82.79h-11.53v-93.5h11.53z" fill="#322d2a"/></g></svg>