<?xml version="1.0" encoding="utf-8"?>
<!-- Generator: Adobe Illustrator 19.2.1, SVG Export Plug-In . SVG Version: 6.00 Build 0)  -->
<svg version="1.1" id="Layer_1" xmlns="http://www.w3.org/2000/svg" xmlns:xlink="http://www.w3.org/1999/xlink" x="0px" y="0px"
	 viewBox="0 0 360 198" style="enable-background:new 0 0 360 198;" xml:space="preserve">
<style type="text/css">
	.st0{fill:#FFFFFF;stroke:#000000;stroke-miterlimit:10;}
	.st1{fill:#3DB646;}
	.st2{font-family:'ArialRoundedMTBold';}
	.st3{font-size:26px;}
	.st4{fill:#3FAE2A;}
	.st5{fill:#55565A;}
	.st6{font-family:'Symbol';}
	.st7{font-size:7.5318px;}
</style>
<rect x="-6" y="-2" class="st0" width="375" height="226"/>
<g>
	<text transform="matrix(1 0 0 1 21.312 115)" class="st1 st2 st3">Getting Started with Your</text>
	<text transform="matrix(1 0 0 1 81.312 146.2)" class="st1 st2 st3">TaxJar Account</text>
</g>
<g>
	<g>
		<path class="st4" d="M22.5,28.6c0,1.6,1.5,3,3.4,3s3.4-1.3,3.4-3c0-1.6-1.5-3-3.4-3C24,25.7,22.5,27,22.5,28.6z M24.3,28.6
			c0-0.7,0.7-1.3,1.5-1.3s1.5,0.6,1.5,1.3c0,0.7-0.7,1.3-1.5,1.3C25,30,24.3,29.4,24.3,28.6z"/>
	</g>
	<g>
		<path class="st4" d="M29.1,36c0,1.6,1.5,3,3.4,3c1.9,0,3.4-1.3,3.4-3c0-1.6-1.5-3-3.4-3C30.6,33.1,29.1,34.4,29.1,36z M31,36
			c0-0.7,0.7-1.3,1.5-1.3S34,35.3,34,36s-0.7,1.3-1.5,1.3C31.7,37.4,31,36.8,31,36z"/>
	</g>
	<g>
		<path class="st4" d="M40.1,24.6c0-0.7-1-1-1.6-0.6c-6.1,4.7-12.3,9.4-18.4,14.1c0-2.2,0-4.5,0-6.7c0-1.7,0-3.3,0-5
			c0-0.9,0.1-1.7,0.9-2.4c0.3-0.2,0.7-0.4,1-0.5c0.1,0,0.9-0.2,0.5-0.1h0.1c1.8,0.6,4.2,0.9,6.6,0.9c4.5,0,9.3-1,9.3-3.3v-3
			c0-2.3-4.8-3.3-9.3-3.3s-9.3,1-9.3,3.3v3c0,0.5,0.3,1,0.7,1.4c-0.6,0.3-1.2,0.8-1.7,1.3c-1.1,1.4-0.6,3.9-0.6,5.6
			c0,3.5,0,7.1,0,10.6c0,0.7,1,1,1.6,0.6c6.1-4.7,12.3-9.4,18.4-14.1c0,3.4,0,6.9,0,10.3c0,0.8,0.1,1.7-0.1,2.5
			c-0.4,1.1-2,1.9-3.2,2.3c-4,1.4-8.9,1.2-12.7-0.5c-1.1-0.5-2,1-0.9,1.4c4.2,1.6,8.1,1.8,12.8,1c2.4-0.4,5.9-2.1,6.1-4.7
			C40.3,34.1,40.1,29.4,40.1,24.6z M29.1,16.3c4.9,0,7.5,1.2,7.5,1.6s-2.6,1.6-7.5,1.6s-7.5-1.2-7.5-1.6
			C21.7,17.5,24.2,16.3,29.1,16.3z M21.7,20c1.8,0.8,4.7,1.2,7.5,1.2s5.7-0.4,7.5-1.2v1c0,0.4-2.6,1.6-7.5,1.6s-7.5-1.2-7.5-1.6V20z
			"/>
	</g>
</g>
<path class="st4" d="M50.1,21.2h-7.7v-2.8h18.3v2.8h-7.6v19.7H50L50.1,21.2L50.1,21.2z"/>
<path class="st4" d="M65.3,39c-0.6,0.8-1.3,1.4-2.2,1.8c-0.9,0.4-1.8,0.6-2.8,0.6c-0.6,0-1.2-0.1-1.8-0.3s-1.2-0.5-1.7-0.8
	c-0.5-0.4-0.9-0.9-1.2-1.5s-0.5-1.4-0.5-2.3c0-1.7,0.6-3,1.7-4.1c1.1-1,2.7-1.5,4.8-1.5c0.3,0,0.7,0,1.1,0c0.4,0,0.7,0,1.1,0.1
	c0.3,0,0.6,0,0.9,0.1c0.3,0,0.4,0,0.5,0.1v-0.6c0-1.2-0.3-2-1-2.5c-0.7-0.5-1.6-0.8-2.7-0.8c-1.1,0-2,0.2-2.7,0.5s-1.2,0.7-1.7,1
	l-1.3-2.1c0.3-0.2,0.6-0.4,0.9-0.7c0.4-0.2,0.8-0.4,1.3-0.6s1-0.3,1.7-0.5c0.6-0.1,1.3-0.2,2.1-0.2c1.9,0,3.4,0.5,4.5,1.5
	s1.6,2.4,1.6,4.2v9.2c0,0.5,0,1,0,1.4h-2.7L65.3,39z M65.3,33.5c-0.1,0-0.3-0.1-0.5-0.1s-0.5-0.1-0.8-0.1c-0.3,0-0.7,0-1-0.1
	c-0.4,0-0.7,0-1.1,0c-0.8,0-1.5,0.1-2,0.3S59,34,58.7,34.3s-0.5,0.6-0.6,1s-0.2,0.7-0.2,1.1c0,0.9,0.3,1.5,0.8,1.9
	C59.3,38.7,60,39,61,39c0.6,0,1.1-0.1,1.6-0.3s0.9-0.5,1.3-0.8s0.7-0.7,0.9-1.2s0.4-0.9,0.4-1.4v-1.8H65.3z"/>
<path class="st4" d="M76,32.8l-5.3-7.6h3.6l3.6,5.2l3.5-5.2h3.2l-5.2,7.4l5.9,8.3h-3.6L77.6,35l-4.1,5.9h-3.2L76,32.8z"/>
<path class="st5" d="M88.2,36.3c0.6,0.7,1.2,1.3,1.9,1.6c0.6,0.3,1.4,0.5,2.3,0.5c0.5,0,1-0.1,1.4-0.3s0.8-0.4,1.2-0.8
	c0.3-0.4,0.6-0.8,0.8-1.4c0.2-0.6,0.3-1.2,0.3-2V18.4h3.1v15.9c0,1.3-0.2,2.4-0.5,3.3c-0.4,0.9-0.8,1.7-1.5,2.2
	c-0.6,0.6-1.3,1-2.1,1.2c-0.8,0.3-1.7,0.4-2.6,0.4c-1.6,0-2.9-0.3-3.9-0.9c-1-0.6-1.8-1.3-2.5-2.2L88.2,36.3z"/>
<path class="st5" d="M111.1,39c-0.6,0.8-1.3,1.4-2.2,1.8c-0.9,0.4-1.8,0.6-2.8,0.6c-0.6,0-1.2-0.1-1.8-0.3c-0.6-0.2-1.2-0.5-1.7-0.8
	c-0.5-0.4-0.9-0.9-1.2-1.5c-0.3-0.6-0.5-1.4-0.5-2.3c0-1.7,0.6-3,1.7-4.1c1.1-1,2.7-1.5,4.8-1.5c0.3,0,0.7,0,1.1,0s0.7,0,1.1,0.1
	c0.3,0,0.6,0,0.9,0.1c0.3,0,0.4,0,0.5,0.1v-0.6c0-1.2-0.3-2-1-2.5s-1.6-0.8-2.7-0.8s-2,0.2-2.7,0.5s-1.2,0.7-1.7,1l-1.3-2.1
	c0.3-0.2,0.6-0.4,0.9-0.7c0.4-0.2,0.8-0.4,1.3-0.6s1-0.3,1.7-0.5c0.6-0.1,1.3-0.2,2.1-0.2c1.9,0,3.4,0.5,4.5,1.5s1.6,2.4,1.6,4.2
	v9.2c0,0.5,0,1,0,1.4H111L111.1,39z M111.1,33.5c-0.1,0-0.3-0.1-0.5-0.1s-0.5-0.1-0.8-0.1s-0.7,0-1-0.1c-0.4,0-0.7,0-1.1,0
	c-0.8,0-1.5,0.1-2,0.3s-0.9,0.5-1.2,0.8c-0.3,0.3-0.5,0.6-0.6,1s-0.2,0.7-0.2,1.1c0,0.9,0.3,1.5,0.8,1.9c0.6,0.4,1.3,0.7,2.3,0.7
	c0.6,0,1.1-0.1,1.6-0.3s0.9-0.5,1.3-0.8s0.7-0.7,0.9-1.2c0.2-0.5,0.4-0.9,0.4-1.4L111.1,33.5L111.1,33.5z"/>
<path class="st5" d="M116.2,40.9V26.7c0-0.5,0-1,0-1.5h2.8l0.1,2.5c0.2-0.3,0.4-0.6,0.7-0.9c0.3-0.3,0.6-0.6,1-0.9s0.9-0.5,1.4-0.7
	s1.1-0.3,1.8-0.3c0.3,0,0.6,0,0.9,0.1c0.3,0,0.5,0.1,0.8,0.2l-0.6,2.8c-0.4-0.2-0.9-0.2-1.5-0.2s-1.2,0.1-1.7,0.4
	c-0.5,0.2-1,0.6-1.4,1s-0.7,1-0.9,1.5c-0.2,0.6-0.3,1.2-0.3,1.9v8.3H116.2z"/>
<text transform="matrix(1 0 0 1 126.9629 25.0242)" class="st5 st6 st7">®</text>
</svg>
