<?xml version="1.0" encoding="utf-8"?>
<!-- Generator: Adobe Illustrator 25.2.0, SVG Export Plug-In . SVG Version: 6.00 Build 0)  -->
<svg version="1.1" id="Layer_1" xmlns="http://www.w3.org/2000/svg" xmlns:xlink="http://www.w3.org/1999/xlink" x="0px" y="0px"
	 viewBox="0 0 360 198" style="enable-background:new 0 0 360 198;" xml:space="preserve">
<style type="text/css">
	.st0{fill:#1A1A1A;}
	.st1{fill:none;}
	.st2{fill:#46AF2B;}
	.st3{font-family:'Matter-Bold';}
	.st4{font-size:16.5627px;}
</style>
<g>
	<g>
		<polygon class="st0" points="134.4,91.7 141.6,91.7 141.6,66 150.9,66 150.9,59.8 125,59.8 125,66 134.4,66 		"/>
		<path class="st0" d="M196.1,81.5c0,2.9-1.5,4.2-4.1,4.2c-0.7,0-1.3-0.1-2-0.2v6.2c0.8,0.2,2.7,0.4,3.7,0.4c5.5,0,9.2-3.3,9.2-10.2
			v-22h-6.8v0h-6.2V66h6.2V81.5z"/>
		<path class="st0" d="M145.6,73.3c-0.4,0.8-0.7,1.6-0.8,2.5l0,0.1c-0.1,0.4-0.1,0.7,0,1.1h5.9c0.2-2.2,1.8-3.6,4-3.6
			c2.5,0,4,1.4,4,3.6v0.1l-4.1,0.4c-6.6,0.7-9.9,3.1-9.9,7.7c0,3.8,3.1,6.8,7.6,6.8c2.5,0,5.1-1.3,6.5-3.3v2.9h6.5V78.1
			c0-6.5-4.2-9.7-10.5-9.7C150.7,68.4,147.2,70.2,145.6,73.3z M158.6,82.2c0,2.7-1.8,5.1-4.8,5.1c-1.9,0-2.9-1-2.9-2.3
			c0-1.3,1.1-2.5,3.4-2.7l4.3-0.5l0,0.2V82.2z"/>
		<path class="st0" d="M214.2,77.6c-6.6,0.7-9.9,3.1-9.9,7.7c0,3.8,3.1,6.8,7.6,6.8c2.5,0,5.1-1.3,6.5-3.3v2.9h6.5V78.1
			c0-6.5-4.2-9.7-10.5-9.7c-3.9,0-7.4,1.9-9,4.9c-0.4,0.8-0.7,1.6-0.8,2.5l0,0.1c-0.1,0.4-0.1,0.7,0,1.1h5.9c0.2-2.2,1.8-3.6,4-3.6
			c2.5,0,4,1.4,4,3.6v0.1L214.2,77.6z M218.3,82.2c0,2.7-1.8,5.1-4.8,5.1c-1.9,0-2.9-1-2.9-2.3c0-1.3,1.1-2.5,3.4-2.7l4.3-0.5l0,0.2
			V82.2z"/>
		<path class="st0" d="M233.4,83.4c0-6.5,2.9-8.8,5.9-8.8c0.8,0,1.6,0.1,2.4,0.4l0.2-6.4c-0.6-0.1-1.1-0.2-1.7-0.2
			c-2.7,0-5.7,1.9-6.7,4.3v-4h-6.7v23h6.7V83.4z"/>
		<polygon class="st0" points="173.3,91.7 177.5,85.6 181.6,91.7 188.9,91.7 181.1,80.3 188.9,68.7 181.7,68.7 177.5,75 173.2,68.7 
			166,68.7 173.9,80.3 166,91.7 		"/>
	</g>
</g>
<rect x="35.8" y="103.2" class="st1" width="295.3" height="50.1"/>
<text transform="matrix(1 0 0 1 103.6392 114.9033)"><tspan x="0" y="0" class="st2 st3 st4">Getting Started with </tspan><tspan x="-0.8" y="17.6" class="st2 st3 st4">Your TaxJar Account</tspan></text>
</svg>
