<?xml version="1.0" encoding="utf-8"?>
<!-- Generator: Adobe Illustrator 19.2.1, SVG Export Plug-In . SVG Version: 6.00 Build 0)  -->
<svg version="1.1" id="Layer_1" xmlns="http://www.w3.org/2000/svg" xmlns:xlink="http://www.w3.org/1999/xlink" x="0px" y="0px"
	 viewBox="0 0 360 198" style="enable-background:new 0 0 360 198;" xml:space="preserve">
<style type="text/css">
	.st0{fill:#FFFFFF;stroke:#000000;stroke-miterlimit:10;}
	.st1{fill:#009BDE;}
	.st2{fill:#002F87;}
</style>
<rect x="-6" y="-2" class="st0" width="375" height="226"/>
<path class="st1" d="M230,61h-22.2c-1.5,0-2.8,1.1-3.1,2.6l-9,57.1c-0.2,1,0.5,2,1.5,2.1c0.1,0,0.2,0,0.3,0H209c1,0,1.9-0.8,2.1-1.8
	l2.6-16.2c0.2-1.5,1.5-2.6,3.1-2.6h7c14.7,0,23.1-7.1,25.3-21.2c1-6.2,0-11-2.8-14.4C243.1,63,237.5,61,230,61z M232.6,81.8
	c-1.2,8-7.3,8-13.2,8H216l2.4-14.9c0.1-0.9,0.9-1.6,1.8-1.6h1.5c4,0,7.8,0,9.8,2.3C232.7,77,233,79,232.6,81.8L232.6,81.8z"/>
<path class="st2" d="M71.3,61H49.1c-1.5,0-2.8,1.1-3.1,2.6l-9,57.1c-0.2,1,0.5,2,1.5,2.1c0.1,0,0.2,0,0.3,0h10.6
	c1.5,0,2.8-1.1,3-2.6l2.5-15.4c0.2-1.5,1.5-2.6,3-2.6h7c14.7,0,23.1-7.1,25.3-21.2c1-6.2,0-11-2.8-14.4C84.4,63,78.8,61,71.3,61z
	 M73.9,81.8c-1.2,8-7.3,8-13.2,8h-3.3l2.3-14.9c0.1-0.9,0.9-1.6,1.8-1.6H63c4,0,7.8,0,9.8,2.3C74,77,74.3,79,73.9,81.8z"/>
<path class="st2" d="M137.8,81.6h-10.7c-0.9,0-1.7,0.7-1.8,1.6l-0.5,3l-0.7-1.2c-2.3-3.3-7.4-4.5-12.6-4.5
	c-11.8,0.1-21.8,9-23.8,21.5c-1,6.2,0.4,12.2,4,16.4c3.2,3.8,7.9,5.4,13.4,5.4c5.5,0.1,10.9-2.1,14.8-6.1l-0.5,3
	c-0.2,1,0.5,2,1.5,2.1c0.1,0,0.2,0,0.3,0h9.6c1.5,0,2.8-1.1,3.1-2.6l5.8-36.5c0.2-1-0.5-2-1.5-2.1C138,81.6,137.9,81.6,137.8,81.6z
	 M123,102.3c-0.9,5.9-6,10.3-12,10.2c-2.7,0.2-5.3-0.9-7.2-2.9c-1.6-2.1-2.2-4.9-1.7-7.5c0.8-5.9,5.9-10.3,11.9-10.3
	c2.7-0.1,5.3,0.9,7.1,2.9C122.9,96.9,123.5,99.7,123,102.3z"/>
<path class="st1" d="M296.5,81.6h-10.6c-0.9,0-1.7,0.7-1.9,1.6l-0.5,3l-0.7-1.2c-2.3-3.3-7.5-4.5-12.6-4.5
	c-11.8,0-21.8,8.9-23.8,21.4c-1,6.2,0.4,12.2,4,16.4c3.2,3.8,7.9,5.4,13.4,5.4c5.5,0.1,10.9-2.1,14.8-6.1l-0.5,3
	c-0.2,1,0.5,2,1.5,2.1c0.1,0,0.2,0,0.3,0h9.6c1.5,0,2.8-1.1,3-2.6l5.8-36.5c0.2-1-0.5-2-1.5-2.1C296.7,81.6,296.6,81.6,296.5,81.6z
	 M281.7,102.3c-0.9,5.9-6,10.3-12,10.2c-2.7,0.2-5.3-0.9-7.1-2.9c-1.6-2.1-2.2-4.9-1.7-7.5c0.8-5.9,5.9-10.3,11.9-10.2
	c2.7-0.1,5.3,0.9,7.1,2.9C281.6,96.9,282.2,99.7,281.7,102.3z"/>
<path class="st2" d="M194.6,81.6h-10.7c-1,0-2,0.5-2.6,1.4l-14.8,21.8l-6.3-20.9c-0.4-1.3-1.6-2.2-3-2.2h-10.5c-1,0-1.9,0.8-1.9,1.8
	c0,0.2,0,0.4,0.1,0.6l11.8,34.6l-11.1,15.7c-0.6,0.8-0.4,2,0.4,2.6c0.3,0.2,0.7,0.3,1.1,0.3h10.7c1,0,2-0.5,2.5-1.3l35.6-51.4
	c0.6-0.8,0.4-2-0.5-2.6C195.3,81.7,194.9,81.6,194.6,81.6z"/>
<path class="st1" d="M309.1,62.6l-9.1,58.1c-0.2,1,0.5,2,1.5,2.1c0.1,0,0.2,0,0.3,0h9.2c1.5,0,2.8-1.1,3-2.6l9-57
	c0.2-1-0.5-2-1.5-2.1c-0.1,0-0.2,0-0.3,0h-10.3C310,61,309.2,61.7,309.1,62.6z"/>
</svg>
