<?xml version="1.0" encoding="utf-8"?>
<!-- Generator: Adobe Illustrator 25.2.0, SVG Export Plug-In . SVG Version: 6.00 Build 0)  -->
<svg version="1.1" id="Layer_1" xmlns="http://www.w3.org/2000/svg" xmlns:xlink="http://www.w3.org/1999/xlink" x="0px" y="0px"
	 viewBox="0 0 674 400" style="enable-background:new 0 0 674 400;" xml:space="preserve">
<style type="text/css">
	.st0{fill:#1A1A1A;}
	.st1{fill:none;}
	.st2{fill:#46AF2B;}
	.st3{font-family:'Matter-Bold';}
	.st4{font-size:31px;}
</style>
<desc>Created with Sketch.</desc>
<g>
	<g>
		<polygon class="st0" points="251.7,211.2 265.2,211.2 265.2,163 282.6,163 282.6,151.4 234.2,151.4 234.2,163 251.7,163 		"/>
		<path class="st0" d="M367.2,192.1c0,5.5-2.7,7.8-7.7,7.8c-1.3,0-2.5-0.2-3.7-0.4v11.5c1.5,0.3,5.1,0.7,6.9,0.7
			c10.4,0,17.3-6.1,17.3-19v-41.2h-12.8v0h-11.6V163h11.6V192.1z"/>
		<path class="st0" d="M272.8,176.6c-0.8,1.4-1.3,3-1.6,4.6l0,0.1c-0.1,0.7-0.1,1.4-0.1,2h11c0.4-4.2,3.4-6.7,7.5-6.7
			c4.6,0,7.5,2.6,7.5,6.8v0.3l-7.7,0.8c-12.4,1.3-18.6,5.9-18.6,14.4c0,7.2,5.9,12.8,14.2,12.8c4.8,0,9.6-2.4,12.1-6.1v5.5h12.1
			v-25.5c0-12.1-7.9-18.2-19.6-18.2C282.2,167.5,275.8,171,272.8,176.6z M297.1,193.4c-0.1,5-3.4,9.6-9,9.6c-3.5,0-5.4-1.9-5.4-4.3
			c0-2.5,2.1-4.6,6.4-5l8-0.9l0,0.3V193.4z"/>
		<path class="st0" d="M401.1,184.7c-12.4,1.3-18.6,5.9-18.6,14.4c0,7.2,5.9,12.8,14.2,12.8c4.8,0,9.6-2.4,12.1-6.1v5.5h12.1v-25.5
			c0-12.1-7.9-18.2-19.6-18.2c-7.3,0-13.8,3.5-16.8,9.2c-0.8,1.4-1.3,3-1.6,4.6l0,0.1c-0.1,0.7-0.1,1.4-0.1,2h11
			c0.4-4.2,3.4-6.7,7.5-6.7c4.6,0,7.5,2.6,7.5,6.8v0.3L401.1,184.7z M408.9,193.4c-0.1,5-3.4,9.6-9,9.6c-3.5,0-5.4-1.9-5.4-4.3
			c0-2.5,2.1-4.6,6.4-5l8-0.9l0,0.3V193.4z"/>
		<path class="st0" d="M437,195.7c0-12.2,5.4-16.5,11-16.5c1.5,0,3.1,0.2,4.5,0.7l0.3-12c-1.1-0.2-2.1-0.3-3.2-0.3
			c-5.1,0-10.6,3.5-12.6,8.1v-7.4h-12.5v43H437V195.7z"/>
		<polygon class="st0" points="324.6,211.2 332.3,199.7 340.1,211.2 353.7,211.2 339.1,189.8 353.7,168.2 340.3,168.2 332.3,179.9 
			324.3,168.2 311,168.2 325.6,189.8 311,211.2 		"/>
	</g>
</g>
<rect x="67.2" y="232.6" class="st1" width="552.7" height="93.8"/>
<text transform="matrix(1 0 0 1 175.4982 254.5583)" class="st2 st3 st4">Getting Started Guides</text>
</svg>
