<?xml version="1.0" encoding="UTF-8" standalone="no"?>
<svg
   xmlns:dc="http://purl.org/dc/elements/1.1/"
   xmlns:cc="http://creativecommons.org/ns#"
   xmlns:rdf="http://www.w3.org/1999/02/22-rdf-syntax-ns#"
   xmlns:svg="http://www.w3.org/2000/svg"
   xmlns="http://www.w3.org/2000/svg"
   xmlns:sodipodi="http://sodipodi.sourceforge.net/DTD/sodipodi-0.dtd"
   xmlns:inkscape="http://www.inkscape.org/namespaces/inkscape"
   inkscape:version="1.0rc1 (09960d6, 2020-04-09)"
   sodipodi:docname="salesforce commerce cloud.svg"
   id="svg155"
   version="1.1"
   viewBox="0 0 51 42">
  <metadata
     id="metadata161">
    <rdf:RDF>
      <cc:Work
         rdf:about="">
        <dc:format>image/svg+xml</dc:format>
        <dc:type
           rdf:resource="http://purl.org/dc/dcmitype/StillImage" />
        <dc:title></dc:title>
      </cc:Work>
    </rdf:RDF>
  </metadata>
  <defs
     id="defs159" />
  <sodipodi:namedview
     inkscape:current-layer="layer1"
     inkscape:window-maximized="0"
     inkscape:window-y="0"
     inkscape:window-x="1440"
     inkscape:cy="21"
     inkscape:cx="25.5"
     inkscape:zoom="20.761905"
     showgrid="false"
     id="namedview157"
     inkscape:window-height="1080"
     inkscape:window-width="1920"
     inkscape:pageshadow="2"
     inkscape:pageopacity="0"
     guidetolerance="10"
     gridtolerance="10"
     objecttolerance="10"
     borderopacity="1"
     bordercolor="#666666"
     pagecolor="#ffffff" />
  <g
     inkscape:label="Layer 2"
     id="layer2"
     inkscape:groupmode="layer">
    <rect
       y="-0.048165116"
       x="1.0499167e-07"
       height="42.192661"
       width="51.055046"
       id="rect173"
       style="fill:#ffffff" />
  </g>
  <g
     style="display:inline"
     inkscape:label="Layer 1"
     id="layer1"
     inkscape:groupmode="layer">
    <g
       id="g153"
       fill-rule="evenodd"
       fill="none">
      <path
         inkscape:connector-curvature="0"
         id="path139"
         d="m 2.992,29.917 c 0.213,0 0.417,0.033 0.61,0.1 0.194,0.067 0.366,0.16 0.517,0.28 L 3.893,30.705 A 1.438,1.438 0 0 0 2.992,30.408 c -0.365,0 -0.64,0.123 -0.827,0.37 -0.187,0.246 -0.28,0.577 -0.28,0.992 0,0.405 0.093,0.733 0.28,0.984 0.187,0.252 0.46,0.377 0.82,0.377 0.307,0 0.612,-0.099 0.914,-0.297 l 0.207,0.415 c -0.338,0.253 -0.725,0.38 -1.16,0.38 -0.383,0 -0.697,-0.089 -0.941,-0.266 A 1.502,1.502 0 0 1 1.475,32.675 2.483,2.483 0 0 1 1.311,31.77 c 0,-0.563 0.149,-1.012 0.447,-1.349 0.298,-0.336 0.71,-0.504 1.234,-0.504 m 1.911,1.845 c 0,0.42 0.092,0.758 0.277,1.013 0.184,0.256 0.463,0.384 0.837,0.384 0.378,0 0.66,-0.128 0.847,-0.384 0.187,-0.255 0.28,-0.593 0.28,-1.013 0,-0.419 -0.093,-0.753 -0.28,-1.002 -0.187,-0.249 -0.47,-0.373 -0.847,-0.373 -0.378,0 -0.658,0.124 -0.84,0.373 -0.183,0.25 -0.274,0.583 -0.274,1.002 m 2.822,0 c 0,0.365 -0.068,0.688 -0.204,0.972 a 1.529,1.529 0 0 1 -0.587,0.66 1.727,1.727 0 0 1 -0.917,0.235 1.71,1.71 0 0 1 -0.914,-0.238 1.526,1.526 0 0 1 -0.587,-0.66 2.231,2.231 0 0 1 -0.2,-0.969 c 0,-0.562 0.149,-1.01 0.447,-1.344 0.298,-0.334 0.716,-0.501 1.254,-0.501 0.36,0 0.668,0.077 0.924,0.231 0.256,0.155 0.45,0.37 0.583,0.647 0.134,0.276 0.2,0.599 0.2,0.967 m 0.646,-0.96 c 0,-0.258 -0.015,-0.521 -0.046,-0.789 h 0.54 c 0.022,0.125 0.037,0.291 0.046,0.498 h 0.014 a 1.23,1.23 0 0 1 0.45,-0.428 c 0.194,-0.11 0.417,-0.166 0.67,-0.166 0.29,0 0.525,0.063 0.707,0.19 0.183,0.126 0.316,0.3 0.4,0.522 h 0.014 c 0.116,-0.222 0.274,-0.396 0.474,-0.522 0.2,-0.127 0.44,-0.19 0.72,-0.19 0.28,0 0.514,0.063 0.7,0.19 0.187,0.126 0.325,0.293 0.414,0.498 0.089,0.204 0.133,0.43 0.133,0.674 v 2.253 h -0.567 v -2.17 c 0,-0.272 -0.063,-0.5 -0.19,-0.685 -0.126,-0.184 -0.33,-0.276 -0.61,-0.276 a 0.85,0.85 0 0 0 -0.527,0.165 1.03,1.03 0 0 0 -0.333,0.443 1.551,1.551 0 0 0 -0.114,0.594 v 1.93 h -0.567 v -2.185 c 0,-0.267 -0.064,-0.492 -0.193,-0.674 -0.13,-0.182 -0.332,-0.273 -0.607,-0.273 a 0.854,0.854 0 0 0 -0.7,0.321 c -0.174,0.214 -0.26,0.478 -0.26,0.792 v 2.018 H 8.37 Z m 6.058,0 c 0,-0.258 -0.016,-0.521 -0.047,-0.789 h 0.54 c 0.022,0.125 0.038,0.291 0.047,0.498 h 0.013 a 1.23,1.23 0 0 1 0.45,-0.428 c 0.194,-0.11 0.418,-0.166 0.67,-0.166 0.29,0 0.526,0.063 0.708,0.19 0.182,0.126 0.316,0.3 0.4,0.522 h 0.014 c 0.115,-0.222 0.273,-0.396 0.473,-0.522 0.2,-0.127 0.44,-0.19 0.72,-0.19 0.28,0 0.514,0.063 0.701,0.19 0.187,0.126 0.324,0.293 0.414,0.498 0.088,0.204 0.133,0.43 0.133,0.674 v 2.253 h -0.567 v -2.17 c 0,-0.272 -0.063,-0.5 -0.19,-0.685 -0.127,-0.184 -0.33,-0.276 -0.61,-0.276 a 0.85,0.85 0 0 0 -0.527,0.165 1.03,1.03 0 0 0 -0.334,0.443 1.551,1.551 0 0 0 -0.113,0.594 v 1.93 h -0.567 v -2.185 c 0,-0.267 -0.065,-0.492 -0.194,-0.674 -0.129,-0.182 -0.331,-0.273 -0.607,-0.273 a 0.854,0.854 0 0 0 -0.7,0.321 c -0.174,0.214 -0.26,0.478 -0.26,0.792 v 2.018 h -0.567 z m 8.428,0.725 c -0.01,-0.35 -0.096,-0.631 -0.26,-0.843 -0.165,-0.212 -0.403,-0.318 -0.714,-0.318 -0.316,0 -0.56,0.11 -0.734,0.328 -0.173,0.22 -0.267,0.497 -0.28,0.833 z m 0.54,0.456 h -2.521 c 0.022,0.36 0.126,0.646 0.313,0.858 0.187,0.212 0.454,0.318 0.8,0.318 0.205,0 0.389,-0.029 0.55,-0.087 0.163,-0.057 0.326,-0.144 0.491,-0.259 l 0.254,0.38 a 2.207,2.207 0 0 1 -0.61,0.325 2.207,2.207 0 0 1 -0.718,0.111 c -0.52,0 -0.926,-0.17 -1.217,-0.512 -0.291,-0.34 -0.437,-0.795 -0.437,-1.362 0,-0.364 0.062,-0.684 0.187,-0.96 0.124,-0.277 0.306,-0.492 0.543,-0.647 0.238,-0.154 0.524,-0.232 0.858,-0.232 0.493,0 0.87,0.167 1.13,0.498 0.26,0.332 0.39,0.773 0.39,1.32 0,0.111 -0.004,0.194 -0.013,0.25 z m 0.656,-1.181 c 0,-0.258 -0.015,-0.521 -0.046,-0.789 h 0.54 c 0.022,0.157 0.038,0.344 0.047,0.56 h 0.013 c 0.196,-0.437 0.551,-0.656 1.067,-0.656 0.036,0 0.1,0.007 0.194,0.02 l -0.034,0.505 a 1.143,1.143 0 0 0 -0.207,-0.014 c -0.324,0 -0.573,0.113 -0.746,0.34 -0.174,0.225 -0.26,0.517 -0.26,0.877 v 1.887 h -0.568 z m 3.628,-0.885 c 0.214,0 0.417,0.033 0.61,0.1 0.194,0.067 0.367,0.16 0.517,0.28 l -0.226,0.408 a 1.438,1.438 0 0 0 -0.9,-0.297 c -0.365,0 -0.641,0.123 -0.828,0.37 -0.187,0.246 -0.28,0.577 -0.28,0.992 0,0.405 0.093,0.733 0.28,0.984 0.187,0.252 0.46,0.377 0.82,0.377 0.308,0 0.612,-0.099 0.914,-0.297 l 0.207,0.415 c -0.338,0.253 -0.725,0.38 -1.16,0.38 -0.383,0 -0.697,-0.089 -0.94,-0.266 A 1.505,1.505 0 0 1 26.163,32.675 2.483,2.483 0 0 1 25.999,31.77 c 0,-0.563 0.15,-1.012 0.447,-1.349 0.298,-0.336 0.71,-0.504 1.234,-0.504 m 3.887,1.61 c -0.01,-0.35 -0.096,-0.631 -0.26,-0.843 -0.165,-0.212 -0.403,-0.318 -0.715,-0.318 -0.315,0 -0.56,0.11 -0.733,0.328 -0.174,0.22 -0.267,0.497 -0.28,0.833 z m 0.54,0.456 h -2.522 c 0.023,0.36 0.127,0.646 0.314,0.858 0.187,0.212 0.454,0.318 0.8,0.318 0.205,0 0.388,-0.029 0.55,-0.087 0.163,-0.057 0.327,-0.144 0.49,-0.259 l 0.255,0.38 a 2.207,2.207 0 0 1 -0.61,0.325 2.212,2.212 0 0 1 -0.718,0.111 c -0.52,0 -0.926,-0.17 -1.217,-0.512 -0.292,-0.34 -0.437,-0.795 -0.437,-1.362 0,-0.364 0.062,-0.684 0.187,-0.96 0.124,-0.277 0.305,-0.492 0.543,-0.647 0.238,-0.154 0.524,-0.232 0.857,-0.232 0.494,0 0.87,0.167 1.131,0.498 0.26,0.332 0.39,0.773 0.39,1.32 0,0.111 -0.004,0.194 -0.013,0.25 z m 3.542,-2.066 c 0.213,0 0.417,0.033 0.61,0.1 0.194,0.067 0.366,0.16 0.517,0.28 l -0.227,0.408 a 1.438,1.438 0 0 0 -0.9,-0.297 c -0.365,0 -0.64,0.123 -0.827,0.37 -0.187,0.246 -0.28,0.577 -0.28,0.992 0,0.405 0.093,0.733 0.28,0.984 0.186,0.252 0.46,0.377 0.82,0.377 0.307,0 0.611,-0.099 0.914,-0.297 l 0.207,0.415 c -0.338,0.253 -0.725,0.38 -1.161,0.38 -0.382,0 -0.696,-0.089 -0.94,-0.266 a 1.505,1.505 0 0 1 -0.53,-0.688 2.483,2.483 0 0 1 -0.164,-0.905 c 0,-0.563 0.149,-1.012 0.447,-1.349 0.298,-0.336 0.71,-0.504 1.234,-0.504 m 1.781,3.615 h 0.567 V 28.638 H 37.43 Z m 1.82,-1.77 c 0,0.42 0.093,0.758 0.277,1.013 0.185,0.256 0.464,0.384 0.838,0.384 0.378,0 0.66,-0.128 0.847,-0.384 0.187,-0.255 0.28,-0.593 0.28,-1.013 0,-0.419 -0.093,-0.753 -0.28,-1.002 -0.187,-0.249 -0.47,-0.373 -0.847,-0.373 -0.378,0 -0.659,0.124 -0.84,0.373 -0.183,0.25 -0.274,0.583 -0.274,1.002 m 2.821,0 c 0,0.365 -0.068,0.688 -0.203,0.972 a 1.529,1.529 0 0 1 -0.587,0.66 1.724,1.724 0 0 1 -0.917,0.235 1.71,1.71 0 0 1 -0.914,-0.238 1.526,1.526 0 0 1 -0.587,-0.66 2.231,2.231 0 0 1 -0.2,-0.969 c 0,-0.562 0.148,-1.01 0.447,-1.344 0.297,-0.334 0.715,-0.501 1.254,-0.501 0.36,0 0.668,0.077 0.924,0.231 0.255,0.155 0.45,0.37 0.583,0.647 0.134,0.276 0.2,0.599 0.2,0.967 m 0.534,0.408 v -2.156 h 0.573 v 2.073 c 0,0.323 0.068,0.582 0.204,0.778 0.135,0.196 0.346,0.294 0.63,0.294 0.312,0 0.56,-0.12 0.747,-0.363 0.187,-0.242 0.28,-0.543 0.28,-0.902 v -1.88 h 0.568 v 2.737 c 0,0.254 0.015,0.514 0.046,0.781 h -0.54 a 5.344,5.344 0 0 1 -0.047,-0.56 h -0.013 c -0.245,0.438 -0.636,0.657 -1.174,0.657 -0.423,0 -0.74,-0.135 -0.954,-0.404 -0.213,-0.27 -0.32,-0.622 -0.32,-1.055 m 6.25,-0.152 v -1.106 a 1.336,1.336 0 0 0 -0.45,-0.39 1.253,1.253 0 0 0 -0.577,-0.128 0.912,0.912 0 0 0 -0.777,0.387 c -0.19,0.258 -0.284,0.592 -0.284,1.002 0,0.424 0.091,0.76 0.274,1.006 0.182,0.247 0.433,0.37 0.753,0.37 0.32,0 0.578,-0.107 0.77,-0.321 0.194,-0.215 0.291,-0.488 0.291,-0.82 m 0.614,1.514 h -0.527 a 3.527,3.527 0 0 1 -0.047,-0.525 h -0.013 c -0.254,0.415 -0.658,0.622 -1.214,0.622 -0.48,0 -0.849,-0.17 -1.104,-0.512 -0.256,-0.34 -0.384,-0.785 -0.384,-1.334 0,-0.35 0.064,-0.667 0.19,-0.95 0.127,-0.284 0.308,-0.507 0.544,-0.671 0.236,-0.163 0.514,-0.245 0.834,-0.245 0.453,0 0.822,0.152 1.107,0.456 v -1.735 h 0.567 v 4.113 c 0,0.254 0.016,0.514 0.047,0.781"
         fill="#72808a" />
      <path
         inkscape:connector-curvature="0"
         id="path141"
         d="M 23.236,10.072 A 4.72,4.72 0 0 1 26.66,8.594 c 1.782,0 3.337,0.999 4.165,2.482 a 5.736,5.736 0 0 1 2.354,-0.503 c 3.215,0 5.821,2.643 5.821,5.904 0,3.26 -2.606,5.904 -5.82,5.904 a 5.76,5.76 0 0 1 -1.148,-0.115 4.25,4.25 0 0 1 -3.714,2.191 4.21,4.21 0 0 1 -1.861,-0.43 4.854,4.854 0 0 1 -4.47,2.973 4.86,4.86 0 0 1 -4.555,-3.195 4.426,4.426 0 0 1 -0.927,0.098 c -2.487,0 -4.505,-2.05 -4.505,-4.578 0,-1.694 0.907,-3.174 2.253,-3.966 a 5.271,5.271 0 0 1 -0.43,-2.093 C 13.822,10.357 16.17,8 19.065,8 c 1.7,0 3.212,0.813 4.17,2.072 z"
         fill-rule="nonzero"
         fill="#0c9bd7" />
      <g
         id="g151"
         fill="#ffffff">
        <path
           inkscape:connector-curvature="0"
           id="path143"
           d="m 15.973,17.904 c -0.017,0.044 0.006,0.052 0.011,0.06 0.05,0.036 0.1,0.062 0.152,0.091 0.272,0.143 0.528,0.185 0.796,0.185 0.546,0 0.885,-0.288 0.885,-0.752 v -0.009 c 0,-0.429 -0.382,-0.585 -0.741,-0.697 l -0.047,-0.016 c -0.27,-0.087 -0.504,-0.163 -0.504,-0.339 v -0.01 c 0,-0.151 0.137,-0.262 0.348,-0.262 0.235,0 0.514,0.078 0.694,0.176 0,0 0.053,0.035 0.072,-0.017 l 0.11,-0.296 c 0.011,-0.028 -0.007,-0.05 -0.026,-0.062 a 1.559,1.559 0 0 0 -0.782,-0.209 h -0.054 c -0.5,0 -0.848,0.3 -0.848,0.73 v 0.01 c 0,0.452 0.384,0.599 0.745,0.701 l 0.057,0.018 c 0.263,0.08 0.49,0.15 0.49,0.333 v 0.01 c 0,0.167 -0.148,0.292 -0.385,0.292 -0.092,0 -0.385,-0.002 -0.703,-0.202 -0.039,-0.022 -0.06,-0.038 -0.09,-0.056 -0.016,-0.01 -0.055,-0.026 -0.072,0.025 z m 7.993,0 c -0.018,0.044 0.006,0.052 0.01,0.06 0.05,0.036 0.101,0.062 0.153,0.091 0.271,0.143 0.528,0.185 0.796,0.185 0.546,0 0.885,-0.288 0.885,-0.752 v -0.009 c 0,-0.429 -0.383,-0.585 -0.742,-0.697 l -0.047,-0.016 c -0.27,-0.087 -0.504,-0.163 -0.504,-0.339 v -0.01 c 0,-0.151 0.136,-0.262 0.348,-0.262 0.236,0 0.515,0.078 0.694,0.176 0,0 0.053,0.035 0.072,-0.017 l 0.11,-0.296 c 0.011,-0.028 -0.007,-0.05 -0.026,-0.062 a 1.559,1.559 0 0 0 -0.782,-0.209 h -0.054 c -0.5,0 -0.848,0.3 -0.848,0.73 v 0.01 c 0,0.452 0.384,0.599 0.745,0.701 l 0.058,0.018 c 0.262,0.08 0.489,0.15 0.489,0.333 v 0.01 c 0,0.167 -0.148,0.292 -0.385,0.292 -0.092,0 -0.385,-0.002 -0.703,-0.202 -0.038,-0.022 -0.06,-0.037 -0.09,-0.056 -0.01,-0.006 -0.056,-0.024 -0.072,0.025 z m 5.912,-1.395 A 1.087,1.087 0 0 0 29.67,16.116 0.996,0.996 0 0 0 29.32,15.852 1.153,1.153 0 0 0 28.831,15.754 c -0.185,0 -0.35,0.033 -0.489,0.098 a 1.012,1.012 0 0 0 -0.558,0.657 1.72,1.72 0 0 0 -0.067,0.486 c 0,0.174 0.023,0.337 0.067,0.486 0.045,0.15 0.115,0.282 0.208,0.393 0.093,0.11 0.211,0.2 0.35,0.262 0.14,0.063 0.304,0.094 0.489,0.094 0.185,0 0.349,-0.032 0.489,-0.094 a 0.985,0.985 0 0 0 0.35,-0.262 c 0.093,-0.111 0.162,-0.243 0.208,-0.393 0.044,-0.15 0.067,-0.313 0.067,-0.486 0,-0.173 -0.023,-0.337 -0.067,-0.486 m -0.456,0.487 c 0,0.262 -0.05,0.469 -0.146,0.614 -0.096,0.145 -0.242,0.215 -0.444,0.215 -0.203,0 -0.347,-0.07 -0.441,-0.215 -0.096,-0.145 -0.145,-0.353 -0.145,-0.615 0,-0.262 0.048,-0.468 0.145,-0.613 0.094,-0.143 0.24,-0.213 0.44,-0.213 0.203,0 0.349,0.07 0.445,0.213 0.097,0.145 0.146,0.351 0.146,0.614"
           fill-rule="nonzero" />
        <path
           inkscape:connector-curvature="0"
           id="path145"
           d="m 33.62,17.755 c -0.015,-0.044 -0.058,-0.027 -0.058,-0.027 a 0.983,0.983 0 0 1 -0.212,0.06 c -0.076,0.012 -0.16,0.018 -0.25,0.018 -0.22,0 -0.396,-0.066 -0.521,-0.194 -0.126,-0.129 -0.197,-0.337 -0.196,-0.619 0,-0.256 0.063,-0.448 0.175,-0.596 0.11,-0.146 0.28,-0.22 0.506,-0.22 0.188,0 0.331,0.02 0.481,0.068 0,0 0.036,0.015 0.053,-0.032 0.04,-0.11 0.07,-0.188 0.112,-0.31 0.012,-0.034 -0.017,-0.049 -0.028,-0.053 a 1.736,1.736 0 0 0 -0.304,-0.076 2.375,2.375 0 0 0 -0.342,-0.023 c -0.191,0 -0.362,0.032 -0.508,0.097 a 1.052,1.052 0 0 0 -0.588,0.657 1.54,1.54 0 0 0 -0.075,0.488 c 0,0.375 0.102,0.679 0.303,0.901 0.202,0.224 0.505,0.336 0.9,0.336 0.233,0 0.473,-0.047 0.646,-0.114 0,0 0.032,-0.015 0.018,-0.054 z m 2.332,-1.331 a 0.958,0.958 0 0 0 -0.198,-0.36 0.91,0.91 0 0 0 -0.292,-0.221 1.127,1.127 0 0 0 -0.443,-0.089 1.22,1.22 0 0 0 -0.509,0.098 1.029,1.029 0 0 0 -0.564,0.668 c -0.044,0.15 -0.068,0.315 -0.068,0.488 0,0.177 0.024,0.341 0.07,0.49 0.048,0.149 0.123,0.28 0.224,0.39 0.101,0.109 0.232,0.195 0.388,0.254 0.156,0.06 0.344,0.09 0.56,0.09 0.445,-10e-4 0.68,-0.099 0.777,-0.153 0.017,-0.01 0.033,-0.025 0.013,-0.073 l -0.102,-0.28 c -0.015,-0.042 -0.058,-0.027 -0.058,-0.027 -0.11,0.04 -0.267,0.114 -0.634,0.113 -0.238,0 -0.416,-0.07 -0.528,-0.18 -0.114,-0.111 -0.17,-0.277 -0.179,-0.51 l 1.542,0.002 c 0,0 0.04,-10e-4 0.045,-0.04 a 1.576,1.576 0 0 0 -0.044,-0.66 z m -1.534,0.32 a 0.882,0.882 0 0 1 0.124,-0.361 0.493,0.493 0 0 1 0.441,-0.223 c 0.203,0 0.336,0.08 0.433,0.223 0.064,0.094 0.091,0.22 0.102,0.361 z m -10.821,-0.32 a 0.958,0.958 0 0 0 -0.197,-0.36 0.91,0.91 0 0 0 -0.293,-0.221 1.13,1.13 0 0 0 -0.442,-0.089 1.22,1.22 0 0 0 -0.51,0.098 1.029,1.029 0 0 0 -0.563,0.668 c -0.045,0.15 -0.068,0.315 -0.068,0.488 0,0.177 0.023,0.341 0.07,0.49 0.047,0.149 0.122,0.28 0.223,0.39 0.102,0.109 0.232,0.195 0.389,0.254 0.155,0.06 0.343,0.09 0.56,0.09 0.445,-10e-4 0.68,-0.099 0.776,-0.153 0.017,-0.01 0.034,-0.025 0.013,-0.073 l -0.1,-0.28 c -0.016,-0.042 -0.059,-0.027 -0.059,-0.027 -0.11,0.04 -0.267,0.114 -0.633,0.113 -0.239,0 -0.417,-0.07 -0.528,-0.18 -0.114,-0.111 -0.17,-0.277 -0.18,-0.51 l 1.542,0.002 c 0,0 0.04,-10e-4 0.045,-0.04 0.002,-0.017 0.054,-0.315 -0.045,-0.66 z m -1.534,0.32 a 0.882,0.882 0 0 1 0.125,-0.361 0.493,0.493 0 0 1 0.44,-0.223 c 0.203,0 0.337,0.08 0.434,0.223 0.063,0.094 0.09,0.22 0.102,0.361 z" />
        <path
           inkscape:connector-curvature="0"
           id="path147"
           d="m 19.342,16.67 a 3.651,3.651 0 0 0 -0.241,-0.006 c -0.132,0 -0.26,0.016 -0.38,0.049 a 0.994,0.994 0 0 0 -0.321,0.148 0.746,0.746 0 0 0 -0.224,0.252 0.732,0.732 0 0 0 -0.083,0.353 c 0,0.136 0.024,0.253 0.07,0.35 a 0.642,0.642 0 0 0 0.201,0.24 0.857,0.857 0 0 0 0.315,0.135 c 0.12,0.027 0.258,0.042 0.408,0.042 0.158,0 0.316,-0.013 0.47,-0.039 a 8.84,8.84 0 0 0 0.387,-0.075 l 0.108,-0.027 c 0.039,-0.01 0.036,-0.05 0.036,-0.05 V 16.64 c 0,-0.308 -0.083,-0.534 -0.246,-0.676 -0.162,-0.14 -0.4,-0.211 -0.708,-0.211 A 2.58,2.58 0 0 0 18.72,15.79 c 0,0 -0.337,0.065 -0.476,0.173 0,0 -0.03,0.019 -0.014,0.06 l 0.11,0.292 c 0.013,0.038 0.05,0.025 0.05,0.025 0,0 0.012,-0.004 0.026,-0.013 0.297,-0.16 0.672,-0.155 0.672,-0.155 0.167,0 0.295,0.033 0.381,0.099 0.084,0.064 0.127,0.161 0.127,0.365 v 0.065 c -0.132,-0.02 -0.254,-0.03 -0.254,-0.03 z m -0.614,1.077 a 0.308,0.308 0 0 1 -0.089,-0.091 0.363,0.363 0 0 1 -0.046,-0.2 c 0,-0.135 0.044,-0.231 0.137,-0.297 0,0 0.133,-0.114 0.447,-0.11 0.221,0.002 0.42,0.034 0.42,0.034 v 0.697 c 0,0 -0.196,0.042 -0.417,0.055 -0.313,0.02 -0.452,-0.088 -0.452,-0.088 z"
           fill-rule="nonzero" />
        <path
           inkscape:connector-curvature="0"
           id="path149"
           d="m 31.784,15.881 c 0.012,-0.035 -0.012,-0.05 -0.023,-0.055 a 1.323,1.323 0 0 0 -0.258,-0.044 0.762,0.762 0 0 0 -0.398,0.064 0.695,0.695 0 0 0 -0.26,0.191 V 15.851 A 0.044,0.044 0 0 0 30.8,15.805 h -0.396 c -0.026,0 -0.044,0.02 -0.044,0.046 v 2.285 c 0,0.025 0.02,0.046 0.046,0.046 h 0.406 c 0.025,0 0.046,-0.02 0.046,-0.046 v -1.142 c 0,-0.154 0.017,-0.306 0.05,-0.402 a 0.567,0.567 0 0 1 0.136,-0.226 0.467,0.467 0 0 1 0.191,-0.113 0.74,0.74 0 0 1 0.376,-0.008 c 0.03,0.003 0.046,-0.015 0.057,-0.041 0.027,-0.071 0.102,-0.28 0.116,-0.323 z M 27.98,14.822 A 1.12,1.12 0 0 0 27.618,14.77 c -0.28,0 -0.499,0.079 -0.653,0.233 -0.154,0.154 -0.258,0.387 -0.31,0.695 l -0.02,0.104 h -0.35 c 0,0 -0.043,-0.002 -0.051,0.044 l -0.058,0.32 c -0.004,0.03 0.01,0.049 0.051,0.049 h 0.34 l -0.345,1.917 a 2.342,2.342 0 0 1 -0.093,0.378 0.81,0.81 0 0 1 -0.107,0.218 0.283,0.283 0 0 1 -0.141,0.108 0.57,0.57 0 0 1 -0.305,0.012 0.324,0.324 0 0 1 -0.083,-0.027 c 0,0 -0.04,-0.015 -0.056,0.025 -0.013,0.032 -0.104,0.28 -0.114,0.31 -0.011,0.032 0.004,0.055 0.024,0.062 a 0.918,0.918 0 0 0 0.367,0.062 c 0.141,0 0.27,-0.02 0.378,-0.057 a 0.707,0.707 0 0 0 0.285,-0.198 1.03,1.03 0 0 0 0.201,-0.343 c 0.053,-0.14 0.099,-0.313 0.136,-0.515 l 0.348,-1.952 h 0.508 c 0,0 0.043,0.001 0.051,-0.045 l 0.058,-0.318 c 0.004,-0.031 -0.01,-0.05 -0.05,-0.05 h -0.494 c 0.003,-0.011 0.025,-0.183 0.082,-0.345 a 0.445,0.445 0 0 1 0.108,-0.164 0.326,0.326 0 0 1 0.129,-0.08 0.62,0.62 0 0 1 0.293,-0.011 c 0.048,0.01 0.066,0.015 0.079,0.019 0.05,0.015 0.056,0 0.067,-0.024 l 0.117,-0.322 c 0.01,-0.034 -0.019,-0.048 -0.03,-0.053 z m -6.891,3.314 a 0.044,0.044 0 0 1 -0.045,0.046 h -0.409 a 0.045,0.045 0 0 1 -0.044,-0.046 v -3.27 c 0,-0.026 0.018,-0.046 0.044,-0.046 h 0.41 c 0.026,0 0.044,0.02 0.044,0.046 z" />
      </g>
    </g>
  </g>
</svg>
