<?xml version="1.0" encoding="UTF-8" standalone="no"?>
<svg width="674px" height="400px" viewBox="0 0 674 400" version="1.1" xmlns="http://www.w3.org/2000/svg" xmlns:xlink="http://www.w3.org/1999/xlink">
    <!-- Generator: Sketch 3.6.1 (26313) - http://www.bohemiancoding.com/sketch -->
    <title>woocommerce</title>
    <desc>Created with Sketch.</desc>
    <defs></defs>
    <g id="Page-1" stroke="none" stroke-width="1" fill="none" fill-rule="evenodd">
        <g id="woocommerce">
            <g id="Page-1">
                <g id="Group-2">
                    <rect id="Rectangle-1" fill="#FFFFFF" x="0" y="0" width="674" height="400"></rect>
                    <g id="woocommerce" transform="translate(107.000000, 163.000000)">
                        <g id="Group">
                            <path d="M14.9103448,0.637288136 L141.489655,0.637288136 C149.5,0.637288136 156.003448,7.16949153 156.003448,15.2152542 L156.003448,63.7288136 C156.003448,71.7745763 149.5,78.3067797 141.489655,78.3067797 L96.1241379,78.3067797 L102.389655,93.6016949 L75.0275862,78.3067797 L15.0689655,78.3067797 C7.05862069,78.3067797 0.555172414,71.7745763 0.555172414,63.7288136 L0.555172414,15.2152542 C0.396551724,7.24915254 6.9,0.637288136 14.9103448,0.637288136 L14.9103448,0.637288136 L14.9103448,0.637288136 Z" id="Shape" fill="#9B5C8F"></path>
                            <path d="M8.24827586,13.8610169 C9.12068966,12.6661017 10.4689655,12.0288136 12.2931034,11.8694915 C15.5448276,11.6305085 17.3689655,13.1440678 17.8448276,16.4898305 C19.8275862,29.8728814 21.9689655,41.1050847 24.2689655,50.4254237 L38.2275862,23.8186441 C39.4965517,21.4288136 41.0827586,20.1542373 42.9862069,19.9949153 C45.762069,19.8355932 47.5068966,21.5881356 48.2206897,25.3322034 C49.8068966,33.8559322 51.8689655,41.0254237 54.2482759,47.159322 C55.9137931,30.9084746 58.6896552,19.2779661 62.6551724,12.0288136 C63.6068966,10.2762712 65.0344828,9.32033898 66.8586207,9.24067797 C68.2862069,9.08135593 69.6344828,9.55932203 70.9034483,10.5152542 C72.0931034,11.4711864 72.7275862,12.6661017 72.8862069,14.179661 C72.9655172,15.2949153 72.7275862,16.2508475 72.2517241,17.2067797 C69.7931034,21.8271186 67.7310345,29.5542373 66.0655172,40.2288136 C64.4793103,50.6644068 63.9241379,58.7101695 64.3206897,64.5254237 C64.4793103,66.1186441 64.162069,67.5525424 63.5275862,68.7474576 C62.7344828,70.1813559 61.6241379,70.8983051 60.1965517,71.0576271 C58.5310345,71.2169492 56.8655172,70.420339 55.2,68.6677966 C49.2517241,62.6135593 44.5724138,53.5322034 41.162069,41.5033898 C37.037931,49.7084746 33.9448276,55.8423729 32.0413793,59.9050847 C28.3137931,67.1542373 25.1413793,70.8186441 22.4448276,70.9779661 C20.7,71.1372881 19.2724138,69.6237288 18.0034483,66.5966102 C14.7517241,58.2322034 11.262069,42.0610169 7.53448276,18.1627119 C7.05862069,16.4898305 7.37586207,15.0559322 8.24827586,13.8610169 L8.24827586,13.8610169 L8.24827586,13.8610169 Z" id="Shape" fill="#FFFFFF"></path>
                            <path d="M144.9,23.8983051 C142.6,19.8355932 139.268966,17.4457627 134.748276,16.4898305 C133.558621,16.2508475 132.368966,16.0915254 131.337931,16.0915254 C125.231034,16.0915254 120.313793,19.2779661 116.427586,25.6508475 C113.096552,31.0677966 111.431034,37.0423729 111.431034,43.6542373 C111.431034,48.5932203 112.462069,52.8152542 114.444828,56.320339 C116.744828,60.3830508 120.075862,62.7728814 124.596552,63.7288136 C125.786207,63.9677966 126.975862,64.1271186 128.006897,64.1271186 C134.193103,64.1271186 139.110345,60.940678 142.917241,54.5677966 C146.248276,49.0711864 147.913793,43.0966102 147.913793,36.4847458 C147.993103,31.5457627 146.962069,27.3237288 144.9,23.8983051 L144.9,23.8983051 L144.9,23.8983051 L144.9,23.8983051 Z M136.889655,41.5830508 C136.017241,45.8050847 134.431034,48.9118644 132.051724,51.0627119 C130.227586,52.7355932 128.482759,53.4525424 126.896552,53.1338983 C125.389655,52.8152542 124.12069,51.4610169 123.168966,48.9915254 C122.375862,47 122.058621,45.0084746 122.058621,43.1762712 C122.058621,41.5830508 122.217241,39.9898305 122.534483,38.4762712 C123.089655,35.8474576 124.2,33.2983051 125.865517,30.9084746 C127.927586,27.8016949 130.227586,26.5271186 132.448276,26.9254237 C133.955172,27.2440678 135.224138,28.5983051 136.175862,31.0677966 C136.968966,33.059322 137.286207,35.0508475 137.286207,36.8830508 C137.365517,38.5559322 137.206897,40.1491525 136.889655,41.5830508 L136.889655,41.5830508 L136.889655,41.5830508 L136.889655,41.5830508 Z" id="Shape" fill="#FFFFFF"></path>
                            <path d="M105.086207,23.8983051 C102.786207,19.8355932 99.3758621,17.4457627 94.9344828,16.4898305 C93.7448276,16.2508475 92.5551724,16.0915254 91.5241379,16.0915254 C85.4172414,16.0915254 80.5,19.2779661 76.6137931,25.6508475 C73.2827586,31.0677966 71.6172414,37.0423729 71.6172414,43.6542373 C71.6172414,48.5932203 72.6482759,52.8152542 74.6310345,56.320339 C76.9310345,60.3830508 80.262069,62.7728814 84.7827586,63.7288136 C85.9724138,63.9677966 87.162069,64.1271186 88.1931034,64.1271186 C94.3793103,64.1271186 99.2965517,60.940678 103.103448,54.5677966 C106.434483,49.0711864 108.1,43.0966102 108.1,36.4847458 C108.1,31.5457627 107.148276,27.3237288 105.086207,23.8983051 L105.086207,23.8983051 L105.086207,23.8983051 L105.086207,23.8983051 Z M97.0758621,41.5830508 C96.2034483,45.8050847 94.6172414,48.9118644 92.237931,51.0627119 C90.4137931,52.7355932 88.6689655,53.4525424 87.0827586,53.1338983 C85.5758621,52.8152542 84.3068966,51.4610169 83.3551724,48.9915254 C82.562069,47 82.2448276,45.0084746 82.2448276,43.1762712 C82.2448276,41.5830508 82.4034483,39.9898305 82.7206897,38.4762712 C83.2758621,35.8474576 84.3862069,33.2983051 86.0517241,30.9084746 C88.1137931,27.8016949 90.4137931,26.5271186 92.6344828,26.9254237 C94.1413793,27.2440678 95.4103448,28.5983051 96.362069,31.0677966 C97.1551724,33.059322 97.4724138,35.0508475 97.4724138,36.8830508 C97.4724138,38.5559322 97.3931034,40.1491525 97.0758621,41.5830508 L97.0758621,41.5830508 L97.0758621,41.5830508 L97.0758621,41.5830508 Z" id="Shape" fill="#FFFFFF"></path>
                            <path d="M172.103448,23.340678 C167.82069,27.5627119 165.758621,32.9 165.758621,39.4322034 C165.758621,46.3627119 167.82069,52.0983051 172.024138,56.320339 C176.227586,60.5423729 181.7,62.7728814 188.52069,62.7728814 C190.503448,62.7728814 192.724138,62.4542373 195.103448,61.7372881 L195.103448,51.3813559 C192.882759,52.0186441 190.97931,52.3372881 189.313793,52.3372881 C185.982759,52.3372881 183.286207,51.2220339 181.224138,48.9915254 C179.162069,46.6813559 178.210345,43.6542373 178.210345,39.7508475 C178.210345,36.0864407 179.241379,33.1389831 181.224138,30.8288136 C183.286207,28.4389831 185.744828,27.3237288 188.758621,27.3237288 C190.741379,27.3237288 192.803448,27.6423729 195.103448,28.279661 L195.103448,17.9237288 C193.041379,17.3661017 190.662069,17.1271186 188.203448,17.1271186 C181.7,17.0474576 176.306897,19.1186441 172.103448,23.340678 L172.103448,23.340678 L172.103448,23.340678 Z M216.2,17.0474576 C210.331034,17.0474576 205.810345,19.0389831 202.47931,22.9423729 C199.148276,26.8457627 197.562069,32.3423729 197.562069,39.3525424 C197.562069,46.920339 199.227586,52.7355932 202.47931,56.7983051 C205.731034,60.8610169 210.489655,62.8525424 216.755172,62.8525424 C222.782759,62.8525424 227.462069,60.7813559 230.713793,56.7983051 C233.965517,52.7355932 235.631034,47.079661 235.631034,39.8305085 C235.631034,32.5813559 233.965517,26.9254237 230.634483,22.9423729 C227.224138,18.959322 222.465517,17.0474576 216.2,17.0474576 L216.2,17.0474576 L216.2,17.0474576 Z M221.196552,50.1864407 C220.086207,51.9389831 218.341379,52.8949153 216.2,52.8949153 C214.137931,52.8949153 212.631034,52.0186441 211.52069,50.1864407 C210.410345,48.4338983 209.934483,44.8491525 209.934483,39.4322034 C209.934483,31.0677966 211.996552,26.9254237 216.27931,26.9254237 C220.72069,26.9254237 223.02069,31.1474576 223.02069,39.6711864 C223.02069,44.8491525 222.386207,48.4338983 221.196552,50.1864407 L221.196552,50.1864407 L221.196552,50.1864407 Z M266.958621,18.2423729 L264.658621,28.040678 C264.103448,30.5101695 263.548276,33.059322 262.993103,35.6881356 L261.724138,42.459322 C260.534483,35.6881356 258.868966,27.6423729 256.727586,18.2423729 L241.975862,18.2423729 L236.424138,61.7372881 L247.448276,61.7372881 L250.462069,31.7847458 L257.996552,61.7372881 L265.848276,61.7372881 L273.065517,31.8644068 L276.158621,61.7372881 L287.896552,61.7372881 L282.027586,18.2423729 L266.958621,18.2423729 L266.958621,18.2423729 L266.958621,18.2423729 L266.958621,18.2423729 Z M319.858621,18.2423729 L317.558621,28.040678 C317.003448,30.5101695 316.448276,33.059322 315.893103,35.6881356 L314.624138,42.459322 C313.434483,35.6881356 311.768966,27.6423729 309.627586,18.2423729 L294.875862,18.2423729 L289.324138,61.7372881 L300.348276,61.7372881 L303.362069,31.7847458 L310.896552,61.7372881 L318.748276,61.7372881 L325.965517,31.8644068 L329.058621,61.7372881 L340.637931,61.7372881 L334.768966,18.2423729 L319.858621,18.2423729 L319.858621,18.2423729 L319.858621,18.2423729 Z M355.865517,44.5305085 L366.255172,44.5305085 L366.255172,35.5288136 L355.865517,35.5288136 L355.865517,27.5627119 L367.841379,27.5627119 L367.841379,18.3220339 L344.206897,18.3220339 L344.206897,61.8169492 L367.92069,61.8169492 L367.92069,52.5762712 L355.865517,52.5762712 L355.865517,44.5305085 L355.865517,44.5305085 L355.865517,44.5305085 Z M400.834483,37.679661 C402.024138,35.6881356 402.658621,33.6169492 402.658621,31.5457627 C402.658621,27.4830508 401.072414,24.2169492 397.9,21.8271186 C394.727586,19.4372881 390.365517,18.2423729 384.893103,18.2423729 L371.251724,18.2423729 L371.251724,61.7372881 L382.910345,61.7372881 L382.910345,41.9813559 L383.068966,41.9813559 L392.506897,61.7372881 L404.87931,61.7372881 L395.52069,42.140678 C397.82069,41.1050847 399.644828,39.5915254 400.834483,37.679661 L400.834483,37.679661 L400.834483,37.679661 Z M382.910345,36.9627119 L382.910345,26.6067797 C385.686207,26.6864407 387.668966,27.0847458 388.858621,28.040678 C390.048276,28.9966102 390.603448,30.3508475 390.603448,32.4220339 C390.682759,35.3694915 388.065517,36.8830508 382.910345,36.9627119 L382.910345,36.9627119 L382.910345,36.9627119 Z M409.558621,23.340678 C405.275862,27.5627119 403.213793,32.9 403.213793,39.4322034 C403.213793,46.3627119 405.275862,52.0983051 409.47931,56.320339 C413.682759,60.5423729 419.155172,62.7728814 425.975862,62.7728814 C427.958621,62.7728814 430.17931,62.4542373 432.558621,61.7372881 L432.558621,51.3813559 C430.337931,52.0186441 428.434483,52.3372881 426.768966,52.3372881 C423.437931,52.3372881 420.741379,51.2220339 418.67931,48.9915254 C416.617241,46.6813559 415.665517,43.6542373 415.665517,39.7508475 C415.665517,36.0864407 416.696552,33.1389831 418.67931,30.8288136 C420.741379,28.4389831 423.2,27.3237288 426.213793,27.3237288 C428.196552,27.3237288 430.258621,27.6423729 432.558621,28.279661 L432.558621,17.9237288 C430.496552,17.3661017 428.117241,17.1271186 425.658621,17.1271186 C419.234483,17.0474576 413.762069,19.1186441 409.558621,23.340678 L409.558621,23.340678 L409.558621,23.340678 Z M447.468966,52.4169492 L447.468966,44.5305085 L457.858621,44.5305085 L457.858621,35.5288136 L447.468966,35.5288136 L447.468966,27.5627119 L459.524138,27.5627119 L459.524138,18.3220339 L435.889655,18.3220339 L435.889655,61.8169492 L459.603448,61.8169492 L459.603448,52.5762712 L447.468966,52.4169492 L447.468966,52.4169492 L447.468966,52.4169492 L447.468966,52.4169492 Z" id="Shape" fill="#000000"></path>
                        </g>
                    </g>
                </g>
            </g>
        </g>
    </g>
</svg>