<?xml version="1.0" encoding="UTF-8"?>
<svg width="674px" height="400px" viewBox="0 0 674 400" version="1.1" xmlns="http://www.w3.org/2000/svg" xmlns:xlink="http://www.w3.org/1999/xlink">
    <!-- Generator: Sketch 43.2 (39069) - http://www.bohemiancoding.com/sketch -->
    <title>shopify</title>
    <desc>Created with Sketch.</desc>
    <defs></defs>
    <g id="Page-1" stroke="none" stroke-width="1" fill="none" fill-rule="evenodd">
        <g id="shopify" fill-rule="nonzero">
            <rect id="Rectangle-path" fill="#FFFFFF" x="0" y="0" width="674" height="400"></rect>
            <g id="xero" transform="translate(237.000000, 100.000000)">
                <path d="M100.313702,199.832263 C155.276079,199.832263 199.832263,155.276079 199.832263,100.313702 C199.832263,45.3509855 155.276079,0.794801746 100.313702,0.794801746 C45.3509855,0.794801746 0.794801746,45.3509855 0.794801746,100.313702 C0.794801746,155.276079 45.3509855,199.832263 100.313702,199.832263" id="Fill-1" fill="#00B7E3"></path>
                <path d="M48.3369045,100.198924 L65.3206527,83.1728534 C65.883708,82.5989637 66.1979084,81.8391949 66.1979084,81.0337177 C66.1979084,79.354371 64.8327618,77.990579 63.1537539,77.990579 C62.3357493,77.990579 61.5685317,78.3112123 60.9902406,78.8969524 C60.9888861,78.8996609 44.0217285,95.8566612 44.0217285,95.8566612 L26.9777133,78.8712203 C26.4014537,78.3030864 25.6386375,77.990579 24.8294361,77.990579 C23.1517823,77.990579 21.7866359,79.3533555 21.7866359,81.0310091 C21.7866359,81.8496906 22.1130251,82.6175855 22.6997807,83.1962154 L39.6814973,100.174885 L22.7089223,117.179625 C22.1116708,117.766719 21.7866359,118.536984 21.7866359,119.358374 C21.7866359,121.037043 23.1517823,122.39982 24.8294361,122.39982 C25.6399918,122.39982 26.4034851,122.084942 26.9777133,121.510714 L43.995658,104.515793 L60.948934,121.448416 C61.5499099,122.070383 62.325592,122.401851 63.1537539,122.401851 C64.8310691,122.401851 66.1962154,121.037043 66.1962154,119.358374 C66.1962154,118.548496 65.8826922,117.787711 65.3111726,117.212805 L48.3369045,100.198924 Z" id="Fill-3" fill="#FFFFFF"></path>
                <path d="M149.430531,100.110893 C149.430531,103.160127 151.909599,105.640887 154.962895,105.640887 C158.008742,105.640887 160.489503,103.160127 160.489503,100.110893 C160.489503,97.0609832 158.008742,94.5808995 154.962895,94.5808995 C151.909599,94.5808995 149.430531,97.0609832 149.430531,100.110893" id="Fill-5" fill="#FFFFFF"></path>
                <path d="M132.501632,99.9673365 C132.501632,112.269228 142.511013,122.277593 154.815275,122.277593 C167.119198,122.277593 177.134335,112.269228 177.134335,99.9673365 C177.134335,87.6634132 167.119198,77.6520011 154.815275,77.6520011 C142.511013,77.6520011 132.501632,87.6634132 132.501632,99.9673365 M138.800537,99.9673365 C138.800537,91.1368844 145.984146,83.9525985 154.815275,83.9525985 C163.64268,83.9525985 170.826966,91.1368844 170.826966,99.9673365 C170.826966,108.795418 163.64268,115.977335 154.815275,115.977335 C145.984146,115.977335 138.800537,108.795418 138.800537,99.9673365" id="Fill-7" fill="#FFFFFF"></path>
                <path d="M130.961102,77.9932875 L130.024934,77.990579 C127.214399,77.990579 124.503743,78.876976 122.240011,80.6216684 C121.941047,79.2561835 120.720812,78.2296151 119.267635,78.2296151 C117.594721,78.2296151 116.253953,79.5697067 116.24989,81.2460061 C116.24989,81.2517621 116.260047,118.828161 116.260047,118.828161 C116.264449,120.501075 117.629595,121.861481 119.303186,121.861481 C120.977115,121.861481 122.341246,120.501075 122.345648,118.823759 C122.345648,118.817326 122.347679,95.715813 122.347679,95.715813 C122.347679,88.0135026 123.051582,84.9036639 129.648774,84.0792267 C130.25923,84.0033853 130.922166,84.0152355 130.924875,84.0152355 C132.730511,83.9532757 134.013044,82.7123875 134.013044,81.0360878 C134.013044,79.3580954 132.643496,77.9932875 130.961102,77.9932875" id="Fill-9" fill="#FFFFFF"></path>
                <path d="M110.292272,95.6635537 C108.981298,89.4550494 105.582652,84.3553881 100.406472,81.0806621 C92.8409473,76.2772565 82.8501887,76.5427014 75.5419832,81.7395348 C69.5813179,85.9798852 66.14035,92.9173479 66.14035,100.063713 C66.14035,101.855468 66.3563628,103.663813 66.8059943,105.444056 C69.0568608,114.298885 76.6687705,121.001375 85.7443531,122.112926 C88.4370636,122.438638 91.0579958,122.282554 93.7723754,121.578989 C96.104839,121.011871 98.3617999,120.065545 100.441346,118.733241 C102.59978,117.345748 104.402708,115.516073 106.150109,113.325812 C106.184644,113.285522 106.220872,113.249971 106.255407,113.206971 C107.467516,111.704024 107.243038,109.566581 105.911073,108.546107 C104.787671,107.685103 102.901114,107.336029 101.417805,109.236467 C101.098864,109.691178 100.743019,110.157738 100.350945,110.625653 C99.1710012,111.929517 97.7073286,113.192751 95.9528174,114.172934 C93.7209115,115.365406 91.1768365,116.047302 88.4732916,116.062876 C79.6218477,115.963673 74.8858189,109.784964 73.2007166,105.374647 C72.9064922,104.552241 72.6796451,103.697332 72.5211904,102.818383 C72.5008759,102.653496 72.4853013,102.494703 72.4792069,102.349114 C74.3098979,102.349114 104.241883,102.342681 104.241883,102.342681 C108.596673,102.252281 110.939971,99.1786704 110.292272,95.6635537 L110.292272,95.6635537 Z M72.7436363,96.2377821 C72.7436363,96.155169 72.7497305,96.0678158 72.7541323,95.9824943 C74.5211705,88.9983079 80.8458071,83.8305923 88.378151,83.8305923 C96.0019112,83.8305923 102.384783,89.1256132 104.062098,96.2377821 L72.7436363,96.2377821 Z" id="Fill-11" fill="#FFFFFF"></path>
            </g>
        </g>
    </g>
</svg>