<?xml version="1.0" encoding="UTF-8"?>
<svg width="674px" height="400px" viewBox="0 0 674 400" version="1.1" xmlns="http://www.w3.org/2000/svg" xmlns:xlink="http://www.w3.org/1999/xlink">
    <!-- Generator: Sketch 43.2 (39069) - http://www.bohemiancoding.com/sketch -->
    <title>xero</title>
    <desc>Created with Sketch.</desc>
    <defs></defs>
    <g id="Page-1" stroke="none" stroke-width="1" fill="none" fill-rule="evenodd">
        <g id="xero" fill-rule="nonzero">
            <rect id="Rectangle-path" fill="#FFFFFF" x="0" y="0" width="674" height="400"></rect>
            <g id="zoey-logo" transform="translate(193.000000, 132.000000)" fill="#444444">
                <polygon id="Shape" points="277.4 37.4466667 279.225 37.4466667 279.225 42.47 280.1375 42.47 280.1375 37.4466667 281.9625 37.4466667 281.9625 36.5333333 277.4 36.5333333"></polygon>
                <path d="M288.35,36.5333333 L287.4375,36.5333333 L286.525,39.2733333 C286.06875,40.1866667 286.06875,40.6433333 286.06875,41.1 L286.06875,41.1 C286.06875,40.6433333 285.6125,39.73 285.6125,39.2733333 L283.7875,36.5333333 L282.875,36.5333333 L282.41875,42.47 L283.33125,42.47 L283.33125,39.73 L283.33125,36.99 L283.33125,36.99 C283.33125,37.9033333 283.7875,38.36 284.24375,39.2733333 L285.15625,42.0133333 L285.6125,42.0133333 L286.525,39.2733333 C286.98125,38.8166667 287.4375,38.36 287.4375,37.4466667 L287.4375,37.4466667 L287.4375,40.1866667 L287.4375,42.9266667 L288.35,42.9266667 L288.35,36.5333333 Z" id="Shape"></path>
                <path d="M110.4125,34.7066667 C91.70625,34.7066667 76.19375,50.2333333 76.19375,68.9566667 C76.19375,87.68 91.70625,103.206667 110.4125,103.206667 C129.11875,103.206667 144.63125,87.68 144.63125,68.9566667 C144.63125,50.2333333 129.575,34.7066667 110.4125,34.7066667 Z M110.4125,98.1833333 C94.44375,98.1833333 81.2125,84.94 81.2125,68.9566667 C81.2125,52.9733333 94.44375,39.73 110.4125,39.73 C126.38125,39.73 139.6125,52.9733333 139.6125,68.9566667 C139.6125,84.94 126.8375,98.1833333 110.4125,98.1833333 Z" id="Shape"></path>
                <path d="M212.15625,63.4766667 C211.24375,49.7766667 200.75,34.7066667 185.2375,34.7066667 C168.8125,34.7066667 155.58125,47.95 155.58125,64.39 C155.58125,79.0033333 161.5125,90.42 171.55,96.3566667 C179.30625,100.923333 188.8875,101.836667 195.73125,101.836667 L201.20625,101.836667 L203.94375,101.836667 L203.94375,96.8133333 L201.20625,96.8133333 C194.3625,97.27 182.95625,97.27 174.2875,92.2466667 C166.075,87.68 161.5125,78.09 161.05625,66.2166667 L213.06875,66.2166667 L212.15625,63.4766667 Z M160.6,61.1933333 C162.425,49.32 172.4625,39.73 185.2375,39.73 C192.5375,39.73 197.55625,43.84 200.75,47.4933333 C203.94375,51.1466667 206.225,56.17 207.1375,61.1933333 L160.6,61.1933333 L160.6,61.1933333 Z" id="Shape"></path>
                <path d="M274.20625,36.5333333 L269.1875,36.5333333 L269.1875,90.42 C267.3625,92.2466667 260.975,99.0966667 248.2,99.0966667 C233.6,99.0966667 227.66875,85.3966667 227.66875,79.9166667 L227.66875,36.5333333 L222.65,36.5333333 L222.65,79.9166667 C222.65,88.5933333 231.31875,104.12 248.2,104.12 C258.2375,104.12 265.08125,100.466667 269.1875,97.27 L269.1875,110.513333 C269.1875,110.513333 269.1875,122.843333 260.0625,128.78 C250.025,135.173333 240.9,130.15 234.96875,125.126667 L231.775,128.78 C237.70625,134.26 244.09375,137 250.48125,137 C254.5875,137 259.15,135.63 263.25625,132.89 C274.6625,125.583333 274.6625,110.97 274.6625,110.513333 L274.20625,36.5333333 L274.20625,36.5333333 Z" id="Shape"></path>
                <path d="M61.59375,17.81 L73,0 L67.06875,0 L55.6625,17.81 L4.10625,17.81 L4.10625,22.8333333 L52.46875,22.8333333 L0,102.75 L13.23125,102.75 L2.28125,119.646667 L8.2125,119.646667 L19.1625,102.75 L72.54375,102.75 L72.54375,97.7266667 L22.35625,97.7266667 L74.36875,17.81 L61.59375,17.81 Z M16.425,97.7266667 L9.125,97.7266667 L58.4,22.8333333 L65.7,22.8333333 L16.425,97.7266667 Z" id="Shape"></path>
            </g>
        </g>
    </g>
</svg>