<?xml version="1.0" encoding="UTF-8" standalone="no"?>
<svg width="70px" height="92px" viewBox="0 0 70 92" version="1.1" xmlns="http://www.w3.org/2000/svg" xmlns:xlink="http://www.w3.org/1999/xlink" xmlns:sketch="http://www.bohemiancoding.com/sketch/ns">
    <!-- Generator: Sketch 3.3.2 (12043) - http://www.bohemiancoding.com/sketch -->
    <title>Shape</title>
    <desc>Created with Sketch.</desc>
    <defs></defs>
    <g id="Page-1" stroke="none" stroke-width="1" fill="none" fill-rule="evenodd" sketch:type="MSPage">
        <g id="noun_153314_cc" sketch:type="MSLayerGroup" transform="translate(1.000000, 1.000000)" stroke="#FFFFFF" fill="#FFFFFF">
            <g id="Group" sketch:type="MSShapeGroup">
                <g id="Shape">
                    <path d="M41.3918961,0 L3.9998408,0 C1.7838823,0 0,1.78993837 0,3.99793926 L0,86.0020607 C0,88.2022159 1.7907897,90 3.9998408,90 L64.0001592,90 C66.2161177,90 68,88.2100616 68,86.0020607 L68,26.6081039 L68,26.0275454 C68,24.9256801 67.3695434,23.4019851 66.5863832,22.6188249 L45.3811751,1.41361678 C44.6004561,0.63289779 43.0726263,0 41.9724546,0 L41.3918961,0 L41.3918961,0 Z M46.1943376,24.0065858 C44.9824384,24.0065858 44,23.0191037 44,21.8122482 L44,3.89017689 C44,3.34331735 44.3147451,3.21474516 44.7022539,3.60225397 L64.4043318,23.3043319 C64.792176,23.692176 64.6577429,24.0065858 64.1164089,24.0065858 L46.1943376,24.0065858 L46.1943376,24.0065858 Z M4.2030249,2 C2.9796768,2 2,2.98073023 2,4.19052228 L2,85.8094777 C2,87.019363 2.9863278,88 4.2030249,88 L63.7969751,88 C65.0203232,88 66,87.0192698 66,85.8094777 L66,26.9685703 C66,26.4156693 65.5446779,25.9674546 65.0081609,25.9674546 L45.9992748,25.9674546 C43.7905363,25.9674546 42,24.1806599 42,21.9681798 L42,2.99022514 C42,2.4433389 41.5491912,2 41.0084507,2 L4.2030249,2 L4.2030249,2 Z M19.5807159,37.0310857 C19.2648324,37.3665655 19.0018667,37.7886313 18.7989611,38.2857705 C18.5957309,38.783072 18.4926548,39.3637164 18.4926548,40.011327 L18.4926548,45.470779 C18.4926548,45.9791063 18.4231799,46.4553288 18.2863404,46.8861504 C18.1496632,47.3150263 17.9667235,47.6855296 17.742878,47.9874453 C17.5203311,48.287253 17.2610989,48.5218781 16.9721614,48.6853212 C16.6856586,48.847467 16.3860076,48.929675 16.0811622,48.929675 L16,48.929675 L16,51.1316161 L16.0811622,51.1316161 C16.3863323,51.1316161 16.6866326,51.209284 16.9739469,51.3621876 C17.2628845,51.5162262 17.5217921,51.7409604 17.7435273,52.02958 C17.9667235,52.3211183 18.1493385,52.686433 18.2861781,53.1146603 C18.4231799,53.5458062 18.4924925,54.0320817 18.4924925,54.5598666 L18.4924925,59.9893215 C18.4924925,60.6369322 18.5955685,61.2174145 18.7987988,61.7147159 C19.0017044,62.2118552 19.2646701,62.6342452 19.5805535,62.9695629 C19.8961123,63.3055292 20.2535508,63.5639897 20.6424803,63.7378101 C21.0320591,63.9117926 21.4271569,64 21.8167357,64 L24,64 L24,62.0378726 L22.4173363,62.0378726 C22.1379758,62.0378726 21.9129941,61.9684742 21.748397,61.8317852 C21.5784433,61.690394 21.4394935,61.4982511 21.3354436,61.261356 C21.228634,61.0191101 21.1549387,60.7442728 21.1163055,60.4436543 C21.0768606,60.1410901 21.0568947,59.8367423 21.0568947,59.5392046 L21.0568947,54.0797526 C21.0568947,53.3129647 20.9486243,52.6661648 20.7353299,52.1583239 C20.5225225,51.652753 20.2701079,51.2360381 19.9847415,50.92034 C19.6982388,50.6041556 19.4019966,50.3706655 19.1039688,50.2270042 C18.8794741,50.1190151 18.6893921,50.0465359 18.5283662,50.0074587 C18.6906907,49.953302 18.8849931,49.8639596 19.1080269,49.7407287 C19.4050808,49.5769614 19.7001867,49.3288782 19.9857154,49.0031271 C20.2705949,48.6781867 20.5226848,48.2624447 20.7351676,47.7669269 C20.7583668,47.7128842 20.8010341,47.600799 20.8010341,47.600799 C20.8010341,47.600799 21.0570571,46.5811294 21.0570571,45.9500822 L21.0570571,40.4607954 C21.0570571,40.1433138 21.077023,39.8289129 21.1164678,39.5260244 C21.1549387,39.2257302 21.2284717,38.9560816 21.3349566,38.7243752 C21.4388442,38.4973709 21.5779563,38.3102546 21.748397,38.1680526 C21.9129941,38.0313636 22.1379758,37.9619652 22.4173363,37.9619652 L24,37.9619652 L24,36 L21.8167357,36 C21.4271569,36.0008107 21.0320591,36.0888559 20.6426426,36.2626763 C20.2537132,36.4364967 19.896437,36.6951194 19.5807159,37.0310857 L19.5807159,37.0310857 Z M51.9183524,48.9296734 C51.6122147,48.9296734 51.3120828,48.8520037 51.0257482,48.6990966 C50.7368165,48.5455409 50.4782388,48.3162613 50.256995,48.0174195 C50.0328295,47.7161455 49.8498935,47.3454714 49.7135437,46.9160991 C49.5763823,46.4870512 49.5072334,46.0007644 49.5072334,45.4708594 L49.5072334,40.0114431 C49.5072334,39.3652768 49.4041595,38.7846189 49.200771,38.2858466 C48.9977072,37.7891823 48.7347469,37.3671068 48.4191945,37.0311327 C48.1028305,36.6949965 47.7455615,36.43653 47.3571269,36.2627056 C46.9677184,36.0888812 46.5724663,36.0006717 46.1830577,36.0006717 L44,36.0006717 L44,37.9626824 L45.5826316,37.9626824 C45.8618241,37.9626824 46.0864766,38.0320824 46.2512326,38.1687746 C46.4205336,38.3098448 46.5591559,38.5016678 46.6643401,38.739217 C46.7704981,38.9809821 46.8440296,39.2561501 46.8834737,39.5567755 C46.9229177,39.8642112 46.9428832,40.1886727 46.9428832,40.5212416 L46.9428832,45.9508223 C46.9428832,46.7181144 47.0511515,47.3649293 47.2644415,47.8721334 C47.4774069,48.3793375 47.7298164,48.7955756 48.0146901,49.1101459 C48.3003754,49.426662 48.5967739,49.6601575 48.8954449,49.8034978 C49.1162017,49.9103544 49.3095262,49.9839703 49.4715228,50.0230484 C49.3088769,50.0773685 49.1145785,50.166713 48.8915492,50.2896224 C48.5940144,50.4540421 48.2989145,50.7019689 48.0140408,51.0272411 C47.7296541,51.3515404 47.4775692,51.7674542 47.2649285,52.26347 C47.0514761,52.7615937 46.9432079,53.37306 46.9432079,54.0803567 L46.9432079,59.5399351 C46.9432079,59.8528839 46.9232424,60.1671299 46.8837983,60.4745657 C46.8448412,60.7751911 46.7713097,61.0451702 46.665314,61.275747 C46.5604545,61.5042159 46.4211829,61.6913366 46.2515573,61.8325689 C46.0871259,61.9695853 45.862311,62.0386611 45.5829563,62.0386611 L44.0003246,62.0386611 L44.0003246,64.0006717 L46.1833824,64.0006717 C46.5724663,64.0006717 46.9677184,63.9124623 47.3574516,63.7384758 C47.7460485,63.5648135 48.1033174,63.306347 48.4195191,62.9702108 C48.7350715,62.6343989 48.9980319,62.2121612 49.2010957,61.7153347 C49.4044841,61.2168867 49.5075581,60.636391 49.5075581,59.9899004 L49.5075581,54.5603197 C49.5075581,54.0513319 49.5771939,53.5802872 49.7138683,53.1604818 C49.8502181,52.7414871 50.0331541,52.3758397 50.257482,52.0737549 C50.4793751,51.7745888 50.7387643,51.5399583 51.0280207,51.3761872 C51.3151669,51.2138754 51.6146495,51.1316655 51.9188394,51.1316655 L52,51.1316655 L52,48.9296734 L51.9183524,48.9296734 L51.9183524,48.9296734 Z M26,52 C27.1045695,52 28,51.1045695 28,50 C28,48.8954305 27.1045695,48 26,48 C24.8954305,48 24,48.8954305 24,50 C24,51.1045695 24.8954305,52 26,52 L26,52 L26,52 Z M34,52 C35.1045695,52 36,51.1045695 36,50 C36,48.8954305 35.1045695,48 34,48 C32.8954305,48 32,48.8954305 32,50 C32,51.1045695 32.8954305,52 34,52 L34,52 L34,52 Z M42,52 C43.1045695,52 44,51.1045695 44,50 C44,48.8954305 43.1045695,48 42,48 C40.8954305,48 40,48.8954305 40,50 C40,51.1045695 40.8954305,52 42,52 L42,52 L42,52 Z"></path>
                </g>
            </g>
        </g>
    </g>
</svg>