<?xml version="1.0" encoding="utf-8"?>
<!-- Generator: Adobe Illustrator 25.2.0, SVG Export Plug-In . SVG Version: 6.00 Build 0)  -->
<svg version="1.1" id="Layer_1" xmlns="http://www.w3.org/2000/svg" xmlns:xlink="http://www.w3.org/1999/xlink" x="0px" y="0px"
	 viewBox="0 0 304 304" style="enable-background:new 0 0 304 304;" xml:space="preserve">
<style type="text/css">
	.st0{fill:#24BE5F;}
</style>
<g>
	<circle class="st0" cx="151.53" cy="151.9" r="150.43"/>
	<path d="M151.53,247.24c-19.07,0-63.76-2.37-67.9-24.26c-0.2-0.78-0.3-1.58-0.3-2.37v-93.86c0-0.79,0.1-1.59,0.3-2.37
		c1.11-5.84,5.18-10.85,12.14-14.93c-1.74-2.98-2.21-5.81-2.21-8V80.51c0-10.38,10.5-15.29,20.78-18.73
		c10.08-3.37,23.29-5.23,37.19-5.23c13.9,0,27.11,1.86,37.19,5.23c10.28,3.44,20.78,8.35,20.78,18.73v5.45c0,2.82-2.28,5.1-5.1,5.1
		s-5.1-2.28-5.1-5.1v-5.45c0-2.94-4.65-5.99-13.81-9.05c-9.06-3.03-21.12-4.7-33.95-4.7s-24.89,1.67-33.95,4.7
		c-9.17,3.06-13.81,6.11-13.81,9.05v20.94c0,1.95,1.13,3.87,3.36,5.71c1.38,1.13,2.06,2.91,1.81,4.67
		c-0.26,1.77-1.42,3.27-3.06,3.97c-7.23,3.06-11.58,6.82-12.24,10.57c-0.03,0.15-0.06,0.3-0.1,0.45v93.71
		c0.04,0.15,0.07,0.3,0.1,0.45c1.66,9.45,25.46,16.05,57.89,16.05s56.24-6.6,57.89-16.05c0.03-0.15,0.06-0.3,0.1-0.45v-93.71
		c-0.04-0.15-0.07-0.3-0.1-0.45c-0.44-2.51-3.14-5.66-6.89-8.02c-2.38-1.5-3.09-4.66-1.59-7.04c1.5-2.38,4.66-3.09,7.04-1.59
		c6.26,3.95,10.42,9.28,11.45,14.65c0.2,0.78,0.3,1.58,0.3,2.37v93.86c0,0.79-0.1,1.59-0.3,2.37
		C215.29,244.87,170.6,247.24,151.53,247.24z M209.54,220.49C209.54,220.49,209.54,220.49,209.54,220.49
		C209.54,220.49,209.54,220.49,209.54,220.49z M93.52,220.49C93.52,220.49,93.52,220.49,93.52,220.49
		C93.52,220.49,93.52,220.49,93.52,220.49z M209.54,126.87C209.54,126.87,209.54,126.87,209.54,126.87S209.54,126.87,209.54,126.87z
		 M93.52,126.87C93.52,126.87,93.52,126.87,93.52,126.87S93.52,126.87,93.52,126.87z"/>
</g>
</svg>
