<?xml version="1.0" encoding="utf-8"?>
<!-- Generator: Adobe Illustrator 25.2.0, SVG Export Plug-In . SVG Version: 6.00 Build 0)  -->
<svg version="1.1" id="Layer_1" xmlns="http://www.w3.org/2000/svg" xmlns:xlink="http://www.w3.org/1999/xlink" width="474.2" height="185"
	 viewBox="0 0 474.2 185" xml:space="preserve">
<style type="text/css">
	.st0{fill:#33CC66;}
	.st1{clip-path:url(#SVGID_2_);}
	.st2{fill:#FFFFFF;}
</style>
<rect class="st0" width="474.2" height="185"/>
<g>
	<defs>
		<rect id="SVGID_1_" width="474.2" height="185"/>
	</defs>
	<clipPath id="SVGID_2_">
		<use xlink:href="#SVGID_1_"/>
	</clipPath>
	<g class="st1">
		<g>
			<path class="st2" d="M-1.3,5.9c-0.1,0-0.1,0-0.2-0.1c0,0,0-0.1-0.1-0.1c0,0,0-0.1,0-0.1c0,0,0-0.1,0-0.1c0,0,0-0.1,0.1-0.1L10-6
				c0.1-0.1,0.1-0.1,0.2-0.1c0.1,0,0.1,0,0.2,0.1c0.1,0.1,0.1,0.1,0.1,0.2c0,0.1,0,0.1-0.1,0.2L-1.1,5.9C-1.2,5.9-1.2,5.9-1.3,5.9z"
				/>
			<path class="st2" d="M24.1,5.3c-1.1,0-2.1-0.3-3-0.9c-0.9-0.6-1.6-1.4-2-2.4c-0.4-1-0.5-2.1-0.3-3.1c0.2-1.1,0.7-2,1.5-2.8
				C21-4.6,22-5.2,23-5.4c1-0.2,2.1-0.1,3.1,0.3c1,0.4,1.8,1.1,2.4,2c0.6,0.9,0.9,1.9,0.9,3c0,1.4-0.6,2.8-1.6,3.8
				C26.9,4.7,25.5,5.3,24.1,5.3z M24.1-4.9c-1,0-1.9,0.3-2.7,0.8c-0.8,0.5-1.4,1.3-1.8,2.2c-0.4,0.9-0.5,1.8-0.3,2.8
				c0.2,0.9,0.6,1.8,1.3,2.5c0.7,0.7,1.5,1.1,2.5,1.3c0.9,0.2,1.9,0.1,2.8-0.3c0.9-0.4,1.6-1,2.2-1.8c0.5-0.8,0.8-1.7,0.8-2.7
				c0-1.3-0.5-2.5-1.4-3.4C26.6-4.4,25.4-4.9,24.1-4.9z"/>
			<path class="st2" d="M39.5,5.9c-0.1,0-0.1,0-0.2-0.1l-0.1-0.1c0,0,0-0.1,0-0.1c0,0,0-0.1,0-0.1l0.1-0.1L50.8-6l0.1-0.1H51h0.1
				L51.2-6c0,0,0.1,0.1,0.1,0.1c0,0,0,0.1,0,0.1c0,0,0,0.1,0,0.1c0,0,0,0.1-0.1,0.1L39.7,5.9C39.7,5.9,39.6,5.9,39.5,5.9z"/>
			<path class="st2" d="M64.9,5.3c-1.1,0-2.1-0.3-3-0.9C61,3.8,60.3,3,59.9,2c-0.4-1-0.5-2.1-0.3-3.1c0.2-1,0.7-2,1.5-2.8
				c0.8-0.7,1.7-1.3,2.8-1.5C64.9-5.6,66-5.5,67-5.1c1,0.4,1.8,1.1,2.4,2c0.6,0.9,0.9,1.9,0.9,3c0,1.4-0.6,2.8-1.6,3.8
				C67.7,4.8,66.3,5.3,64.9,5.3z M64.9-4.9c-1,0-1.9,0.3-2.7,0.8c-0.8,0.5-1.4,1.3-1.8,2.2C60.1-1,60-0.1,60.2,0.9
				c0.2,0.9,0.6,1.8,1.3,2.5C62.2,4,63.1,4.5,64,4.6c0.9,0.2,1.9,0.1,2.8-0.3c0.9-0.4,1.6-1,2.2-1.8c0.5-0.8,0.8-1.7,0.8-2.7
				c0-1.3-0.5-2.5-1.4-3.4C67.4-4.4,66.2-4.9,64.9-4.9L64.9-4.9z"/>
			<path class="st2" d="M80.3,5.9c-0.1,0-0.1,0-0.2-0.1c0,0,0-0.1-0.1-0.1c0,0,0-0.1,0-0.1c0,0,0-0.1,0-0.1c0,0,0-0.1,0.1-0.1
				L91.6-6c0.1-0.1,0.1-0.1,0.2-0.1c0.1,0,0.1,0,0.2,0.1c0.1,0.1,0.1,0.1,0.1,0.2c0,0.1,0,0.1-0.1,0.2L80.5,5.9
				C80.5,5.9,80.4,5.9,80.3,5.9z"/>
			<path class="st2" d="M3.5,26.6c-3,0-5.4-2.5-5.3-5.5c0-2.5,1.8-4.7,4.3-5.2c1-0.2,2.1-0.1,3.1,0.3c1,0.4,1.8,1.1,2.4,2
				c0.6,0.9,0.9,1.9,0.9,3C9,24.2,6.5,26.6,3.5,26.6C3.5,26.6,3.5,26.6,3.5,26.6z M3.5,16.4c-2.7,0-4.8,2.1-4.8,4.8
				c0,1.3,0.5,2.5,1.4,3.4c0.7,0.7,1.5,1.1,2.5,1.3c2.6,0.5,5.2-1.1,5.7-3.7S7.2,17,4.6,16.5C4.2,16.4,3.9,16.4,3.5,16.4z"/>
			<path class="st2" d="M19,27.2c-0.1,0-0.1,0-0.2-0.1c0-0.1-0.1-0.1-0.1-0.2c0-0.1,0-0.1,0.1-0.2l11.4-11.5
				c0.1-0.1,0.1-0.1,0.2-0.1c0.1,0,0.1,0,0.2,0.1c0.1,0.1,0.1,0.1,0.1,0.2c0,0.1,0,0.1-0.1,0.2L19.2,27.2
				C19.1,27.2,19.1,27.2,19,27.2z"/>
			<path class="st2" d="M44.4,26.6c-1.1,0-2.1-0.3-3-0.9c-1.8-1.2-2.7-3.4-2.3-5.5c0.2-1,0.7-2,1.5-2.8c1.5-1.5,3.9-2,5.9-1.2
				c2.7,1.1,4,4.3,2.9,7c-0.3,0.6-0.7,1.2-1.2,1.7C47.2,26,45.8,26.6,44.4,26.6z M44.4,16.4c-2.7,0-4.8,2.2-4.8,4.8
				c0,0.3,0,0.6,0.1,0.9c0.2,0.9,0.7,1.8,1.4,2.5c1.9,1.9,4.9,1.9,6.8,0c1.9-1.9,1.9-4.9,0-6.8C46.9,16.9,45.7,16.4,44.4,16.4
				L44.4,16.4z"/>
			<path class="st2" d="M59.8,27.2c-0.1,0-0.1,0-0.2-0.1c-0.1-0.1-0.1-0.1-0.1-0.2c0-0.1,0-0.1,0.1-0.2l11.5-11.5l0.1-0.1h0.1h0.1
				l0.1,0.1c0,0,0,0.1,0.1,0.1c0,0.1,0,0.1,0,0.2c0,0,0,0.1-0.1,0.1L60,27.2c0,0-0.1,0-0.1,0.1L59.8,27.2z"/>
			<path class="st2" d="M85.2,26.6c-1.1,0-2.1-0.3-3-0.9c-0.9-0.6-1.6-1.4-2-2.4c-1.1-2.7,0.2-5.9,2.9-7c2.7-1.1,5.9,0.2,7,2.9
				c1.1,2.7-0.2,5.9-2.9,7C86.6,26.5,85.9,26.6,85.2,26.6z M85.2,16.4c-1,0-1.9,0.3-2.7,0.8c-2.2,1.5-2.8,4.5-1.3,6.7
				c0.2,0.3,0.4,0.5,0.6,0.7c0.7,0.7,1.5,1.1,2.5,1.3c2.6,0.5,5.2-1.1,5.7-3.7c0.5-2.6-1.1-5.2-3.7-5.7
				C85.9,16.4,85.5,16.4,85.2,16.4z"/>
			<path class="st2" d="M-1.3,47.4c-0.1,0-0.1,0-0.2-0.1c0,0,0-0.1-0.1-0.1c0,0,0-0.1,0-0.1c0,0,0-0.1,0-0.1c0,0,0-0.1,0.1-0.1
				L10,35.4c0.1,0,0.1-0.1,0.2-0.1c0.1,0,0.1,0,0.2,0.1c0.1,0.1,0.1,0.1,0.1,0.2c0,0.1,0,0.1-0.1,0.2L-1.1,47.3
				C-1.2,47.4-1.2,47.4-1.3,47.4z"/>
			<path class="st2" d="M24.1,46.8c-1.1,0-2.1-0.3-3-0.9c-1.8-1.2-2.7-3.4-2.3-5.5c0.6-2.9,3.4-4.8,6.3-4.2c1.4,0.3,2.6,1.1,3.4,2.3
				c0.6,0.9,0.9,1.9,0.9,3C29.5,44.4,27.1,46.8,24.1,46.8L24.1,46.8z M24.1,36.6c-2.7,0-4.8,2.2-4.8,4.8c0,0.3,0,0.6,0.1,0.9
				c0.2,0.9,0.6,1.8,1.3,2.5c1.4,1.4,3.5,1.8,5.2,1c2.5-1,3.6-3.8,2.6-6.3C27.8,37.7,26,36.5,24.1,36.6L24.1,36.6z"/>
			<path class="st2" d="M39.5,47.4c-0.1,0-0.1,0-0.2-0.1l-0.1-0.1c0,0,0-0.1,0-0.1c0,0,0-0.1,0-0.1l0.1-0.1l11.5-11.5l0.1-0.1
				c0,0,0.1,0,0.1,0h0.1l0.1,0.1c0,0,0,0.1,0.1,0.1c0,0,0,0.1,0,0.1c0,0,0,0.1,0,0.1l-0.1,0.1L39.7,47.3
				C39.7,47.4,39.6,47.4,39.5,47.4z"/>
			<path class="st2" d="M64.9,46.8c-2.2,0-4.2-1.3-5-3.3c-0.4-1-0.5-2.1-0.3-3.1c0.6-2.9,3.4-4.8,6.3-4.2c1.4,0.3,2.6,1.1,3.4,2.3
				c0.6,0.9,0.9,1.9,0.9,3C70.3,44.4,67.9,46.8,64.9,46.8L64.9,46.8z M64.9,36.6c-2.7,0-4.8,2.2-4.8,4.8c0,1.3,0.5,2.5,1.4,3.4
				c1.4,1.4,3.5,1.8,5.2,1c2.5-1,3.6-3.8,2.6-6.3C68.6,37.7,66.9,36.5,64.9,36.6L64.9,36.6z"/>
			<path class="st2" d="M80.3,47.4c-0.1,0-0.1,0-0.2-0.1c0,0,0-0.1-0.1-0.1c0,0,0-0.1,0-0.1c0,0,0-0.1,0-0.1c0,0,0-0.1,0.1-0.1
				l11.5-11.5c0.1-0.1,0.3-0.1,0.4,0c0.1,0.1,0.1,0.1,0.1,0.2c0,0.1,0,0.1-0.1,0.2L80.5,47.3C80.5,47.4,80.4,47.4,80.3,47.4z"/>
			<path class="st2" d="M3.5,68.1c-1.1,0-2.1-0.3-3-0.9c-1.8-1.2-2.7-3.4-2.3-5.5c0.6-2.9,3.4-4.8,6.3-4.3C6,57.6,7.2,58.4,8,59.6
				c0.6,0.9,0.9,1.9,0.9,3C8.9,65.6,6.5,68,3.5,68.1L3.5,68.1z M3.5,57.9c-1,0-1.9,0.3-2.7,0.8c-2.2,1.5-2.8,4.5-1.3,6.7
				C1,67.6,4,68.2,6.2,66.7c0.5-0.4,1-0.8,1.3-1.3c1.5-2.2,0.9-5.2-1.3-6.7C5.4,58.1,4.5,57.9,3.5,57.9L3.5,57.9z"/>
			<path class="st2" d="M19,68.7c-0.1,0-0.1,0-0.2-0.1c-0.1-0.1-0.1-0.1-0.1-0.2c0-0.1,0-0.1,0.1-0.2l11.4-11.5
				c0.1-0.1,0.1-0.1,0.2-0.1c0.1,0,0.1,0,0.2,0.1c0.1,0,0.1,0.1,0.1,0.2c0,0.1,0,0.1-0.1,0.2L19.2,68.6C19.1,68.7,19.1,68.7,19,68.7
				z"/>
			<path class="st2" d="M44.4,68.1c-1.1,0-2.1-0.3-3-0.9c-1.8-1.2-2.7-3.4-2.3-5.5c0.2-1,0.7-2,1.5-2.8c0.8-0.8,1.7-1.3,2.8-1.5
				c2.9-0.6,5.8,1.3,6.3,4.3c0.6,2.9-1.3,5.8-4.3,6.3C45,68,44.7,68.1,44.4,68.1L44.4,68.1z M44.4,57.9c-2.7,0-4.8,2.2-4.8,4.8
				c0,0.3,0,0.6,0.1,0.9c0.2,0.9,0.7,1.8,1.4,2.5c0.7,0.7,1.5,1.1,2.5,1.3c0.9,0.2,1.9,0.1,2.8-0.3c0.9-0.4,1.6-1,2.2-1.8
				c1.5-2.2,0.9-5.2-1.3-6.7C46.3,58.1,45.4,57.9,44.4,57.9L44.4,57.9z"/>
			<path class="st2" d="M59.8,68.7c-0.1,0-0.1,0-0.2-0.1c-0.1-0.1-0.1-0.1-0.1-0.2c0-0.1,0-0.1,0.1-0.2l11.5-11.5c0,0,0.1,0,0.1-0.1
				h0.1h0.1l0.1,0.1c0,0,0.1,0.1,0.1,0.1c0,0,0,0.1,0,0.1c0,0,0,0.1,0,0.1c0,0,0,0.1-0.1,0.1L60,68.6l-0.1,0.1L59.8,68.7z"/>
			<path class="st2" d="M85.2,68.1c-2.2,0-4.2-1.3-5-3.3c-1.1-2.8,0.2-5.9,2.9-7.1c0.3-0.1,0.6-0.2,1-0.3c2.1-0.4,4.3,0.5,5.5,2.3
				c1.4,2.1,1.2,5-0.6,6.8C88,67.5,86.6,68.1,85.2,68.1z M85.2,57.9c-1,0-1.9,0.3-2.7,0.8c-0.8,0.5-1.4,1.3-1.8,2.2
				c-0.4,0.9-0.5,1.8-0.3,2.8c0.4,1.9,1.9,3.4,3.8,3.8c2.6,0.5,5.1-1.2,5.7-3.8c0.5-2.6-1.2-5.1-3.8-5.7
				C85.8,57.9,85.5,57.9,85.2,57.9z"/>
			<path class="st2" d="M-1.3,88.9c0,0-0.1,0-0.1,0c0,0-0.1,0-0.1-0.1c0,0,0-0.1-0.1-0.1c0,0,0-0.1,0-0.1c0,0,0-0.1,0-0.1
				c0,0,0-0.1,0.1-0.1L10,76.9c0.1-0.1,0.1-0.1,0.2-0.1c0.1,0,0.1,0,0.2,0.1c0,0,0.1,0.1,0.1,0.1c0,0,0,0.1,0,0.1c0,0,0,0.1,0,0.1
				l-0.1,0.1L-1.1,88.8c0,0-0.1,0-0.1,0.1C-1.2,88.9-1.3,88.9-1.3,88.9z"/>
			<path class="st2" d="M24.1,88.2c-3,0-5.4-2.4-5.4-5.4c0-0.4,0-0.7,0.1-1.1c0.4-2.1,2.1-3.8,4.2-4.2c1-0.2,2.1-0.1,3.1,0.3
				c2,0.8,3.3,2.8,3.3,5C29.4,85.8,27,88.3,24.1,88.2L24.1,88.2z M24.1,78c-1,0-1.9,0.3-2.7,0.8c-0.8,0.5-1.4,1.3-1.8,2.2
				c-0.4,0.9-0.5,1.8-0.3,2.8c0.2,0.9,0.6,1.8,1.3,2.5c0.7,0.7,1.5,1.1,2.5,1.3c2.6,0.4,5.1-1.3,5.6-3.9s-1.3-5.1-3.9-5.6
				C24.5,78,24.3,78,24.1,78L24.1,78z"/>
			<path class="st2" d="M39.5,88.9C39.5,88.9,39.4,88.9,39.5,88.9c-0.1,0-0.2,0-0.2-0.1l-0.1-0.1c0,0,0-0.1,0-0.1c0,0,0-0.1,0-0.1
				l0.1-0.1l11.5-11.5c0.1-0.1,0.1-0.1,0.2-0.1c0.1,0,0.1,0,0.2,0.1c0,0,0.1,0.1,0.1,0.1c0,0,0,0.1,0,0.1c0,0,0,0.1,0,0.1l-0.1,0.1
				L39.7,88.8c0,0-0.1,0-0.1,0.1C39.6,88.9,39.5,88.9,39.5,88.9z"/>
			<path class="st2" d="M64.9,88.2c-1.1,0-2.1-0.3-3-0.9c-2.5-1.6-3.2-5-1.5-7.5c1.4-2.2,4.2-3,6.6-2c2,0.8,3.3,2.8,3.3,5
				C70.3,85.8,67.9,88.3,64.9,88.2L64.9,88.2z M64.9,78c-1,0-1.9,0.3-2.7,0.8c-0.8,0.5-1.4,1.3-1.8,2.2c-1,2.5,0.1,5.3,2.6,6.3
				c1.2,0.5,2.5,0.5,3.7,0c0.9-0.4,1.6-1,2.2-1.8c1.5-2.2,0.9-5.2-1.3-6.7C66.8,78.3,65.9,78,64.9,78z"/>
			<path class="st2" d="M80.3,88.9c0,0-0.1,0-0.1,0c0,0-0.1,0-0.1-0.1c0,0,0-0.1-0.1-0.1c0,0,0-0.1,0-0.1c0,0,0-0.1,0-0.1
				c0,0,0-0.1,0.1-0.1l11.5-11.5c0.1-0.1,0.1-0.1,0.2-0.1c0.1,0,0.1,0,0.2,0.1c0,0,0,0.1,0.1,0.1c0,0,0,0.1,0,0.1c0,0,0,0.1,0,0.1
				c0,0,0,0.1-0.1,0.1L80.5,88.8C80.5,88.8,80.4,88.9,80.3,88.9z"/>
			<path class="st2" d="M3.5,109.5c-1.1,0-2.1-0.3-3-0.9c-0.9-0.6-1.6-1.4-2-2.4c-0.4-1-0.5-2.1-0.3-3.1c0.4-2.1,2.1-3.8,4.2-4.2
				c2.1-0.4,4.3,0.5,5.6,2.3c1.7,2.5,1,5.8-1.5,7.5C5.6,109.2,4.6,109.5,3.5,109.5L3.5,109.5z M3.5,99.3c-2.7,0-4.8,2.2-4.8,4.8
				c0,0.3,0,0.6,0.1,0.9c0.2,0.9,0.6,1.8,1.3,2.5c1.4,1.4,3.5,1.8,5.2,1c2.5-1,3.6-3.8,2.6-6.3c-0.2-0.6-0.6-1.1-1-1.6
				C6,99.8,4.8,99.3,3.5,99.3z"/>
			<path class="st2" d="M19,110.2c-0.1,0-0.1,0-0.2-0.1c0-0.1-0.1-0.1-0.1-0.2c0-0.1,0-0.1,0.1-0.2l11.4-11.5
				c0.1-0.1,0.1-0.1,0.2-0.1c0.1,0,0.1,0,0.2,0.1c0.1,0,0.1,0.1,0.1,0.2c0,0.1,0,0.1-0.1,0.2l-11.5,11.5
				C19.1,110.1,19.1,110.2,19,110.2z"/>
			<path class="st2" d="M44.4,109.5c-3,0-5.4-2.4-5.4-5.4c0-1.4,0.6-2.8,1.6-3.8c0.8-0.8,1.7-1.3,2.8-1.5c2.9-0.6,5.8,1.3,6.4,4.2
				c0.6,2.9-1.3,5.8-4.2,6.4C45.1,109.5,44.7,109.5,44.4,109.5L44.4,109.5z M44.4,99.3c-1,0-1.9,0.3-2.7,0.8
				c-0.8,0.5-1.4,1.3-1.8,2.2c-0.8,1.8-0.4,3.9,1,5.2c0.7,0.7,1.5,1.1,2.5,1.3c0.9,0.2,1.9,0.1,2.8-0.3c0.9-0.4,1.6-1,2.2-1.8
				c1.5-2.2,0.9-5.2-1.3-6.7C46.2,99.6,45.3,99.3,44.4,99.3L44.4,99.3z"/>
			<path class="st2" d="M59.8,110.2c-0.1,0-0.3-0.1-0.3-0.3c0,0,0,0,0,0c0-0.1,0-0.1,0.1-0.2l11.5-11.5c0.1-0.1,0.1-0.1,0.2-0.1
				c0.1,0,0.1,0,0.2,0.1c0.1,0.1,0.1,0.1,0.1,0.2c0,0.1,0,0.1-0.1,0.2L60,110.1c0,0-0.1,0-0.1,0.1C59.9,110.2,59.8,110.2,59.8,110.2
				z"/>
			<path class="st2" d="M85.2,109.5c-2.2,0-4.2-1.3-5-3.3c-1.1-2.7,0.2-5.9,2.9-7c2.7-1.1,5.9,0.2,7,2.9s-0.2,5.9-2.9,7
				C86.6,109.4,85.9,109.5,85.2,109.5z M85.2,99.3c-1,0-1.9,0.3-2.7,0.8c-0.8,0.5-1.4,1.3-1.8,2.2c-1,2.5,0.2,5.3,2.6,6.3
				c2.5,1,5.3-0.2,6.3-2.6c1-2.5-0.2-5.3-2.6-6.3C86.4,99.4,85.8,99.3,85.2,99.3L85.2,99.3z"/>
			<path class="st2" d="M-1.3,130.3h-0.1l-0.1-0.1c0,0,0-0.1-0.1-0.1c0,0,0-0.1,0-0.1c0,0,0-0.1,0-0.1c0,0,0-0.1,0.1-0.1L10,118.4
				c0.1-0.1,0.1-0.1,0.2-0.1c0.1,0,0.1,0,0.2,0.1l0.1,0.1c0,0,0,0.1,0,0.1c0,0,0,0.1,0,0.1c0,0,0,0.1-0.1,0.1l-11.5,11.5l-0.1,0.1
				L-1.3,130.3z"/>
			<path class="st2" d="M24.1,129.7c-3,0-5.4-2.4-5.4-5.4s2.4-5.4,5.4-5.4c1.8,0,3.5,0.9,4.5,2.4c1.7,2.5,1,5.8-1.5,7.5
				C26.2,129.4,25.1,129.7,24.1,129.7z M24.1,119.5c-1,0-1.9,0.3-2.7,0.8c-1.6,1.1-2.4,3.1-2,5c0.4,1.9,1.9,3.3,3.7,3.7
				c2.6,0.5,5.2-1.1,5.7-3.7c0.5-2.6-1.1-5.2-3.7-5.7C24.8,119.5,24.4,119.5,24.1,119.5L24.1,119.5z"/>
			<path class="st2" d="M39.5,130.3L39.5,130.3l-0.2-0.1l-0.1-0.1c0,0,0-0.1,0-0.1c0,0,0-0.1,0-0.1l0.1-0.1l11.5-11.5
				c0.1-0.1,0.1-0.1,0.2-0.1c0.1,0,0.1,0,0.2,0.1l0.1,0.1c0,0,0,0.1,0,0.1c0,0,0,0.1,0,0.1c0,0,0,0.1-0.1,0.1l-11.5,11.5l-0.1,0.1
				L39.5,130.3z"/>
			<path class="st2" d="M64.9,129.7c-1.1,0-2.1-0.3-3-0.9c-0.9-0.6-1.6-1.4-2-2.4c-1.1-2.7,0.2-5.9,2.9-7c2.7-1.1,5.9,0.2,7,2.9
				s-0.2,5.9-2.9,7C66.3,129.5,65.6,129.7,64.9,129.7L64.9,129.7z M64.9,119.5c-1,0-1.9,0.3-2.7,0.8c-1.6,1.1-2.4,3.1-2,5
				c0.2,0.9,0.6,1.8,1.3,2.5c0.7,0.6,1.5,1.1,2.4,1.2c2.6,0.5,5.2-1.1,5.7-3.7c0.5-2.6-1.1-5.2-3.7-5.7
				C65.6,119.5,65.3,119.5,64.9,119.5L64.9,119.5z"/>
			<path class="st2" d="M80.3,130.3h-0.1c0,0-0.1,0-0.1-0.1c0,0-0.1-0.1-0.1-0.1c0,0,0-0.1,0-0.1c0,0,0-0.1,0-0.1c0,0,0-0.1,0.1-0.1
				l11.5-11.5c0.1-0.1,0.1-0.1,0.2-0.1c0.1,0,0.1,0,0.2,0.1c0,0,0,0.1,0.1,0.1c0,0,0,0.1,0,0.1c0,0,0,0.1,0,0.1c0,0,0,0.1-0.1,0.1
				l-11.5,11.5C80.5,130.3,80.4,130.3,80.3,130.3z"/>
		</g>
		<g>
			<path class="st2" d="M-1.3,130.2c-0.1,0-0.1,0-0.2-0.1c0,0,0-0.1-0.1-0.1c0,0,0-0.1,0-0.1c0,0,0-0.1,0-0.1c0,0,0-0.1,0.1-0.1
				L10,118.2c0.1-0.1,0.1-0.1,0.2-0.1c0.1,0,0.1,0,0.2,0.1c0.1,0.1,0.1,0.1,0.1,0.2c0,0.1,0,0.1-0.1,0.2l-11.5,11.5
				C-1.2,130.2-1.2,130.2-1.3,130.2z"/>
			<path class="st2" d="M24.1,129.6c-1.1,0-2.1-0.3-3-0.9c-0.9-0.6-1.6-1.4-2-2.4c-0.8-2-0.4-4.3,1.2-5.9c0.8-0.8,1.7-1.3,2.8-1.5
				c1-0.2,2.1-0.1,3.1,0.3c2.8,1.1,4.1,4.3,2.9,7C28.2,128.2,26.2,129.6,24.1,129.6L24.1,129.6z M24.1,119.3c-2.7,0-4.8,2.2-4.8,4.8
				c0,0.3,0,0.6,0.1,0.9c0.2,0.9,0.6,1.8,1.3,2.5c1.4,1.4,3.5,1.8,5.2,1c2.5-1,3.6-3.8,2.6-6.3C27.8,120.5,26,119.3,24.1,119.3
				L24.1,119.3z"/>
			<path class="st2" d="M39.5,130.2c-0.1,0-0.1,0-0.2-0.1l-0.1-0.1c0,0,0-0.1,0-0.1c0,0,0-0.1,0-0.1l0.1-0.1l11.5-11.5l0.1-0.1H51
				h0.1l0.1,0.1c0,0,0,0.1,0.1,0.1c0,0,0,0.1,0,0.1c0,0,0,0.1,0,0.1c0,0,0,0.1-0.1,0.1l-11.5,11.5C39.7,130.2,39.6,130.2,39.5,130.2
				z"/>
			<path class="st2" d="M64.9,129.6c-2.2,0-4.2-1.3-5-3.3c-0.4-1-0.5-2.1-0.3-3.1c0.2-1,0.7-2,1.5-2.8c2.1-2.1,5.5-2.1,7.6,0
				c0.3,0.3,0.5,0.5,0.7,0.8c0.6,0.9,0.9,1.9,0.9,3C70.3,127.2,67.9,129.6,64.9,129.6L64.9,129.6z M64.9,119.3c-1,0-1.9,0.3-2.7,0.8
				c-0.8,0.5-1.4,1.3-1.8,2.2c-0.8,1.8-0.4,3.9,1,5.2c1.4,1.4,3.5,1.8,5.2,1c2.5-1,3.6-3.8,2.6-6.3
				C68.6,120.5,66.8,119.3,64.9,119.3L64.9,119.3z"/>
			<path class="st2" d="M80.3,130.2c-0.1,0-0.2,0-0.2-0.1c0,0,0-0.1-0.1-0.1c0,0,0-0.1,0-0.1c0,0,0-0.1,0-0.1c0,0,0-0.1,0.1-0.1
				l11.5-11.5c0.1,0,0.1-0.1,0.2-0.1c0.1,0,0.2,0,0.2,0.1c0.1,0.1,0.1,0.1,0.1,0.2c0,0.1,0,0.1-0.1,0.2l-11.5,11.5
				C80.5,130.2,80.4,130.2,80.3,130.2z"/>
			<path class="st2" d="M3.5,150.9c-1.1,0-2.1-0.3-3-0.9c-0.9-0.6-1.6-1.4-2-2.4c-0.4-1-0.5-2.1-0.3-3.1c0.2-1,0.7-2,1.5-2.8
				c0.8-0.7,1.7-1.3,2.8-1.5c1-0.2,2.1-0.1,3.1,0.3c1,0.4,1.8,1.1,2.4,2c1.7,2.5,1,5.8-1.5,7.5C5.6,150.6,4.6,150.9,3.5,150.9
				L3.5,150.9z M3.5,140.7c-2.7,0-4.8,2.2-4.8,4.9c0,2.3,1.6,4.2,3.8,4.7c0.9,0.2,1.9,0.1,2.8-0.3c2.5-1,3.6-3.8,2.6-6.3
				c-0.2-0.6-0.6-1.1-1-1.6C6,141.2,4.8,140.7,3.5,140.7z"/>
			<path class="st2" d="M19,151.5c-0.1,0-0.1,0-0.2-0.1c-0.1-0.1-0.1-0.1-0.1-0.2c0-0.1,0-0.1,0.1-0.2l11.5-11.5
				c0.1-0.1,0.1-0.1,0.2-0.1c0.1,0,0.3,0.1,0.3,0.3c0,0,0,0,0,0c0,0.1,0,0.1-0.1,0.2l-11.5,11.5C19.1,151.5,19.1,151.5,19,151.5z"/>
			<path class="st2" d="M44.4,150.9c-3,0-5.4-2.4-5.4-5.4s2.4-5.4,5.4-5.4c3,0,5.4,2.4,5.4,5.4c0,1.4-0.6,2.8-1.6,3.8
				C47.2,150.3,45.8,150.9,44.4,150.9z M44.4,140.7c-2,0-3.7,1.2-4.4,3c-1,2.5,0.1,5.3,2.6,6.3c0.3,0.1,0.6,0.2,0.9,0.3
				c1.9,0.4,3.8-0.4,4.9-2c1.5-2.2,0.9-5.2-1.3-6.7C46.2,141,45.3,140.7,44.4,140.7L44.4,140.7z"/>
			<path class="st2" d="M59.8,151.5c-0.1,0-0.1,0-0.2-0.1c-0.1-0.1-0.1-0.1-0.1-0.2c0-0.1,0-0.1,0.1-0.2l11.5-11.5l0.1-0.1h0.1
				c0,0,0.1,0,0.1,0c0.1,0,0.1,0.1,0.2,0.1c0,0,0,0.1,0,0.1c0,0,0,0.1,0,0.1l-0.1,0.1L60,151.4l-0.1,0.1
				C59.9,151.5,59.8,151.5,59.8,151.5z"/>
			<path class="st2" d="M85.2,150.9c-2.2,0-4.2-1.3-5-3.3c-0.4-1-0.5-2.1-0.3-3.1c0.6-2.9,3.4-4.8,6.3-4.2c1.4,0.3,2.6,1.1,3.4,2.3
				c1.7,2.5,1,5.8-1.5,7.5C87.3,150.5,86.2,150.9,85.2,150.9L85.2,150.9z M85.2,140.7c-1,0-1.9,0.3-2.7,0.8
				c-0.8,0.5-1.4,1.3-1.8,2.2c-1,2.5,0.2,5.3,2.6,6.3c0.3,0.1,0.6,0.2,0.9,0.3c0.9,0.2,1.9,0.1,2.8-0.3c2.5-1,3.6-3.8,2.6-6.3
				C88.9,141.8,87.2,140.7,85.2,140.7L85.2,140.7z"/>
			<path class="st2" d="M-1.3,171.7c-0.1,0-0.1,0-0.2-0.1c0,0,0-0.1-0.1-0.1c0,0,0-0.1,0-0.1c0,0,0-0.1,0-0.1c0,0,0-0.1,0.1-0.1
				L10,159.7c0.1-0.1,0.1-0.1,0.2-0.1c0.1,0,0.1,0,0.2,0.1c0.1,0.1,0.1,0.1,0.1,0.2c0,0.1,0,0.1-0.1,0.2l-11.5,11.5
				C-1.2,171.6-1.2,171.7-1.3,171.7z"/>
			<path class="st2" d="M24.1,171c-2.2,0-4.2-1.3-5-3.3c-0.8-2-0.4-4.3,1.2-5.9c2.1-2.1,5.5-2.1,7.6,0c0.3,0.3,0.5,0.5,0.7,0.8
				c0.6,0.9,0.9,1.9,0.9,3C29.4,168.6,27,171,24.1,171z M24.1,160.8c-1,0-1.9,0.3-2.7,0.8c-1.6,1.1-2.4,3.1-2,5
				c0.4,1.9,1.9,3.4,3.8,3.8c2.6,0.5,5.2-1.1,5.7-3.7c0.5-2.6-1.1-5.2-3.7-5.7C24.8,160.9,24.5,160.8,24.1,160.8L24.1,160.8z"/>
			<path class="st2" d="M39.5,171.7c-0.1,0-0.1,0-0.2-0.1c0,0,0-0.1-0.1-0.1c0,0,0-0.1,0-0.1c0,0,0-0.1,0-0.1l0.1-0.1l11.5-11.5
				l0.1-0.1H51h0.1l0.1,0.1c0,0,0,0.1,0.1,0.1c0,0,0,0.1,0,0.1c0,0,0,0.1,0,0.1c0,0,0,0.1-0.1,0.1l-11.5,11.5
				C39.7,171.6,39.6,171.7,39.5,171.7z"/>
			<path class="st2" d="M64.9,171c-2.2,0-4.2-1.3-5-3.3c-0.8-2-0.4-4.3,1.2-5.9c2.1-2.1,5.5-2.1,7.6,0c0.3,0.3,0.5,0.5,0.7,0.8
				c0.6,0.9,0.9,1.9,0.9,3C70.3,168.6,67.9,171,64.9,171z M64.9,160.8c-1,0-1.9,0.3-2.7,0.8c-2.2,1.5-2.8,4.5-1.3,6.7
				c0.2,0.3,0.4,0.5,0.6,0.7c0.7,0.7,1.6,1.2,2.5,1.3c2.6,0.5,5.2-1.1,5.7-3.7c0.5-2.6-1.1-5.2-3.7-5.7
				C65.6,160.9,65.3,160.8,64.9,160.8L64.9,160.8z"/>
			<path class="st2" d="M80.3,171.7c-0.1,0-0.2,0-0.2-0.1c0,0-0.1-0.1-0.1-0.1c0,0,0-0.1,0-0.1c0,0,0-0.1,0-0.1c0,0,0-0.1,0.1-0.1
				l11.5-11.5c0.1-0.1,0.1-0.1,0.2-0.1c0.1,0,0.1,0,0.2,0.1c0.1,0.1,0.1,0.1,0.1,0.2c0,0.1,0,0.1-0.1,0.2l-11.5,11.5
				C80.5,171.6,80.4,171.7,80.3,171.7z"/>
			<path class="st2" d="M3.5,192.3c-1.1,0-2.1-0.3-3-0.9c-0.9-0.6-1.6-1.4-2-2.4c-0.4-1-0.5-2.1-0.3-3.1c0.2-1,0.7-2,1.5-2.8
				c0.8-0.7,1.7-1.3,2.8-1.5c1-0.2,2.1-0.1,3.1,0.3c1,0.4,1.8,1.1,2.4,2c0.6,0.9,0.9,1.9,0.9,3C8.9,189.9,6.5,192.3,3.5,192.3
				L3.5,192.3z M3.5,182.1c-2.7,0-4.8,2.1-4.8,4.8c0,1.3,0.5,2.5,1.4,3.4c0.7,0.7,1.5,1.1,2.5,1.3c0.9,0.2,1.9,0.1,2.8-0.3
				c0.9-0.4,1.6-1,2.2-1.8c0.5-0.8,0.8-1.7,0.8-2.7C8.4,184.3,6.2,182.1,3.5,182.1C3.5,182.1,3.5,182.1,3.5,182.1z"/>
			<path class="st2" d="M19,193c-0.1,0-0.1,0-0.2-0.1c-0.1-0.1-0.1-0.1-0.1-0.2c0-0.1,0-0.1,0.1-0.2L30.2,181
				c0.1-0.1,0.1-0.1,0.2-0.1c0.1,0,0.3,0.1,0.3,0.3c0,0.1,0,0.1-0.1,0.2l-11.5,11.5C19.1,192.9,19.1,193,19,193z"/>
			<path class="st2" d="M44.4,192.3c-1.1,0-2.1-0.3-3-0.9c-1.8-1.2-2.7-3.4-2.3-5.5c0.2-1,0.7-2,1.5-2.8c1.6-1.5,3.9-2,5.9-1.1
				c2,0.8,3.3,2.8,3.3,5C49.7,190,47.3,192.4,44.4,192.3L44.4,192.3z M44.4,182.1c-2.7,0-4.8,2.2-4.8,4.8c0,0.3,0,0.6,0.1,0.9
				c0.2,0.9,0.7,1.8,1.4,2.5c1.9,1.9,4.9,1.9,6.8,0c1.9-1.9,1.9-4.9,0-6.8C46.9,182.6,45.7,182.1,44.4,182.1L44.4,182.1z"/>
			<path class="st2" d="M59.8,193c-0.1,0-0.1,0-0.2-0.1c-0.1-0.1-0.1-0.1-0.1-0.2c0-0.1,0-0.1,0.1-0.2L71.1,181l0.1-0.1h0.1h0.1
				c0,0,0.1,0,0.1,0.1c0,0,0,0.1,0.1,0.1c0,0,0,0.1,0,0.1c0,0,0,0.1,0,0.1c0,0,0,0.1-0.1,0.1L60,192.9l-0.1,0.1L59.8,193z"/>
			<path class="st2" d="M85.2,192.3c-1.1,0-2.1-0.3-3-0.9c-2.4-1.7-2.9-5.1-1.2-7.5c1.4-2,4-2.7,6.3-1.9c2.7,1.2,4,4.3,2.9,7.1
				C89.3,191,87.4,192.3,85.2,192.3L85.2,192.3z M85.2,182.1c-1,0-1.9,0.3-2.7,0.8c-2.2,1.5-2.8,4.5-1.3,6.7
				c0.2,0.3,0.4,0.5,0.6,0.7c0.7,0.7,1.5,1.1,2.5,1.3c0.9,0.2,1.9,0.1,2.8-0.3c0.9-0.4,1.6-1,2.2-1.8c1.5-2.2,0.9-5.2-1.3-6.7
				C87.1,182.4,86.1,182.1,85.2,182.1z"/>
		</g>
		<g>
			<path class="st2" d="M79.4,5.9c-0.1,0-0.1,0-0.2-0.1l-0.1-0.1c0,0,0-0.1,0-0.1c0,0,0-0.1,0-0.1l0.1-0.1L90.6-6
				c0.1-0.1,0.1-0.1,0.2-0.1C90.9-6.1,91-6,91-6c0.1,0.1,0.1,0.1,0.1,0.2c0,0.1,0,0.1-0.1,0.2L79.6,5.8C79.5,5.9,79.4,5.9,79.4,5.9z
				"/>
			<path class="st2" d="M104.8,5.3c-1.1,0-2.1-0.3-3-0.9c-0.9-0.6-1.6-1.4-2-2.4c-0.4-1-0.5-2.1-0.3-3.1c0.2-1,0.7-2,1.5-2.8
				c0.8-0.7,1.7-1.3,2.8-1.5c1-0.2,2.1-0.1,3.1,0.3c1,0.4,1.8,1.1,2.4,2c0.6,0.9,0.9,1.9,0.9,3c0,1.4-0.6,2.8-1.6,3.8
				C107.5,4.7,106.2,5.3,104.8,5.3z M104.8-4.9c-1,0-1.9,0.3-2.7,0.8c-0.8,0.5-1.4,1.3-1.8,2.2c-0.4,0.9-0.5,1.9-0.3,2.8
				c0.2,0.9,0.6,1.8,1.3,2.5c0.7,0.7,1.5,1.1,2.5,1.3c0.9,0.2,1.9,0.1,2.8-0.3c0.9-0.4,1.6-1,2.2-1.8c0.5-0.8,0.8-1.7,0.8-2.7
				c0-1.3-0.5-2.5-1.4-3.4C107.2-4.4,106-4.9,104.8-4.9L104.8-4.9z"/>
			<path class="st2" d="M120.2,5.9c-0.1,0-0.2,0-0.2-0.1c0,0,0-0.1-0.1-0.1c0,0,0-0.1,0-0.1c0,0,0-0.1,0-0.1l0.1-0.1L131.5-6
				c0,0,0.1,0,0.1-0.1h0.1h0.1l0.1,0.1c0,0,0,0.1,0.1,0.1c0,0,0,0.1,0,0.1c0,0,0,0.1,0,0.1c0,0,0,0.1-0.1,0.1L120.4,5.8
				C120.3,5.9,120.3,5.9,120.2,5.9z"/>
			<path class="st2" d="M145.6,5.3c-1.1,0-2.1-0.3-3-0.9c-0.9-0.6-1.6-1.4-2-2.4c-0.4-1-0.5-2.1-0.3-3.1c0.2-1,0.7-2,1.5-2.8
				c0.8-0.8,1.7-1.3,2.8-1.5c1-0.2,2.1-0.1,3.1,0.3c1,0.4,1.8,1.1,2.4,2c0.6,0.9,0.9,1.9,0.9,3c0,1.4-0.6,2.8-1.6,3.8
				C148.4,4.7,147,5.3,145.6,5.3z M145.6-4.9c-1,0-1.9,0.3-2.7,0.8c-0.8,0.5-1.4,1.3-1.8,2.2c-0.4,0.9-0.5,1.9-0.3,2.8
				c0.2,0.9,0.6,1.8,1.3,2.5c0.7,0.7,1.5,1.1,2.5,1.3c0.9,0.2,1.9,0.1,2.8-0.3c0.9-0.4,1.6-1,2.2-1.8c0.5-0.8,0.8-1.7,0.8-2.7
				c0-1.3-0.5-2.5-1.4-3.4C148.1-4.4,146.9-4.9,145.6-4.9L145.6-4.9z"/>
			<path class="st2" d="M161,5.9c-0.1,0-0.2,0-0.2-0.1c0,0-0.1-0.1-0.1-0.1c0,0,0-0.1,0-0.1c0,0,0-0.1,0-0.1l0.1-0.1L172.3-6
				c0.1-0.1,0.1-0.1,0.2-0.1c0.1,0,0.1,0,0.2,0.1c0.1,0.1,0.1,0.1,0.1,0.2c0,0.1,0,0.1-0.1,0.2L161.2,5.8
				C161.2,5.9,161.1,5.9,161,5.9z"/>
			<path class="st2" d="M186.4,5.3c-1.1,0-2.1-0.3-3-0.9c-0.9-0.6-1.6-1.4-2-2.4c-0.4-1-0.5-2.1-0.3-3.1c0.2-1,0.7-2,1.5-2.8
				c0.8-0.8,1.7-1.3,2.8-1.5c1-0.2,2.1-0.1,3.1,0.3c1,0.4,1.8,1.1,2.4,2c0.6,0.9,0.9,1.9,0.9,3c0,1.4-0.6,2.8-1.6,3.8
				C189.2,4.7,187.8,5.3,186.4,5.3z M186.4-4.9c-1,0-1.9,0.3-2.7,0.8c-0.8,0.5-1.4,1.3-1.7,2.2c-0.4,0.9-0.5,1.8-0.3,2.8
				c0.2,0.9,0.6,1.8,1.3,2.5c0.7,0.7,1.5,1.1,2.5,1.3c0.9,0.2,1.9,0.1,2.8-0.3c0.9-0.4,1.6-1,2.2-1.8c0.5-0.8,0.8-1.7,0.8-2.7
				c0-1.3-0.5-2.5-1.4-3.4C188.9-4.4,187.7-4.9,186.4-4.9L186.4-4.9z"/>
			<path class="st2" d="M201.9,5.9c-0.1,0-0.2,0-0.2-0.1c0,0-0.1-0.1-0.1-0.1c0,0,0-0.1,0-0.1c0,0,0-0.1,0-0.1l0.1-0.1L213.1-6
				c0,0,0.1,0,0.1-0.1c0,0,0.1,0,0.1,0h0.1l0.1,0.1c0,0,0.1,0.1,0.1,0.1c0,0,0,0.1,0,0.1c0,0,0,0.1,0,0.1c0,0,0,0.1-0.1,0.1
				L202.1,5.8C202,5.9,201.9,5.9,201.9,5.9z"/>
			<path class="st2" d="M227.2,5.3c-1.1,0-2.1-0.3-3-0.9c-0.9-0.6-1.6-1.4-2-2.4c-0.4-1-0.5-2.1-0.2-3.1c0.2-1,0.7-2,1.5-2.8
				c0.8-0.8,1.7-1.3,2.8-1.5c1-0.2,2.1-0.1,3.1,0.3c1,0.4,1.8,1.1,2.4,2c0.6,0.9,0.9,1.9,0.9,3c0,1.4-0.6,2.8-1.6,3.8
				C230.1,4.8,228.7,5.3,227.2,5.3z M227.2-4.9c-1,0-1.9,0.3-2.7,0.8c-0.8,0.5-1.4,1.3-1.8,2.2c-0.4,0.9-0.5,1.9-0.3,2.8
				c0.2,0.9,0.6,1.8,1.3,2.5c0.7,0.7,1.5,1.1,2.5,1.3c0.9,0.2,1.9,0.1,2.8-0.3c0.9-0.4,1.6-1,2.2-1.8c0.5-0.8,0.8-1.7,0.8-2.7
				c0-1.3-0.5-2.5-1.4-3.4C229.7-4.4,228.5-4.9,227.2-4.9L227.2-4.9z"/>
			<path class="st2" d="M242.7,5.9c-0.1,0-0.1,0-0.2-0.1c0,0-0.1-0.1-0.1-0.1c0,0,0-0.1,0-0.1c0-0.1,0-0.1,0.1-0.2L254-6
				c0-0.1,0.1-0.1,0.2-0.1c0.1,0,0.1,0,0.2,0.1c0.1,0.1,0.1,0.1,0.1,0.2c0,0.1,0,0.1-0.1,0.2L242.9,5.8
				C242.8,5.9,242.8,5.9,242.7,5.9z"/>
			<path class="st2" d="M99.7,27.2c-0.1,0-0.1,0-0.2-0.1c-0.1-0.1-0.1-0.1-0.1-0.2c0-0.1,0-0.1,0.1-0.2l11.5-11.5
				c0.1-0.1,0.1-0.1,0.2-0.1c0.1,0,0.1,0,0.2,0.1c0.1,0,0.1,0.1,0.1,0.2c0,0.1,0,0.1-0.1,0.2L99.9,27.2
				C99.8,27.2,99.7,27.2,99.7,27.2z"/>
			<path class="st2" d="M125.1,26.6c-1.1,0-2.1-0.3-3-0.9c-0.9-0.6-1.6-1.4-2-2.4c-1.1-2.7,0.2-5.9,2.9-7c2.7-1.1,5.9,0.2,7,2.9
				s-0.2,5.9-2.9,7C126.4,26.5,125.7,26.6,125.1,26.6z M125.1,16.4c-1,0-1.9,0.3-2.7,0.8c-2.2,1.5-2.8,4.5-1.3,6.7
				c0.2,0.3,0.4,0.5,0.6,0.7c0.7,0.7,1.5,1.1,2.5,1.3c2.6,0.5,5.2-1.1,5.7-3.7s-1.1-5.2-3.7-5.7C125.7,16.4,125.4,16.4,125.1,16.4z"
				/>
			<path class="st2" d="M140.5,27.2c-0.1,0-0.2,0-0.2-0.1c-0.1-0.1-0.1-0.1-0.1-0.2c0-0.1,0-0.1,0.1-0.2l11.5-11.5
				c0.1,0,0.1-0.1,0.2-0.1c0.1,0,0.1,0,0.2,0.1c0.1,0.1,0.1,0.1,0.1,0.2c0,0.1,0,0.1-0.1,0.2l-11.5,11.5
				C140.6,27.2,140.6,27.2,140.5,27.2z"/>
			<path class="st2" d="M165.9,26.6c-1.1,0-2.1-0.3-3-0.9c-0.9-0.6-1.6-1.4-2-2.4c-1.1-2.8,0.3-5.9,3-7c1.3-0.5,2.7-0.5,4,0
				c1,0.4,1.8,1.1,2.4,2c1.6,2.5,1,5.8-1.5,7.5C167.9,26.3,166.9,26.7,165.9,26.6L165.9,26.6z M165.9,16.4c-2.7,0-4.8,2.2-4.8,4.8
				c0,0.3,0,0.6,0.1,0.9c0.2,0.9,0.6,1.8,1.3,2.5c0.7,0.7,1.5,1.1,2.5,1.3c2.6,0.5,5.2-1.1,5.7-3.7c0.5-2.6-1.1-5.2-3.7-5.7
				C166.6,16.4,166.2,16.4,165.9,16.4L165.9,16.4z"/>
			<path class="st2" d="M181.3,27.2c-0.1,0-0.1,0-0.2-0.1c-0.1,0-0.1-0.1-0.1-0.2c0-0.1,0-0.1,0.1-0.2l11.5-11.5
				c0.1,0,0.1-0.1,0.2-0.1c0.1,0,0.2,0,0.2,0.1c0.1,0.1,0.1,0.3,0,0.4l-11.4,11.4C181.5,27.2,181.4,27.2,181.3,27.2z"/>
			<path class="st2" d="M206.7,26.6c-2.2,0-4.2-1.3-5-3.3c-0.4-1-0.5-2.1-0.3-3.1c0.4-2.1,2.1-3.8,4.2-4.2c1-0.2,2.1-0.1,3.1,0.3
				c2.8,1.1,4.1,4.3,2.9,7C210.9,25.3,208.9,26.6,206.7,26.6L206.7,26.6z M206.7,16.4c-2,0-3.7,1.2-4.4,3c-0.4,0.9-0.5,1.8-0.3,2.8
				c0.4,1.9,1.9,3.4,3.8,3.8c2.6,0.5,5.2-1.1,5.7-3.7c0.5-2.6-1.1-5.2-3.7-5.7C207.4,16.5,207,16.4,206.7,16.4L206.7,16.4z"/>
			<path class="st2" d="M222.1,27.2c-0.2,0-0.3-0.1-0.3-0.3c0-0.1,0-0.1,0.1-0.2l11.5-11.5l0.1-0.1h0.1h0.1l0.1,0.1
				c0.1,0.1,0.1,0.1,0.1,0.2c0,0.1,0,0.1-0.1,0.2l-11.5,11.5c0,0-0.1,0-0.1,0.1L222.1,27.2z"/>
			<path class="st2" d="M247.5,26.6c-1.1,0-2.1-0.3-3-0.9c-1.8-1.2-2.7-3.4-2.3-5.5c0.6-2.9,3.4-4.8,6.3-4.2c0.3,0.1,0.7,0.2,1,0.3
				c1,0.4,1.8,1.1,2.4,2c1.7,2.5,1,5.8-1.5,7.5C249.6,26.3,248.6,26.6,247.5,26.6L247.5,26.6z M247.5,16.4c-2.7,0-4.8,2.1-4.8,4.8
				c0,1.3,0.5,2.5,1.4,3.4c0.7,0.7,1.5,1.1,2.5,1.3c1.9,0.4,3.9-0.4,4.9-2c0.5-0.8,0.8-1.7,0.8-2.7
				C252.4,18.6,250.2,16.4,247.5,16.4C247.5,16.4,247.5,16.4,247.5,16.4z"/>
			<path class="st2" d="M85.1,26.6c-2.2,0-4.2-1.3-5-3.3c-0.8-2-0.4-4.3,1.2-5.9c0.7-0.8,1.7-1.3,2.7-1.5c2.1-0.4,4.3,0.5,5.5,2.3
				c1.4,2.1,1.2,5-0.6,6.8C87.9,26,86.5,26.6,85.1,26.6z M85.1,16.4c-1,0-1.9,0.3-2.7,0.8c-1.6,1.1-2.4,3-2,4.9
				c0.4,1.9,1.9,3.4,3.8,3.8c2.6,0.5,5.2-1.1,5.7-3.7s-1.1-5.2-3.7-5.7C85.8,16.4,85.5,16.4,85.1,16.4L85.1,16.4z"/>
			<path class="st2" d="M79.4,47.4c-0.1,0-0.1,0-0.2-0.1l-0.1-0.1c0,0,0-0.1,0-0.1c0,0,0-0.1,0-0.1l0.1-0.1l11.5-11.5
				c0.1,0,0.1-0.1,0.2-0.1c0.1,0,0.1,0,0.2,0.1c0.1,0.1,0.1,0.1,0.1,0.2c0,0.1,0,0.1-0.1,0.2L79.6,47.3
				C79.5,47.4,79.4,47.4,79.4,47.4z"/>
			<path class="st2" d="M104.8,46.8c-2.2,0-4.2-1.3-5-3.3c-0.8-2-0.4-4.3,1.2-5.9c2.1-2.1,5.5-2.1,7.6,0c0.3,0.3,0.5,0.5,0.7,0.8
				c0.6,0.9,0.9,1.9,0.9,3C110.1,44.4,107.7,46.8,104.8,46.8L104.8,46.8z M104.8,36.6c-2.7,0-4.8,2.1-4.9,4.8c0,0.3,0,0.7,0.1,1
				c0.2,0.9,0.6,1.8,1.3,2.5c1.4,1.4,3.5,1.8,5.2,1c2.5-1,3.6-3.8,2.6-6.3C108.4,37.7,106.7,36.5,104.8,36.6L104.8,36.6z"/>
			<path class="st2" d="M120.2,47.4c-0.1,0-0.2,0-0.2-0.1l-0.1-0.1c0,0,0-0.1,0-0.1c0,0,0-0.1,0-0.1l0.1-0.1l11.5-11.5l0.1-0.1
				c0,0,0.1,0,0.1,0h0.1c0,0,0.1,0,0.1,0.1c0,0,0,0.1,0.1,0.1c0,0,0,0.1,0,0.1c0,0,0,0.1,0,0.1c0,0,0,0.1-0.1,0.1l-11.5,11.5
				C120.3,47.4,120.3,47.4,120.2,47.4z"/>
			<path class="st2" d="M145.6,46.8c-3,0-5.4-2.4-5.4-5.4c0-0.3,0-0.7,0.1-1c0.6-2.9,3.5-4.8,6.4-4.2c0.3,0.1,0.7,0.2,1,0.3
				c2.7,1.1,4.1,4.3,2.9,7c-0.3,0.7-0.7,1.2-1.2,1.7C148.4,46.2,147,46.8,145.6,46.8z M145.6,36.6c-1,0-1.9,0.3-2.7,0.8
				c-0.8,0.5-1.4,1.3-1.8,2.2c-0.4,0.9-0.5,1.8-0.3,2.8c0.4,1.9,1.9,3.4,3.8,3.8c2.6,0.5,5.1-1.2,5.7-3.8c0.5-2.6-1.2-5.1-3.8-5.7
				C146.2,36.6,145.9,36.6,145.6,36.6z"/>
			<path class="st2" d="M161,47.4c-0.1,0-0.1,0-0.2-0.1l-0.1-0.1c0,0,0-0.1,0-0.1c0-0.1,0-0.2,0.1-0.2l11.5-11.5
				c0.1,0,0.1-0.1,0.2-0.1c0.1,0,0.3,0.1,0.3,0.3c0,0,0,0,0,0c0,0.1,0,0.1-0.1,0.2l-11.5,11.5C161.2,47.4,161.1,47.4,161,47.4z"/>
			<path class="st2" d="M186.4,46.8c-2.2,0-4.2-1.3-5-3.3c-1.1-2.8,0.3-5.9,3-7c1.3-0.5,2.7-0.5,4,0c1,0.4,1.8,1.1,2.4,2
				c1.6,2.5,1,5.8-1.5,7.5C188.4,46.5,187.4,46.8,186.4,46.8L186.4,46.8z M186.4,36.6c-1,0-1.9,0.3-2.7,0.8
				c-0.8,0.5-1.4,1.3-1.7,2.2c-0.4,0.9-0.5,1.8-0.3,2.8c0.4,1.9,1.9,3.4,3.8,3.8c2.6,0.5,5.1-1.2,5.7-3.8c0.5-2.6-1.2-5.1-3.8-5.7
				C187.1,36.6,186.8,36.6,186.4,36.6L186.4,36.6z"/>
			<path class="st2" d="M201.9,47.4c-0.1,0-0.1,0-0.2-0.1l-0.1-0.1c0,0,0-0.1,0-0.1c0-0.1,0-0.2,0.1-0.2l11.5-11.5
				c0,0,0.1,0,0.1-0.1c0,0,0.1,0,0.1,0h0.1c0.1,0,0.1,0.1,0.2,0.2c0,0,0,0.1,0,0.1c0,0,0,0.1,0,0.1c0,0,0,0.1-0.1,0.1l-11.5,11.5
				C202,47.4,201.9,47.4,201.9,47.4z"/>
			<path class="st2" d="M227.2,46.8c-3,0-5.4-2.5-5.4-5.4c0-0.3,0-0.7,0.1-1c0.6-2.9,3.5-4.8,6.4-4.2c0.3,0.1,0.7,0.2,1,0.3
				c2.7,1.1,4.1,4.3,2.9,7c-0.3,0.7-0.7,1.2-1.2,1.7C230.1,46.2,228.7,46.8,227.2,46.8z M227.2,36.6c-1,0-1.9,0.3-2.7,0.8
				c-0.8,0.5-1.4,1.3-1.8,2.2c-0.4,0.9-0.5,1.8-0.3,2.8c0.4,1.9,1.9,3.4,3.8,3.8c2.6,0.5,5.1-1.2,5.7-3.8c0.5-2.6-1.2-5.1-3.8-5.7
				C227.9,36.6,227.6,36.6,227.2,36.6z"/>
			<path class="st2" d="M242.7,47.4c-0.1,0-0.1,0-0.2-0.1c-0.1-0.1-0.1-0.1-0.1-0.2c0,0,0-0.1,0-0.1c0,0,0-0.1,0.1-0.1L254,35.4
				c0.1-0.1,0.3-0.1,0.4,0c0.1,0,0.1,0.1,0.1,0.2c0,0.1,0,0.1-0.1,0.2l-11.5,11.5C242.8,47.4,242.8,47.4,242.7,47.4z"/>
			<path class="st2" d="M99.7,68.7c-0.1,0-0.1,0-0.2-0.1c-0.1-0.1-0.1-0.1-0.1-0.2c0-0.1,0-0.1,0.1-0.2l11.5-11.5
				c0.1-0.1,0.1-0.1,0.2-0.1c0.1,0,0.1,0,0.2,0.1c0.1,0.1,0.1,0.1,0.1,0.2c0,0.1,0,0.2-0.1,0.2L99.9,68.6l-0.1,0.1L99.7,68.7z"/>
			<path class="st2" d="M125.1,68.1c-2.2,0-4.2-1.3-5-3.3c-1.1-2.8,0.2-5.9,2.9-7c0.3-0.1,0.7-0.2,1-0.3c2.1-0.4,4.3,0.5,5.5,2.3
				c1.4,2.1,1.2,5-0.7,6.8C127.8,67.5,126.5,68.1,125.1,68.1z M125.1,57.9c-1,0-1.9,0.3-2.7,0.8c-0.8,0.5-1.4,1.3-1.8,2.2
				c-0.4,0.9-0.5,1.8-0.3,2.8c0.2,0.9,0.7,1.8,1.3,2.5c1.4,1.4,3.5,1.8,5.2,1c0.9-0.4,1.6-1,2.2-1.8c1.5-2.2,0.9-5.2-1.3-6.7
				C126.9,58.1,126,57.8,125.1,57.9L125.1,57.9z"/>
			<path class="st2" d="M140.5,68.7c-0.1,0-0.3-0.1-0.3-0.2c0,0,0,0,0,0c0-0.1,0-0.1,0.1-0.2l11.5-11.5c0.1-0.1,0.1-0.1,0.2-0.1
				c0.1,0,0.1,0,0.2,0.1c0.1,0.1,0.1,0.1,0.1,0.2c0,0.1,0,0.1-0.1,0.2l-11.5,11.5C140.6,68.7,140.6,68.7,140.5,68.7z"/>
			<path class="st2" d="M165.9,68.1c-2.2,0-4.2-1.3-5-3.3c-1.1-2.8,0.2-5.9,2.9-7c0.3-0.1,0.7-0.2,1-0.3c1-0.2,2.1-0.1,3.1,0.3
				c1,0.4,1.8,1.1,2.4,2c1.7,2.5,1,5.8-1.5,7.5C168,67.8,166.9,68.1,165.9,68.1L165.9,68.1z M165.9,57.9c-2.7,0-4.8,2.2-4.8,4.8
				c0,0.3,0,0.6,0.1,0.9c0.2,0.9,0.7,1.8,1.3,2.5c1.4,1.4,3.5,1.8,5.2,1c0.9-0.4,1.6-1,2.2-1.8c1.5-2.2,0.9-5.2-1.3-6.7
				C167.8,58.1,166.8,57.8,165.9,57.9L165.9,57.9z"/>
			<path class="st2" d="M181.3,68.7c-0.1,0-0.1,0-0.2-0.1c-0.1-0.1-0.1-0.1-0.1-0.2c0-0.1,0-0.1,0.1-0.2l11.5-11.5
				c0.1-0.1,0.1-0.1,0.2-0.1c0.1,0,0.1,0,0.2,0.1c0.1,0.1,0.1,0.1,0.1,0.2c0,0.1,0,0.1-0.1,0.2l-11.5,11.5
				C181.5,68.7,181.4,68.7,181.3,68.7z"/>
			<path class="st2" d="M206.7,68.1c-1.1,0-2.1-0.3-3-0.9c-1.8-1.2-2.7-3.4-2.3-5.5c0.6-2.9,3.4-4.8,6.3-4.2s4.8,3.4,4.2,6.3
				C211.5,66.3,209.3,68.1,206.7,68.1z M206.7,57.9c-2,0-3.7,1.2-4.4,3c-0.7,1.8-0.3,3.9,1.1,5.2c1.9,1.9,4.9,1.9,6.8,0
				c0.2-0.2,0.4-0.5,0.6-0.7c1.5-2.2,0.9-5.2-1.3-6.7C208.6,58.2,207.7,57.9,206.7,57.9L206.7,57.9z"/>
			<path class="st2" d="M222.1,68.7c-0.1,0-0.1,0-0.2-0.1c-0.1-0.1-0.1-0.1-0.1-0.2c0-0.1,0-0.1,0.1-0.2l11.5-11.5
				c0,0,0.1,0,0.1-0.1c0,0,0.1,0,0.1,0h0.1c0,0,0.1,0,0.1,0.1c0,0,0.1,0.1,0.1,0.1c0,0,0,0.1,0,0.1c0,0,0,0.1,0,0.1
				c0,0,0,0.1-0.1,0.1l-11.5,11.5l-0.1,0.1L222.1,68.7z"/>
			<path class="st2" d="M247.5,68.1c-2.2,0-4.2-1.3-5-3.3c-0.4-1-0.5-2.1-0.3-3.1c0.4-2.1,2.1-3.8,4.2-4.2c1-0.2,2.1-0.1,3.1,0.3
				c1,0.4,1.8,1.1,2.4,2c1.7,2.5,1,5.8-1.5,7.5C249.6,67.8,248.6,68.1,247.5,68.1L247.5,68.1z M247.5,57.9c-2.7,0-4.8,2.2-4.8,4.8
				c0,0.3,0,0.6,0.1,0.9c0.4,1.9,1.9,3.4,3.8,3.8c2.6,0.5,5.1-1.2,5.7-3.8c0.5-2.6-1.2-5.1-3.8-5.7
				C248.2,57.9,247.8,57.9,247.5,57.9z"/>
			<path class="st2" d="M85.1,68.1c-2.2,0-4.2-1.3-5-3.3c-0.8-2-0.4-4.3,1.2-5.9c0.8-0.7,1.7-1.3,2.7-1.5c2.9-0.6,5.8,1.3,6.3,4.3
				c0.6,2.9-1.3,5.8-4.3,6.3C85.7,68,85.4,68.1,85.1,68.1z M85.1,57.9c-1,0-1.9,0.3-2.7,0.8c-1.6,1.1-2.4,3-2,5
				c0.2,0.9,0.6,1.8,1.3,2.5c1.4,1.4,3.5,1.8,5.2,1c0.9-0.4,1.6-1,2.2-1.8c1.5-2.2,0.9-5.2-1.3-6.7C87,58.1,86.1,57.8,85.1,57.9
				L85.1,57.9z"/>
			<path class="st2" d="M79.4,88.9C79.3,88.9,79.3,88.9,79.4,88.9c-0.1,0-0.2,0-0.2-0.1l-0.1-0.1c0,0,0-0.1,0-0.1c0,0,0-0.1,0-0.1
				l0.1-0.1l11.5-11.5c0.1-0.1,0.1-0.1,0.2-0.1c0.1,0,0.2,0,0.2,0.1c0,0,0.1,0.1,0.1,0.1c0,0,0,0.1,0,0.1c0,0,0,0.1,0,0.1L91,77.3
				L79.6,88.8c0,0-0.1,0-0.1,0.1C79.4,88.9,79.4,88.9,79.4,88.9z"/>
			<path class="st2" d="M104.8,88.2c-1.1,0-2.1-0.3-3-0.9c-2.5-1.7-3.1-5-1.4-7.5c1.4-2.1,4.1-2.9,6.5-2c2,0.8,3.3,2.8,3.3,5
				C110.1,85.8,107.7,88.3,104.8,88.2L104.8,88.2z M104.8,78c-1,0-1.9,0.3-2.7,0.8c-0.8,0.5-1.4,1.3-1.8,2.2
				c-0.4,0.9-0.5,1.8-0.3,2.8c0.2,0.9,0.6,1.8,1.3,2.5c0.7,0.7,1.5,1.1,2.5,1.3c2.6,0.5,5.2-1.1,5.7-3.7c0.5-2.6-1.1-5.2-3.7-5.7
				C105.4,78.1,105.1,78,104.8,78L104.8,78z"/>
			<path class="st2" d="M120.2,88.9c0,0-0.1,0-0.1,0c0,0-0.1,0-0.1-0.1l-0.1-0.1c0,0,0-0.1,0-0.1c0,0,0-0.1,0-0.1l0.1-0.1l11.5-11.5
				c0.1-0.1,0.1-0.1,0.2-0.1c0.1,0,0.2,0,0.2,0.1l0.1,0.1c0,0,0,0.1,0,0.1c0,0,0,0.1,0,0.1l-0.1,0.1l-11.5,11.4c0,0-0.1,0-0.1,0.1
				C120.3,88.9,120.2,88.9,120.2,88.9z"/>
			<path class="st2" d="M145.6,88.2c-1.1,0-2.1-0.3-3-0.9c-2.5-1.7-3.1-5-1.5-7.5s5-3.1,7.5-1.5s3.1,5,1.5,7.5
				c-0.2,0.3-0.4,0.6-0.7,0.8C148.4,87.7,147,88.2,145.6,88.2z M145.6,78c-2,0-3.7,1.2-4.4,3c-0.8,1.8-0.4,3.9,1,5.2
				c1.9,1.9,4.9,1.9,6.8,0c0.2-0.2,0.4-0.5,0.6-0.8c1.5-2.2,0.9-5.2-1.3-6.7C147.4,78.3,146.5,78.1,145.6,78L145.6,78z"/>
			<path class="st2" d="M161,88.9c0,0-0.1,0-0.1,0c0,0-0.1,0-0.1-0.1l-0.1-0.1c0,0,0-0.1,0-0.1c0,0,0-0.1,0-0.1c0,0,0-0.1,0.1-0.1
				l11.5-11.5c0.1-0.1,0.1-0.1,0.2-0.1c0.1,0,0.2,0,0.2,0.1c0,0,0,0.1,0.1,0.1c0,0,0,0.1,0,0.1c0,0,0,0.1,0,0.1l-0.1,0.1l-11.4,11.4
				C161.2,88.8,161.1,88.9,161,88.9L161,88.9z"/>
			<path class="st2" d="M186.4,88.2c-1.1,0-2.1-0.3-3-0.9c-2.5-1.7-3.1-5-1.5-7.5c0.8-1.2,2.1-2,3.5-2.3c2.1-0.4,4.3,0.5,5.5,2.3
				c1.6,2.5,1,5.8-1.5,7.5C188.5,87.9,187.5,88.2,186.4,88.2L186.4,88.2z M186.4,78c-2.7,0-4.8,2.2-4.8,4.8c0,0.3,0,0.6,0.1,0.9
				c0.2,0.9,0.6,1.8,1.3,2.5c1.4,1.4,3.5,1.8,5.2,1c0.9-0.4,1.6-1,2.2-1.8c1.5-2.2,0.9-5.2-1.3-6.7C188.3,78.3,187.4,78,186.4,78
				L186.4,78z"/>
			<path class="st2" d="M201.9,88.9c0,0-0.1,0-0.1,0c0,0-0.1,0-0.1-0.1l-0.1-0.1c0,0,0-0.1,0-0.1c0,0,0-0.1,0-0.1c0,0,0-0.1,0.1-0.1
				l11.5-11.5c0.1-0.1,0.1-0.1,0.2-0.1c0.1,0,0.1,0,0.2,0.1c0,0,0,0.1,0.1,0.1c0,0,0,0.1,0,0.1c0,0,0,0.1,0,0.1l-0.1,0.1l-11.5,11.4
				C202,88.8,201.9,88.9,201.9,88.9z"/>
			<path class="st2" d="M227.2,88.2c-1.1,0-2.1-0.3-3-0.9c-2.5-1.6-3.1-5-1.5-7.5c0.8-1.2,2-2,3.4-2.3c2.1-0.4,4.3,0.5,5.5,2.3
				c1.4,2.1,1.1,5-0.7,6.8C230,87.7,228.7,88.2,227.2,88.2z M227.2,78c-2.7,0-4.8,2.1-4.8,4.8c0,2.7,2.1,4.8,4.8,4.8
				c0.6,0,1.3-0.1,1.9-0.4c0.9-0.4,1.6-1,2.2-1.8c1.5-2.2,0.9-5.2-1.3-6.7C229.1,78.3,228.2,78,227.2,78z"/>
			<path class="st2" d="M242.7,88.9c-0.1,0-0.2-0.1-0.3-0.2c0,0,0-0.1,0-0.1c0,0,0-0.1,0-0.1c0,0,0-0.1,0.1-0.1L254,76.9
				c0.1-0.1,0.1-0.1,0.2-0.1c0.1,0,0.2,0,0.2,0.1c0,0,0,0.1,0.1,0.1c0,0,0,0.1,0,0.1c0,0,0,0.1,0,0.1c0,0,0,0.1-0.1,0.1l-11.5,11.5
				C242.8,88.8,242.8,88.9,242.7,88.9z"/>
			<path class="st2" d="M99.7,110.2c-0.1,0-0.3-0.1-0.3-0.3c0,0,0,0,0,0c0-0.1,0-0.1,0.1-0.2l11.5-11.5c0.1-0.1,0.1-0.1,0.2-0.1
				c0.1,0,0.1,0,0.2,0.1c0.1,0.1,0.1,0.1,0.1,0.2c0,0.1,0,0.1-0.1,0.2l-11.5,11.5c0,0-0.1,0-0.1,0.1L99.7,110.2z"/>
			<path class="st2" d="M125.1,109.5c-2.2,0-4.2-1.3-5-3.3c-1.1-2.7,0.2-5.9,2.9-7c2.7-1.1,5.9,0.2,7,2.9c1.1,2.7-0.2,5.9-2.9,7
				C126.4,109.4,125.7,109.5,125.1,109.5z M125.1,99.3c-1,0-1.9,0.3-2.7,0.8c-0.8,0.5-1.4,1.3-1.8,2.2c-1,2.5,0.2,5.3,2.6,6.3
				c2.5,1,5.3-0.2,6.3-2.6c1-2.5-0.2-5.3-2.6-6.3C126.3,99.4,125.7,99.3,125.1,99.3L125.1,99.3z"/>
			<path class="st2" d="M140.5,110.2c-0.1,0-0.2,0-0.2-0.1c0-0.1-0.1-0.1-0.1-0.2c0-0.1,0-0.1,0.1-0.2l11.5-11.5
				c0.1-0.1,0.1-0.1,0.2-0.1c0.1,0,0.1,0,0.2,0.1c0.1,0.1,0.1,0.1,0.1,0.2c0,0.1,0,0.1-0.1,0.2l-11.5,11.5
				C140.6,110.1,140.6,110.2,140.5,110.2z"/>
			<path class="st2" d="M165.9,109.5c-2.2,0-4.2-1.3-5-3.3c-1.1-2.8,0.3-5.9,3-7c1.3-0.5,2.7-0.5,4,0c1,0.4,1.8,1.1,2.4,2
				c1.6,2.5,1,5.8-1.5,7.5C167.9,109.3,166.9,109.6,165.9,109.5L165.9,109.5z M165.9,99.3c-2.7,0-4.8,2.1-4.9,4.8s2.1,4.8,4.8,4.9
				s4.8-2.1,4.9-4.8c0-1.3-0.5-2.5-1.4-3.4C168.4,99.8,167.2,99.3,165.9,99.3z"/>
			<path class="st2" d="M181.3,110.2c-0.1,0-0.3-0.1-0.3-0.3c0,0,0,0,0,0c0-0.1,0-0.1,0.1-0.2l11.5-11.5c0.1-0.1,0.1-0.1,0.2-0.1
				c0.1,0,0.1,0,0.2,0.1c0.1,0.1,0.1,0.1,0.1,0.2c0,0.1,0,0.1-0.1,0.2l-11.5,11.5C181.5,110.1,181.4,110.2,181.3,110.2z"/>
			<path class="st2" d="M206.7,109.5c-3,0-5.4-2.4-5.4-5.4c0-3,2.4-5.4,5.4-5.4c0.7,0,1.4,0.1,2.1,0.4c2.8,1.1,4.1,4.3,2.9,7
				C210.9,108.2,208.9,109.5,206.7,109.5z M206.7,99.3c-1,0-1.9,0.3-2.7,0.8c-1.6,1.1-2.4,3.1-2,5c0.2,0.9,0.6,1.8,1.3,2.5
				c1.4,1.4,3.5,1.8,5.2,1c0.9-0.4,1.6-1,2.2-1.8c1.5-2.2,0.9-5.2-1.4-6.7C208.6,99.6,207.7,99.3,206.7,99.3L206.7,99.3z"/>
			<path class="st2" d="M222.1,110.2c-0.1,0-0.1,0-0.2-0.1c-0.1-0.1-0.1-0.1-0.1-0.2c0-0.1,0-0.2,0.1-0.2l11.5-11.5
				c0.1-0.1,0.1-0.1,0.2-0.1c0.1,0,0.3,0.1,0.3,0.3c0,0,0,0,0,0c0,0.1,0,0.1-0.1,0.2l-11.5,11.5c0,0-0.1,0-0.1,0.1
				C222.2,110.2,222.2,110.2,222.1,110.2z"/>
			<path class="st2" d="M247.5,109.5c-2.2,0-4.2-1.3-5-3.3c-0.4-1-0.5-2.1-0.3-3.1c0.6-2.9,3.5-4.8,6.4-4.2c0.3,0.1,0.7,0.2,1,0.3
				c1,0.4,1.8,1.1,2.4,2c1.7,2.5,1,5.8-1.5,7.5C249.6,109.2,248.6,109.5,247.5,109.5L247.5,109.5z M247.5,99.3
				c-2.7,0-4.8,2.2-4.8,4.8c0,1.3,0.5,2.5,1.4,3.4c0.7,0.7,1.5,1.1,2.5,1.3c1.9,0.4,3.9-0.4,4.9-2.1c1.3-1.9,1-4.5-0.6-6.1
				C250,99.8,248.8,99.3,247.5,99.3z"/>
			<path class="st2" d="M85.1,109.5c-3,0-5.4-2.4-5.4-5.4c0-2.6,1.8-4.8,4.3-5.3c2.9-0.6,5.8,1.3,6.3,4.2c0.1,0.3,0.1,0.7,0.1,1
				C90.4,107.1,88,109.5,85.1,109.5L85.1,109.5z M85.1,99.3c-2,0-3.7,1.2-4.5,3c-0.4,0.9-0.5,1.8-0.3,2.8c0.2,0.9,0.6,1.8,1.3,2.5
				c1.4,1.4,3.5,1.8,5.2,1c2.5-1,3.6-3.8,2.6-6.3C88.8,100.5,87,99.3,85.1,99.3L85.1,99.3z"/>
			<path class="st2" d="M79.4,130.3L79.4,130.3l-0.2-0.1l-0.1-0.1c0,0,0-0.1,0-0.1c0,0,0-0.1,0-0.1l0.1-0.1l11.5-11.5
				c0.1-0.1,0.1-0.1,0.2-0.1c0.1,0,0.1,0,0.2,0.1l0.1,0.1c0,0,0,0.1,0,0.1c0,0,0,0.1,0,0.1c0,0,0,0.1-0.1,0.1l-11.5,11.5l-0.1,0.1
				L79.4,130.3z"/>
			<path class="st2" d="M104.8,129.7c-1.1,0-2.1-0.3-3-0.9c-0.9-0.6-1.6-1.4-2-2.4c-1.1-2.7,0.2-5.9,2.9-7s5.9,0.2,7,2.9
				s-0.2,5.9-2.9,7C106.1,129.5,105.5,129.7,104.8,129.7L104.8,129.7z M104.8,119.5c-1,0-1.9,0.3-2.7,0.8c-1.6,1.1-2.4,3.1-2,5
				c0.4,1.9,1.9,3.4,3.8,3.8c2.6,0.5,5.2-1.1,5.7-3.7c0.5-2.6-1.1-5.2-3.7-5.7C105.5,119.6,105.2,119.5,104.8,119.5L104.8,119.5z"/>
			<path class="st2" d="M120.2,130.3h-0.1l-0.1-0.1l-0.1-0.1c0,0,0-0.1,0-0.1c0,0,0-0.1,0-0.1l0.1-0.1l11.5-11.5
				c0.1,0,0.1-0.1,0.2-0.1c0.1,0,0.2,0,0.2,0.1l0.1,0.1c0,0,0,0.1,0,0.1c0,0,0,0.1,0,0.1l-0.1,0.1l-11.5,11.5l-0.1,0.1L120.2,130.3z
				"/>
			<path class="st2" d="M145.6,129.7c-1.1,0-2.1-0.3-3-0.9c-1.8-1.2-2.7-3.4-2.3-5.5c0.6-2.9,3.4-4.8,6.3-4.2c0.3,0.1,0.7,0.2,1,0.3
				c2,0.8,3.3,2.8,3.3,5C151,127.3,148.6,129.7,145.6,129.7L145.6,129.7z M145.6,119.5c-2.7,0-4.8,2.1-4.8,4.8
				c0,1.3,0.5,2.5,1.4,3.4c0.7,0.7,1.5,1.1,2.5,1.3c2.6,0.5,5.2-1.1,5.7-3.7c0.5-2.6-1.1-5.2-3.7-5.7
				C146.3,119.5,145.9,119.5,145.6,119.5z"/>
			<path class="st2" d="M161,130.3h-0.1c-0.1,0-0.1-0.1-0.2-0.2c0,0,0-0.1,0-0.1c0,0,0-0.1,0-0.1l0.1-0.1l11.5-11.5
				c0.1,0,0.1-0.1,0.2-0.1c0.1,0,0.2,0,0.2,0.1l0.1,0.1c0,0,0,0.1,0,0.1c0,0,0,0.1,0,0.1c0,0,0,0.1-0.1,0.1l-11.5,11.5l-0.1,0.1H161
				z"/>
			<path class="st2" d="M186.4,129.7c-1.1,0-2.1-0.3-3-0.9c-0.9-0.6-1.6-1.4-2-2.4c-1.1-2.8,0.3-5.9,3-7c1.3-0.5,2.7-0.5,4,0
				c1,0.4,1.8,1.1,2.4,2c1.6,2.5,1,5.8-1.5,7.5C188.4,129.4,187.4,129.7,186.4,129.7L186.4,129.7z M186.4,119.5
				c-2.7,0-4.8,2.2-4.8,4.8c0,0.3,0,0.6,0.1,0.9c0.2,0.9,0.6,1.8,1.3,2.5c0.7,0.7,1.5,1.1,2.5,1.3c2.6,0.5,5.2-1.1,5.7-3.7
				c0.5-2.6-1.1-5.2-3.7-5.7C187.1,119.5,186.8,119.5,186.4,119.5L186.4,119.5z"/>
			<path class="st2" d="M201.9,130.3h-0.1c-0.1,0-0.1-0.1-0.2-0.2c0,0,0-0.1,0-0.1c0,0,0-0.1,0-0.1l0.1-0.1l11.5-11.5
				c0.1-0.1,0.1-0.1,0.2-0.1c0.1,0,0.1,0,0.2,0.1l0.1,0.1c0,0,0,0.1,0,0.1c0,0,0,0.1,0,0.1c0,0,0,0.1-0.1,0.1l-11.5,11.5l-0.1,0.1
				H201.9z"/>
			<path class="st2" d="M227.2,129.7c-1.1,0-2.1-0.3-3-0.9c-1.8-1.2-2.7-3.4-2.3-5.5c0.6-2.9,3.4-4.8,6.3-4.2c0.3,0.1,0.7,0.2,1,0.3
				c2,0.8,3.3,2.8,3.3,5C232.6,127.3,230.2,129.7,227.2,129.7L227.2,129.7z M227.2,119.5c-2.7,0-4.8,2.1-4.8,4.8
				c0,1.3,0.5,2.5,1.4,3.4c0.7,0.7,1.5,1.1,2.5,1.3c2.6,0.5,5.2-1.1,5.7-3.7c0.5-2.6-1.1-5.2-3.7-5.7
				C227.9,119.5,227.6,119.5,227.2,119.5z"/>
			<path class="st2" d="M242.7,130.3h-0.1l-0.1-0.1c0,0-0.1-0.1-0.1-0.1c0,0,0-0.1,0-0.1c0,0,0-0.1,0-0.1c0,0,0-0.1,0.1-0.1
				l11.5-11.5c0.1-0.1,0.1-0.1,0.2-0.1c0.1,0,0.1,0,0.2,0.1c0,0,0,0.1,0.1,0.1c0,0,0,0.1,0,0.1c0,0,0,0.1,0,0.1c0,0,0,0.1-0.1,0.1
				l-11.5,11.5C242.9,130.3,242.8,130.3,242.7,130.3z"/>
		</g>
		<g>
			<path class="st2" d="M79.4,130.2c-0.1,0-0.1,0-0.2-0.1l-0.1-0.1c0,0,0-0.1,0-0.1c0,0,0-0.1,0-0.1l0.1-0.1l11.5-11.5
				c0.1,0,0.1-0.1,0.2-0.1c0.1,0,0.1,0,0.2,0.1c0.1,0.1,0.1,0.1,0.1,0.2c0,0.1,0,0.1-0.1,0.2l-11.5,11.5
				C79.5,130.2,79.4,130.2,79.4,130.2z"/>
			<path class="st2" d="M104.8,129.6c-2.2,0-4.2-1.3-5-3.3c-0.4-1-0.5-2.1-0.3-3.1c0.2-1,0.7-2,1.5-2.8c2.1-2.1,5.5-2.1,7.6,0
				c0.3,0.3,0.5,0.5,0.7,0.8c0.6,0.9,0.9,1.9,0.9,3C110.1,127.2,107.7,129.6,104.8,129.6L104.8,129.6z M104.8,119.3
				c-1,0-1.9,0.3-2.7,0.8c-0.8,0.5-1.4,1.3-1.8,2.2c-0.8,1.8-0.4,3.9,1,5.2c1.4,1.4,3.5,1.8,5.2,1c2.5-1,3.6-3.8,2.6-6.3
				C108.4,120.5,106.7,119.3,104.8,119.3L104.8,119.3z"/>
			<path class="st2" d="M120.2,130.2c-0.1,0-0.2,0-0.2-0.1l-0.1-0.1c0,0,0-0.1,0-0.1c0,0,0-0.1,0-0.1l0.1-0.1l11.5-11.5l0.1-0.1h0.1
				h0.1l0.1,0.1c0,0,0,0.1,0.1,0.1c0,0,0,0.1,0,0.1c0,0,0,0.1,0,0.1c0,0,0,0.1-0.1,0.1l-11.5,11.5
				C120.3,130.2,120.3,130.2,120.2,130.2z"/>
			<path class="st2" d="M145.6,129.6c-3,0-5.4-2.4-5.4-5.4c0-1.4,0.6-2.8,1.6-3.8c1.5-1.5,3.9-2,5.9-1.2c1,0.4,1.8,1.1,2.4,2
				c1.7,2.5,1,5.8-1.5,7.5C147.7,129.3,146.7,129.6,145.6,129.6L145.6,129.6z M145.6,119.3c-2.7,0-4.8,2.1-4.9,4.8s2.1,4.8,4.8,4.9
				c2.7,0,4.8-2.1,4.9-4.8c0-1.3-0.5-2.5-1.4-3.4C148.1,119.9,146.9,119.4,145.6,119.3z"/>
			<path class="st2" d="M161,130.2c-0.1,0-0.2,0-0.2-0.1c0,0-0.1-0.1-0.1-0.1c0,0,0-0.1,0-0.1c0,0,0-0.1,0-0.1l0.1-0.1l11.5-11.5
				c0.1,0,0.1-0.1,0.2-0.1c0.1,0,0.2,0,0.2,0.1c0.1,0.1,0.1,0.3,0,0.4l-11.5,11.5C161.1,130.2,161.1,130.2,161,130.2z"/>
			<path class="st2" d="M186.4,129.6c-2.2,0-4.2-1.3-5-3.3c-1.1-2.7,0.2-5.9,2.9-7c0.3-0.1,0.7-0.2,1-0.3c2.9-0.6,5.7,1.3,6.3,4.2
				c0.4,1.8-0.2,3.6-1.5,4.9C189.2,129,187.8,129.6,186.4,129.6z M186.4,119.3c-1,0-1.9,0.3-2.7,0.8c-0.8,0.5-1.4,1.3-1.8,2.2
				c-1,2.5,0.2,5.3,2.6,6.3c2.5,1,5.3-0.2,6.3-2.6c1-2.5-0.2-5.3-2.6-6.3C187.7,119.4,187,119.3,186.4,119.3L186.4,119.3z"/>
			<path class="st2" d="M201.9,130.2c-0.1,0-0.2,0-0.2-0.1c0,0-0.1-0.1-0.1-0.1c0,0,0-0.1,0-0.1c0,0,0-0.1,0-0.1l0.1-0.1l11.5-11.5
				l0.1-0.1h0.1h0.1l0.1,0.1c0.1,0.1,0.1,0.1,0.1,0.2c0,0,0,0.1,0,0.1c0,0,0,0.1-0.1,0.1l-11.5,11.5
				C202,130.2,201.9,130.2,201.9,130.2z"/>
			<path class="st2" d="M227.2,129.6c-3,0-5.4-2.4-5.4-5.4c0-1.4,0.6-2.8,1.6-3.8c1.5-1.5,3.9-2,5.9-1.2c1,0.4,1.8,1.1,2.4,2
				c1.7,2.5,1,5.8-1.5,7.5C229.4,129.3,228.3,129.6,227.2,129.6L227.2,129.6z M227.2,119.3c-2.7,0-4.8,2.1-4.9,4.8s2.1,4.8,4.8,4.9
				c2.7,0,4.8-2.1,4.9-4.8c0-1.3-0.5-2.5-1.4-3.4C229.7,119.9,228.5,119.4,227.2,119.3z"/>
			<path class="st2" d="M242.7,130.2c-0.1,0-0.1,0-0.2-0.1c0,0,0-0.1-0.1-0.1c0,0,0-0.1,0-0.1c0,0,0-0.1,0-0.1c0,0,0-0.1,0.1-0.1
				l11.5-11.5c0.1-0.1,0.1-0.1,0.2-0.1c0.1,0,0.2,0,0.2,0.1c0.1,0.1,0.1,0.1,0.1,0.2c0,0.1,0,0.1-0.1,0.2l-11.5,11.5
				C242.9,130.2,242.8,130.2,242.7,130.2z"/>
			<path class="st2" d="M99.7,151.5c-0.1,0-0.1,0-0.2-0.1c-0.1-0.1-0.1-0.1-0.1-0.2c0-0.1,0-0.1,0.1-0.2l11.5-11.5
				c0.1-0.1,0.1-0.1,0.2-0.1c0.2,0,0.3,0.1,0.3,0.3c0,0.1,0,0.1-0.1,0.2l-11.5,11.5C99.8,151.5,99.7,151.5,99.7,151.5z"/>
			<path class="st2" d="M125.1,150.9c-2.2,0-4.2-1.3-5-3.3c-0.4-1-0.5-2.1-0.3-3.1c0.6-2.9,3.4-4.8,6.3-4.2c1.4,0.3,2.6,1.1,3.4,2.3
				c1.7,2.5,1,5.8-1.5,7.5C127.1,150.5,126.1,150.9,125.1,150.9L125.1,150.9z M125.1,140.7c-1,0-1.9,0.3-2.7,0.8
				c-0.8,0.5-1.4,1.3-1.8,2.2c-1,2.5,0.2,5.3,2.6,6.3c0.3,0.1,0.6,0.2,0.9,0.3c0.9,0.2,1.9,0.1,2.8-0.3c2.5-1,3.6-3.8,2.6-6.3
				C128.8,141.8,127,140.7,125.1,140.7L125.1,140.7z"/>
			<path class="st2" d="M140.5,151.5c-0.1,0-0.2,0-0.2-0.1c-0.1-0.1-0.1-0.1-0.1-0.2c0-0.1,0-0.1,0.1-0.2l11.5-11.5
				c0.1,0,0.1-0.1,0.2-0.1c0.1,0,0.1,0,0.2,0.1c0,0.1,0.1,0.1,0.1,0.2c0,0.1,0,0.1-0.1,0.2l-11.5,11.5
				C140.6,151.5,140.6,151.5,140.5,151.5z"/>
			<path class="st2" d="M165.9,150.9c-2.2,0-4.2-1.3-5-3.3c-0.4-1-0.5-2.1-0.3-3.1c0.6-2.9,3.4-4.8,6.3-4.2c2.9,0.6,4.8,3.4,4.2,6.3
				C170.6,149,168.4,150.9,165.9,150.9L165.9,150.9z M165.9,140.7c-2.7,0-4.8,2.2-4.8,4.8c0,0.3,0,0.6,0.1,0.9
				c0.2,0.9,0.6,1.8,1.3,2.5c1.9,1.9,4.9,1.9,6.8,0c1.9-1.9,1.9-4.9,0-6.8C168.4,141.2,167.2,140.7,165.9,140.7L165.9,140.7z"/>
			<path class="st2" d="M181.3,151.5c-0.1,0-0.1,0-0.2-0.1c-0.1-0.1-0.1-0.1-0.1-0.2c0-0.1,0-0.1,0.1-0.2l11.5-11.5
				c0.1,0,0.1-0.1,0.2-0.1c0.1,0,0.1,0,0.2,0.1c0,0.1,0.1,0.1,0.1,0.2c0,0.1,0,0.1-0.1,0.2l-11.5,11.5
				C181.5,151.5,181.4,151.5,181.3,151.5z"/>
			<path class="st2" d="M206.7,150.9c-3,0-5.4-2.4-5.4-5.4c0-3,2.4-5.4,5.4-5.4c0.7,0,1.4,0.1,2.1,0.4c1,0.4,1.8,1.1,2.4,2
				c1.7,2.5,1,5.8-1.5,7.5C208.8,150.6,207.8,150.9,206.7,150.9L206.7,150.9z M206.7,140.7c-2.7,0-4.8,2.1-4.8,4.8
				c0,0.3,0,0.6,0.1,1c0.2,0.9,0.6,1.8,1.3,2.5c1.9,1.9,4.9,1.9,6.8,0s1.9-4.9,0-6.8C209.2,141.2,208,140.7,206.7,140.7z"/>
			<path class="st2" d="M222.1,151.5c-0.1,0-0.1,0-0.2-0.1c-0.1-0.1-0.1-0.1-0.1-0.2c0-0.1,0-0.2,0.1-0.2l11.5-11.5l0.1-0.1h0.1
				c0,0,0.1,0,0.1,0c0,0,0.1,0,0.1,0.1l0.1,0.1c0,0,0,0.1,0,0.1c0,0,0,0.1,0,0.1c0,0,0,0.1-0.1,0.1l-11.5,11.5l-0.1,0.1
				C222.2,151.5,222.2,151.5,222.1,151.5z"/>
			<path class="st2" d="M247.5,150.9c-3,0-5.4-2.5-5.3-5.5c0-2.5,1.8-4.7,4.3-5.2c2.9-0.6,5.8,1.3,6.4,4.2c0.6,2.9-1.3,5.8-4.2,6.4
				C248.3,150.8,247.9,150.9,247.5,150.9z M247.5,140.7c-2.7,0-4.8,2.2-4.8,4.9c0,2.3,1.6,4.2,3.8,4.7c0.9,0.2,1.9,0.1,2.8-0.3
				c0.9-0.4,1.6-1,2.2-1.8c0.5-0.8,0.8-1.7,0.8-2.7C252.3,142.8,250.2,140.7,247.5,140.7z"/>
			<path class="st2" d="M85.1,150.9c-1.1,0-2.1-0.3-3-0.9c-2.5-1.7-3.1-5-1.5-7.5c1.4-2.1,4.1-2.9,6.5-2c2.8,1.1,4.1,4.3,2.9,7
				C89.2,149.5,87.3,150.9,85.1,150.9L85.1,150.9z M85.1,140.7c-1,0-1.9,0.3-2.7,0.8c-0.8,0.5-1.4,1.3-1.8,2.2
				c-0.4,0.9-0.5,1.8-0.3,2.8c0.2,0.9,0.6,1.8,1.3,2.5c1.9,1.9,4.9,1.9,6.8,0c0.2-0.2,0.4-0.5,0.6-0.8c1.5-2.2,0.9-5.2-1.3-6.7
				C87,140.9,86,140.7,85.1,140.7z"/>
			<path class="st2" d="M79.4,171.7c-0.1,0-0.1,0-0.2-0.1c0,0,0-0.1-0.1-0.1c0,0,0-0.1,0-0.1c0,0,0-0.1,0-0.1l0.1-0.1l11.5-11.5
				c0.1-0.1,0.1-0.1,0.2-0.1c0.1,0,0.1,0,0.2,0.1c0.1,0.1,0.1,0.1,0.1,0.2c0,0.1,0,0.1-0.1,0.2l-11.5,11.5
				C79.5,171.6,79.4,171.7,79.4,171.7z"/>
			<path class="st2" d="M104.8,171c-2.2,0-4.2-1.3-5-3.3c-0.8-2-0.4-4.3,1.2-5.9c2.1-2.1,5.5-2.1,7.6,0c0.3,0.3,0.5,0.5,0.7,0.8
				c0.6,0.9,0.9,1.9,0.9,3C110.1,168.6,107.7,171,104.8,171L104.8,171z M104.8,160.8c-1,0-1.9,0.3-2.7,0.8c-1.6,1.1-2.4,3.1-2,5
				c0.4,1.9,1.9,3.4,3.8,3.8c2.6,0.5,5.2-1.1,5.7-3.7c0.5-2.6-1.1-5.2-3.7-5.7C105.5,160.9,105.2,160.8,104.8,160.8L104.8,160.8z"/>
			<path class="st2" d="M120.2,171.7c-0.1,0-0.2,0-0.2-0.1c0,0,0-0.1-0.1-0.1c0,0,0-0.1,0-0.1c0,0,0-0.1,0-0.1l0.1-0.1l11.5-11.5
				l0.1-0.1h0.1h0.1l0.1,0.1c0,0,0,0.1,0.1,0.1c0,0,0,0.1,0,0.1c0,0,0,0.1,0,0.1c0,0,0,0.1-0.1,0.1l-11.5,11.5
				C120.3,171.6,120.3,171.7,120.2,171.7z"/>
			<path class="st2" d="M145.6,171c-3,0-5.4-2.4-5.4-5.4c0-0.3,0-0.7,0.1-1c0.6-2.9,3.4-4.8,6.3-4.2c0.3,0.1,0.7,0.2,1,0.3
				c2.8,1.1,4.1,4.3,2.9,7C149.7,169.7,147.8,171,145.6,171z M145.6,160.8c-2.7,0-4.8,2.2-4.8,4.8c0,0.3,0,0.6,0.1,0.9
				c0.2,0.9,0.7,1.8,1.3,2.5c0.7,0.7,1.5,1.1,2.5,1.3c2.6,0.5,5.2-1.1,5.7-3.7c0.5-2.6-1.1-5.2-3.7-5.7
				C146.3,160.8,145.9,160.8,145.6,160.8L145.6,160.8z"/>
			<path class="st2" d="M161,171.7c-0.1,0-0.2,0-0.2-0.1c0,0-0.1-0.1-0.1-0.1c0,0,0-0.1,0-0.1c0,0,0-0.1,0-0.1l0.1-0.1l11.5-11.5
				c0.1-0.1,0.1-0.1,0.2-0.1c0.1,0,0.3,0.1,0.3,0.3c0,0,0,0,0,0c0,0.1,0,0.1-0.1,0.2l-11.5,11.5C161.1,171.6,161.1,171.7,161,171.7z
				"/>
			<path class="st2" d="M186.4,171c-2.2,0-4.2-1.3-5-3.3c-1.1-2.8,0.3-5.9,3-7c1.3-0.5,2.7-0.5,4,0c1,0.4,1.8,1.1,2.4,2
				c1.6,2.5,1,5.8-1.5,7.5C188.4,170.7,187.4,171,186.4,171L186.4,171z M186.4,160.8c-2.7,0-4.8,2.2-4.8,4.8c0,0.3,0,0.6,0.1,0.9
				c0.2,0.9,0.7,1.8,1.3,2.5c0.7,0.7,1.5,1.1,2.5,1.3c2.6,0.5,5.2-1.1,5.7-3.7c0.5-2.6-1.1-5.2-3.7-5.7
				C187.1,160.8,186.8,160.8,186.4,160.8L186.4,160.8z"/>
			<path class="st2" d="M201.9,171.7c-0.1,0-0.2,0-0.2-0.1c0,0-0.1-0.1-0.1-0.1c0,0,0-0.1,0-0.1c0,0,0-0.1,0-0.1l0.1-0.1l11.5-11.5
				c0,0,0.1,0,0.1-0.1c0,0,0.1,0,0.1,0h0.1l0.1,0.1c0,0,0.1,0.1,0.1,0.1c0,0,0,0.1,0,0.1c0,0.1,0,0.1-0.1,0.2L202,171.6
				C202,171.6,201.9,171.7,201.9,171.7z"/>
			<path class="st2" d="M227.2,171c-3,0-5.4-2.4-5.4-5.4c0-0.3,0-0.7,0.1-1c0.6-2.9,3.4-4.8,6.3-4.2c0.3,0.1,0.7,0.2,1,0.3
				c2.8,1.1,4.1,4.3,2.9,7C231.4,169.7,229.4,171,227.2,171z M227.2,160.8c-2.7,0-4.8,2.2-4.8,4.8c0,0.3,0,0.6,0.1,0.9
				c0.2,0.9,0.7,1.8,1.3,2.5c0.7,0.7,1.5,1.1,2.5,1.3c2.6,0.5,5.2-1.1,5.7-3.7c0.5-2.6-1.1-5.2-3.7-5.7
				C227.9,160.8,227.6,160.8,227.2,160.8L227.2,160.8z"/>
			<path class="st2" d="M242.7,171.7c-0.1,0-0.1,0-0.2-0.1c0,0-0.1-0.1-0.1-0.1c0,0,0-0.1,0-0.1c0-0.1,0-0.1,0.1-0.2l11.5-11.5
				c0.1-0.1,0.1-0.1,0.2-0.1c0.1,0,0.1,0,0.2,0.1c0.1,0,0.1,0.1,0.1,0.2c0,0.1,0,0.1-0.1,0.2l-11.5,11.5
				C242.9,171.6,242.8,171.7,242.7,171.7z"/>
			<path class="st2" d="M99.7,193c-0.1,0-0.1,0-0.2-0.1c-0.1-0.1-0.1-0.1-0.1-0.2c0-0.1,0-0.1,0.1-0.2l11.5-11.5
				c0.1-0.1,0.1-0.1,0.2-0.1c0.1,0,0.1,0,0.2,0.1c0.1,0,0.1,0.1,0.1,0.2c0,0.1,0,0.1-0.1,0.2l-11.5,11.5c0,0-0.1,0-0.1,0.1
				C99.7,193,99.7,193,99.7,193z"/>
			<path class="st2" d="M125.1,192.3c-1.1,0-2.1-0.3-3-0.9c-2.5-1.7-3.1-5-1.4-7.5c1.4-2.1,4.1-2.9,6.5-2c2.7,1.2,4,4.3,2.9,7.1
				C129.2,191,127.2,192.3,125.1,192.3z M125.1,182.1c-1,0-1.9,0.3-2.7,0.8c-2.2,1.5-2.8,4.5-1.3,6.7c0.2,0.3,0.4,0.5,0.6,0.7
				c0.7,0.7,1.5,1.1,2.5,1.3c0.9,0.2,1.9,0.1,2.8-0.3c0.9-0.4,1.6-1,2.2-1.8c1.5-2.2,0.9-5.2-1.3-6.7
				C126.9,182.4,126,182.1,125.1,182.1z"/>
			<path class="st2" d="M140.5,193c-0.1,0-0.2,0-0.2-0.1c-0.1-0.1-0.1-0.1-0.1-0.2c0-0.1,0-0.1,0.1-0.2l11.5-11.5
				c0.1,0,0.1-0.1,0.2-0.1c0.1,0,0.1,0,0.2,0.1c0.1,0.1,0.1,0.1,0.1,0.2c0,0.1,0,0.1-0.1,0.2l-11.5,11.5
				C140.6,192.9,140.6,193,140.5,193z"/>
			<path class="st2" d="M165.9,192.3c-1.1,0-2.1-0.3-3-0.9c-2.5-1.7-3.1-5-1.5-7.5c0.8-1.2,2.1-2,3.5-2.3c1-0.2,2.1-0.1,3.1,0.3
				c2,0.8,3.3,2.8,3.3,5C171.3,189.9,168.9,192.3,165.9,192.3L165.9,192.3z M165.9,182.1c-2.7,0-4.8,2.2-4.8,4.8
				c0,0.3,0,0.6,0.1,0.9c0.2,0.9,0.6,1.8,1.3,2.5c0.7,0.7,1.5,1.1,2.5,1.3c0.9,0.2,1.9,0.1,2.8-0.3c0.9-0.4,1.6-1,2.2-1.8
				c1.5-2.2,0.9-5.2-1.3-6.7C167.7,182.4,166.8,182.1,165.9,182.1L165.9,182.1z"/>
			<path class="st2" d="M181.3,193c-0.1,0-0.1,0-0.2-0.1c-0.1-0.1-0.1-0.1-0.1-0.2c0-0.1,0-0.1,0.1-0.2l11.5-11.5
				c0.1-0.1,0.1-0.1,0.2-0.1c0.1,0,0.1,0,0.2,0.1c0.1,0.1,0.1,0.1,0.1,0.2c0,0.1,0,0.1-0.1,0.2l-11.5,11.5
				C181.5,192.9,181.4,193,181.3,193z"/>
			<path class="st2" d="M206.7,192.3c-2.2,0-4.2-1.3-5-3.3c-0.4-1-0.5-2.1-0.3-3.1c0.4-2.1,2.1-3.8,4.2-4.2c1-0.2,2.1-0.1,3.1,0.3
				c2.8,1.1,4.1,4.3,2.9,7C210.9,191,208.9,192.3,206.7,192.3L206.7,192.3z M206.7,182.1c-2,0-3.7,1.2-4.4,3
				c-0.4,0.9-0.5,1.8-0.3,2.8c0.4,1.9,1.9,3.4,3.8,3.8c2.6,0.5,5.2-1.1,5.7-3.7c0.5-2.6-1.1-5.2-3.7-5.7
				C207.4,182.2,207,182.1,206.7,182.1L206.7,182.1z"/>
			<path class="st2" d="M222.1,193c-0.2,0-0.3-0.1-0.3-0.3c0-0.1,0-0.1,0.1-0.2l11.5-11.5l0.1-0.1h0.1h0.1c0,0,0.1,0,0.1,0.1
				c0.1,0.1,0.1,0.1,0.1,0.2c0,0,0,0.1,0,0.1c0,0,0,0.1-0.1,0.1l-11.5,11.5l-0.1,0.1L222.1,193z"/>
			<path class="st2" d="M247.5,192.3c-1.1,0-2.1-0.3-3-0.9c-0.9-0.6-1.6-1.4-2-2.4c-0.8-2-0.4-4.3,1.2-5.9c2.1-2.1,5.5-2.1,7.6,0
				c2.1,2.1,2.1,5.5,0,7.6C250.3,191.8,249,192.3,247.5,192.3L247.5,192.3z M247.5,182.1c-2.7,0-4.8,2.1-4.8,4.8
				c0,1.3,0.5,2.5,1.4,3.4c0.7,0.7,1.5,1.1,2.5,1.3c0.9,0.2,1.9,0.1,2.8-0.3c0.9-0.4,1.6-1,2.2-1.8c0.5-0.8,0.8-1.7,0.8-2.7
				C252.4,184.3,250.2,182.1,247.5,182.1C247.5,182.1,247.5,182.1,247.5,182.1z"/>
			<path class="st2" d="M85.1,192.3c-2.2,0-4.2-1.3-5-3.3c-0.8-2-0.4-4.3,1.2-5.9c0.7-0.8,1.7-1.3,2.7-1.5c2.1-0.4,4.3,0.5,5.5,2.3
				c1.4,2.1,1.1,5-0.7,6.8C87.9,191.7,86.5,192.3,85.1,192.3z M85.1,182.1c-1,0-1.9,0.3-2.7,0.8c-0.8,0.5-1.4,1.3-1.8,2.2
				c-0.4,0.9-0.5,1.8-0.3,2.8c0.4,1.9,1.9,3.4,3.8,3.8c2.6,0.5,5.2-1.1,5.7-3.7c0.5-2.6-1.1-5.2-3.7-5.7
				C85.8,182.2,85.4,182.1,85.1,182.1z"/>
		</g>
		<g>
			<path class="st2" d="M241.8,5.9c-0.1,0-0.1,0-0.2-0.1c0,0-0.1-0.1-0.1-0.1c0,0,0-0.1,0-0.1c0-0.1,0-0.1,0.1-0.2L253.1-6
				c0.1-0.1,0.1-0.1,0.2-0.1c0.1,0,0.1,0,0.2,0.1c0.1,0,0.1,0.1,0.1,0.2c0,0.1,0,0.1-0.1,0.2L242,5.8C242,5.9,241.9,5.9,241.8,5.9z"
				/>
			<path class="st2" d="M267.2,5.3c-1.1,0-2.1-0.3-3-0.9c-0.9-0.6-1.6-1.4-2-2.4c-0.4-1-0.5-2.1-0.3-3.1c0.2-1,0.7-2,1.5-2.8
				c0.8-0.8,1.7-1.3,2.8-1.5c1-0.2,2.1-0.1,3.1,0.3c1,0.4,1.8,1.1,2.4,2c0.6,0.9,0.9,1.9,0.9,3c0,1.4-0.6,2.8-1.6,3.8
				C270,4.7,268.6,5.3,267.2,5.3z M267.2-4.9c-1,0-1.9,0.3-2.7,0.8c-0.8,0.5-1.4,1.3-1.8,2.2c-0.4,0.9-0.5,1.9-0.3,2.8
				c0.2,0.9,0.6,1.8,1.3,2.5c0.7,0.7,1.5,1.1,2.5,1.3c0.9,0.2,1.9,0.1,2.8-0.3c0.9-0.4,1.6-1,2.2-1.8c0.5-0.8,0.8-1.7,0.8-2.7
				c0-1.3-0.5-2.5-1.4-3.4C269.7-4.4,268.5-4.9,267.2-4.9z"/>
			<path class="st2" d="M282.6,5.9c-0.1,0-0.1,0-0.2-0.1c0,0,0-0.1-0.1-0.1c0,0,0-0.1,0-0.1c0-0.1,0-0.1,0.1-0.2L293.9-6
				c0,0,0.1,0,0.1-0.1c0,0,0.1,0,0.1,0h0.1l0.1,0.1c0,0,0.1,0.1,0.1,0.1c0,0,0,0.1,0,0.1c0,0,0,0.1,0,0.1c0,0,0,0.1-0.1,0.1
				L282.8,5.9C282.8,5.9,282.7,5.9,282.6,5.9z"/>
			<path class="st2" d="M308,5.3c-1.1,0-2.1-0.3-3-0.9c-0.9-0.6-1.6-1.4-2-2.4c-0.4-1-0.5-2.1-0.3-3.1c0.2-1,0.7-2,1.5-2.8
				c0.8-0.8,1.8-1.3,2.8-1.5c1-0.2,2.1-0.1,3.1,0.3c1,0.4,1.8,1.1,2.4,2c0.6,0.9,0.9,1.9,0.9,3c0,1.4-0.6,2.8-1.6,3.8
				C310.8,4.8,309.4,5.3,308,5.3z M308-4.9c-1,0-1.9,0.3-2.7,0.8c-0.8,0.5-1.4,1.3-1.8,2.2c-0.4,0.9-0.5,1.9-0.3,2.8
				c0.2,0.9,0.6,1.8,1.3,2.5c0.7,0.7,1.5,1.1,2.5,1.3c0.9,0.2,1.9,0.1,2.8-0.3c0.9-0.4,1.6-1,2.2-1.8c0.5-0.8,0.8-1.7,0.8-2.7
				c0-1.3-0.5-2.5-1.4-3.4C310.5-4.4,309.3-4.9,308-4.9z"/>
			<path class="st2" d="M323.5,5.9c-0.1,0-0.1,0-0.2-0.1c0,0,0-0.1-0.1-0.1c0,0,0-0.1,0-0.1c0,0,0-0.1,0-0.1c0,0,0-0.1,0.1-0.1
				L334.7-6c0.1-0.1,0.1-0.1,0.2-0.1c0.1,0,0.1,0,0.2,0.1c0.1,0.1,0.1,0.1,0.1,0.2c0,0.1,0,0.1-0.1,0.2L323.7,5.9
				C323.6,5.9,323.5,5.9,323.5,5.9z"/>
			<path class="st2" d="M348.9,5.3c-1.1,0-2.1-0.3-3-0.9c-0.9-0.6-1.6-1.4-2-2.4c-0.4-1-0.5-2.1-0.3-3.1c0.2-1,0.7-2,1.5-2.8
				c0.8-0.7,1.7-1.3,2.8-1.5c1-0.2,2.1-0.1,3.1,0.3c1,0.4,1.8,1.1,2.4,2c0.6,0.9,0.9,1.9,0.9,3c0,1.4-0.6,2.8-1.6,3.8
				C351.6,4.7,350.3,5.3,348.9,5.3z M348.9-4.9c-1,0-1.9,0.3-2.7,0.8c-0.8,0.5-1.4,1.3-1.8,2.2c-0.4,0.9-0.5,1.8-0.3,2.8
				c0.2,0.9,0.6,1.8,1.3,2.5c0.7,0.7,1.5,1.1,2.5,1.3c0.9,0.2,1.9,0.1,2.8-0.3c0.9-0.4,1.6-1,2.2-1.8c0.5-0.8,0.8-1.7,0.8-2.7
				c0-1.3-0.5-2.5-1.4-3.4C351.4-4.4,350.1-4.9,348.9-4.9L348.9-4.9z"/>
			<path class="st2" d="M364.3,5.9c-0.1,0-0.1,0-0.2-0.1L364,5.8c0,0,0-0.1,0-0.1c0,0,0-0.1,0-0.1l0.1-0.1L375.6-6
				c0,0,0.1,0,0.1-0.1c0,0,0.1,0,0.1,0h0.1L376-6c0,0,0.1,0.1,0.1,0.1c0,0,0,0.1,0,0.1c0,0,0,0.1,0,0.1c0,0,0,0.1-0.1,0.1L364.5,5.9
				C364.5,5.9,364.4,5.9,364.3,5.9z"/>
			<path class="st2" d="M389.7,5.3c-1.1,0-2.1-0.3-3-0.9c-0.9-0.6-1.6-1.4-2-2.4c-0.4-1-0.5-2.1-0.3-3.1c0.2-1,0.7-2,1.5-2.8
				c0.8-0.7,1.7-1.3,2.8-1.5c1-0.2,2.1-0.1,3.1,0.3c1,0.4,1.8,1.1,2.4,2c0.6,0.9,0.9,1.9,0.9,3c0,1.4-0.6,2.8-1.6,3.8
				C392.5,4.7,391.1,5.3,389.7,5.3z M389.7-4.9c-1,0-1.9,0.3-2.7,0.8c-0.8,0.5-1.4,1.3-1.8,2.2c-0.4,0.9-0.4,1.9-0.2,2.8
				c0.2,0.9,0.6,1.8,1.3,2.5c0.7,0.7,1.5,1.1,2.5,1.3c0.9,0.2,1.9,0.1,2.8-0.3c0.9-0.4,1.6-1,2.2-1.8c0.5-0.8,0.8-1.7,0.8-2.7
				c0-1.3-0.5-2.5-1.4-3.4C392.2-4.4,391-4.9,389.7-4.9L389.7-4.9z"/>
			<path class="st2" d="M405.1,5.9c-0.1,0-0.1,0-0.2-0.1c0,0,0-0.1-0.1-0.1c0,0,0-0.1,0-0.1c0,0,0-0.1,0-0.1c0,0,0-0.1,0.1-0.1
				L416.4-6c0.1-0.1,0.1-0.1,0.2-0.1c0.1,0,0.1,0,0.2,0.1c0.1,0.1,0.1,0.1,0.1,0.2c0,0.1,0,0.1-0.1,0.2L405.3,5.9
				C405.3,5.9,405.2,5.9,405.1,5.9z"/>
			<path class="st2" d="M262.1,27.2c-0.1,0-0.1,0-0.2-0.1c-0.1-0.1-0.1-0.1-0.1-0.2c0-0.1,0-0.1,0.1-0.2l11.5-11.5
				c0.1-0.1,0.3-0.1,0.4,0c0.1,0.1,0.1,0.3,0,0.4c0,0,0,0,0,0l-11.5,11.5C262.2,27.2,262.2,27.2,262.1,27.2z"/>
			<path class="st2" d="M287.5,26.6c-3,0-5.4-2.4-5.4-5.4c0-2.5,1.8-4.7,4.3-5.2c1-0.2,2.1-0.1,3.1,0.3c2.8,1.1,4.1,4.3,2.9,7
				C291.7,25.3,289.7,26.6,287.5,26.6z M287.5,16.4c-2.7,0-4.8,2.1-4.8,4.8c0,0.3,0,0.6,0.1,1c0.4,1.9,1.9,3.4,3.8,3.8
				c2.6,0.5,5.2-1.1,5.7-3.7c0.5-2.6-1.1-5.2-3.7-5.7C288.2,16.4,287.8,16.4,287.5,16.4z"/>
			<path class="st2" d="M302.9,27.2c-0.1,0-0.1,0-0.2-0.1c-0.1-0.1-0.1-0.1-0.1-0.2c0-0.1,0-0.1,0.1-0.2l11.5-11.5
				c0.1-0.1,0.1-0.1,0.2-0.1c0.1,0,0.3,0.1,0.3,0.3c0,0.1,0,0.1-0.1,0.2l-11.5,11.5C303.1,27.2,303,27.2,302.9,27.2z"/>
			<path class="st2" d="M328.3,26.6c-3,0-5.4-2.4-5.4-5.4c0-2.5,1.8-4.7,4.3-5.2c1-0.2,2.1-0.1,3.1,0.3c2.8,1.1,4.1,4.3,2.9,7
				C332.5,25.3,330.5,26.6,328.3,26.6z M328.3,16.4c-2.7,0-4.8,2.1-4.8,4.8c0,1.3,0.5,2.5,1.4,3.4c0.7,0.7,1.5,1.1,2.5,1.3
				c2.6,0.5,5.2-1.1,5.7-3.7s-1.1-5.2-3.7-5.7C329,16.4,328.7,16.4,328.3,16.4z"/>
			<path class="st2" d="M343.8,27.2c-0.1,0-0.1,0-0.2-0.1c0-0.1-0.1-0.1-0.1-0.2c0-0.1,0-0.1,0.1-0.2L355,15.3
				c0.1-0.1,0.1-0.1,0.2-0.1c0.1,0,0.1,0,0.2,0.1c0.1,0.1,0.1,0.1,0.1,0.2c0,0.1,0,0.1-0.1,0.2L344,27.2
				C343.9,27.2,343.8,27.2,343.8,27.2z"/>
			<path class="st2" d="M369.1,26.6c-1.1,0-2.1-0.3-3-0.9c-1.8-1.2-2.7-3.4-2.3-5.5c0.2-1,0.7-2,1.5-2.8c1.5-1.5,3.9-2,5.9-1.2
				c2.7,1.1,4.1,4.3,2.9,7c-0.3,0.7-0.7,1.2-1.2,1.7C372,26,370.6,26.6,369.1,26.6z M369.1,16.4c-2.7,0-4.8,2.2-4.8,4.8
				c0,0.3,0,0.6,0.1,0.9c0.2,0.9,0.7,1.8,1.3,2.5c1.9,1.9,4.9,1.9,6.8,0c1.9-1.9,1.9-4.9,0-6.8C371.7,16.9,370.4,16.4,369.1,16.4z"
				/>
			<path class="st2" d="M384.6,27.2c-0.1,0-0.1,0-0.2-0.1c-0.1-0.1-0.1-0.1-0.1-0.2c0-0.1,0-0.1,0.1-0.2l11.5-11.5l0.1-0.1h0.1h0.1
				l0.1,0.1c0,0,0,0.1,0.1,0.1c0,0.1,0,0.1,0,0.2c0,0,0,0.1-0.1,0.1l-11.4,11.5c0,0-0.1,0-0.1,0.1L384.6,27.2z"/>
			<path class="st2" d="M410,26.6c-1.1,0-2.1-0.3-3-0.9c-0.9-0.6-1.6-1.4-2-2.4c-1.1-2.7,0.2-5.9,2.9-7c2.7-1.1,5.9,0.2,7,2.9
				c1.1,2.7-0.2,5.9-2.9,7C411.4,26.5,410.7,26.6,410,26.6z M410,16.4c-1,0-1.9,0.3-2.7,0.8c-2.2,1.5-2.8,4.5-1.3,6.7
				c0.2,0.3,0.4,0.5,0.6,0.7c0.7,0.7,1.5,1.1,2.5,1.3c2.6,0.5,5.2-1.1,5.7-3.7c0.5-2.6-1.1-5.2-3.7-5.7
				C410.7,16.4,410.3,16.4,410,16.4z"/>
			<path class="st2" d="M247.6,26.6c-1.1,0-2.1-0.3-3-0.9c-2.5-1.6-3.2-5-1.6-7.5c1.6-2.5,5-3.2,7.5-1.6c0.6,0.4,1.1,0.9,1.5,1.5
				c1.7,2.5,1,5.8-1.5,7.5C249.6,26.3,248.6,26.6,247.6,26.6L247.6,26.6z M247.6,16.4c-1,0-1.9,0.3-2.7,0.8c-1.6,1.1-2.4,3-2.1,4.9
				c0.4,1.9,1.9,3.4,3.8,3.8c1.9,0.4,3.9-0.4,5-2c0.5-0.8,0.8-1.7,0.8-2.7C252.4,18.6,250.3,16.4,247.6,16.4
				C247.6,16.4,247.6,16.4,247.6,16.4L247.6,16.4z"/>
			<path class="st2" d="M241.8,47.4c-0.1,0-0.1,0-0.2-0.1c-0.1-0.1-0.1-0.1-0.1-0.2c0,0,0-0.1,0-0.1c0,0,0-0.1,0.1-0.1l11.5-11.5
				c0.1-0.1,0.3-0.1,0.4,0c0.1,0,0.1,0.1,0.1,0.2c0,0.1,0,0.1-0.1,0.2L242,47.3C241.9,47.4,241.9,47.4,241.8,47.4z"/>
			<path class="st2" d="M267.2,46.8c-1.1,0-2.1-0.3-3-0.9c-0.9-0.6-1.6-1.4-2-2.4c-1.1-2.7,0.2-5.9,2.9-7c0.3-0.1,0.7-0.2,1-0.3
				c2.1-0.4,4.3,0.5,5.5,2.3c1.7,2.5,1,5.8-1.5,7.5C269.3,46.5,268.2,46.8,267.2,46.8L267.2,46.8z M267.2,36.6
				c-2.7,0-4.8,2.2-4.8,4.9c0,1.3,0.5,2.5,1.4,3.4c0.7,0.7,1.5,1.1,2.5,1.3c2.6,0.5,5.1-1.2,5.6-3.8c0.3-1.6-0.2-3.2-1.3-4.3
				C269.7,37.1,268.5,36.6,267.2,36.6z"/>
			<path class="st2" d="M282.6,47.4c-0.1,0-0.1,0-0.2-0.1c-0.1-0.1-0.1-0.1-0.1-0.2c0,0,0-0.1,0-0.1c0,0,0-0.1,0.1-0.1l11.5-11.5
				l0.1-0.1c0,0,0.1,0,0.1,0h0.1l0.1,0.1c0,0,0,0.1,0.1,0.1c0,0,0,0.1,0,0.1c0,0,0,0.1,0,0.1l-0.1,0.1l-11.4,11.5
				C282.8,47.4,282.7,47.4,282.6,47.4z"/>
			<path class="st2" d="M308,46.8c-2.2,0-4.2-1.3-5-3.3c-0.4-1-0.5-2.1-0.3-3.1c0.6-2.9,3.4-4.8,6.3-4.2c1.4,0.3,2.6,1.1,3.4,2.3
				c0.6,0.9,0.9,1.9,0.9,3C313.4,44.4,311,46.8,308,46.8z M308,36.6c-2.7,0-4.8,2.2-4.8,4.8c0,1.3,0.5,2.5,1.4,3.4
				c1.4,1.4,3.5,1.8,5.2,1c2.4-1.1,3.5-3.9,2.5-6.4C311.6,37.7,309.9,36.6,308,36.6z"/>
			<path class="st2" d="M323.5,47.4c-0.1,0-0.1,0-0.2-0.1c0,0,0-0.1-0.1-0.1c0,0,0-0.1,0-0.1c0,0,0-0.1,0-0.1c0,0,0-0.1,0.1-0.1
				l11.5-11.5c0.1,0,0.1-0.1,0.2-0.1c0.1,0,0.1,0,0.2,0.1c0.1,0.1,0.1,0.1,0.1,0.2c0,0.1,0,0.1-0.1,0.2l-11.5,11.5
				C323.6,47.4,323.5,47.4,323.5,47.4z"/>
			<path class="st2" d="M348.9,46.8c-1.1,0-2.1-0.3-3-0.9c-1.8-1.2-2.7-3.4-2.3-5.5c0.6-2.9,3.4-4.8,6.3-4.2
				c1.4,0.3,2.6,1.1,3.4,2.3c0.6,0.9,0.9,1.9,0.9,3C354.2,44.4,351.8,46.8,348.9,46.8L348.9,46.8z M348.9,36.6
				c-2.7,0-4.8,2.2-4.8,4.8c0,0.3,0,0.6,0.1,0.9c0.2,0.9,0.6,1.8,1.3,2.5c1.4,1.4,3.5,1.8,5.2,1c2.5-1,3.6-3.8,2.6-6.3
				C352.6,37.7,350.8,36.5,348.9,36.6L348.9,36.6z"/>
			<path class="st2" d="M364.3,47.4c-0.1,0-0.1,0-0.2-0.1l-0.1-0.1c0,0,0-0.1,0-0.1c0,0,0-0.1,0-0.1l0.1-0.1l11.5-11.5
				c0,0,0.1,0,0.1-0.1c0,0,0.1,0,0.1,0h0.1l0.1,0.1c0,0,0,0.1,0.1,0.1c0,0,0,0.1,0,0.1c0,0,0,0.1,0,0.1l-0.1,0.1l-11.5,11.5
				C364.5,47.4,364.4,47.4,364.3,47.4z"/>
			<path class="st2" d="M389.7,46.8c-2.2,0-4.2-1.3-5-3.3c-0.4-1-0.5-2.1-0.3-3.1c0.6-2.9,3.4-4.8,6.3-4.2c1.4,0.3,2.6,1.1,3.4,2.3
				c0.6,0.9,0.9,1.9,0.9,3C395.1,44.4,392.7,46.8,389.7,46.8L389.7,46.8z M389.7,36.6c-2.7,0-4.8,2.2-4.8,4.8c0,1.3,0.5,2.5,1.4,3.4
				c1.4,1.4,3.5,1.8,5.2,1c2.5-1,3.6-3.8,2.6-6.3C393.4,37.7,391.6,36.5,389.7,36.6L389.7,36.6z"/>
			<path class="st2" d="M405.1,47.4c-0.1,0-0.1,0-0.2-0.1c0,0,0-0.1-0.1-0.1c0,0,0-0.1,0-0.1c0,0,0-0.1,0-0.1c0,0,0-0.1,0.1-0.1
				l11.5-11.5c0.1-0.1,0.3-0.1,0.4,0c0.1,0.1,0.1,0.1,0.1,0.2c0,0.1,0,0.1-0.1,0.2l-11.5,11.5C405.3,47.4,405.2,47.4,405.1,47.4z"/>
			<path class="st2" d="M262.1,68.7c-0.1,0-0.1,0-0.2-0.1c-0.1-0.1-0.1-0.1-0.1-0.2c0-0.1,0-0.1,0.1-0.2l11.5-11.5
				c0.1-0.1,0.3-0.1,0.4,0c0.1,0.1,0.1,0.1,0.1,0.2c0,0.1,0,0.2-0.1,0.2l-11.5,11.5l-0.1,0.1L262.1,68.7z"/>
			<path class="st2" d="M287.5,68.1c-1.1,0-2.1-0.3-3-0.9c-1.8-1.2-2.7-3.4-2.3-5.5c0.6-2.9,3.4-4.8,6.3-4.2
				c2.9,0.6,4.8,3.4,4.2,6.3C292.2,66.3,290,68.1,287.5,68.1L287.5,68.1z M287.5,57.9c-1,0-1.9,0.3-2.7,0.8c-1.6,1.1-2.4,3-2,5
				c0.2,0.9,0.6,1.8,1.3,2.5c1.4,1.4,3.5,1.8,5.2,1c0.9-0.4,1.6-1,2.2-1.8c1.5-2.2,0.9-5.2-1.3-6.7
				C289.4,58.1,288.5,57.8,287.5,57.9L287.5,57.9z"/>
			<path class="st2" d="M302.9,68.7c-0.1,0-0.1,0-0.2-0.1c-0.1-0.1-0.1-0.1-0.1-0.2c0-0.1,0-0.1,0.1-0.2l11.5-11.5
				c0.1-0.1,0.1-0.1,0.2-0.1c0.1,0,0.1,0,0.2,0.1c0.1,0,0.1,0.1,0.1,0.2c0,0.1,0,0.1-0.1,0.2l-11.5,11.5
				C303.1,68.7,303,68.7,302.9,68.7z"/>
			<path class="st2" d="M328.3,68.1c-1.1,0-2.1-0.3-3-0.9c-1.8-1.2-2.7-3.4-2.3-5.5c0.6-2.9,3.4-4.8,6.3-4.2
				c2.9,0.6,4.8,3.4,4.2,6.3C333,66.3,330.8,68.1,328.3,68.1L328.3,68.1z M328.3,57.9c-1,0-1.9,0.3-2.7,0.8
				c-2.2,1.5-2.8,4.5-1.3,6.7c1.5,2.2,4.5,2.8,6.7,1.3s2.8-4.5,1.3-6.7C331.4,58.7,329.9,57.9,328.3,57.9z"/>
			<path class="st2" d="M343.8,68.7c-0.1,0-0.1,0-0.2-0.1c-0.1-0.1-0.1-0.1-0.1-0.2c0-0.1,0-0.1,0.1-0.2L355,56.7
				c0.1-0.1,0.1-0.1,0.2-0.1c0.1,0,0.1,0,0.2,0.1c0.1,0,0.1,0.1,0.1,0.2c0,0.1,0,0.1-0.1,0.2L344,68.6
				C343.9,68.7,343.8,68.7,343.8,68.7z"/>
			<path class="st2" d="M369.1,68.1c-1.1,0-2.1-0.3-3-0.9c-1.8-1.2-2.7-3.4-2.3-5.5c0.2-1,0.7-2,1.5-2.8c0.8-0.8,1.7-1.3,2.8-1.5
				c2.9-0.6,5.8,1.3,6.3,4.3c0.6,2.9-1.3,5.8-4.3,6.3C369.8,68,369.5,68.1,369.1,68.1L369.1,68.1z M369.1,57.9
				c-2.7,0-4.8,2.2-4.8,4.8c0,0.3,0,0.6,0.1,0.9c0.2,0.9,0.6,1.8,1.3,2.5c0.7,0.7,1.5,1.1,2.5,1.3c0.9,0.2,1.9,0.1,2.8-0.3
				c0.9-0.4,1.6-1,2.2-1.8c1.5-2.2,0.9-5.2-1.3-6.7C371,58.1,370.1,57.9,369.1,57.9L369.1,57.9z"/>
			<path class="st2" d="M384.6,68.7c-0.1,0-0.1,0-0.2-0.1c-0.1-0.1-0.1-0.1-0.1-0.2c0-0.1,0-0.1,0.1-0.2l11.5-11.5
				c0,0,0.1,0,0.1-0.1h0.1h0.1l0.1,0.1c0,0,0.1,0.1,0.1,0.1c0,0,0,0.1,0,0.1c0,0,0,0.1,0,0.1c0,0,0,0.1-0.1,0.1l-11.4,11.5l-0.1,0.1
				L384.6,68.7z"/>
			<path class="st2" d="M410,68.1c-2.2,0-4.2-1.3-5-3.3c-1.1-2.8,0.2-5.9,2.9-7.1c0.3-0.1,0.6-0.2,1-0.3c2.1-0.4,4.3,0.5,5.5,2.3
				c1.4,2.1,1.2,5-0.7,6.8C412.8,67.5,411.4,68.1,410,68.1z M410,57.9c-1,0-1.9,0.3-2.7,0.8c-0.8,0.5-1.4,1.3-1.8,2.2
				c-0.4,0.9-0.5,1.8-0.3,2.8c0.4,1.9,1.9,3.4,3.8,3.8c2.6,0.5,5.1-1.2,5.7-3.8c0.5-2.6-1.2-5.1-3.8-5.7
				C410.6,57.9,410.3,57.9,410,57.9L410,57.9z"/>
			<path class="st2" d="M247.6,68.1c-1.1,0-2.1-0.3-3-0.9c-0.9-0.6-1.6-1.4-2-2.4c-0.8-2-0.4-4.3,1.2-5.9c2.1-2.1,5.5-2.1,7.6,0
				c2.1,2.1,2.1,5.5,0,7.6C250.3,67.5,249,68.1,247.6,68.1L247.6,68.1z M247.6,57.9c-1,0-1.9,0.3-2.7,0.8c-2.2,1.5-2.8,4.5-1.3,6.7
				c0.2,0.3,0.4,0.5,0.6,0.7c0.7,0.7,1.5,1.1,2.5,1.3c0.9,0.2,1.9,0.1,2.8-0.3c0.9-0.4,1.6-1,2.2-1.8c1.5-2.2,0.9-5.2-1.3-6.7
				C249.4,58.1,248.5,57.9,247.6,57.9z"/>
			<path class="st2" d="M241.8,88.9c0,0-0.1,0-0.1,0c-0.1,0-0.1-0.1-0.1-0.2c0,0,0-0.1,0-0.1c0,0,0-0.1,0-0.1c0,0,0-0.1,0.1-0.1
				l11.5-11.5c0.1-0.1,0.3-0.1,0.4,0c0,0,0,0.1,0.1,0.1c0,0,0,0.1,0,0.1c0,0,0,0.1,0,0.1c0,0,0,0.1-0.1,0.1L242,88.8
				c0,0-0.1,0.1-0.1,0.1C241.9,88.9,241.8,88.9,241.8,88.9z"/>
			<path class="st2" d="M267.2,88.2c-2.2,0-4.2-1.3-5-3.3c-1.1-2.7,0.2-5.9,2.9-7c0.3-0.1,0.7-0.2,1-0.3c1-0.2,2.1-0.1,3.1,0.3
				c1,0.4,1.8,1.1,2.4,2c1.7,2.5,1,5.8-1.5,7.5C269.3,87.9,268.2,88.2,267.2,88.2L267.2,88.2z M267.2,78c-2.7,0-4.8,2.2-4.8,4.8
				c0,1.3,0.5,2.5,1.4,3.4c0.7,0.7,1.5,1.1,2.5,1.3c2.6,0.4,5.1-1.3,5.6-3.9c0.4-2.6-1.3-5.1-3.9-5.6C267.7,78,267.4,78,267.2,78
				L267.2,78z"/>
			<path class="st2" d="M282.6,88.9c0,0-0.1,0-0.1,0l-0.1-0.1c0,0,0-0.1-0.1-0.1c0,0,0-0.1,0-0.1c0,0,0-0.1,0-0.1c0,0,0-0.1,0.1-0.1
				l11.5-11.5c0.1-0.1,0.1-0.1,0.2-0.1c0.1,0,0.1,0,0.2,0.1c0,0,0,0.1,0.1,0.1c0,0,0,0.1,0,0.1c0,0,0,0.1,0,0.1c0,0,0,0.1-0.1,0.1
				l-11.5,11.4c0,0-0.1,0.1-0.1,0.1C282.7,88.9,282.7,88.9,282.6,88.9z"/>
			<path class="st2" d="M308,88.2c-3,0-5.4-2.4-5.4-5.4c0-0.4,0-0.7,0.1-1.1c0.4-2.2,2.1-3.8,4.3-4.2c1-0.2,2.1-0.1,3.1,0.3
				c1,0.4,1.8,1.1,2.4,2c1.6,2.5,1,5.8-1.5,7.5C310.1,87.9,309.1,88.2,308,88.2z M308,78c-1,0-1.9,0.3-2.7,0.8
				c-0.8,0.5-1.4,1.3-1.7,2.2c-0.4,0.9-0.5,1.8-0.3,2.8c0.2,0.9,0.6,1.8,1.3,2.5c0.7,0.7,1.5,1.1,2.5,1.3c2.6,0.4,5.1-1.3,5.6-3.9
				s-1.3-5.1-3.9-5.6C308.5,78,308.2,78,308,78z"/>
			<path class="st2" d="M323.5,88.9c-0.1,0-0.1,0-0.2-0.1c0,0,0-0.1-0.1-0.1c0,0,0-0.1,0-0.1c0,0,0-0.1,0-0.1c0,0,0-0.1,0.1-0.1
				l11.5-11.5c0.1-0.1,0.1-0.1,0.2-0.1c0.1,0,0.1,0,0.2,0.1c0,0,0.1,0.1,0.1,0.1c0,0,0,0.1,0,0.1c0,0,0,0.1,0,0.1l-0.1,0.1
				l-11.5,11.5c0,0-0.1,0-0.1,0.1C323.5,88.9,323.5,88.9,323.5,88.9z"/>
			<path class="st2" d="M348.9,88.2c-3,0-5.4-2.4-5.4-5.4c0-0.4,0-0.7,0.1-1.1c0.4-2.1,2.1-3.8,4.2-4.2c1-0.2,2.1-0.1,3.1,0.3
				c2,0.8,3.3,2.8,3.3,5C354.2,85.8,351.8,88.3,348.9,88.2L348.9,88.2z M348.9,78c-1,0-1.9,0.3-2.7,0.8c-0.8,0.5-1.4,1.3-1.8,2.2
				c-0.4,0.9-0.5,1.8-0.3,2.8c0.2,0.9,0.6,1.8,1.3,2.5c0.7,0.7,1.5,1.1,2.5,1.3c2.6,0.5,5.2-1.1,5.7-3.7c0.5-2.6-1.1-5.2-3.7-5.7
				C349.5,78.1,349.2,78,348.9,78L348.9,78z"/>
			<path class="st2" d="M364.3,88.9c0,0-0.1,0-0.1,0c0,0-0.1,0-0.1-0.1l-0.1-0.1c0,0,0-0.1,0-0.1c0,0,0-0.1,0-0.1c0,0,0-0.1,0.1-0.1
				l11.5-11.5c0.1-0.1,0.1-0.1,0.2-0.1c0.1,0,0.1,0,0.2,0.1c0,0,0,0,0,0.1c0,0,0,0.1,0,0.1c0,0,0,0.1,0,0.1l-0.1,0.1l-11.4,11.5
				c0,0-0.1,0-0.1,0.1C364.4,88.9,364.3,88.9,364.3,88.9z"/>
			<path class="st2" d="M389.7,88.2c-1.1,0-2.1-0.3-3-0.9c-2.5-1.7-3.1-5-1.4-7.5c1.4-2.1,4.1-2.9,6.5-2c2,0.8,3.3,2.8,3.3,5
				C395.1,85.8,392.7,88.3,389.7,88.2L389.7,88.2z M389.7,78c-1,0-1.9,0.3-2.7,0.8c-0.8,0.5-1.4,1.3-1.8,2.2c-1,2.5,0.1,5.3,2.6,6.3
				c1.2,0.5,2.5,0.5,3.7,0c0.9-0.4,1.6-1,2.2-1.8c1.5-2.2,0.9-5.2-1.3-6.7C391.6,78.3,390.6,78,389.7,78L389.7,78z"/>
			<path class="st2" d="M405.1,88.9c0,0-0.1,0-0.1,0c0,0-0.1,0-0.1-0.1c0,0,0-0.1-0.1-0.1c0,0,0-0.1,0-0.1c0,0,0-0.1,0-0.1
				c0,0,0-0.1,0.1-0.1l11.5-11.5c0.1-0.1,0.1-0.1,0.2-0.1c0.1,0,0.1,0,0.2,0.1c0,0,0,0.1,0.1,0.1c0,0,0,0.1,0,0.1c0,0,0,0.1,0,0.1
				c0,0,0,0.1-0.1,0.1l-11.5,11.4C405.3,88.8,405.2,88.9,405.1,88.9z"/>
			<path class="st2" d="M262.1,110.2c-0.1,0-0.1,0-0.2-0.1c0-0.1-0.1-0.1-0.1-0.2c0-0.1,0-0.1,0.1-0.2l11.5-11.5
				c0-0.1,0.1-0.1,0.2-0.1c0.1,0,0.1,0,0.2,0.1c0.1,0.1,0.1,0.1,0.1,0.2c0,0.1,0,0.1-0.1,0.2l-11.5,11.5c0,0-0.1,0-0.1,0.1
				L262.1,110.2z"/>
			<path class="st2" d="M287.5,109.5c-1.1,0-2.1-0.3-3-0.9c-0.9-0.6-1.6-1.4-2-2.4c-0.8-2-0.4-4.3,1.2-5.9c0.8-0.8,1.7-1.3,2.8-1.5
				c2.1-0.4,4.3,0.5,5.5,2.3c1.7,2.5,1,5.8-1.5,7.5C289.6,109.2,288.5,109.5,287.5,109.5L287.5,109.5z M287.5,99.3
				c-2.7,0-4.8,2.2-4.8,4.8c0,0.3,0,0.6,0.1,0.9c0.2,0.9,0.6,1.8,1.3,2.5c1.4,1.4,3.5,1.8,5.2,1c2.5-1,3.6-3.8,2.6-6.3
				c-0.2-0.6-0.6-1.1-1-1.6C290,99.8,288.8,99.3,287.5,99.3z"/>
			<path class="st2" d="M302.9,110.2c-0.1,0-0.1,0-0.2-0.1c0-0.1-0.1-0.1-0.1-0.2c0-0.1,0-0.1,0.1-0.2l11.5-11.5
				c0.1-0.1,0.1-0.1,0.2-0.1c0.1,0,0.1,0,0.2,0.1c0.1,0,0.1,0.1,0.1,0.2c0,0.1,0,0.1-0.1,0.2l-11.5,11.5
				C303.1,110.1,303,110.2,302.9,110.2z"/>
			<path class="st2" d="M328.3,109.5c-1.1,0-2.1-0.3-3-0.9c-0.9-0.6-1.6-1.4-2-2.4c-0.8-2-0.4-4.3,1.2-5.9c0.8-0.8,1.7-1.3,2.8-1.5
				c2.1-0.4,4.3,0.5,5.5,2.3c1.7,2.5,1,5.8-1.5,7.5C330.4,109.2,329.4,109.5,328.3,109.5L328.3,109.5z M328.3,99.3
				c-2.7,0-4.8,2.2-4.8,4.8c0,1.3,0.5,2.5,1.4,3.4c1.4,1.4,3.5,1.8,5.2,1c2.5-1,3.6-3.8,2.6-6.3C332,100.5,330.3,99.3,328.3,99.3
				L328.3,99.3z"/>
			<path class="st2" d="M343.8,110.2c-0.1,0-0.1,0-0.2-0.1c0-0.1-0.1-0.1-0.1-0.2c0-0.1,0-0.1,0.1-0.2L355,98.2
				c0.1-0.1,0.1-0.1,0.2-0.1c0.1,0,0.1,0,0.2,0.1c0.1,0,0.1,0.1,0.1,0.2c0,0.1,0,0.1-0.1,0.2L344,110.1
				C343.9,110.1,343.8,110.2,343.8,110.2z"/>
			<path class="st2" d="M369.1,109.5c-3,0-5.4-2.4-5.4-5.4c0-1.4,0.6-2.8,1.6-3.8c0.8-0.8,1.7-1.3,2.8-1.5c2.9-0.6,5.8,1.3,6.4,4.2
				c0.6,2.9-1.3,5.8-4.2,6.4C369.9,109.5,369.5,109.5,369.1,109.5L369.1,109.5z M369.1,99.3c-1,0-1.9,0.3-2.7,0.8
				c-0.8,0.5-1.4,1.3-1.8,2.2c-0.8,1.8-0.4,3.9,1,5.2c0.7,0.7,1.5,1.1,2.5,1.3c0.9,0.2,1.9,0.1,2.8-0.3c0.9-0.4,1.6-1,2.2-1.8
				c1.5-2.2,0.9-5.2-1.3-6.7C371,99.6,370.1,99.3,369.1,99.3L369.1,99.3z"/>
			<path class="st2" d="M384.6,110.2c-0.1,0-0.3-0.1-0.3-0.3c0,0,0,0,0,0c0-0.1,0-0.1,0.1-0.2l11.5-11.5c0.1-0.1,0.1-0.1,0.2-0.1
				c0.1,0,0.1,0,0.2,0.1c0.1,0.1,0.1,0.1,0.1,0.2c0,0.1,0,0.1-0.1,0.2l-11.5,11.5c0,0-0.1,0-0.1,0.1
				C384.7,110.2,384.6,110.2,384.6,110.2z"/>
			<path class="st2" d="M410,109.5c-2.2,0-4.2-1.3-5-3.3c-1.1-2.7,0.2-5.9,2.9-7c2.7-1.1,5.9,0.2,7,2.9s-0.2,5.9-2.9,7
				C411.4,109.4,410.7,109.5,410,109.5z M410,99.3c-1,0-1.9,0.3-2.7,0.8c-0.8,0.5-1.4,1.3-1.8,2.2c-1,2.5,0.2,5.3,2.6,6.3
				s5.3-0.2,6.3-2.6c1-2.5-0.2-5.3-2.6-6.3C411.2,99.4,410.6,99.3,410,99.3L410,99.3z"/>
			<path class="st2" d="M247.6,109.5c-1.1,0-2.1-0.3-3-0.9c-0.9-0.6-1.6-1.4-2-2.4c-0.8-2-0.4-4.3,1.2-5.9c2.1-2.1,5.5-2.1,7.6,0
				c0.3,0.3,0.5,0.5,0.7,0.8c1.7,2.5,1,5.8-1.5,7.5C249.6,109.2,248.6,109.5,247.6,109.5L247.6,109.5z M247.6,99.3
				c-2,0-3.7,1.2-4.5,3c-0.7,1.8-0.4,3.9,1,5.2c0.7,0.7,1.5,1.1,2.5,1.3c0.9,0.2,1.9,0.1,2.8-0.3c2.5-1,3.6-3.8,2.6-6.3
				c-0.2-0.6-0.6-1.1-1-1.6C250,99.9,248.8,99.3,247.6,99.3z"/>
			<path class="st2" d="M241.8,130.3h-0.1l-0.1-0.1c0,0-0.1-0.1-0.1-0.1c0,0,0-0.1,0-0.1c0,0,0-0.1,0-0.1c0,0,0-0.1,0.1-0.1
				l11.5-11.5c0.1-0.1,0.3-0.1,0.4,0c0,0,0,0.1,0.1,0.1c0,0,0,0.1,0,0.1c0,0,0,0.1,0,0.1c0,0,0,0.1-0.1,0.1L242,130.2
				c0,0-0.1,0.1-0.1,0.1L241.8,130.3z"/>
			<path class="st2" d="M267.2,129.7c-3,0-5.4-2.3-5.5-5.3c0-2.6,1.8-4.9,4.4-5.4c1-0.2,2.1-0.1,3.1,0.3c2.8,1.1,4.1,4.3,2.9,7
				C271.4,128.4,269.4,129.7,267.2,129.7L267.2,129.7z M267.2,119.5c-2.7,0-4.8,2.2-4.8,4.8c0,2.7,2.2,4.8,4.8,4.8
				c2.7,0,4.8-2.2,4.8-4.8C272,121.7,269.9,119.5,267.2,119.5C267.2,119.5,267.2,119.5,267.2,119.5z"/>
			<path class="st2" d="M282.6,130.3h-0.1l-0.1-0.1c0,0-0.1-0.1-0.1-0.1c0,0,0-0.1,0-0.1c0,0,0-0.1,0-0.1c0,0,0-0.1,0.1-0.1
				l11.5-11.5c0.1-0.1,0.1-0.1,0.2-0.1c0.1,0,0.1,0,0.2,0.1c0,0,0,0.1,0.1,0.1c0,0,0,0.1,0,0.1c0,0,0,0.1,0,0.1c0,0,0,0.1-0.1,0.1
				l-11.5,11.5c0,0-0.1,0.1-0.1,0.1H282.6z"/>
			<path class="st2" d="M308,129.7c-1.1,0-2.1-0.3-3-0.9c-0.9-0.6-1.6-1.4-2-2.4c-1.1-2.7,0.2-5.9,2.9-7s5.9,0.2,7,2.9
				c1.1,2.7-0.2,5.9-2.9,7C309.4,129.5,308.7,129.7,308,129.7L308,129.7z M308,119.5c-1,0-1.9,0.3-2.7,0.8c-1.6,1.1-2.5,3.1-2,5
				c0.2,0.9,0.6,1.8,1.3,2.5c0.7,0.7,1.5,1.1,2.5,1.3c2.6,0.5,5.2-1.1,5.7-3.7c0.5-2.6-1.1-5.2-3.7-5.7
				C308.7,119.6,308.4,119.5,308,119.5L308,119.5z"/>
			<path class="st2" d="M323.5,130.3h-0.1l-0.1-0.1c0,0,0-0.1-0.1-0.1c0,0,0-0.1,0-0.1c0,0,0-0.1,0-0.1c0,0,0-0.1,0.1-0.1l11.5-11.5
				c0.1-0.1,0.1-0.1,0.2-0.1c0.1,0,0.1,0,0.2,0.1l0.1,0.1c0,0,0,0.1,0,0.1c0,0,0,0.1,0,0.1c0,0,0,0.1-0.1,0.1l-11.5,11.5l-0.1,0.1
				H323.5z"/>
			<path class="st2" d="M348.9,129.7c-3,0-5.4-2.4-5.4-5.4c0-3,2.4-5.4,5.4-5.4c1.8,0,3.5,0.9,4.5,2.4c1.7,2.5,1,5.8-1.5,7.5
				C351,129.4,349.9,129.7,348.9,129.7z M348.9,119.5c-1,0-1.9,0.3-2.7,0.8c-1.6,1.1-2.5,3.1-2,5c0.4,1.9,1.9,3.4,3.8,3.8
				c2.6,0.5,5.2-1.1,5.7-3.7c0.5-2.6-1.1-5.2-3.7-5.7C349.5,119.6,349.2,119.5,348.9,119.5L348.9,119.5z"/>
			<path class="st2" d="M364.3,130.3h-0.1l-0.1-0.1c0,0,0-0.1-0.1-0.1c0,0,0-0.1,0-0.1c0,0,0-0.1,0-0.1l0.1-0.1l11.5-11.5
				c0.1,0,0.1-0.1,0.2-0.1c0.1,0,0.1,0,0.2,0.1l0.1,0.1c0,0,0,0.1,0,0.1c0,0,0,0.1,0,0.1c0,0,0,0.1-0.1,0.1l-11.5,11.5l-0.1,0.1
				H364.3z"/>
			<path class="st2" d="M389.7,129.7c-1.1,0-2.1-0.3-3-0.9c-0.9-0.6-1.6-1.4-2-2.4c-1.1-2.7,0.2-5.9,2.9-7s5.9,0.2,7,2.9
				c1.1,2.7-0.2,5.9-2.9,7C391.1,129.5,390.4,129.7,389.7,129.7L389.7,129.7z M389.7,119.5c-1,0-1.9,0.3-2.7,0.8
				c-1.6,1.1-2.4,3.1-2,5c0.2,0.9,0.6,1.8,1.3,2.5c0.7,0.7,1.5,1.1,2.5,1.3c2.6,0.5,5.2-1.1,5.7-3.7c0.5-2.6-1.1-5.2-3.7-5.7
				C390.4,119.6,390.1,119.5,389.7,119.5L389.7,119.5z"/>
			<path class="st2" d="M405.1,130.3H405c0,0-0.1,0-0.1-0.1c0,0-0.1-0.1-0.1-0.1c0,0,0-0.1,0-0.1c0,0,0-0.1,0-0.1c0,0,0-0.1,0.1-0.1
				l11.5-11.5c0.1-0.1,0.1-0.1,0.2-0.1c0.1,0,0.1,0,0.2,0.1c0,0,0,0.1,0.1,0.1c0,0,0,0.1,0,0.1c0,0,0,0.1,0,0.1c0,0,0,0.1-0.1,0.1
				l-11.5,11.5C405.3,130.3,405.2,130.3,405.1,130.3z"/>
		</g>
		<g>
			<path class="st2" d="M241.8,130.2c-0.1,0-0.1,0-0.2-0.1c0,0,0-0.1-0.1-0.1c0,0,0-0.1,0-0.1c0,0,0-0.1,0-0.1c0,0,0-0.1,0.1-0.1
				l11.5-11.5c0.1-0.1,0.1-0.1,0.2-0.1c0.1,0,0.3,0.1,0.3,0.3c0,0.1,0,0.1-0.1,0.2L242,130.1C242,130.2,241.9,130.2,241.8,130.2z"/>
			<path class="st2" d="M267.2,129.6c-1.1,0-2.1-0.3-3-0.9c-0.9-0.6-1.6-1.4-2-2.4c-0.4-1-0.5-2.1-0.3-3.1c0.2-1,0.7-2,1.5-2.8
				c2.1-2.1,5.5-2.1,7.6,0c2.1,2.1,2.1,5.5,0,7.6C270,129,268.6,129.6,267.2,129.6L267.2,129.6z M267.2,119.3
				c-2.7,0-4.8,2.2-4.8,4.8c0,0.3,0,0.6,0.1,0.9c0.2,0.9,0.6,1.8,1.3,2.5c1.4,1.4,3.5,1.8,5.2,1c2.5-1,3.6-3.8,2.6-6.3
				c-0.2-0.6-0.6-1.1-1-1.6C269.7,119.8,268.5,119.3,267.2,119.3L267.2,119.3z"/>
			<path class="st2" d="M282.6,130.2c-0.1,0-0.1,0-0.2-0.1c0,0,0-0.1-0.1-0.1c0,0,0-0.1,0-0.1c0,0,0-0.1,0-0.1c0,0,0-0.1,0.1-0.1
				l11.5-11.5l0.1-0.1h0.1h0.1l0.1,0.1c0,0,0,0.1,0.1,0.1c0,0,0,0.1,0,0.1c0,0,0,0.1,0,0.1c0,0,0,0.1-0.1,0.1l-11.5,11.5
				C282.8,130.2,282.7,130.2,282.6,130.2z"/>
			<path class="st2" d="M308,129.6c-2.2,0-4.2-1.3-5-3.3c-0.4-1-0.5-2.1-0.3-3.1c0.2-1,0.7-2,1.5-2.8c2.1-2.1,5.5-2.1,7.6,0
				c0.3,0.3,0.5,0.5,0.7,0.8c0.6,0.9,0.9,1.9,0.9,3C313.4,127.2,311,129.6,308,129.6L308,129.6z M308,119.3c-1,0-1.9,0.3-2.7,0.8
				c-0.8,0.5-1.4,1.3-1.8,2.2c-0.7,1.8-0.3,3.9,1,5.2c1.4,1.4,3.5,1.8,5.2,1c2.5-1,3.6-3.8,2.6-6.3C311.7,120.5,310,119.3,308,119.3
				L308,119.3z"/>
			<path class="st2" d="M323.5,130.2c-0.1,0-0.2-0.1-0.3-0.2c0,0,0-0.1,0-0.1c0,0,0-0.1,0-0.1c0,0,0-0.1,0.1-0.1l11.5-11.5
				c0.1-0.1,0.1-0.1,0.2-0.1c0.1,0,0.1,0,0.2,0.1c0.1,0.1,0.1,0.1,0.1,0.2c0,0.1,0,0.1-0.1,0.2l-11.5,11.5
				C323.6,130.2,323.5,130.2,323.5,130.2z"/>
			<path class="st2" d="M348.9,129.6c-1.1,0-2.1-0.3-3-0.9c-0.9-0.6-1.6-1.4-2-2.4c-0.8-2-0.4-4.3,1.2-5.9c0.8-0.8,1.7-1.3,2.8-1.5
				c1-0.2,2.1-0.1,3.1,0.3c2.8,1.1,4.1,4.3,2.9,7C353,128.2,351,129.6,348.9,129.6L348.9,129.6z M348.9,119.3
				c-2.7,0-4.8,2.2-4.8,4.8c0,0.3,0,0.6,0.1,0.9c0.2,0.9,0.6,1.8,1.3,2.5c1.4,1.4,3.5,1.8,5.2,1c2.5-1,3.6-3.8,2.6-6.3
				C352.6,120.5,350.8,119.3,348.9,119.3L348.9,119.3z"/>
			<path class="st2" d="M364.3,130.2c-0.1,0-0.1,0-0.2-0.1c0,0-0.1-0.1-0.1-0.1c0,0,0-0.1,0-0.1c0,0,0-0.1,0-0.1l0.1-0.1l11.5-11.5
				l0.1-0.1h0.1h0.1c0,0,0.1,0,0.1,0.1c0,0,0,0.1,0.1,0.1c0,0,0,0.1,0,0.1c0,0,0,0.1,0,0.1c0,0,0,0.1-0.1,0.1l-11.5,11.5
				C364.4,130.1,364.4,130.2,364.3,130.2z"/>
			<path class="st2" d="M389.7,129.6c-2.2,0-4.2-1.3-5-3.3c-0.4-1-0.5-2.1-0.3-3.1c0.2-1,0.7-2,1.5-2.8c2.1-2.1,5.5-2.1,7.6,0
				c0.3,0.3,0.5,0.5,0.7,0.8c0.6,0.9,0.9,1.9,0.9,3C395.1,127.2,392.7,129.6,389.7,129.6L389.7,129.6z M389.7,119.3
				c-1,0-1.9,0.3-2.7,0.8c-0.8,0.5-1.4,1.3-1.8,2.2c-0.7,1.8-0.3,3.9,1,5.2c1.4,1.4,3.5,1.8,5.2,1c2.5-1,3.6-3.8,2.6-6.3
				C393.4,120.5,391.7,119.3,389.7,119.3L389.7,119.3z"/>
			<path class="st2" d="M405.1,130.2c-0.1,0-0.2,0-0.2-0.1c0,0,0-0.1-0.1-0.1c0,0,0-0.1,0-0.1c0,0,0-0.1,0-0.1c0,0,0-0.1,0.1-0.1
				l11.5-11.5c0.1,0,0.1-0.1,0.2-0.1c0.1,0,0.2,0,0.2,0.1c0.1,0.1,0.1,0.3,0,0.4l-11.5,11.5C405.3,130.2,405.2,130.2,405.1,130.2z"
				/>
			<path class="st2" d="M262.1,151.5c-0.1,0-0.3-0.1-0.3-0.3c0,0,0,0,0,0c0-0.1,0-0.1,0.1-0.2l11.5-11.5c0.1-0.1,0.3-0.1,0.4,0
				c0,0.1,0.1,0.1,0.1,0.2c0,0.1,0,0.1-0.1,0.2l-11.5,11.5C262.2,151.5,262.2,151.5,262.1,151.5z"/>
			<path class="st2" d="M287.5,150.9c-1.1,0-2.1-0.3-3-0.9c-0.9-0.6-1.6-1.4-2-2.4c-0.4-1-0.5-2.1-0.3-3.1c0.4-2.1,2.1-3.8,4.2-4.2
				c1-0.2,2.1-0.1,3.1,0.3c1,0.4,1.8,1.1,2.4,2c1.7,2.5,1,5.8-1.5,7.5C289.6,150.6,288.5,150.9,287.5,150.9L287.5,150.9z
				 M287.5,140.7c-2.7,0-4.8,2.1-4.8,4.8c0,0.3,0,0.6,0.1,1c0.2,0.9,0.6,1.8,1.3,2.5c2,1.8,5,1.7,6.8-0.3c1.7-1.8,1.7-4.7,0-6.5
				C290,141.2,288.8,140.7,287.5,140.7z"/>
			<path class="st2" d="M302.9,151.5c-0.1,0-0.3-0.1-0.3-0.3c0,0,0,0,0,0c0-0.1,0-0.1,0.1-0.2l11.5-11.5c0.1-0.1,0.1-0.1,0.2-0.1
				c0.1,0,0.1,0,0.2,0.1c0.1,0.1,0.1,0.1,0.1,0.2c0,0.1,0,0.1-0.1,0.2l-11.5,11.5C303.1,151.5,303,151.5,302.9,151.5z"/>
			<path class="st2" d="M328.3,150.9c-1.1,0-2.1-0.3-3-0.9c-0.9-0.6-1.6-1.4-2-2.4c-0.4-1-0.5-2.1-0.3-3.1c0.4-2.1,2.1-3.8,4.2-4.2
				c1-0.2,2.1-0.1,3.1,0.3c1,0.4,1.8,1.1,2.4,2c1.7,2.5,1,5.8-1.5,7.5C330.4,150.6,329.4,150.9,328.3,150.9L328.3,150.9z
				 M328.3,140.7c-2.7,0-4.8,2.2-4.8,4.9c0,2.3,1.6,4.2,3.8,4.7c0.9,0.2,1.9,0.1,2.8-0.3c2.5-1,3.6-3.8,2.6-6.3
				C332.1,141.8,330.3,140.7,328.3,140.7z"/>
			<path class="st2" d="M343.8,151.5c-0.1,0-0.1,0-0.2-0.1c-0.1-0.1-0.1-0.1-0.1-0.2c0-0.1,0-0.1,0.1-0.2l11.4-11.5
				c0.1-0.1,0.1-0.1,0.2-0.1c0.1,0,0.3,0.1,0.3,0.3c0,0,0,0,0,0c0,0.1,0,0.1-0.1,0.2L344,151.4C343.9,151.5,343.8,151.5,343.8,151.5
				z"/>
			<path class="st2" d="M369.1,150.9c-3,0-5.4-2.4-5.4-5.4s2.4-5.4,5.4-5.4s5.4,2.4,5.4,5.4c0,1.4-0.6,2.8-1.6,3.8
				C371.9,150.3,370.6,150.9,369.1,150.9z M369.1,140.7c-2,0-3.7,1.2-4.4,3c-1,2.5,0.1,5.3,2.6,6.3c0.3,0.1,0.6,0.2,0.9,0.3
				c1.9,0.4,3.8-0.4,4.9-2c1.5-2.2,0.9-5.2-1.3-6.7C371,141,370.1,140.7,369.1,140.7L369.1,140.7z"/>
			<path class="st2" d="M384.6,151.5c-0.1,0-0.1,0-0.2-0.1c-0.1-0.1-0.1-0.1-0.1-0.2c0-0.1,0-0.1,0.1-0.2l11.5-11.5l0.1-0.1h0.1
				c0,0,0.1,0,0.1,0c0.1,0,0.1,0.1,0.1,0.1c0,0,0,0.1,0,0.1c0,0,0,0.1,0,0.1l-0.1,0.1l-11.5,11.5l-0.1,0.1
				C384.7,151.5,384.6,151.5,384.6,151.5z"/>
			<path class="st2" d="M410,150.9c-2.2,0-4.2-1.3-5-3.3c-0.4-1-0.5-2.1-0.3-3.1c0.6-2.9,3.4-4.8,6.3-4.2c1.4,0.3,2.6,1.1,3.4,2.3
				c1.7,2.5,1,5.8-1.5,7.5C412.1,150.5,411,150.9,410,150.9L410,150.9z M410,140.7c-1,0-1.9,0.3-2.7,0.8c-0.8,0.5-1.4,1.3-1.8,2.2
				c-1,2.5,0.2,5.3,2.6,6.3c0.3,0.1,0.6,0.2,0.9,0.3c0.9,0.2,1.9,0.1,2.8-0.3c2.5-1,3.6-3.8,2.6-6.3
				C413.7,141.8,412,140.7,410,140.7L410,140.7z"/>
			<path class="st2" d="M247.6,150.9c-3,0-5.4-2.4-5.4-5.4c0-2.6,1.8-4.7,4.3-5.3c1-0.2,2.1-0.1,3.1,0.3c2.8,1.1,4.1,4.3,2.9,7
				C251.7,149.5,249.8,150.8,247.6,150.9L247.6,150.9z M247.6,140.7c-1,0-1.9,0.3-2.7,0.8c-0.8,0.5-1.4,1.3-1.8,2.2
				c-0.4,0.9-0.5,1.8-0.3,2.8c0.2,0.9,0.6,1.8,1.3,2.5c0.7,0.7,1.5,1.1,2.5,1.3c2.6,0.5,5.2-1.1,5.7-3.7c0.5-2.6-1.1-5.2-3.7-5.7
				C248.2,140.7,247.9,140.7,247.6,140.7L247.6,140.7z"/>
			<path class="st2" d="M241.8,171.7c-0.1,0-0.1,0-0.2-0.1c0,0-0.1-0.1-0.1-0.1c0,0,0-0.1,0-0.1c0-0.1,0-0.1,0.1-0.2l11.5-11.5
				c0.1-0.1,0.1-0.1,0.2-0.1c0.1,0,0.1,0,0.2,0.1c0.1,0,0.1,0.1,0.1,0.2c0,0.1,0,0.1-0.1,0.2L242,171.6
				C242,171.6,241.9,171.7,241.8,171.7z"/>
			<path class="st2" d="M267.2,171c-3,0-5.4-2.4-5.4-5.4c0-2.6,1.8-4.8,4.4-5.3c2.9-0.6,5.8,1.3,6.3,4.2c0.4,1.8-0.2,3.6-1.5,4.9
				C270,170.4,268.6,171,267.2,171z M267.2,160.8c-2.7,0-4.8,2.1-4.8,4.8c0,0.3,0,0.6,0.1,1c0.5,2.6,3.1,4.3,5.7,3.8
				c0.3-0.1,0.6-0.2,0.9-0.3c0.9-0.4,1.6-1,2.2-1.8c1.5-2.2,0.9-5.2-1.3-6.7C269.1,161.1,268.2,160.8,267.2,160.8L267.2,160.8z"/>
			<path class="st2" d="M282.6,171.7c-0.1,0-0.1,0-0.2-0.1c0,0-0.1-0.1-0.1-0.1c0,0,0-0.1,0-0.1c0-0.1,0-0.1,0.1-0.2l11.5-11.5
				c0,0,0.1,0,0.1-0.1c0,0,0.1,0,0.1,0h0.1l0.1,0.1c0,0,0,0.1,0.1,0.1c0,0,0,0.1,0,0.1c0,0,0,0.1,0,0.1c0,0,0,0.1-0.1,0.1
				l-11.5,11.5C282.8,171.6,282.7,171.7,282.6,171.7z"/>
			<path class="st2" d="M308,171c-2.2,0-4.2-1.3-5-3.3c-0.8-2-0.4-4.3,1.2-5.9c2.1-2.1,5.5-2.1,7.6,0c0.3,0.3,0.5,0.5,0.7,0.8
				c0.6,0.9,0.9,1.9,0.9,3C313.4,168.6,311,171,308,171z M308,160.8c-1,0-1.9,0.3-2.7,0.8c-2.2,1.5-2.8,4.5-1.3,6.7
				c0.2,0.3,0.4,0.5,0.6,0.7c0.7,0.7,1.5,1.1,2.5,1.3c2.6,0.5,5.2-1.1,5.7-3.7s-1.1-5.2-3.7-5.7C308.7,160.8,308.4,160.8,308,160.8
				L308,160.8z"/>
			<path class="st2" d="M323.5,171.7c-0.1,0-0.1,0-0.2-0.1c0,0,0-0.1-0.1-0.1c0,0,0-0.1,0-0.1c0,0,0-0.1,0-0.1c0,0,0-0.1,0.1-0.1
				l11.5-11.5c0.1-0.1,0.1-0.1,0.2-0.1c0.1,0,0.1,0,0.2,0.1c0.1,0.1,0.1,0.1,0.1,0.2c0,0.1,0,0.1-0.1,0.2l-11.5,11.5
				C323.6,171.6,323.5,171.7,323.5,171.7z"/>
			<path class="st2" d="M348.9,171c-2.2,0-4.2-1.3-5-3.3c-0.8-2-0.4-4.3,1.2-5.9c2.1-2.1,5.5-2.1,7.6,0c0.3,0.3,0.5,0.5,0.7,0.8
				c0.6,0.9,0.9,1.9,0.9,3C354.2,168.6,351.8,171,348.9,171L348.9,171z M348.9,160.8c-1,0-1.9,0.3-2.7,0.8c-1.6,1.1-2.5,3.1-2,5
				c0.4,1.9,1.9,3.4,3.8,3.8c2.6,0.5,5.2-1.1,5.7-3.7c0.5-2.6-1.1-5.2-3.7-5.7C349.5,160.9,349.2,160.8,348.9,160.8L348.9,160.8z"/>
			<path class="st2" d="M364.3,171.7c-0.1,0-0.1,0-0.2-0.1c0,0,0-0.1-0.1-0.1c0,0,0-0.1,0-0.1c0,0,0-0.1,0-0.1l0.1-0.1l11.5-11.5
				l0.1-0.1h0.1h0.1l0.1,0.1c0,0,0,0.1,0.1,0.1c0,0,0,0.1,0,0.1c0,0,0,0.1,0,0.1c0,0,0,0.1-0.1,0.1l-11.5,11.5
				C364.5,171.6,364.4,171.7,364.3,171.7z"/>
			<path class="st2" d="M389.7,171c-2.2,0-4.2-1.3-5-3.3c-0.8-2-0.4-4.3,1.2-5.9c2.1-2.1,5.5-2.1,7.6,0c0.3,0.3,0.5,0.5,0.7,0.8
				c0.6,0.9,0.9,1.9,0.9,3C395.1,168.6,392.7,171,389.7,171z M389.7,160.8c-1,0-1.9,0.3-2.7,0.8c-2.2,1.5-2.8,4.5-1.3,6.7
				c0.2,0.3,0.4,0.5,0.6,0.7c0.7,0.7,1.5,1.1,2.5,1.3c2.6,0.5,5.2-1.1,5.7-3.7c0.5-2.6-1.1-5.2-3.7-5.7
				C390.4,160.8,390,160.8,389.7,160.8z"/>
			<path class="st2" d="M405.1,171.7c-0.1,0-0.2,0-0.2-0.1c0,0-0.1-0.1-0.1-0.1c0,0,0-0.1,0-0.1c0,0,0-0.1,0-0.1c0,0,0-0.1,0.1-0.1
				l11.5-11.5c0.1-0.1,0.1-0.1,0.2-0.1c0.1,0,0.1,0,0.2,0.1c0.1,0.1,0.1,0.1,0.1,0.2c0,0.1,0,0.1-0.1,0.2l-11.5,11.5
				C405.3,171.6,405.2,171.7,405.1,171.7z"/>
			<path class="st2" d="M262.1,193c-0.1,0-0.1,0-0.2-0.1c-0.1-0.1-0.1-0.1-0.1-0.2c0-0.1,0-0.1,0.1-0.2l11.5-11.5
				c0.1-0.1,0.3-0.1,0.4,0c0.1,0.1,0.1,0.3,0,0.4c0,0,0,0,0,0l-11.5,11.5c0,0-0.1,0-0.1,0.1C262.2,193,262.1,193,262.1,193z"/>
			<path class="st2" d="M287.5,192.3c-3,0-5.4-2.4-5.4-5.4c0-0.4,0-0.7,0.1-1c0.4-2.1,2.1-3.8,4.2-4.2c2.1-0.4,4.3,0.5,5.5,2.3
				c1.7,2.5,1,5.8-1.5,7.5C289.6,192,288.6,192.3,287.5,192.3z M287.5,182.1c-2.7,0-4.8,2.1-4.8,4.8c0,0.3,0,0.6,0.1,1
				c0.4,1.9,1.9,3.4,3.8,3.8c2.6,0.5,5.2-1.1,5.7-3.7s-1.1-5.2-3.7-5.7C288.2,182.2,287.8,182.1,287.5,182.1z"/>
			<path class="st2" d="M302.9,193c-0.1,0-0.1,0-0.2-0.1c-0.1-0.1-0.1-0.1-0.1-0.2c0-0.1,0-0.1,0.1-0.2l11.5-11.5
				c0.1-0.1,0.1-0.1,0.2-0.1c0.1,0,0.3,0.1,0.3,0.3c0,0.1,0,0.1-0.1,0.2l-11.5,11.5C303.1,192.9,303,193,302.9,193z"/>
			<path class="st2" d="M328.3,192.3c-3,0-5.4-2.4-5.4-5.4c0-0.4,0-0.7,0.1-1c0.4-2.1,2.1-3.8,4.2-4.2c2.1-0.4,4.3,0.5,5.5,2.3
				c1.7,2.5,1,5.8-1.5,7.5C330.4,192,329.4,192.3,328.3,192.3z M328.3,182.1c-2.7,0-4.8,2.1-4.8,4.8c0,1.3,0.5,2.5,1.4,3.4
				c0.7,0.7,1.5,1.1,2.5,1.3c0.9,0.2,1.9,0.1,2.8-0.3c0.9-0.4,1.6-1,2.2-1.8c1.5-2.2,0.9-5.2-1.3-6.7
				C330.2,182.4,329.3,182.1,328.3,182.1L328.3,182.1z"/>
			<path class="st2" d="M343.8,193c-0.1,0-0.1,0-0.2-0.1c-0.1-0.1-0.1-0.1-0.1-0.2c0-0.1,0-0.1,0.1-0.2L355,181
				c0.1-0.1,0.1-0.1,0.2-0.1c0.1,0,0.3,0.1,0.3,0.3c0,0.1,0,0.1-0.1,0.2L344,192.9C344,193,343.9,193,343.8,193z"/>
			<path class="st2" d="M369.1,192.3c-1.1,0-2.1-0.3-3-0.9c-1.8-1.2-2.7-3.4-2.3-5.5c0.2-1,0.7-2,1.5-2.8c1.5-1.5,3.9-2,5.9-1.2
				c2,0.8,3.3,2.8,3.3,5C374.5,189.9,372.1,192.3,369.1,192.3L369.1,192.3z M369.1,182.1c-2.7,0-4.8,2.2-4.8,4.8
				c0,0.3,0,0.6,0.1,0.9c0.2,0.9,0.7,1.8,1.3,2.5c1.9,1.9,4.9,1.9,6.8,0c1.9-1.9,1.9-4.9,0-6.8C371.7,182.6,370.4,182.1,369.1,182.1
				z"/>
			<path class="st2" d="M384.6,193c-0.1,0-0.1,0-0.2-0.1c-0.1-0.1-0.1-0.1-0.1-0.2c0-0.1,0-0.1,0.1-0.2l11.5-11.5l0.1-0.1h0.1h0.1
				l0.1,0.1c0,0,0,0.1,0.1,0.1c0,0,0,0.1,0,0.1c0,0,0,0.1,0,0.1c0,0,0,0.1-0.1,0.1l-11.5,11.5l-0.1,0.1L384.6,193z"/>
			<path class="st2" d="M410,192.3c-1.1,0-2.1-0.3-3-0.9c-2.5-1.7-3.1-5-1.4-7.5c1.4-2.1,4.1-2.9,6.5-2c2.7,1.2,4,4.3,2.9,7.1
				C414.1,191,412.2,192.3,410,192.3z M410,182.1c-1,0-1.9,0.3-2.7,0.8c-2.2,1.5-2.8,4.5-1.3,6.7c0.2,0.3,0.4,0.5,0.6,0.7
				c0.7,0.7,1.5,1.1,2.5,1.3c0.9,0.2,1.9,0.1,2.8-0.3c0.9-0.4,1.6-1,2.2-1.8c1.5-2.2,0.9-5.2-1.3-6.7
				C411.9,182.4,410.9,182.1,410,182.1z"/>
			<path class="st2" d="M247.6,192.3c-1.1,0-2.1-0.3-3-0.9c-2.5-1.7-3.1-5-1.5-7.5s5-3.1,7.5-1.5c0.6,0.4,1.1,0.9,1.5,1.5
				c1.7,2.5,1,5.8-1.5,7.5C249.6,192,248.6,192.3,247.6,192.3L247.6,192.3z M247.6,182.1c-1,0-1.9,0.3-2.7,0.8
				c-0.8,0.5-1.4,1.3-1.8,2.2c-0.4,0.9-0.5,1.8-0.3,2.8c0.4,1.9,1.9,3.4,3.8,3.8c1.9,0.4,3.9-0.4,5-2c1.3-1.9,1-4.5-0.6-6.1
				C250.1,182.6,248.8,182.1,247.6,182.1L247.6,182.1z"/>
		</g>
		<g>
			<path class="st2" d="M404.1,5.9c-0.1,0-0.1,0-0.2-0.1l-0.1-0.1c0,0,0-0.1,0-0.1c0,0,0-0.1,0-0.1l0.1-0.1L415.4-6
				c0.1-0.1,0.1-0.1,0.2-0.1c0.1,0,0.1,0,0.2,0.1c0.1,0.1,0.1,0.1,0.1,0.2c0,0.1,0,0.1-0.1,0.2L404.4,5.8
				C404.3,5.9,404.2,5.9,404.1,5.9z"/>
			<path class="st2" d="M429.5,5.3c-1.1,0-2.1-0.3-3-0.9c-0.9-0.6-1.6-1.4-2-2.4c-0.4-1-0.5-2.1-0.3-3.1c0.2-1,0.7-2,1.5-2.8
				c0.8-0.7,1.7-1.3,2.8-1.5c1-0.2,2.1-0.1,3.1,0.3c1,0.4,1.8,1.1,2.4,2c0.6,0.9,0.9,1.9,0.9,3c0,1.4-0.6,2.8-1.6,3.8
				C432.3,4.7,431,5.3,429.5,5.3z M429.5-4.9c-1,0-1.9,0.3-2.7,0.8c-0.8,0.5-1.4,1.3-1.8,2.2c-0.4,0.9-0.5,1.9-0.3,2.8
				c0.2,0.9,0.6,1.8,1.3,2.5c0.7,0.7,1.5,1.1,2.5,1.3c0.9,0.2,1.9,0.1,2.8-0.3c0.9-0.4,1.6-1,2.2-1.8c0.5-0.8,0.8-1.7,0.8-2.7
				c0-1.3-0.5-2.5-1.4-3.4C432.1-4.4,430.9-4.9,429.5-4.9L429.5-4.9z"/>
			<path class="st2" d="M445,5.9c-0.1,0-0.2,0-0.2-0.1c0,0,0-0.1-0.1-0.1c0,0,0-0.1,0-0.1c0,0,0-0.1,0-0.1l0.1-0.1L456.2-6
				c0,0,0.1,0,0.1-0.1h0.1h0.1l0.1,0.1c0,0,0.1,0.1,0.1,0.1c0,0,0,0.1,0,0.1c0,0,0,0.1,0,0.1c0,0,0,0.1-0.1,0.1L445.2,5.8
				C445.1,5.9,445.1,5.9,445,5.9z"/>
			<path class="st2" d="M470.4,5.3c-1.1,0-2.1-0.3-3-0.9c-0.9-0.6-1.6-1.4-2-2.4c-0.4-1-0.5-2.1-0.3-3.1c0.2-1,0.7-2,1.5-2.8
				c0.8-0.8,1.7-1.3,2.8-1.5c1-0.2,2.1-0.1,3.1,0.3c1,0.4,1.8,1.1,2.4,2c0.6,0.9,0.9,1.9,0.9,3c0,1.4-0.6,2.8-1.6,3.8
				C473.2,4.7,471.8,5.3,470.4,5.3z M470.4-4.9c-1,0-1.9,0.3-2.7,0.8c-0.8,0.5-1.4,1.3-1.8,2.2c-0.4,0.9-0.5,1.9-0.3,2.8
				c0.2,0.9,0.7,1.8,1.3,2.5c0.7,0.7,1.5,1.1,2.5,1.3c0.9,0.2,1.9,0.1,2.8-0.3c0.9-0.4,1.6-1,2.2-1.8c0.5-0.8,0.8-1.7,0.8-2.7
				c0-1.3-0.5-2.5-1.4-3.4C472.9-4.4,471.7-4.9,470.4-4.9L470.4-4.9z"/>
			<path class="st2" d="M424.4,27.2c-0.1,0-0.1,0-0.2-0.1c-0.1-0.1-0.1-0.1-0.1-0.2c0-0.1,0-0.1,0.1-0.2l11.5-11.5
				c0.1-0.1,0.1-0.1,0.2-0.1c0.1,0,0.1,0,0.2,0.1c0.1,0,0.1,0.1,0.1,0.2c0,0.1,0,0.1-0.1,0.2l-11.5,11.5
				C424.6,27.2,424.5,27.2,424.4,27.2z"/>
			<path class="st2" d="M449.8,26.6c-1.1,0-2.1-0.3-3-0.9c-0.9-0.6-1.6-1.4-2-2.4c-1.1-2.7,0.2-5.9,2.9-7c2.7-1.1,5.9,0.2,7,2.9
				c1.1,2.7-0.2,5.9-2.9,7C451.2,26.5,450.5,26.6,449.8,26.6z M449.8,16.4c-1,0-1.9,0.3-2.7,0.8c-2.2,1.5-2.8,4.5-1.3,6.7
				c0.2,0.3,0.4,0.5,0.6,0.7c0.7,0.7,1.5,1.1,2.5,1.3c2.6,0.5,5.2-1.1,5.7-3.7c0.5-2.6-1.1-5.2-3.7-5.7
				C450.5,16.4,450.2,16.4,449.8,16.4z"/>
			<path class="st2" d="M465.3,27.2c-0.1,0-0.2,0-0.2-0.1c0,0-0.1-0.1-0.1-0.1c0-0.1,0-0.1,0.1-0.2l11.5-11.5c0.1,0,0.1-0.1,0.2-0.1
				c0.1,0,0.1,0,0.2,0.1c0.1,0.1,0.1,0.1,0.1,0.2c0,0.1,0,0.1-0.1,0.2l-11.5,11.4C465.4,27.2,465.4,27.2,465.3,27.2z"/>
			<path class="st2" d="M409.9,26.6c-2.2,0-4.2-1.3-5-3.3c-0.8-2-0.4-4.3,1.2-5.9c0.8-0.8,1.7-1.3,2.8-1.5c2.1-0.4,4.3,0.5,5.5,2.3
				c1.4,2.1,1.1,5-0.7,6.8C412.7,26,411.3,26.6,409.9,26.6z M409.9,16.4c-1,0-1.9,0.3-2.7,0.8c-1.6,1.1-2.4,3-2,4.9
				c0.4,1.9,1.9,3.4,3.8,3.8c2.6,0.5,5.2-1.1,5.7-3.7c0.5-2.6-1.1-5.2-3.7-5.7C410.6,16.4,410.3,16.4,409.9,16.4L409.9,16.4z"/>
			<path class="st2" d="M404.1,47.4c-0.1,0-0.1,0-0.2-0.1l-0.1-0.1c0,0,0-0.1,0-0.1c0,0,0-0.1,0-0.1l0.1-0.1l11.5-11.5
				c0.1,0,0.1-0.1,0.2-0.1c0.1,0,0.1,0,0.2,0.1c0.1,0.1,0.1,0.1,0.1,0.2c0,0.1,0,0.1-0.1,0.2l-11.5,11.5
				C404.3,47.4,404.2,47.4,404.1,47.4z"/>
			<path class="st2" d="M429.5,46.8c-2.2,0-4.2-1.3-5-3.3c-0.8-2-0.4-4.3,1.2-5.9c2.1-2.1,5.5-2.1,7.6,0c0.3,0.3,0.5,0.5,0.7,0.8
				c0.6,0.9,0.9,1.9,0.9,3C434.9,44.4,432.5,46.8,429.5,46.8L429.5,46.8z M429.5,36.6c-2.7,0-4.8,2.2-4.8,4.8c0,0.3,0,0.6,0.1,0.9
				c0.2,0.9,0.6,1.8,1.3,2.5c1.4,1.4,3.5,1.8,5.2,1c2.5-1,3.6-3.8,2.6-6.3C433.2,37.7,431.5,36.5,429.5,36.6L429.5,36.6z"/>
			<path class="st2" d="M445,47.4c-0.1,0-0.2,0-0.2-0.1l-0.1-0.1c0,0,0-0.1,0-0.1c0,0,0-0.1,0-0.1l0.1-0.1l11.5-11.5l0.1-0.1h0.1
				h0.1c0.1,0,0.1,0.1,0.2,0.2c0,0,0,0.1,0,0.1c0,0,0,0.1,0,0.1c0,0,0,0.1-0.1,0.1l-11.5,11.5C445.1,47.4,445.1,47.4,445,47.4z"/>
			<path class="st2" d="M470.4,46.8c-2.2,0-4.2-1.3-5-3.3c-0.4-1-0.5-2.1-0.3-3.1c0.6-2.9,3.5-4.8,6.4-4.2c0.3,0.1,0.7,0.2,1,0.3
				c2.7,1.1,4.1,4.3,2.9,7c-0.3,0.7-0.7,1.2-1.2,1.7C473.2,46.2,471.8,46.8,470.4,46.8z M470.4,36.6c-1,0-1.9,0.3-2.7,0.8
				c-0.8,0.5-1.4,1.3-1.8,2.2c-0.4,0.9-0.5,1.8-0.3,2.8c0.4,1.9,1.9,3.4,3.8,3.8c2.6,0.5,5.1-1.2,5.7-3.8c0.5-2.6-1.2-5.1-3.8-5.7
				C471,36.6,470.7,36.6,470.4,36.6L470.4,36.6z"/>
			<path class="st2" d="M424.4,68.7c-0.1,0-0.1,0-0.2-0.1c-0.1-0.1-0.1-0.1-0.1-0.2c0-0.1,0-0.1,0.1-0.2l11.5-11.5
				c0.1-0.1,0.1-0.1,0.2-0.1c0.1,0,0.1,0,0.2,0.1c0.1,0.1,0.1,0.1,0.1,0.2c0,0.1,0,0.2-0.1,0.2l-11.5,11.5l-0.1,0.1L424.4,68.7z"/>
			<path class="st2" d="M449.8,68.1c-2.2,0-4.2-1.3-5-3.3c-1.1-2.8,0.2-5.9,2.9-7.1c0.3-0.1,0.6-0.2,1-0.3c2.1-0.4,4.3,0.5,5.5,2.3
				c1.4,2.1,1.2,5-0.7,6.8C452.6,67.5,451.3,68.1,449.8,68.1z M449.8,57.9c-1,0-1.9,0.3-2.7,0.8c-0.8,0.5-1.4,1.3-1.8,2.2
				c-0.4,0.9-0.5,1.8-0.3,2.8c0.2,0.9,0.7,1.8,1.3,2.5c1.4,1.4,3.5,1.8,5.2,1c0.9-0.4,1.6-1,2.2-1.8c1.5-2.2,0.9-5.2-1.3-6.7
				C451.7,58.1,450.8,57.8,449.8,57.9L449.8,57.9z"/>
			<path class="st2" d="M465.3,68.7c-0.1,0-0.3-0.1-0.3-0.2c0,0,0,0,0,0c0-0.1,0-0.1,0.1-0.2l11.5-11.5c0.1-0.1,0.1-0.1,0.2-0.1
				c0.1,0,0.1,0,0.2,0.1c0.1,0.1,0.1,0.1,0.1,0.2c0,0.1,0,0.1-0.1,0.2l-11.5,11.5C465.4,68.7,465.4,68.7,465.3,68.7z"/>
			<path class="st2" d="M409.9,68.1c-2.2,0-4.2-1.3-5-3.3c-0.8-2-0.4-4.3,1.2-5.9c0.8-0.8,1.7-1.3,2.8-1.5c2.9-0.6,5.8,1.3,6.3,4.3
				c0.6,2.9-1.3,5.8-4.3,6.3C410.5,68,410.2,68.1,409.9,68.1L409.9,68.1z M409.9,57.9c-1,0-1.9,0.3-2.7,0.8c-1.6,1.1-2.4,3-2,5
				c0.2,0.9,0.6,1.8,1.3,2.5c1.4,1.4,3.5,1.8,5.2,1c0.9-0.4,1.6-1,2.2-1.8c1.5-2.2,0.9-5.2-1.3-6.7
				C411.8,58.1,410.9,57.8,409.9,57.9L409.9,57.9z"/>
			<path class="st2" d="M404.1,88.9c0,0-0.1,0-0.1,0c0,0-0.1,0-0.1-0.1l-0.1-0.1c0,0,0-0.1,0-0.1c0,0,0-0.1,0-0.1l0.1-0.1l11.5-11.5
				c0.1-0.1,0.1-0.1,0.2-0.1c0.1,0,0.2,0,0.2,0.1c0,0,0.1,0.1,0.1,0.1c0,0,0,0.1,0,0.1c0,0,0,0.1,0,0.1l-0.1,0.1l-11.5,11.4
				c0,0-0.1,0-0.1,0.1C404.2,88.9,404.2,88.9,404.1,88.9z"/>
			<path class="st2" d="M429.5,88.2c-1.1,0-2.1-0.3-3-0.9c-2.5-1.7-3.1-5-1.4-7.5c1.4-2.1,4.1-2.9,6.5-2c2,0.8,3.3,2.8,3.3,5
				C434.9,85.8,432.5,88.3,429.5,88.2L429.5,88.2z M429.5,78c-1,0-1.9,0.3-2.7,0.8c-0.8,0.5-1.4,1.3-1.8,2.2
				c-0.4,0.9-0.5,1.8-0.3,2.8c0.2,0.9,0.6,1.8,1.3,2.5c0.7,0.7,1.5,1.1,2.5,1.3c2.6,0.5,5.2-1.1,5.7-3.7c0.5-2.6-1.1-5.2-3.7-5.7
				C430.2,78.1,429.9,78,429.5,78L429.5,78z"/>
			<path class="st2" d="M445,88.9c0,0-0.1,0-0.1,0c0,0-0.1,0-0.1-0.1l-0.1-0.1c0,0,0-0.1,0-0.1c0,0,0-0.1,0-0.1l0.1-0.1l11.5-11.5
				c0.1-0.1,0.1-0.1,0.2-0.1c0.1,0,0.2,0,0.2,0.1l0.1,0.1c0,0,0,0.1,0,0.1c0,0,0,0.1,0,0.1l-0.1,0.1l-11.5,11.4
				C445.2,88.8,445.1,88.8,445,88.9C445.1,88.9,445,88.9,445,88.9z"/>
			<path class="st2" d="M470.4,88.2c-1.1,0-2.1-0.3-3-0.9c-2.5-1.7-3.1-5-1.5-7.5s5-3.1,7.5-1.5s3.1,5,1.5,7.5
				c-0.2,0.3-0.4,0.6-0.7,0.8C473.2,87.7,471.8,88.2,470.4,88.2z M470.4,78c-2,0-3.7,1.2-4.5,3c-0.8,1.8-0.4,3.9,1,5.2
				c1.9,1.9,4.9,1.9,6.8,0c0.2-0.2,0.4-0.5,0.6-0.8c1.5-2.2,0.9-5.2-1.3-6.7C472.2,78.3,471.3,78.1,470.4,78L470.4,78z"/>
			<path class="st2" d="M424.4,110.2c-0.1,0-0.3-0.1-0.3-0.3c0,0,0,0,0,0c0-0.1,0-0.1,0.1-0.2l11.5-11.5c0.1-0.1,0.1-0.1,0.2-0.1
				c0.1,0,0.1,0,0.2,0.1c0.1,0.1,0.1,0.1,0.1,0.2c0,0.1,0,0.1-0.1,0.2l-11.5,11.5c0,0-0.1,0-0.1,0.1L424.4,110.2z"/>
			<path class="st2" d="M449.8,109.5c-2.2,0-4.2-1.3-5-3.3c-1.1-2.7,0.2-5.9,2.9-7c2.7-1.1,5.9,0.2,7,2.9s-0.2,5.9-2.9,7
				C451.2,109.4,450.5,109.5,449.8,109.5z M449.8,99.3c-1,0-1.9,0.3-2.7,0.8c-0.8,0.5-1.4,1.3-1.8,2.2c-1,2.5,0.2,5.3,2.6,6.3
				s5.3-0.2,6.3-2.6c1-2.5-0.2-5.3-2.6-6.3C451.1,99.4,450.5,99.3,449.8,99.3L449.8,99.3z"/>
			<path class="st2" d="M465.3,110.2c-0.1,0-0.2,0-0.2-0.1c0-0.1-0.1-0.1-0.1-0.2c0-0.1,0-0.1,0.1-0.2l11.5-11.5
				c0.1-0.1,0.1-0.1,0.2-0.1c0.1,0,0.1,0,0.2,0.1c0.1,0.1,0.1,0.1,0.1,0.2c0,0.1,0,0.1-0.1,0.2l-11.5,11.5
				C465.4,110.1,465.4,110.2,465.3,110.2z"/>
			<path class="st2" d="M409.9,109.5c-3,0-5.4-2.4-5.4-5.4c0-2.6,1.8-4.7,4.3-5.3c2.9-0.6,5.8,1.3,6.3,4.2c0.1,0.3,0.1,0.7,0.1,1
				C415.3,107.1,412.9,109.5,409.9,109.5z M409.9,99.3c-2,0-3.7,1.2-4.5,3c-0.4,0.9-0.5,1.8-0.3,2.8c0.2,0.9,0.6,1.8,1.3,2.5
				c1.4,1.4,3.5,1.8,5.2,1c2.5-1,3.6-3.8,2.6-6.3C413.6,100.5,411.8,99.3,409.9,99.3L409.9,99.3z"/>
			<path class="st2" d="M404.1,130.3H404l-0.1-0.1l-0.1-0.1c0,0,0-0.1,0-0.1c0,0,0-0.1,0-0.1l0.1-0.1l11.5-11.5
				c0.1-0.1,0.1-0.1,0.2-0.1c0.1,0,0.1,0,0.2,0.1l0.1,0.1c0,0,0,0.1,0,0.1c0,0,0,0.1,0,0.1c0,0,0,0.1-0.1,0.1l-11.5,11.5l-0.1,0.1
				H404.1z"/>
			<path class="st2" d="M429.5,129.7c-1.1,0-2.1-0.3-3-0.9c-0.9-0.6-1.6-1.4-2-2.4c-1.1-2.7,0.2-5.9,2.9-7s5.9,0.2,7,2.9
				c1.1,2.7-0.2,5.9-2.9,7C430.9,129.5,430.2,129.7,429.5,129.7L429.5,129.7z M429.5,119.5c-1,0-1.9,0.3-2.7,0.8
				c-1.6,1.1-2.5,3.1-2,5c0.4,1.9,1.9,3.3,3.8,3.7c2.6,0.5,5.2-1.1,5.7-3.7c0.5-2.6-1.1-5.2-3.7-5.7
				C430.2,119.5,429.9,119.5,429.5,119.5L429.5,119.5z"/>
			<path class="st2" d="M445,130.3h-0.1l-0.1-0.1l-0.1-0.1c0,0,0-0.1,0-0.1c0,0,0-0.1,0-0.1l0.1-0.1l11.5-11.5
				c0.1,0,0.1-0.1,0.2-0.1c0.1,0,0.2,0,0.2,0.1l0.1,0.1c0,0,0,0.1,0,0.1c0,0,0,0.1,0,0.1l-0.1,0.1l-11.5,11.5l-0.1,0.1H445z"/>
			<path class="st2" d="M470.4,129.7c-1.1,0-2.1-0.3-3-0.9c-1.8-1.2-2.7-3.4-2.3-5.5c0.6-2.9,3.4-4.8,6.3-4.2c0.3,0.1,0.7,0.2,1,0.3
				c2,0.8,3.3,2.8,3.3,5C475.7,127.3,473.3,129.7,470.4,129.7L470.4,129.7z M470.4,119.5c-2.7,0-4.8,2.1-4.8,4.8
				c0,1.3,0.5,2.5,1.4,3.4c0.7,0.7,1.5,1.1,2.5,1.3c2.6,0.5,5.2-1.1,5.7-3.7c0.5-2.6-1.1-5.2-3.7-5.7
				C471.1,119.5,470.7,119.5,470.4,119.5z"/>
		</g>
		<g>
			<path class="st2" d="M404.1,130.2c-0.1,0-0.1,0-0.2-0.1l-0.1-0.1c0,0,0-0.1,0-0.1c0,0,0-0.1,0-0.1l0.1-0.1l11.5-11.5
				c0.1,0,0.1-0.1,0.2-0.1c0.1,0,0.1,0,0.2,0.1c0.1,0.1,0.1,0.1,0.1,0.2c0,0.1,0,0.1-0.1,0.2l-11.5,11.5
				C404.3,130.2,404.2,130.2,404.1,130.2z"/>
			<path class="st2" d="M429.5,129.6c-2.2,0-4.2-1.3-5-3.3c-0.4-1-0.5-2.1-0.3-3.1c0.2-1,0.7-2,1.5-2.8c2.1-2.1,5.5-2.1,7.6,0
				c0.3,0.3,0.5,0.5,0.7,0.8c0.6,0.9,0.9,1.9,0.9,3C434.9,127.2,432.5,129.6,429.5,129.6L429.5,129.6z M429.5,119.3
				c-1,0-1.9,0.3-2.7,0.8c-0.8,0.5-1.4,1.3-1.8,2.2c-0.7,1.8-0.3,3.9,1,5.2c1.4,1.4,3.5,1.8,5.2,1c2.5-1,3.6-3.8,2.6-6.3
				C433.3,120.5,431.5,119.3,429.5,119.3L429.5,119.3z"/>
			<path class="st2" d="M445,130.2c-0.1,0-0.2,0-0.2-0.1l-0.1-0.1c0,0,0-0.1,0-0.1c0,0,0-0.1,0-0.1l0.1-0.1l11.5-11.5l0.1-0.1h0.1
				h0.1c0,0,0.1,0,0.1,0.1c0.1,0.1,0.1,0.1,0.1,0.2c0,0,0,0.1,0,0.1c0,0,0,0.1-0.1,0.1l-11.5,11.5
				C445.2,130.2,445.1,130.2,445,130.2z"/>
			<path class="st2" d="M470.4,129.6c-3,0-5.4-2.4-5.4-5.4c0-3,2.4-5.4,5.4-5.4c0.7,0,1.4,0.1,2.1,0.4c1,0.4,1.8,1.1,2.4,2
				c1.7,2.5,1,5.8-1.5,7.5C472.5,129.3,471.4,129.6,470.4,129.6L470.4,129.6z M470.4,119.3c-2.7,0-4.8,2.1-4.9,4.8s2.1,4.8,4.8,4.9
				c2.7,0,4.8-2.1,4.9-4.8c0-1.3-0.5-2.5-1.4-3.4C472.9,119.9,471.7,119.4,470.4,119.3z"/>
			<path class="st2" d="M424.4,151.5c-0.1,0-0.1,0-0.2-0.1c-0.1-0.1-0.1-0.1-0.1-0.2c0-0.1,0-0.1,0.1-0.2l11.5-11.5
				c0.1-0.1,0.1-0.1,0.2-0.1c0.2,0,0.3,0.1,0.3,0.3c0,0.1,0,0.1-0.1,0.2l-11.5,11.5C424.6,151.5,424.5,151.5,424.4,151.5z"/>
			<path class="st2" d="M449.8,150.9c-2.2,0-4.2-1.3-5-3.3c-0.4-1-0.5-2.1-0.3-3.1c0.6-2.9,3.4-4.8,6.3-4.2c1.4,0.3,2.6,1.1,3.4,2.3
				c1.7,2.5,1,5.8-1.5,7.5C451.9,150.5,450.9,150.9,449.8,150.9L449.8,150.9z M449.8,140.7c-1,0-1.9,0.3-2.7,0.8
				c-0.8,0.5-1.4,1.3-1.8,2.2c-1,2.5,0.2,5.3,2.6,6.3c0.3,0.1,0.6,0.2,0.9,0.3c0.9,0.2,1.9,0.1,2.8-0.3c2.5-1,3.6-3.8,2.6-6.3
				C453.6,141.8,451.8,140.7,449.8,140.7L449.8,140.7z"/>
			<path class="st2" d="M465.3,151.5c-0.1,0-0.2,0-0.2-0.1c-0.1-0.1-0.1-0.1-0.1-0.2c0-0.1,0-0.1,0.1-0.2l11.5-11.5
				c0.1,0,0.1-0.1,0.2-0.1c0.1,0,0.1,0,0.2,0.1c0,0.1,0.1,0.1,0.1,0.2c0,0.1,0,0.1-0.1,0.2l-11.5,11.5
				C465.4,151.5,465.4,151.5,465.3,151.5z"/>
			<path class="st2" d="M409.9,150.9c-1.1,0-2.1-0.3-3-0.9c-2.5-1.7-3.1-5-1.5-7.5c1.4-2.1,4.1-2.9,6.5-2c2.8,1.1,4.1,4.3,2.9,7
				C414,149.5,412.1,150.9,409.9,150.9L409.9,150.9z M409.9,140.7c-1,0-1.9,0.3-2.7,0.8c-0.8,0.5-1.4,1.3-1.8,2.2
				c-0.4,0.9-0.5,1.8-0.3,2.8c0.2,0.9,0.6,1.8,1.3,2.5c1.9,1.9,4.9,1.9,6.8,0c0.2-0.2,0.4-0.5,0.6-0.8c1.5-2.2,0.9-5.2-1.3-6.7
				C411.8,140.9,410.8,140.7,409.9,140.7L409.9,140.7z"/>
			<path class="st2" d="M404.1,171.7c-0.1,0-0.1,0-0.2-0.1l-0.1-0.1c0,0,0-0.1,0-0.1c0,0,0-0.1,0-0.1l0.1-0.1l11.5-11.5
				c0.1-0.1,0.1-0.1,0.2-0.1c0.1,0,0.1,0,0.2,0.1c0.1,0.1,0.1,0.1,0.1,0.2c0,0.1,0,0.1-0.1,0.2l-11.5,11.5
				C404.3,171.6,404.2,171.7,404.1,171.7z"/>
			<path class="st2" d="M429.5,171c-2.2,0-4.2-1.3-5-3.3c-0.8-2-0.4-4.3,1.2-5.9c2.1-2.1,5.5-2.1,7.6,0c0.3,0.3,0.5,0.5,0.7,0.8
				c0.6,0.9,0.9,1.9,0.9,3C434.9,168.6,432.5,171,429.5,171L429.5,171z M429.5,160.8c-1,0-1.9,0.3-2.7,0.8c-1.6,1.1-2.5,3.1-2,5
				c0.4,1.9,1.9,3.4,3.8,3.8c2.6,0.5,5.2-1.1,5.7-3.7c0.5-2.6-1.1-5.2-3.7-5.7C430.2,160.9,429.9,160.8,429.5,160.8L429.5,160.8z"/>
			<path class="st2" d="M445,171.7c-0.1,0-0.2,0-0.2-0.1c0,0,0-0.1-0.1-0.1c0,0,0-0.1,0-0.1c0,0,0-0.1,0-0.1l0.1-0.1l11.5-11.5
				c0,0,0.1,0,0.1-0.1h0.1h0.1l0.1,0.1c0,0,0.1,0.1,0.1,0.1c0,0,0,0.1,0,0.1c0,0,0,0.1,0,0.1c0,0,0,0.1-0.1,0.1l-11.5,11.5
				C445.2,171.6,445.1,171.7,445,171.7z"/>
			<path class="st2" d="M470.4,171c-2.2,0-4.2-1.3-5-3.3c-0.4-1-0.5-2.1-0.3-3.1c0.6-2.9,3.4-4.8,6.3-4.2c0.3,0.1,0.7,0.2,1,0.3
				c2.8,1.1,4.1,4.3,2.9,7C474.5,169.7,472.6,171,470.4,171z M470.4,160.8c-2.7,0-4.8,2.2-4.8,4.8c0,0.3,0,0.6,0.1,0.9
				c0.2,0.9,0.7,1.8,1.3,2.5c0.7,0.7,1.5,1.1,2.5,1.3c2.6,0.5,5.2-1.1,5.7-3.7s-1.1-5.2-3.7-5.7
				C471.1,160.8,470.7,160.8,470.4,160.8z"/>
			<path class="st2" d="M424.4,193c-0.1,0-0.1,0-0.2-0.1c-0.1-0.1-0.1-0.1-0.1-0.2c0-0.1,0-0.1,0.1-0.2l11.5-11.5
				c0.1-0.1,0.1-0.1,0.2-0.1c0.1,0,0.1,0,0.2,0.1c0.1,0,0.1,0.1,0.1,0.2c0,0.1,0,0.1-0.1,0.2l-11.5,11.5c0,0-0.1,0-0.1,0.1
				C424.5,193,424.5,193,424.4,193z"/>
			<path class="st2" d="M449.8,192.3c-1.1,0-2.1-0.3-3-0.9c-2.4-1.7-2.9-5.1-1.2-7.5c1.4-2,4-2.7,6.3-1.9c2.7,1.2,4,4.3,2.9,7.1
				C453.9,191,452,192.3,449.8,192.3L449.8,192.3z M449.8,182.1c-1,0-1.9,0.3-2.7,0.8c-2.2,1.5-2.8,4.5-1.3,6.7
				c0.2,0.3,0.4,0.5,0.6,0.7c0.7,0.7,1.5,1.1,2.5,1.3c0.9,0.2,1.9,0.1,2.8-0.3c0.9-0.4,1.6-1,2.2-1.8c1.5-2.2,0.9-5.2-1.3-6.7
				C451.7,182.4,450.8,182.1,449.8,182.1z"/>
			<path class="st2" d="M465.3,193c-0.1,0-0.2,0-0.2-0.1c-0.1-0.1-0.1-0.1-0.1-0.2c0-0.1,0-0.1,0.1-0.2l11.5-11.5
				c0.1,0,0.1-0.1,0.2-0.1c0.1,0,0.1,0,0.2,0.1c0.1,0.1,0.1,0.1,0.1,0.2c0,0.1,0,0.1-0.1,0.2l-11.5,11.5
				C465.4,192.9,465.4,193,465.3,193z"/>
			<path class="st2" d="M409.9,192.3c-2.2,0-4.2-1.3-5-3.3c-0.8-2-0.4-4.3,1.2-5.9c0.8-0.8,1.7-1.3,2.8-1.5c2.1-0.4,4.3,0.5,5.5,2.3
				c1.4,2.1,1.1,5-0.7,6.8C412.7,191.7,411.3,192.3,409.9,192.3z M409.9,182.1c-1,0-1.9,0.3-2.7,0.8c-0.8,0.5-1.4,1.3-1.8,2.2
				c-0.4,0.9-0.5,1.8-0.3,2.8c0.4,1.9,1.9,3.4,3.8,3.8c2.6,0.5,5.2-1.1,5.7-3.7c0.5-2.6-1.1-5.2-3.7-5.7
				C410.6,182.2,410.2,182.1,409.9,182.1L409.9,182.1z"/>
		</g>
	</g>
</g>
</svg>
