<?xml version="1.0" encoding="UTF-8" standalone="no"?>
<svg width="474px" height="185px" viewBox="0 0 474 185" version="1.1" xmlns="http://www.w3.org/2000/svg" xmlns:xlink="http://www.w3.org/1999/xlink" xmlns:sketch="http://www.bohemiancoding.com/sketch/ns">
    <!-- Generator: Sketch 3.3.2 (12043) - http://www.bohemiancoding.com/sketch -->
    <title>Group</title>
    <desc>Created with Sketch.</desc>
    <defs></defs>
    <g id="Page-1" stroke="none" stroke-width="1" fill="none" fill-rule="evenodd" sketch:type="MSPage" opacity="0.25">
        <g id="Group" sketch:type="MSLayerGroup" transform="translate(-10.000000, -18.000000)" fill="#FFFFFF">
            <g id="logo-icon" transform="translate(189.500000, 110.500000) rotate(-27.000000) translate(-189.500000, -110.500000) translate(148.000000, 55.500000)" sketch:type="MSShapeGroup" opacity="0.8">
                <g id="Page-1">
                    <g id="assets-icon-256x256">
                        <g id="Group">
                            <g id="Shape">
                                <path d="M16.6,52.4902913 C16.6,58.5776699 22.1865385,63.4902913 29.1032051,63.4902913 C35.9666667,63.4902913 41.6064103,58.5776699 41.6064103,52.4902913 C41.6064103,46.4029126 36.0198718,41.4902913 29.1032051,41.4902913 C22.2397436,41.4902913 16.6,46.4029126 16.6,52.4902913 L16.6,52.4902913 L16.6,52.4902913 Z M23.5166667,52.4902913 C23.5166667,49.7669903 26.0173077,47.5776699 29.1032051,47.5776699 C32.1891026,47.5776699 34.6897436,49.7669903 34.6897436,52.4902913 C34.6897436,55.2135922 32.1891026,57.4029126 29.1032051,57.4029126 C26.0173077,57.4029126 23.5166667,55.2135922 23.5166667,52.4902913 L23.5166667,52.4902913 L23.5166667,52.4902913 Z"></path>
                                <path d="M41.4467949,80.0436893 C41.4467949,86.131068 47.0333333,91.0436893 53.95,91.0436893 C60.8134615,91.0436893 66.4532051,86.131068 66.4532051,80.0436893 C66.4532051,73.9563107 60.8666667,69.0436893 53.95,69.0436893 C47.0333333,69.0436893 41.4467949,73.9563107 41.4467949,80.0436893 L41.4467949,80.0436893 L41.4467949,80.0436893 Z M48.3102564,80.0436893 C48.3102564,77.3203883 50.8108974,75.0776699 53.8967949,75.0776699 C56.9826923,75.0776699 59.4833333,77.3203883 59.4833333,80.0436893 C59.4833333,82.7669903 56.9826923,84.9563107 53.8967949,84.9563107 C50.8108974,85.0097087 48.3102564,82.7669903 48.3102564,80.0436893 L48.3102564,80.0436893 L48.3102564,80.0436893 Z"></path>
                                <path d="M82.1487179,37.4854369 C82.1487179,34.7087379 78.4775641,33.6407767 76.2429487,35.3495146 C53.4179487,52.9174757 30.5397436,70.4320388 7.71474359,88 L7.71474359,63.0631068 L7.71474359,44.5873786 C7.71474359,41.0631068 7.98076923,38.1262136 11.0666667,35.5631068 C12.0775641,34.7087379 13.5673077,34.1747573 14.8974359,33.7475728 C15.2698718,33.6407767 18.0897436,33.1601942 16.6532051,33.3203883 C16.7596154,33.3203883 16.8660256,33.2669903 17.025641,33.2669903 C23.6762821,35.4563107 32.774359,36.4708738 41.4467949,36.4708738 C58.1532051,36.4708738 76.1365385,32.6262136 76.1365385,24.2427184 L76.1365385,12.6553398 C76.1365385,4.27184466 58.1532051,0.427184466 41.4467949,0.427184466 C24.7403846,0.427184466 6.75705128,4.27184466 6.75705128,12.6553398 L6.75705128,24.1893204 C6.75705128,26.1116505 7.71474359,27.8203883 9.41730769,29.315534 C7.02307692,30.5436893 4.89487179,32.1990291 3.19230769,34.3349515 C-1.01089744,39.6747573 0.798076923,49.0194175 0.798076923,55.1601942 L0.798076923,94.6747573 C0.798076923,97.4514563 4.46923077,98.5194175 6.70384615,96.8106796 C29.5288462,79.2427184 52.4070513,61.7281553 75.2320513,44.1601942 L75.2320513,82.6601942 C75.2320513,85.7038835 75.7641026,89.1747573 74.7,92.1116505 C73.1570513,96.3834951 67.0916667,99.1601942 62.8352564,100.65534 C47.9378205,105.88835 29.9012821,105.247573 15.6423077,98.8398058 C11.7583333,97.0776699 8.40641026,102.631068 12.1839744,104.072816 C27.9858974,110.106796 42.2980769,110.854369 59.5897436,107.970874 C68.3685897,106.529126 81.6166667,100.174757 82.0955128,90.5631068 C83,72.9417476 82.2019231,55.1067961 82.1487179,37.4854369 L82.1487179,37.4854369 L82.1487179,37.4854369 Z M41.5,6.51456311 C59.749359,6.51456311 69.3262821,11.1067961 69.3262821,12.6553398 C69.3262821,14.2572816 59.749359,18.7961165 41.5,18.7961165 C23.250641,18.7961165 13.6737179,14.2038835 13.6737179,12.6553398 C13.6737179,11.0533981 23.250641,6.51456311 41.5,6.51456311 L41.5,6.51456311 L41.5,6.51456311 Z M13.6737179,20.3446602 C20.4307692,23.4417476 31.1782051,24.8834951 41.5,24.8834951 C51.7685897,24.8834951 62.5692308,23.4417476 69.3262821,20.3446602 L69.3262821,24.1359223 C69.3262821,25.7378641 59.749359,30.276699 41.5,30.276699 C23.250641,30.276699 13.6737179,25.684466 13.6737179,24.1359223 L13.6737179,20.3446602 L13.6737179,20.3446602 Z"></path>
                            </g>
                        </g>
                    </g>
                </g>
            </g>
            <g id="logo-icon-copy-4" transform="translate(397.073090, 110.500000) rotate(-27.000000) translate(-397.073090, -110.500000) translate(329.987705, 21.591658)" sketch:type="MSShapeGroup" opacity="0.8">
                <g id="Page-1">
                    <g id="assets-icon-256x256">
                        <g id="Group">
                            <g id="Shape">
                                <path d="M26.8341542,84.8513598 C26.8341542,94.6917006 35.8648792,102.633028 47.0457768,102.633028 C58.1406675,102.633028 67.2573994,94.6917006 67.2573994,84.8513598 C67.2573994,75.011019 58.2266744,67.0696913 47.0457768,67.0696913 C35.9508861,67.0696913 26.8341542,75.011019 26.8341542,84.8513598 L26.8341542,84.8513598 L26.8341542,84.8513598 Z M38.0150518,84.8513598 C38.0150518,80.449102 42.0573764,76.9100321 47.0457768,76.9100321 C52.0341773,76.9100321 56.0765018,80.449102 56.0765018,84.8513598 C56.0765018,89.2536175 52.0341773,92.7926874 47.0457768,92.7926874 C42.0573764,92.7926874 38.0150518,89.2536175 38.0150518,84.8513598 L38.0150518,84.8513598 L38.0150518,84.8513598 Z"></path>
                                <path d="M66.9993787,129.39185 C66.9993787,139.232191 76.0301037,147.173518 87.2110013,147.173518 C98.305892,147.173518 107.422624,139.232191 107.422624,129.39185 C107.422624,119.551509 98.3918989,111.610181 87.2110013,111.610181 C76.0301037,111.610181 66.9993787,119.551509 66.9993787,129.39185 L66.9993787,129.39185 L66.9993787,129.39185 Z M78.0942694,129.39185 C78.0942694,124.989592 82.1365939,121.364203 87.1249944,121.364203 C92.1133949,121.364203 96.1557194,124.989592 96.1557194,129.39185 C96.1557194,133.794107 92.1133949,137.333177 87.1249944,137.333177 C82.1365939,137.419496 78.0942694,133.794107 78.0942694,129.39185 L78.0942694,129.39185 L78.0942694,129.39185 Z"></path>
                                <path d="M132.794661,60.5957829 C132.794661,56.1072064 126.860184,54.3808308 123.247894,57.1430317 C86.3509322,85.54191 49.3679633,113.85447 12.4710012,142.253348 L12.4710012,101.942478 L12.4710012,72.0761805 C12.4710012,66.3791411 12.9010357,61.6316082 17.8894362,57.4883068 C19.5235673,56.1072064 21.9317607,55.2440186 24.0819333,54.5534683 C24.6839816,54.3808308 29.2423476,53.6039618 26.9201611,53.8629181 C27.092175,53.8629181 27.2641888,53.7765993 27.5222095,53.7765993 C38.2730726,57.3156693 52.9802532,58.9557261 66.9993787,58.9557261 C94.0055468,58.9557261 123.075881,52.740774 123.075881,39.1887257 L123.075881,20.4575506 C123.075881,6.90550232 94.0055468,0.690550232 66.9993787,0.690550232 C39.9932107,0.690550232 10.9228769,6.90550232 10.9228769,20.4575506 L10.9228769,39.1024069 C10.9228769,42.2098829 12.4710012,44.9720839 15.2232221,47.3890097 C11.3529114,49.3743416 7.91263523,52.0502237 5.16041428,55.5029749 C-1.63413119,64.1348528 1.29010357,79.2406391 1.29010357,89.1672987 L1.29010357,153.043195 C1.29010357,157.531772 7.22457999,159.258147 10.83687,156.495946 C47.7338321,128.097068 84.7168011,99.7845085 121.613763,71.3856302 L121.613763,133.62147 C121.613763,138.54164 122.473832,144.152361 120.753694,148.899894 C118.259494,155.805396 108.454707,160.293973 101.574154,162.710898 C77.4922211,171.170139 48.3358804,170.134313 25.28603,159.77606 C19.0075259,156.92754 13.5890909,165.904693 19.6955812,168.2353 C45.2396318,177.989322 68.3754892,179.197785 96.3277332,174.536571 C110.518872,172.205964 131.934592,161.934029 132.708654,146.396649 C134.170771,117.911452 132.880668,89.0809799 132.794661,60.5957829 L132.794661,60.5957829 L132.794661,60.5957829 Z M67.0853856,10.530891 C96.5857539,10.530891 112.066997,17.954306 112.066997,20.4575506 C112.066997,23.047114 96.5857539,30.3842102 67.0853856,30.3842102 C37.5850173,30.3842102 22.1037745,22.9607952 22.1037745,20.4575506 C22.1037745,17.8679873 37.5850173,10.530891 67.0853856,10.530891 L67.0853856,10.530891 L67.0853856,10.530891 Z M22.1037745,32.8874548 C33.0266514,37.893944 50.4000461,40.224551 67.0853856,40.224551 C83.6847182,40.224551 101.14412,37.893944 112.066997,32.8874548 L112.066997,39.0160881 C112.066997,41.6056515 96.5857539,48.9427477 67.0853856,48.9427477 C37.5850173,48.9427477 22.1037745,41.5193327 22.1037745,39.0160881 L22.1037745,32.8874548 L22.1037745,32.8874548 Z"></path>
                            </g>
                        </g>
                    </g>
                </g>
            </g>
            <g id="logo-icon-copy-5" transform="translate(54.974225, 75.604176) rotate(-27.000000) translate(-54.974225, -75.604176) translate(18.541123, 27.319343)" sketch:type="MSShapeGroup" opacity="0.4">
                <g id="Page-1">
                    <g id="assets-icon-256x256">
                        <g id="Group">
                            <g id="Shape">
                                <path d="M14.5732406,46.0815448 C14.5732406,51.4256914 19.4776966,55.7385115 25.5498802,55.7385115 C31.5753546,55.7385115 36.5265197,51.4256914 36.5265197,46.0815448 C36.5265197,40.7373982 31.6220637,36.4245781 25.5498802,36.4245781 C19.5244057,36.4245781 14.5732406,40.7373982 14.5732406,46.0815448 L14.5732406,46.0815448 L14.5732406,46.0815448 Z M20.6454242,46.0815448 C20.6454242,43.6907424 22.8407521,41.7687247 25.5498802,41.7687247 C28.2590082,41.7687247 30.4543361,43.6907424 30.4543361,46.0815448 C30.4543361,48.4723472 28.2590082,50.3943649 25.5498802,50.3943649 C22.8407521,50.3943649 20.6454242,48.4723472 20.6454242,46.0815448 L20.6454242,46.0815448 L20.6454242,46.0815448 Z"></path>
                                <path d="M36.3863924,70.2708399 C36.3863924,75.6149865 41.2908484,79.9278066 47.3630319,79.9278066 C53.3885064,79.9278066 58.3396715,75.6149865 58.3396715,70.2708399 C58.3396715,64.9266933 53.4352155,60.6138733 47.3630319,60.6138733 C41.2908484,60.6138733 36.3863924,64.9266933 36.3863924,70.2708399 L36.3863924,70.2708399 L36.3863924,70.2708399 Z M42.4118669,70.2708399 C42.4118669,67.8800375 44.6071948,65.9111414 47.3163228,65.9111414 C50.0254509,65.9111414 52.2207788,67.8800375 52.2207788,70.2708399 C52.2207788,72.6616424 50.0254509,74.58366 47.3163228,74.58366 C44.6071948,74.6305385 42.4118669,72.6616424 42.4118669,70.2708399 L42.4118669,70.2708399 L42.4118669,70.2708399 Z"></path>
                                <path d="M72.1188573,32.9086922 C72.1188573,30.4710113 68.8959291,29.5334417 66.9341467,31.0335531 C46.8959409,46.4565726 26.811026,61.8327137 6.77282015,77.2557333 L6.77282015,55.3634836 L6.77282015,39.1435299 C6.77282015,36.0495503 7.00636567,33.471234 9.71549373,31.221067 C10.6029667,30.4710113 11.9108216,30.0022265 13.0785493,29.6271987 C13.405513,29.5334417 15.8810955,29.1115354 14.6199497,29.2521709 C14.7133679,29.2521709 14.8067861,29.2052924 14.9469134,29.2052924 C20.7855515,31.12731 28.7728084,32.0180011 36.3863924,32.0180011 C51.0530512,32.0180011 66.8407285,28.6427506 66.8407285,21.2828294 L66.8407285,11.1101995 C66.8407285,3.75027832 51.0530512,0.375027832 36.3863924,0.375027832 C21.7197336,0.375027832 5.93205627,3.75027832 5.93205627,11.1101995 L5.93205627,21.235951 C5.93205627,22.9235762 6.77282015,24.4236875 8.26751149,25.7362849 C6.16560179,26.81449 4.29723761,28.2677228 2.80254627,30.142862 C-0.887472985,34.8307099 0.700636567,43.0344437 0.700636567,48.4254687 L0.700636567,83.1155432 C0.700636567,85.5532241 3.92356478,86.4907936 5.88534716,84.9906823 C25.923553,69.5676627 46.0084679,54.1915217 66.0466737,38.7685021 L66.0466737,72.5678854 C66.0466737,75.2399587 66.5137648,78.2870598 65.5795827,80.8653762 C64.2250187,84.6156545 58.9001808,87.0533354 55.1634524,88.3659328 C42.0849031,92.9600237 26.2505167,92.397482 13.7324767,86.7720645 C10.3227121,85.2250747 7.38003851,90.1004365 10.6963849,91.3661555 C24.568989,96.6634236 37.1337381,97.3197223 52.314197,94.7882844 C60.0211993,93.5225655 71.6517663,87.9440265 72.0721482,79.5059003 C72.866203,64.0360022 72.1655664,48.3785903 72.1188573,32.9086922 L72.1188573,32.9086922 L72.1188573,32.9086922 Z M36.4331015,5.71917443 C52.4543243,5.71917443 60.8619631,9.75072362 60.8619631,11.1101995 C60.8619631,12.5165539 52.4543243,16.5012246 36.4331015,16.5012246 C20.4118787,16.5012246 12.0042399,12.4696754 12.0042399,11.1101995 C12.0042399,9.70384514 20.4118787,5.71917443 36.4331015,5.71917443 L36.4331015,5.71917443 L36.4331015,5.71917443 Z M12.0042399,17.8607005 C17.9362961,20.5796523 27.3715352,21.8453712 36.4331015,21.8453712 C45.4479587,21.8453712 54.9299069,20.5796523 60.8619631,17.8607005 L60.8619631,21.1890725 C60.8619631,22.5954268 52.4543243,26.5800976 36.4331015,26.5800976 C20.4118787,26.5800976 12.0042399,22.5485484 12.0042399,21.1890725 L12.0042399,17.8607005 L12.0042399,17.8607005 Z"></path>
                            </g>
                        </g>
                    </g>
                </g>
            </g>
            <g id="logo-icon-copy" transform="translate(267.500000, 75.604176) rotate(-27.000000) translate(-267.500000, -75.604176) translate(246.121708, 47.271500)" sketch:type="MSShapeGroup" opacity="0.2">
                <g id="Page-1">
                    <g id="assets-icon-256x256">
                        <g id="Group">
                            <g id="Shape">
                                <path d="M8.55131674,27.0398257 C8.55131674,30.1756753 11.4291637,32.7063609 14.9922124,32.7063609 C18.5278529,32.7063609 21.433108,30.1756753 21.433108,27.0398257 C21.433108,23.9039761 18.555261,21.3732905 14.9922124,21.3732905 C11.4565718,21.3732905 8.55131674,23.9039761 8.55131674,27.0398257 L8.55131674,27.0398257 L8.55131674,27.0398257 Z M12.1143654,27.0398257 C12.1143654,25.6369456 13.4025445,24.5091401 14.9922124,24.5091401 C16.5818802,24.5091401 17.8700593,25.6369456 17.8700593,27.0398257 C17.8700593,28.4427058 16.5818802,29.5705113 14.9922124,29.5705113 C13.4025445,29.5705113 12.1143654,28.4427058 12.1143654,27.0398257 L12.1143654,27.0398257 L12.1143654,27.0398257 Z"></path>
                                <path d="M21.3508838,41.2336711 C21.3508838,44.3695207 24.2287308,46.9002063 27.7917794,46.9002063 C31.32742,46.9002063 34.232675,44.3695207 34.232675,41.2336711 C34.232675,38.0978215 31.354828,35.5671359 27.7917794,35.5671359 C24.2287308,35.5671359 21.3508838,38.0978215 21.3508838,41.2336711 L21.3508838,41.2336711 L21.3508838,41.2336711 Z M24.8865244,41.2336711 C24.8865244,39.830791 26.1747035,38.675478 27.7643713,38.675478 C29.3540392,38.675478 30.6422183,39.830791 30.6422183,41.2336711 C30.6422183,42.6365512 29.3540392,43.7643567 27.7643713,43.7643567 C26.1747035,43.7918642 24.8865244,42.6365512 24.8865244,41.2336711 L24.8865244,41.2336711 L24.8865244,41.2336711 Z"></path>
                                <path d="M42.3180546,19.3102316 C42.3180546,17.879844 40.426898,17.329695 39.2757593,18.2099335 C27.5176987,27.2598853 15.7322302,36.2823297 3.97416964,45.3322815 L3.97416964,32.4863013 L3.97416964,22.9687227 C3.97416964,21.1532309 4.11120997,19.640321 5.70087783,18.3199633 C6.22163109,17.879844 6.98905695,17.6047695 7.67425861,17.3847099 C7.86611508,17.329695 9.3187426,17.0821279 8.57872481,17.1646503 C8.63354094,17.1646503 8.68835707,17.1371428 8.77058127,17.1371428 C12.1965896,18.2649484 16.8833689,18.78759 21.3508838,18.78759 C29.9570167,18.78759 39.2209431,16.8070534 39.2209431,12.4883834 L39.2209431,6.51926621 C39.2209431,2.20059619 29.9570167,0.220059619 21.3508838,0.220059619 C12.7447509,0.220059619 3.48082444,2.20059619 3.48082444,6.51926621 L3.48082444,12.4608759 C3.48082444,13.4511442 3.97416964,14.3313827 4.85122777,15.1015914 C3.61786477,15.7342628 2.52154212,16.5869938 1.64448399,17.6872919 C-0.520753263,20.4380371 0.411120997,25.2518413 0.411120997,28.4151983 L0.411120997,48.7707131 C0.411120997,50.2011006 2.30227758,50.7512496 3.45341638,49.8710112 C15.2114769,40.8210593 26.9969455,31.7986149 38.755006,22.7486631 L38.755006,42.5815363 C38.755006,44.1494611 39.0290867,45.9374455 38.4809253,47.4503553 C37.6860914,49.6509515 34.5615718,51.0813391 32.3689265,51.8515477 C24.6946679,54.5472781 15.4033334,54.2171886 8.05797154,50.9162943 C6.05718269,50.0085484 4.3304745,52.8693235 6.27644722,53.6120247 C14.416643,56.7203668 21.7894128,57.1054711 30.6970344,55.6200687 C35.2193654,54.8773675 42.043974,51.6039807 42.2906466,46.6526392 C42.7565837,37.5751799 42.3454627,28.3876908 42.3180546,19.3102316 L42.3180546,19.3102316 L42.3180546,19.3102316 Z M21.3782918,3.35590919 C30.7792586,3.35590919 35.7127106,5.72155009 35.7127106,6.51926621 C35.7127106,7.34448978 30.7792586,9.68262324 21.3782918,9.68262324 C11.977325,9.68262324 7.04387308,7.31698233 7.04387308,6.51926621 C7.04387308,5.69404264 11.977325,3.35590919 21.3782918,3.35590919 L21.3782918,3.35590919 L21.3782918,3.35590919 Z M7.04387308,10.4803394 C10.5246975,12.0757716 16.061127,12.8184728 21.3782918,12.8184728 C26.6680487,12.8184728 32.2318862,12.0757716 35.7127106,10.4803394 L35.7127106,12.4333685 C35.7127106,13.258592 30.7792586,15.5967255 21.3782918,15.5967255 C11.977325,15.5967255 7.04387308,13.2310846 7.04387308,12.4333685 L7.04387308,10.4803394 L7.04387308,10.4803394 Z"></path>
                            </g>
                        </g>
                    </g>
                </g>
            </g>
            <g id="logo-icon-copy-2" transform="translate(283.357211, 156.604176) rotate(-27.000000) translate(-283.357211, -156.604176) translate(261.978920, 128.271500)" sketch:type="MSShapeGroup" opacity="0.9">
                <g id="Page-1">
                    <g id="assets-icon-256x256">
                        <g id="Group">
                            <g id="Shape">
                                <path d="M8.55131674,27.0398257 C8.55131674,30.1756753 11.4291637,32.7063609 14.9922124,32.7063609 C18.5278529,32.7063609 21.433108,30.1756753 21.433108,27.0398257 C21.433108,23.9039761 18.555261,21.3732905 14.9922124,21.3732905 C11.4565718,21.3732905 8.55131674,23.9039761 8.55131674,27.0398257 L8.55131674,27.0398257 L8.55131674,27.0398257 Z M12.1143654,27.0398257 C12.1143654,25.6369456 13.4025445,24.5091401 14.9922124,24.5091401 C16.5818802,24.5091401 17.8700593,25.6369456 17.8700593,27.0398257 C17.8700593,28.4427058 16.5818802,29.5705113 14.9922124,29.5705113 C13.4025445,29.5705113 12.1143654,28.4427058 12.1143654,27.0398257 L12.1143654,27.0398257 L12.1143654,27.0398257 Z"></path>
                                <path d="M21.3508838,41.2336711 C21.3508838,44.3695207 24.2287308,46.9002063 27.7917794,46.9002063 C31.32742,46.9002063 34.232675,44.3695207 34.232675,41.2336711 C34.232675,38.0978215 31.354828,35.5671359 27.7917794,35.5671359 C24.2287308,35.5671359 21.3508838,38.0978215 21.3508838,41.2336711 L21.3508838,41.2336711 L21.3508838,41.2336711 Z M24.8865244,41.2336711 C24.8865244,39.830791 26.1747035,38.675478 27.7643713,38.675478 C29.3540392,38.675478 30.6422183,39.830791 30.6422183,41.2336711 C30.6422183,42.6365512 29.3540392,43.7643567 27.7643713,43.7643567 C26.1747035,43.7918642 24.8865244,42.6365512 24.8865244,41.2336711 L24.8865244,41.2336711 L24.8865244,41.2336711 Z"></path>
                                <path d="M42.3180546,19.3102316 C42.3180546,17.879844 40.426898,17.329695 39.2757593,18.2099335 C27.5176987,27.2598853 15.7322302,36.2823297 3.97416964,45.3322815 L3.97416964,32.4863013 L3.97416964,22.9687227 C3.97416964,21.1532309 4.11120997,19.640321 5.70087783,18.3199633 C6.22163109,17.879844 6.98905695,17.6047695 7.67425861,17.3847099 C7.86611508,17.329695 9.3187426,17.0821279 8.57872481,17.1646503 C8.63354094,17.1646503 8.68835707,17.1371428 8.77058127,17.1371428 C12.1965896,18.2649484 16.8833689,18.78759 21.3508838,18.78759 C29.9570167,18.78759 39.2209431,16.8070534 39.2209431,12.4883834 L39.2209431,6.51926621 C39.2209431,2.20059619 29.9570167,0.220059619 21.3508838,0.220059619 C12.7447509,0.220059619 3.48082444,2.20059619 3.48082444,6.51926621 L3.48082444,12.4608759 C3.48082444,13.4511442 3.97416964,14.3313827 4.85122777,15.1015914 C3.61786477,15.7342628 2.52154212,16.5869938 1.64448399,17.6872919 C-0.520753263,20.4380371 0.411120997,25.2518413 0.411120997,28.4151983 L0.411120997,48.7707131 C0.411120997,50.2011006 2.30227758,50.7512496 3.45341638,49.8710112 C15.2114769,40.8210593 26.9969455,31.7986149 38.755006,22.7486631 L38.755006,42.5815363 C38.755006,44.1494611 39.0290867,45.9374455 38.4809253,47.4503553 C37.6860914,49.6509515 34.5615718,51.0813391 32.3689265,51.8515477 C24.6946679,54.5472781 15.4033334,54.2171886 8.05797154,50.9162943 C6.05718269,50.0085484 4.3304745,52.8693235 6.27644722,53.6120247 C14.416643,56.7203668 21.7894128,57.1054711 30.6970344,55.6200687 C35.2193654,54.8773675 42.043974,51.6039807 42.2906466,46.6526392 C42.7565837,37.5751799 42.3454627,28.3876908 42.3180546,19.3102316 L42.3180546,19.3102316 L42.3180546,19.3102316 Z M21.3782918,3.35590919 C30.7792586,3.35590919 35.7127106,5.72155009 35.7127106,6.51926621 C35.7127106,7.34448978 30.7792586,9.68262324 21.3782918,9.68262324 C11.977325,9.68262324 7.04387308,7.31698233 7.04387308,6.51926621 C7.04387308,5.69404264 11.977325,3.35590919 21.3782918,3.35590919 L21.3782918,3.35590919 L21.3782918,3.35590919 Z M7.04387308,10.4803394 C10.5246975,12.0757716 16.061127,12.8184728 21.3782918,12.8184728 C26.6680487,12.8184728 32.2318862,12.0757716 35.7127106,10.4803394 L35.7127106,12.4333685 C35.7127106,13.258592 30.7792586,15.5967255 21.3782918,15.5967255 C11.977325,15.5967255 7.04387308,13.2310846 7.04387308,12.4333685 L7.04387308,10.4803394 L7.04387308,10.4803394 Z"></path>
                            </g>
                        </g>
                    </g>
                </g>
            </g>
            <g id="logo-icon-copy-3" transform="translate(109.357211, 145.504457) rotate(-27.000000) translate(-109.357211, -145.504457) translate(87.978920, 117.171781)" sketch:type="MSShapeGroup" opacity="0.7">
                <g id="Page-1">
                    <g id="assets-icon-256x256">
                        <g id="Group">
                            <g id="Shape">
                                <path d="M8.55131674,27.0398257 C8.55131674,30.1756753 11.4291637,32.7063609 14.9922124,32.7063609 C18.5278529,32.7063609 21.433108,30.1756753 21.433108,27.0398257 C21.433108,23.9039761 18.555261,21.3732905 14.9922124,21.3732905 C11.4565718,21.3732905 8.55131674,23.9039761 8.55131674,27.0398257 L8.55131674,27.0398257 L8.55131674,27.0398257 Z M12.1143654,27.0398257 C12.1143654,25.6369456 13.4025445,24.5091401 14.9922124,24.5091401 C16.5818802,24.5091401 17.8700593,25.6369456 17.8700593,27.0398257 C17.8700593,28.4427058 16.5818802,29.5705113 14.9922124,29.5705113 C13.4025445,29.5705113 12.1143654,28.4427058 12.1143654,27.0398257 L12.1143654,27.0398257 L12.1143654,27.0398257 Z"></path>
                                <path d="M21.3508838,41.2336711 C21.3508838,44.3695207 24.2287308,46.9002063 27.7917794,46.9002063 C31.32742,46.9002063 34.232675,44.3695207 34.232675,41.2336711 C34.232675,38.0978215 31.354828,35.5671359 27.7917794,35.5671359 C24.2287308,35.5671359 21.3508838,38.0978215 21.3508838,41.2336711 L21.3508838,41.2336711 L21.3508838,41.2336711 Z M24.8865244,41.2336711 C24.8865244,39.830791 26.1747035,38.675478 27.7643713,38.675478 C29.3540392,38.675478 30.6422183,39.830791 30.6422183,41.2336711 C30.6422183,42.6365512 29.3540392,43.7643567 27.7643713,43.7643567 C26.1747035,43.7918642 24.8865244,42.6365512 24.8865244,41.2336711 L24.8865244,41.2336711 L24.8865244,41.2336711 Z"></path>
                                <path d="M42.3180546,19.3102316 C42.3180546,17.879844 40.426898,17.329695 39.2757593,18.2099335 C27.5176987,27.2598853 15.7322302,36.2823297 3.97416964,45.3322815 L3.97416964,32.4863013 L3.97416964,22.9687227 C3.97416964,21.1532309 4.11120997,19.640321 5.70087783,18.3199633 C6.22163109,17.879844 6.98905695,17.6047695 7.67425861,17.3847099 C7.86611508,17.329695 9.3187426,17.0821279 8.57872481,17.1646503 C8.63354094,17.1646503 8.68835707,17.1371428 8.77058127,17.1371428 C12.1965896,18.2649484 16.8833689,18.78759 21.3508838,18.78759 C29.9570167,18.78759 39.2209431,16.8070534 39.2209431,12.4883834 L39.2209431,6.51926621 C39.2209431,2.20059619 29.9570167,0.220059619 21.3508838,0.220059619 C12.7447509,0.220059619 3.48082444,2.20059619 3.48082444,6.51926621 L3.48082444,12.4608759 C3.48082444,13.4511442 3.97416964,14.3313827 4.85122777,15.1015914 C3.61786477,15.7342628 2.52154212,16.5869938 1.64448399,17.6872919 C-0.520753263,20.4380371 0.411120997,25.2518413 0.411120997,28.4151983 L0.411120997,48.7707131 C0.411120997,50.2011006 2.30227758,50.7512496 3.45341638,49.8710112 C15.2114769,40.8210593 26.9969455,31.7986149 38.755006,22.7486631 L38.755006,42.5815363 C38.755006,44.1494611 39.0290867,45.9374455 38.4809253,47.4503553 C37.6860914,49.6509515 34.5615718,51.0813391 32.3689265,51.8515477 C24.6946679,54.5472781 15.4033334,54.2171886 8.05797154,50.9162943 C6.05718269,50.0085484 4.3304745,52.8693235 6.27644722,53.6120247 C14.416643,56.7203668 21.7894128,57.1054711 30.6970344,55.6200687 C35.2193654,54.8773675 42.043974,51.6039807 42.2906466,46.6526392 C42.7565837,37.5751799 42.3454627,28.3876908 42.3180546,19.3102316 L42.3180546,19.3102316 L42.3180546,19.3102316 Z M21.3782918,3.35590919 C30.7792586,3.35590919 35.7127106,5.72155009 35.7127106,6.51926621 C35.7127106,7.34448978 30.7792586,9.68262324 21.3782918,9.68262324 C11.977325,9.68262324 7.04387308,7.31698233 7.04387308,6.51926621 C7.04387308,5.69404264 11.977325,3.35590919 21.3782918,3.35590919 L21.3782918,3.35590919 L21.3782918,3.35590919 Z M7.04387308,10.4803394 C10.5246975,12.0757716 16.061127,12.8184728 21.3782918,12.8184728 C26.6680487,12.8184728 32.2318862,12.0757716 35.7127106,10.4803394 L35.7127106,12.4333685 C35.7127106,13.258592 30.7792586,15.5967255 21.3782918,15.5967255 C11.977325,15.5967255 7.04387308,13.2310846 7.04387308,12.4333685 L7.04387308,10.4803394 L7.04387308,10.4803394 Z"></path>
                            </g>
                        </g>
                    </g>
                </g>
            </g>
        </g>
    </g>
</svg>