<svg id="Layer_1" data-name="Layer 1" xmlns="http://www.w3.org/2000/svg" viewBox="0 0 1250 600">
  <defs>
    <style>
      .cls-1 {
        fill: #1a1a1a;
      }
    </style>
  </defs><polygon class="cls-1" points="373.59 175.58 173.61 175.58 173.61 223.03 246.01 223.03 246.01 421.61 301.54 421.61 301.54 223.03 373.59 223.03 373.59 175.58"/><path class="cls-1" d="M722.81,175.65H675V223h47.8V342.88c0,22.49-11.25,32-31.63,32a79.87,79.87,0,0,1-15.47-1.76v47.45c6,1.41,21.09,2.81,28.47,2.81,42.88,0,71.35-25.3,71.35-78.37V175.58H722.81Z"/><path
    class="cls-1"
    d="M402.32,241.66c-30.25,0-56.92,14.29-69.35,37.71a56.2,56.2,0,0,0-6.48,19.11l-.09.47h0a40,40,0,0,0-.36,8.43h45.32c1.76-17.22,14.06-27.41,30.93-27.41,19,0,30.93,10.54,30.93,28.11v1.06l-32,3.16c-51,5.27-76.62,24.25-76.62,59.4,0,29.52,24.26,52.72,58.7,52.72,19.68,0,39.71-9.84,49.91-25.31v22.5h49.91V316.52C483.16,266.61,450.47,241.66,402.32,241.66Zm30.93,105.09v1.4c-.35,20.74-14.06,39.37-37.26,39.37-14.41,0-22.14-7.74-22.14-17.58,0-10.19,8.79-19,26.36-20.73l33-3.87Z"/><path
    class="cls-1"
    d="M863.93,241.66c-30.25,0-56.91,14.29-69.35,37.71a56.2,56.2,0,0,0-6.48,19.11L788,299h0a40,40,0,0,0-.36,8.43H833c1.76-17.22,14.06-27.41,30.93-27.41,19,0,30.93,10.54,30.93,28.11v1.06l-32,3.16c-51,5.27-76.62,24.25-76.62,59.4,0,29.52,24.26,52.72,58.7,52.72,19.68,0,39.71-9.84,49.91-25.31v22.5h49.91V316.52C944.77,266.61,912.08,241.66,863.93,241.66Zm30.93,105.09v1.4c-.35,20.74-14.06,39.37-37.26,39.37-14.41,0-22.14-7.74-22.14-17.58,0-10.19,8.79-19,26.36-20.73l33-3.87Z"/><path class="cls-1" d="M1063.13,241.66c-21.08,0-43.93,14.41-52,33.39V244.47H959.45V421.61h51.67v-64c0-50.26,22.14-67.83,45.34-67.83a61.43,61.43,0,0,1,18.75,2.76l1.18-49.59A73.54,73.54,0,0,0,1063.13,241.66Z"/><polygon class="cls-1" points="611.94 244.47 578.9 292.73 545.87 244.47 490.69 244.47 551.05 333.42 490.69 421.61 546.92 421.61 578.9 374.47 610.89 421.61 667.12 421.61 606.76 333.42 667.12 244.47 611.94 244.47"/></svg>
