<?xml version="1.0" encoding="utf-8"?>
<!-- Generator: Adobe Illustrator 17.1.0, SVG Export Plug-In . SVG Version: 6.00 Build 0)  -->
<!DOCTYPE svg PUBLIC "-//W3C//DTD SVG 1.1//EN" "http://www.w3.org/Graphics/SVG/1.1/DTD/svg11.dtd">
<svg version="1.1" id="Layer_1" xmlns="http://www.w3.org/2000/svg" xmlns:xlink="http://www.w3.org/1999/xlink" x="0px" y="0px"
	 viewBox="0 0 280.7 72.6" enable-background="new 0 0 280.7 72.6" xml:space="preserve">
<g>
	<g>
		<path fill="#3FAE2A" stroke="#3FAE2A" stroke-miterlimit="10" d="M11.1,34.6c0,4,3.7,7.2,8.2,7.2c4.5,0,8.2-3.2,8.2-7.2
			c0-4-3.7-7.2-8.2-7.2C14.8,27.4,11.1,30.7,11.1,34.6z M15.7,34.6c0-1.8,1.7-3.2,3.7-3.2c2,0,3.7,1.4,3.7,3.2
			c0,1.8-1.7,3.2-3.7,3.2C17.3,37.9,15.7,36.4,15.7,34.6z"/>
	</g>
	<g>
		<path fill="#3FAE2A" stroke="#3FAE2A" stroke-miterlimit="10" d="M27.5,52.7c0,4,3.7,7.2,8.2,7.2c4.5,0,8.2-3.2,8.2-7.2
			c0-4-3.7-7.2-8.2-7.2C31.1,45.5,27.5,48.7,27.5,52.7z M32,52.7c0-1.8,1.7-3.2,3.7-3.2c2,0,3.7,1.5,3.7,3.2c0,1.8-1.7,3.2-3.7,3.2
			C33.6,56,32,54.5,32,52.7z"/>
	</g>
	<g>
		<path fill="#3FAE2A" stroke="#3FAE2A" stroke-miterlimit="10" d="M54.3,24.8c0-1.8-2.4-2.5-3.9-1.4c-15,11.5-30.1,23-45.1,34.5
			c0-5.5,0-10.9,0-16.4c0-4,0-8.1,0-12.1c0-2.3,0.2-4.2,2.2-5.9c0.7-0.6,1.7-0.9,2.5-1.2c0.2-0.1,2.1-0.4,1.2-0.3c0.1,0,0.2,0,0.2,0
			c4.4,1.4,10.4,2.1,16.1,2.1c11,0,22.8-2.5,22.8-8V8.5c0-5.5-11.8-8-22.8-8c-11,0-22.8,2.5-22.8,8v7.5c0,1.3,0.6,2.4,1.8,3.4
			c-1.6,0.8-3,1.9-4.1,3.3c-2.8,3.5-1.6,9.6-1.6,13.7c0,8.6,0,17.3,0,25.9c0,1.8,2.4,2.5,3.9,1.4c15-11.5,30.1-23,45.1-34.5
			c0,8.4,0,16.8,0,25.3c0,2,0.4,4.3-0.4,6.2c-1,2.8-5,4.6-7.8,5.6c-9.8,3.4-21.7,3-31.1-1.2c-2.6-1.2-4.8,2.5-2.3,3.4
			c10.4,3.9,19.8,4.4,31.2,2.5c5.8-1,14.5-5.1,14.8-11.4C54.8,48,54.3,36.4,54.3,24.8z M27.5,4.5c12,0,18.3,3,18.3,4
			c0,1-6.3,4-18.3,4c-12,0-18.3-3-18.3-4C9.2,7.5,15.5,4.5,27.5,4.5z M9.2,13.6c4.4,2,11.5,3,18.3,3c6.8,0,13.9-1,18.3-3v2.5
			c0,1-6.3,4-18.3,4c-12,0-18.3-3-18.3-4V13.6z"/>
	</g>
</g>
<path fill="#3FAE2A" stroke="#3FAE2A" stroke-miterlimit="10" d="M78.6,16.4H59.9V9.5h44.9v6.9H86.1v48.2h-7.5V16.4z"/>
<path fill="#3FAE2A" stroke="#3FAE2A" stroke-miterlimit="10" d="M115.9,60c-1.4,1.9-3.1,3.4-5.4,4.3c-2.2,0.9-4.5,1.4-6.9,1.4
	c-1.5,0-3-0.2-4.5-0.6c-1.5-0.4-2.8-1.1-4.1-2.1c-1.2-1-2.2-2.2-3-3.7c-0.8-1.5-1.1-3.4-1.1-5.6c0-4.1,1.4-7.4,4.1-9.9
	c2.7-2.5,6.7-3.7,11.9-3.7c0.8,0,1.7,0,2.7,0.1c0.9,0.1,1.8,0.1,2.7,0.2c0.8,0.1,1.6,0.1,2.2,0.2c0.6,0.1,1.1,0.1,1.3,0.2v-1.4
	c0-2.9-0.8-4.9-2.5-6.2c-1.6-1.2-3.9-1.9-6.7-1.9c-2.8,0-5,0.4-6.6,1.2c-1.6,0.8-3,1.6-4.1,2.4l-3.3-5c0.6-0.5,1.4-1.1,2.3-1.7
	c0.9-0.5,1.9-1.1,3.1-1.5c1.2-0.5,2.6-0.9,4.1-1.2c1.5-0.3,3.3-0.5,5.2-0.5c4.7,0,8.4,1.2,11.1,3.6c2.7,2.4,4,5.8,4,10.2v22.4
	c0,1.3,0,2.5,0.1,3.4h-6.6L115.9,60z M115.9,46.4c-0.2-0.1-0.6-0.1-1.2-0.2c-0.6-0.1-1.3-0.2-2.1-0.2c-0.8-0.1-1.6-0.1-2.5-0.2
	c-0.9-0.1-1.8-0.1-2.6-0.1c-2,0-3.6,0.2-4.8,0.7c-1.2,0.5-2.2,1.1-2.9,1.9c-0.7,0.7-1.2,1.6-1.4,2.5c-0.3,0.9-0.4,1.8-0.4,2.6
	c0,2.1,0.7,3.7,2,4.8c1.4,1.1,3.2,1.6,5.6,1.6c1.4,0,2.6-0.2,3.9-0.7c1.2-0.5,2.3-1.2,3.2-2c0.9-0.8,1.7-1.8,2.3-2.9
	c0.6-1.1,0.9-2.2,0.9-3.4V46.4z"/>
<path fill="#3FAE2A" stroke="#3FAE2A" stroke-miterlimit="10" d="M142.1,44.8L129,26.2h8.8l8.8,12.7l8.6-12.7h7.8l-12.7,18
	l14.5,20.4h-8.8l-10.1-14.5l-9.9,14.5H128L142.1,44.8z"/>
<path fill="#55565A" stroke="#55565A" stroke-miterlimit="10" d="M171.9,53.5c1.5,1.8,3,3.1,4.6,4c1.5,0.8,3.4,1.2,5.5,1.2
	c1.3,0,2.4-0.2,3.5-0.6c1.1-0.4,2-1.1,2.9-1.9c0.8-0.9,1.5-2,2-3.4c0.5-1.4,0.7-3,0.7-5V9.5h7.5v38.9c0,3.2-0.4,5.9-1.3,8.1
	c-0.9,2.2-2.1,4-3.6,5.5c-1.5,1.4-3.2,2.4-5.2,3.1c-2,0.6-4.1,1-6.3,1c-3.9,0-7-0.7-9.5-2.1c-2.5-1.4-4.5-3.2-6.1-5.5L171.9,53.5z"
	/>
<path fill="#55565A" stroke="#55565A" stroke-miterlimit="10" d="M228,60c-1.4,1.9-3.1,3.4-5.4,4.3c-2.2,0.9-4.5,1.4-6.8,1.4
	c-1.5,0-3-0.2-4.5-0.6c-1.5-0.4-2.8-1.1-4.1-2.1c-1.2-1-2.2-2.2-3-3.7c-0.8-1.5-1.1-3.4-1.1-5.6c0-4.1,1.4-7.4,4.1-9.9
	c2.7-2.5,6.7-3.7,11.9-3.7c0.8,0,1.7,0,2.7,0.1c0.9,0.1,1.8,0.1,2.7,0.2c0.8,0.1,1.6,0.1,2.2,0.2c0.6,0.1,1.1,0.1,1.3,0.2v-1.4
	c0-2.9-0.8-4.9-2.5-6.2c-1.6-1.2-3.9-1.9-6.7-1.9c-2.8,0-5,0.4-6.6,1.2c-1.6,0.8-3,1.6-4.1,2.4l-3.3-5c0.6-0.5,1.4-1.1,2.3-1.7
	c0.9-0.5,1.9-1.1,3.1-1.5c1.2-0.5,2.6-0.9,4.1-1.2c1.5-0.3,3.3-0.5,5.2-0.5c4.7,0,8.4,1.2,11.1,3.6c2.7,2.4,4,5.8,4,10.2v22.4
	c0,1.3,0,2.5,0.1,3.4h-6.6L228,60z M228,46.4c-0.2-0.1-0.6-0.1-1.2-0.2c-0.6-0.1-1.3-0.2-2.1-0.2c-0.8-0.1-1.6-0.1-2.5-0.2
	c-0.9-0.1-1.8-0.1-2.6-0.1c-2,0-3.6,0.2-4.8,0.7c-1.2,0.5-2.2,1.1-2.9,1.9c-0.7,0.7-1.2,1.6-1.4,2.5c-0.3,0.9-0.4,1.8-0.4,2.6
	c0,2.1,0.7,3.7,2,4.8c1.4,1.1,3.2,1.6,5.6,1.6c1.4,0,2.6-0.2,3.9-0.7c1.2-0.5,2.3-1.2,3.2-2c0.9-0.8,1.7-1.8,2.3-2.9
	c0.6-1.1,0.9-2.2,0.9-3.4V46.4z"/>
<path fill="#55565A" stroke="#55565A" stroke-miterlimit="10" d="M240.5,64.6V29.9c0-1.2,0-2.5-0.1-3.7h6.7l0.2,6.2
	c0.4-0.7,1-1.4,1.6-2.2c0.7-0.8,1.5-1.5,2.5-2.2c1-0.7,2.1-1.2,3.4-1.7c1.3-0.5,2.7-0.7,4.4-0.7c0.8,0,1.5,0.1,2.2,0.2
	c0.7,0.1,1.3,0.3,1.8,0.5l-1.6,6.9c-0.9-0.4-2.1-0.6-3.6-0.6c-1.5,0-2.9,0.3-4.2,0.9c-1.3,0.6-2.4,1.4-3.3,2.5
	c-0.9,1.1-1.7,2.3-2.2,3.8c-0.5,1.4-0.8,2.9-0.8,4.5v20.2H240.5z"/>
<g>
	<path fill="#55565A" d="M274,12.6c0.7,0,1.5,0.1,2.2,0.4c0.7,0.2,1.3,0.6,1.9,1c0.8,0.6,1.4,1.4,1.9,2.3c0.4,0.9,0.7,1.9,0.7,2.9
		c0,0.9-0.2,1.7-0.5,2.6c-0.3,0.8-0.8,1.5-1.4,2.1c-0.7,0.6-1.4,1.1-2.2,1.5c-0.8,0.3-1.6,0.5-2.5,0.5c-0.9,0-1.7-0.2-2.5-0.5
		c-0.8-0.3-1.5-0.8-2.2-1.5c-0.6-0.6-1.1-1.3-1.4-2.1c-0.3-0.8-0.5-1.6-0.5-2.5c0-0.7,0.1-1.4,0.4-2.1c0.2-0.7,0.6-1.4,1.1-2
		c0.6-0.8,1.4-1.4,2.3-1.9C272,12.8,273,12.6,274,12.6z M279.8,19.3c0-0.8-0.1-1.6-0.4-2.3c-0.3-0.7-0.7-1.3-1.2-1.9
		c-0.5-0.5-1.2-0.9-1.9-1.2c-0.7-0.3-1.5-0.4-2.2-0.4c-0.8,0-1.5,0.1-2.2,0.4c-0.7,0.3-1.3,0.7-1.8,1.2c-0.6,0.6-1,1.2-1.3,1.9
		c-0.3,0.7-0.5,1.5-0.5,2.2c0,0.8,0.1,1.5,0.4,2.2c0.3,0.7,0.7,1.3,1.2,1.8c0.6,0.5,1.2,1,1.9,1.3c0.7,0.3,1.4,0.4,2.2,0.4
		c0.8,0,1.5-0.1,2.3-0.4c0.7-0.3,1.4-0.7,1.9-1.3c0.5-0.5,0.9-1.1,1.2-1.8C279.7,20.8,279.8,20.1,279.8,19.3z M275.6,19.5l1.7,3.4
		h-1.6l-1.5-3.2h-1.4v3.2h-1.4v-7.5h2.8c1,0,1.8,0.2,2.4,0.5c0.5,0.3,0.8,0.9,0.8,1.5c0,0.5-0.2,1-0.5,1.3
		C276.6,19.1,276.2,19.4,275.6,19.5z M274,18.8c0.7,0,1.2-0.1,1.5-0.3c0.3-0.2,0.4-0.5,0.4-0.9c0-0.4-0.2-0.8-0.5-1
		c-0.3-0.2-0.8-0.3-1.5-0.3h-1.2v2.5H274z"/>
</g>
</svg>
