<svg width="1306" height="961" viewBox="0 0 1306 961" xmlns="http://www.w3.org/2000/svg" xmlns:xlink="http://www.w3.org/1999/xlink"><title>map_2_tile</title><defs><path id="a" d="M0 0h1305.21v960.502H0z"/></defs><g fill="none" fill-rule="evenodd" opacity=".05"><mask id="b" fill="#fff"><use xlink:href="#a"/></mask><path d="M1245.09 436.125c-1.02.83-2.172 1.5-3.68 2.527 5.303 4.222 9.586 7.908 14.166 11.183 3.205 2.293 4.906 5.136 5.707 8.934.53 2.52 1.672 4.98 2.91 7.27 3.393 6.274 7.49 12.218 10.37 18.71 4.11 9.255 7.255 18.935 11.105 28.313.95 2.313 2.682 4.615 4.662 6.125 3.254 2.48 5.9 5.263 7.93 8.81 3.64 6.353 7.756 12.443 11.15 18.918 2.54 4.85 6.518 6.783 11.377 6.37 8.58-.735 15.688 1.642 21.396 8.107.217.246.53.404.78.622 9.54 8.308 19.177 16.508 28.532 25.018 1.797 1.636 3.012 4.36 3.572 6.795.852 3.7 1.15 7.578 1.232 11.393.15 7.096 2.612 12.538 8.593 16.928 7.363 5.41 14.28 11.498 20.94 17.77 3.853 3.63 7.218 7.747 12.315 9.685 1.613.61 3.5 1.213 5.125.955 5.633-.885 197.938 58.16 202.33 61.693V719c-.867-.472-189.225-56.32-189.977-56.935-3.64-2.97-7.447-4.52-12.424-3.648-2.514.44-5.367-.945-8.043-1.602-1.073-.264-2.083-.79-3.452-1.326-.46 4.983-.697 9.604-1.348 14.17-1.064 7.47.924 13.712 5.21 20.054 4.82 7.13 8.265 15.2 5.706 24.422-1.02 3.678-1.623 7.473-2.33 11.23-2.395 12.74-5.428 25.406-6.926 38.252-1.383 11.867-.844 23.947-1.63 35.9-.825 12.56-2.776 24.846-12.997 33.91-1.352 1.2-2.516 2.707-3.447 4.264-.994 1.662-2.098 3.496-2.31 5.352-.93 8.1-2.007 16.225-2.157 24.355-.165 8.813-2.35 16.07-10.833 20.177-3.113 1.508-3.906 4.213-4.22 7.354-1.038 10.433-2.132 20.858-3.308 31.274-.24 2.123-.327 4.652-1.51 6.213-5.255 6.922-2.724 14.95-4.716 23.357 12.377-1.43 266.447-20.943 277.957-22.273 0 2.038-4.25 5.765-4.25 8.25-1.325.4-241.08 17.71-242.356 17.88-15.273 2.045-30.533 4.217-45.85 5.89-3.383.37-5.34 1.33-6.06 4.48-.515 2.248-.657 4.58-1.114 6.844-.324 1.607.008 3.86-3.164 3.783v-6.807c-2.467 1.11-4.377 2.11-6.385 2.842-3.573 1.3-7.19 2.498-10.823 3.625-2.748.852-5.25.36-7.36-1.75-.823-.82-1.737-1.568-2.692-2.232-4.223-2.936-11.408-2.26-14.877 1.357-3.363 3.508-6.752 4.1-11.238 1.594-4.084-2.283-8.068-4.703-12.9-4.994-4.406-.264-7.408-2.67-9.564-6.314-1.818-3.074-4.37-4.373-7.938-3.588-5.127 1.13-9.877.19-14.287-2.67-1.25-.81-2.603-1.914-3.97-2.01-4.012-.283-8.2-.795-12.04.055-3.593.795-6.88 3.12-10.206 4.947-4.068 2.232-7.855 2.197-11.545-.78-2.964-2.39-6.134-1.796-8.687.355-4.672 3.94-9.945 7.363-12.84 13.137.438.94-2.518 2.7-4.22 2.928-7.552 1.012-12.8-2.486-16.77-8.383-3.783-5.624-9.727-7.845-15.6-10.034-1.646-.613-3.86.246-5.803.502-1.63.215-3.285.902-4.865.746-9.436-.938-18.86-2.004-28.275-3.137-5.19-.625-12.947 3.6-15.217 8.377-1.207 2.54-2.594 4.998-3.998 7.684.473 1.19-2.078 2.05-3.732 1.252-1.818 0-3.55.344-5.057-.09-1.684-.486-3.162-1.676-4.78-2.59-2.81 1.742-5.534 2.738-8.38.346-.412-.348-1.412-.477-1.86-.22-3.646 2.09-6.786.175-9.94-1.204-2.238-.98-4.19-1.465-6.596-.125-1.21.672-3.3.54-4.67-.016-3.037-1.23-5.873-2.958-9.078-4.636-5.77 5.613-13.182 6.28-20.736 5.45-.643 2.784-.686 5.794-2.045 7.987-1.18 1.91-1.68 3.304-1.095 5.415.617 2.23 39.832 75.256 40.223 77.547-2.668 0 1.813 10.852-.854 10.852-.51-2.94-46.97-87.473-47.736-90.346-.717-2.686-.36-4.736 1.613-6.813.99-1.04 1.812-2.914 1.634-4.27-.596-4.527.748-7.795 5.324-9.62-.633-.956-1.07-1.612-1.635-2.462-1.697 1.05-3.223 2.006-4.758 2.945-1.63.996-3.53 1.71-4.855 3.016-3.635 3.578-8.715 2.79-10.03-2.08-.958-3.547-2.976-6.137-5.198-8.846-2.047-2.496-3.61-5.39-5.688-8.57-3.742-.656-3.742-.656-6.475-4.727-2.44-3.632-5.952-3.757-8.03.2-2.025 3.86-5.518 5.996-8.473 8.777-1.59 1.496-3.363 1.14-4.998-.055-1.558-1.14-3.07-2.334-4.472-3.402-1.766.9-3.08 1.607-4.428 2.25-5.025 2.396-9.703 5.977-15.9 4.262-.932-.256-2.283.426-3.254.994-4.89 2.86-9.7 5.803-15.72 5.604-1.046-.035-2.138.834-3.185 1.332-7.923 3.777-15.313 8.313-21.37 15.205 7.79 2.725 22.625 64.86 23.396 70.514-1 0-.95-.243-1.95-.243-.403-1.775-18.776-58.754-19.165-60.533-1.114-5.12-5.41-8.793-10.487-9.57-2.72-.416-5.4-1.434-7.95-2.527-2.274-.975-4.3-2.514-6.52-3.64-1.925-.98-3.78-1.534-6.09-.327-1.983 1.035-4.448 1.152-7.683 1.902-3.44 4.676-3.44 4.676-11.01 2.797-2.242-.558-4.746.983-4.828 3.59-.168 5.366-2.594 9.478-6.227 13.104h-11c1.284-1.893 2.17-4.79 3.93-5.484 4.95-1.96 5.346-5.682 5.447-9.945-4.79-.37-8.2-1.232-10.48-2.676 2.992-1.872 7.454-4.845 9.298-5.89 2.58-.438 5.354-.74 7.168-2.186 4.517-3.605 7.843-1.746 11.566 1.322 1.64-4.188 4.908-4.688 8.662-4.283 1.088.117 2.22-.25 3.332-.295 2.408-.094 5.04-.77 7.18-.035 3.727 1.28 7.174 3.393 10.69 5.248 5.03 2.653 8.813 2.892 11.89-.562 5.525-6.205 13.068-9.04 19.963-12.97 1.396-.792 3.105-1.222 4.716-1.403 4.05-.457 7.623-1.924 11.2-3.87 2.82-1.532 6.194-2.997 9.263-2.882 3.573.133 6.493-.71 9.456-2.262 2.21-1.157 4.467-2.235 6.64-3.458 2.513-1.414 4.776-1.693 7.407.063 2.37 1.578 5.016.674 6.754-1.713.684-.94 1.26-1.96 1.914-2.926 4.138-6.107 13.815-6.615 18.388-.727 1.414 1.82 2.814 3.07 5.002 3.655 3.195.852 4.967 2.898 5.564 6.287.324 1.84 1.38 3.67 2.496 5.223 1.545 2.146 3.46 4.027 5.166 5.967 5.838-.57 5.838-.57 10.996-3.89 4.865-3.134 6.348-2.868 8.9 2.304 1.45 2.94 3.273 5.297 6.09 6.996 4.11 2.482 7.48 1.18 8.385-3.64.83-4.41 1.148-8.91 1.936-13.327 1.098-6.164.72-12.623 4.22-18.31 7.417-12.052 16.194-22.74 28.9-29.55 3.698-1.98 5.57-4.594 6.106-8.896 1.657-13.362 3.456-26.72 5.772-39.98 1.586-9.08 2.115-18.504 6.838-26.975-.666-.748-1.336-1.467-1.97-2.22-7.317-8.657-16.624-14.71-26.282-20.384-5.46-3.208-10.682-6.74-17.236-7.366-1.28-.123-2.572-.725-3.736-1.34-6.328-3.338-12.664-6.662-18.902-10.164-5.393-3.027-9.623-7.05-10.527-13.64-.225-1.634-.78-3.23-1.248-4.825-1.524-5.197-2.128-5.604-7.41-4.152-4.218 1.158-8.405 1.87-12.792 1.07-3.17-.578-4.934-2.293-5.7-5.428-1.876-7.69-2.85-15.37.134-22.982 1.1-2.81.643-5.19-1.096-7.46-2.775-3.62-3.523-7.747-3.393-12.204.32-10.81-2.186-21.05-6.254-31.01-1.18-2.89-2.896-4.636-5.847-5.522-4.455-1.34-8.8-3.05-13.264-4.342-12.622-3.656-17.106-15.332-24.105-24.475-1.174-1.534-.822-4.185-1.373-6.27-.46-1.743-.875-3.65-1.89-5.073-6.42-9.027-10.683-19.16-15.15-29.18-3.26-7.308-9.308-12.34-14.062-18.845-5.68 7.53-11.277 14.367-16.154 21.686-2.207 3.308-3.73 7.476-4.26 11.425-1.463 10.875-2.28 21.838-3.266 32.775-.387 4.285-2.04 7.492-5.17 10.777-7.174 7.53-12.357 16.123-8.475 27.412.688 2 .46 4.59-.113 6.697-1.484 5.445-2.97 10.967-5.264 16.096-2.373 5.305-2.322 10.795-.428 15.557 1.752 4.398 5.814 7.895 8.98 11.686.395.473 1.62.615 2.31.406 2.245-.685 3.253.548 4.472 2.13 2.916 3.793 6.12 7.363 9.088 11.117 1.525 1.932 2.762 4.09 4.188 6.102 1.615 2.274 2.895 5.845 5.03 6.48 5.017 1.503 6.978 4.92 9.456 8.98 3.98 6.524 4.945 12.872 2.305 19.878-2.3 6.104-4.243 12.217-3.25 18.918.26 1.746-.263 3.63-.552 5.432-1.082 6.717-2.648 13.35.225 20.135.7 1.654-.145 4.182-.783 6.143-1.283 3.924-3.318 7.635-4.316 11.615-2.19 8.73-4.83 17.237-8.688 25.407-1.86 3.938-4.494 6.082-8.727 6.195-3.187.086-5.927 1.158-8.026 3.465-1.996 2.193-3.674 4.674-5.582 6.953-1.04 1.242-2.15 3.152-3.426 3.33-3.793.525-5.2 3.15-6.678 5.998-1.912 3.693-4.117 7.25-5.81 11.037-1.99 4.447-4.704 7.148-9.962 7.592-4.632.39-6.846 3.498-7.67 8.316-.217 1.273-.755 2.53-1.347 3.69-1.663 3.263-3.398 6.487-5.16 9.696-2.058 3.755 2.93 16.454 6.59 19.755-.462.078-10.268 6.545-10.763 6.826-.372-2.6-6.387-8.34-9.68-4.853-1.076-.3-3.938-.932-6.212-1.438l-3.076-.712c2.478-2.703 8.634-11.785 7.528-14.063-.608-1.256.208-3.21.397-4.844.166-1.43.355-2.854.388-3.12-3.8-3.188-6.843-5.63-9.753-8.215-2.54-2.258-3.044-5.148-1.687-8.19 2.49-5.573 3.365-11.42 3.636-17.462.288-6.45 4.266-11.08 8.62-15.207 3.47-3.29 7.696-5.78 11.18-9.055 1.816-1.706 3.057-4.224 4.025-6.59 1.936-4.733 2.74-10.103 5.42-14.312 3.328-5.232 3.14-9.64.717-14.957-2.793-6.132-4.848-12.6-7.362-19.29-2.524-.764-5.672-1.816-8.878-2.637-1.174-.3-2.524-.244-3.73-.016-2.064.39-4.122 1.637-6.102 1.486-9.976-.756-17.458 3.383-24.773 9.945-9.844 8.826-19.33 18.443-32.09 23.4-.232.09-.33.527-.61 1.006 4.49 2.205 8.956 4.41 13.435 6.586 1.73.842 3.51 1.744 2.43 4.086-2.345 5.086-.54 8.695 3.38 12.197 2.977 2.658 3.202 6.78 1.96 10.236-1.043 2.903-4.537 2.03-7.097 2.345-.493.06-1 .004-1.498.047-5.234.465-10.468.94-16.223 1.46l3.84 53.724c4.937 1.45 9.525 2.887 14.168 4.12 1.902.505 3.072 1.257 3.927 3.23 2.575 5.946 7.23 7.005 12.377 3.15.626-.468 1.35-.81 1.92-1.147 9.06 6.472 20.452 2.085 20.452 2.085.248.08 1.526.367 3.075.71l6.21 1.44s-3.308 3.33-4.676 4.058c-8.875 6.424-8.874 6.424-17.994 4.193-.322-.078-.72-.012-.973-.182-5.002-3.344-10.673-4.7-16.425-6.2-7.667-1.997-15.096-4.913-22.61-7.48-2.362-.81-4.314-.056-5.89 1.57-3.72 3.835-7.107 7.743-6.973 13.737.092 4.1-3.304 33.595-3.74 37.704-1 0-1.825 1.54-2.825 1.54.286-1.964 3.104-30.84 3.184-32.81.357-8.85.512-17.736 9.22-23.457-7.458-3.82-16.983-2.307-28.728-.78l.353 6.304c.44 7.942 1.153 39.466 1.596 47.407-1 0-1.31.256-2.31.256-.572-9.875-2.103-43.59-2.676-53.506-8.668-1.06-15.558.53-20.665 7.2-1.108 1.45-2.204 2.995-3.61 4.114-5.938 4.735-6.418 29.214-5.136 37.058-.668 0-.427 4.084-2.568.77-.557-2.864-3.417-25.204-3.998-28.198-10.856.734-21.58 1.336-32.276 2.244-4.32.365-23.51-.285-23.51-.285h-15.16l-8.765.78-9.063.592-4.107.352s-7.596.898-11.345 1.152c-6.417.438-12.842.803-19.27 1.03-2.076.073-8.648 1.036-10.462.95-5.785-.28-11.646-.162-17.324-1.11-5.02-.837-9.838-2.9-14.75-4.405-1.8-.552-3.617-1.058-6.274-1.83v9.255c-2.49 2.533-6.707 3.738-14 0-3.34-2.7-7.19-3.813-11.454-4.07-5.56-.334-12.826-2.268-19.01-2.834-1.053 1.388 3.32-6.597 8.69-13.956H434.12s-6.746.31-8.212.193c-4.276-.338-8.602-.268-12.894-.063-1.533.074-4.438 1.61-4.438 1.61l-11.048.3s-24.618 4.12-36.647 6.28c-6.79 1.222-6.756 1.356-6.577 8.562.033 1.324-42.515 115.564-42.55 116.89h-9.24c1.848-2.333 39.613-117.442 41.165-119.96 1.072-1.74 2.074-3.947 1.998-5.904-.413-10.617-1.137-21.225-1.833-31.832-.22-3.367-.687-6.72-1.12-10.852-4.907 6.236-9.246 11.87-13.714 17.4-5.59 6.918-9.91 14.355-11.8 23.234-1.09 5.123-41.23 122.922-42.936 127.914h-8.47c1.878-4.572 40.744-121.912 41.927-126.66 3.17-12.723 9.28-23.664 17.86-33.498 5.14-5.885 9.553-12.4 14.385-18.56 1.636-2.085 2.27-4.27 2.083-6.91-.757-10.622-1.5-21.25-2.025-31.886-.256-5.148-.25-10.334.032-15.482.853-15.543-1.342-30.924-2.34-46.36-.812-12.614-2.72-25.163-3.32-37.782-.787-16.61-4.67-32.463-9.194-48.36-10.372-36.454-20.063-73.1-30.15-109.638-5.175-18.748-10.43-37.478-16.018-56.105-1.8-5.994-4.912-11.582-7.156-17.46-.975-2.55-1.336-5.347-1.866-8.056-1.05-5.366-1.85-10.786-3.077-16.11-1.485-6.448-2.913-12.838-5.98-18.922-4.356-8.642-10.866-15.03-18.34-20.72-7.933-6.043-16.666-11.055-23.49-18.52-5.796-6.34-10.666-13.302-12.978-21.607-6.195-22.254-12.286-44.542-18.03-66.916-2.212-8.61-4.992-17.004-9.313-24.644-3.407-6.025-8.613-11.004-12.46-16.818-5.03-7.604-10.1-15.286-14.085-23.455-5.975-12.247-10.912-24.996-16.525-37.425-1.898-4.203-65.786-128.917-65.534-133.53 0 0 3.686.598 6.404.06-36.09-.333-75.167-.717-75.722-.8-.587-3.153 1.3-2.846 2.823-2.866 6.332-.083 145.47 1.036 151.802.92 19.98-.364 39.96-.69 59.935-1.216 20.8-.546 41.593-1.295 62.39-1.973 19.796-.645 39.593-1.305 59.39-1.968 19.966-.67 39.932-1.337 59.897-2.028 14.47-.5 28.96-.726 43.403-1.664 9.78-.635 19.48-2.416 29.24-3.44 5.283-.557 10.62-.772 15.935-.824 3.78-.036 6.863 1.695 9.795 4.25 11.625 10.134 18.806 23.655 27.952 35.685 6.024 7.923 12.956 15.202 19.93 22.332 2.022 2.067 5.493 3.33 8.47 3.75 15.812 2.234 31.676 4.087 47.522 6.062 2.665.332 5.01-.035 7.392-1.722 12.284-8.706 26.825-12.3 40.63-17.55 4.353-1.654 8.866-2.933 13.092-4.853 8.698-3.953 17.773-5.212 27.213-4.78 3.493.158 7.018-.234 10.496.03 13.69 1.04 21.257-6.832 27.172-17.81 5.855-10.87 7.252-22.735 8.477-34.625.625-6.06 3.666-10.58 7.336-14.908 2.367-2.79 5.14-5.237 7.49-8.04.808-.965 1.413-2.643 1.196-3.827-.837-4.554-1.998-9.052-3.126-13.548-1.253-4.997-2.757-9.935-3.862-14.962-.96-4.37-3.825-6.512-7.852-7.182-6.56-1.09-13.166-1.924-19.762-2.796-16.82-2.224-33.598-4.993-50.488-6.366-8.523-.693-13.792-4.183-17.588-11.313-1.69-3.172-8.684-13.51-10.71-16.543 2.61-1.5 1.713-2.67 2.824-1.027 2.61 3.864 12.126 17.603 14.655 21.52 1.387 2.145 3.11 3.085 5.673 3.412 22.11 2.812 44.2 5.77 66.296 8.68 3.135.413 6.303.648 9.4 1.254 5.152 1.007 9.216 3.15 10.487 9.058 1.777 8.253 4.078 16.393 6.192 24.726 2.66.77 4.812.222 6.908-2.088 4.587-5.056 9.437-9.878 14.28-14.693 2.143-2.13 2.835-4.48 3.014-7.523.673-11.45 1.76-22.877 2.714-34.31.054-.627-.71-16.927-.488-17.736 2.225 0 4.46 1.284 7.17 1.284-.277 3.72.344 21.546.018 25.908 1.657-2.79 16.836-31.18 18.04-33.327 3.08-5.494 0 0 7.374 1.77-1.95 3.58-14.196 27.667-16.102 31.107-1.854 3.35-4.14 6.523-5.52 10.053-1.36 3.476-5.868 5.466-4.976 10.68 8.177-7.73 15.9-15.026 23.62-22.327 1.575-1.488 4.76-11.383 6.058-13.084 4.37-5.73 7.938-7.13 14.888-5.905-1.243 1.4-3.04 6.797-5.647 12.58-12.007 11.3-20.828 23.08-32.643 34.58-5.514 5.365-9.65 11.793-9.418 20.005.06 2.1.285 4.36 1.124 6.238 1.868 4.177 2.73 8.354 2.856 12.988.175 6.46 1.514 12.88 2.093 19.34.803 8.945 1.356 17.914 2.04 26.87.086 1.135.316 2.258.58 4.08 2.398-.972 4.488-1.805 6.566-2.666 7.3-3.028 14.703-4.19 22.78-4.105 13.678.144 26.64 3.733 39.883 5.997.326.056.648.276.96.256 10.44-.663 19.65 4.295 29.446 6.543 4.148.954 8.447 2.394 11.965 4.702 6.574 4.315 13.77 5.38 21.27 6.025 9.113.784 18.203 1.855 27.314 2.687 2.128.194 4.345.19 6.44-.177 7.53-1.32 15.026-2.837 22.536-4.277 3.355-.643 6.582-.647 9.645 1.277 6.282 3.947 13.177 5.33 20.52 4.526 1.636-.18 3.272-.45 4.874-.82 6.133-1.415 12.314-2.672 18.36-4.398 6.38-1.822 10.67-6.417 12.343-12.602 2.465-9.114 4.63-18.278 4.346-27.975-.43-14.65-.418-29.343.266-43.978.312-6.695 2.284-13.417 4.306-19.875.738-2.36 3.59-4.286 5.844-5.896 3.314-2.37 5.2-5.204 5.896-9.312 1.166-6.876 2.852-13.67 4.46-20.463.263-1.11 3.235-22.172 3.89-23.19.412.17 2.668 1.886 3.08 2.055-.078 1.243-3.838 21.094-4.086 22.302-1.514 7.33-3.18 14.626-4.63 21.968-.677 3.44-2.024 6.305-5.165 8.077-5.164 2.916-7.502 7.5-8.646 13.193-1.185 5.885-2.267 11.678-2.128 17.748.236 10.493-.352 21.012.094 31.49.514 12.133-1.238 23.86-4.48 35.46-.16.577-.23 1.18-.486 2.53 5.463-1.496 10.334-2.93 15.264-4.13 1.873-.456 4.156-1.058 5.78-.41 8.765 3.48 17.355.805 26.06-.023 8.904-.847 14.63-6.632 20.48-12.22 3.96-3.785 7.21-8.4 13.256-9.055 1.97-.213 3.963-.738 5.906-.6 9.63.686 19.256 1.44 28.863 2.387 5.128.505 9.462 2.84 13.122 6.56 7.713 7.84 15.623 15.49 23.26 23.403 2.152 2.232 4.016 2.822 6.914 1.637 4.918-2.013 10.035-3.535 14.975-5.5 3.546-1.41 7.07-1.837 10.737-.886 4.625 1.2 9.104.964 13.668-.572 8.344-2.81 16.736-5.497 25.2-7.916 2.612-.746 5.67-1.096 8.255-.488 4.273 1.005 7.244.083 10.08-3.25 3.123-3.668 6.697-6.968 10.22-10.274 1.82-1.708 2.714-3.545 2.77-6.075.174-7.654.754-15.303.77-22.954.012-4.99 1.066-9.44 3.635-13.75 3.986-6.685 7.623-13.578 11.387-20.344-4.023-4.203-10.605-4.7-13.55-10.25 3.74-1.754 5.32 1.66 7.733 2.66 2.43 1.008 4.64 2.545 7.027 3.895 2.117-2.477 35.29-78.28 37.773-79.24 2.996-1.16 3.643 0 7.957 0-1.398 1.59-30.523 75.062-31.56 75.566-3.74 1.82-5.36 5.24-7.208 8.596-4.09 7.435-8.19 14.87-12.5 22.177-2.197 3.728-3.002 7.668-3.143 11.883-.284 8.483-.49 16.974-1.08 25.438-.132 1.922-1.317 4.1-2.673 5.55-5.348 5.717-11.023 11.126-16.428 16.792-2.106 2.208-4.478 2.923-7.218 2.082-5.176-1.59-9.932-.78-14.988 1.058-8.27 3.003-16.775 5.41-25.29 7.658-2.606.688-5.63.402-8.35-.08-4.692-.83-9.11-.814-13.612 1.1-4.865 2.072-9.94 3.66-15.186 5.552.984 9.507 1.947 18.73 2.893 27.958 1.61 15.72 3.563 31.415 4.724 47.168 1.383 18.75 2.18 37.547 2.986 56.334.16 3.742-.3 7.665-1.3 11.275-2.755 9.925-6.106 19.684-8.9 29.6-1.33 4.728-4.022 8.493-7.483 11.558-6.254 5.535-7.55 11.963-5.42 19.78 3.838 14.098 7.344 28.285 10.9 42.1 7.283 2.54 13.855 5.663 20.773 7 6.516 1.262 13.723 1.52 18.637-4.664 1.566-1.97 2.715-4.52 3.295-6.985 2.36-10.03 13.672-14.86 22.6-9.473 7.123 4.3 14.22 8.645 21.422 12.807 1.816 1.048 3.963 1.95 6.014 2.087 5.457.368 10.742 1.457 14.92 4.95 6.836 5.72 14.25 4.478 21.01 1.302 6.275-2.95 10.12-1.368 14.363 3.16 6.93 7.395 14.47 14.148 19.634 23.147 2.71 4.722 6.898 8.37 13.037 9.04 3.93.428 7.72 2.028 11.642 2.68 2.207.365 4.615.157 6.828-.3 4.398-.908 8.375-.154 11.635 2.816 6.025 5.488 13.773 6.387 21.154 8.058 2.136.484 84.358-20.74 86.735-21.317 0 1.333 1 2.167 1 3.5-2.28.356-85.39 21.707-87.45 21.19-8.136-2.043-16.84-2.688-23.495-8.837-2.572-2.377-5.69-2.986-9.273-2.27-2.686.534-5.594.61-8.3.21-3.595-.532-7.048-2.2-10.642-2.54-7.813-.743-12.797-5.384-16.39-11.584-5.548-9.58-14.198-16.25-21.57-24.12-1.384-1.48-2.837-1.663-4.915-.925-4.035 1.434-8.326 2.133-12.393 3.494-3.848 1.29-7.072.538-10.324-1.664-5.7-3.86-11.736-6.818-18.885-7.012-1.873-.05-3.854-1.06-5.545-2.037-7.2-4.166-14.266-8.563-21.48-12.697-1.953-1.12-4.303-2.38-6.396-2.26-6.8.382-10.902 4.122-12.146 10.928-.61 3.355-2.02 5.94-4.56 8.007zm-60.887-51.257c-3.785-.134-7.588-1.396-7.986-5.662-.563-6.018-1.37-11.826-3.953-17.354-.596-1.273-.217-2.97-.47-4.44-.58-3.4-.376-7.335-2.073-10.075-7.606-12.3-15.79-24.244-23.712-36.352-1.537-2.348-3.555-3.794-6.225-4.62-15.645-4.842-31.268-9.757-47.754-14.915 1.17 6.978 2.57 12.972 3.08 19.042.49 5.833 3.388 9.928 7.52 13.523 1.384 1.203 2.94 2.234 4.18 3.562 1.224 1.307 2.647 2.746 3.12 4.377 1.994 6.888 6.105 12.493 10.215 18.162 4.318 5.96 3.95 13.814-.61 19.73-.972 1.263-2.42 2.95-2.21 4.197.824 4.86 1.195 10.02 4.604 13.992 1.224 1.43 2.915 2.897 4.657 3.358 5.182 1.374 9.264 4.263 13.06 7.87 3.62 3.44 7.5 6.604 11.2 9.964 6.113 5.55 12.928 8.338 21.408 6.71 6.605-1.268 13.254-1.23 19.295 2.584.293.186.828-.01 1.066-.02-2.815-11.254-5.59-22.34-8.413-33.632zm13.635-199.69c-2.16.687-4.037 1.212-5.863 1.875-17.03 6.175-33.934 12.728-51.13 18.387-6.694 2.202-10.702 5.195-10.6 12.557.15 10.736-7.128 17.915-13.054 25.488-2.257 2.886-5.427 5.04-7.362 8.485-.74 1.318-3.986 2.35-5.592 1.863-6.633-2.01-13.26-4.26-19.5-7.24-2.87-1.37-5.367-2.29-8.443-1.78-4.266.705-8.55 1.292-12.81 2.01-3.155.53-6.288 1.19-9.888 1.883 1.014 1.458 1.47 2.363 2.146 3.05 10.94 11.155 21.907 22.283 32.872 33.413 3.39 3.44 7.645 5.34 12.266 6.186 14.455 2.646 28.06 8.04 41.848 12.81 2.023.7 4.09 2.36 5.3 4.145 8.388 12.396 16.597 24.914 24.737 37.474.94 1.45 1.258 3.378 1.582 5.136 1.643 8.908 3.193 17.833 4.775 26.752.03.164.012.397.11.478 1.31 1.05 2.634 2.08 3.954 3.113.58-1.24 1.705-2.507 1.64-3.71-.222-4.073 1.73-6.958 4.347-9.677 1.614-1.68 3.005-3.58 4.653-5.22 2.8-2.79 4.33-6.136 5.37-9.923 1.94-7.047 3.913-14.114 6.446-20.96 3.013-8.144 3.97-16.41 3.18-24.97-.212-2.316-.364-4.638-.515-6.958-1.004-15.436-1.852-30.884-3.05-46.305-.85-10.942-2.112-21.854-3.306-32.767-1.282-11.723-2.7-23.43-4.112-35.595zm-182.578 7.366c.375 5.28 1.258 9.99 6.662 12.857 8.566 4.545 13.213 12.298 16.248 21.23.563 1.654 1.453 3.533 2.775 4.53 4.906 3.69 8.69 8.16 10.752 14.046 1.098 0 1.926.11 2.72-.017 7.218-1.144 14.442-2.266 21.642-3.525 3.753-.656 6.815.092 10.313 2.014 5.45 2.995 11.592 4.747 17.477 6.927 2.373.878 3.514-.613 4.71-2.495 1.29-2.033 3.104-3.74 4.735-5.55.66-.73 1.533-1.282 2.143-2.047 2.045-2.565 4.188-5.08 5.965-7.825 1.686-2.6 3.414-5.327 4.3-8.248 1.2-3.952 1.845-8.116 2.304-12.237.465-4.166 2.45-6.468 6.434-7.816 11.33-3.836 22.577-7.923 33.82-12 9.165-3.324 18.28-6.778 27.48-10.197-9.104-9.223-17.887-18.307-26.94-27.115-1.515-1.474-4.136-2.228-6.345-2.496-7.756-.94-15.61-1.166-23.32-2.345-7.4-1.13-12.988.7-18.14 6.386-7.296 8.052-15.503 15.175-27.405 15.332-.65.01-1.293.373-1.95.414-5.903.367-11.75 3.23-17.69 1.016-5.135-1.915-9.932-1.416-15.01.192-6.803 2.155-13.805 3.595-19.162 8.96-1.254 1.256-3.53 1.613-5.414 2.096-5.447 1.4-10.926 2.69-16.41 3.945-2.225.508-2.852 1.76-2.694 3.964zm-146.756-5.562c3.627.5 6.887 1.115 10.172 1.366 4.828.368 9.313.958 10.555 6.854.23 1.083 1.224 1.982 1.67 3.047 1.26 3.012 3.56 3.828 6.68 4.198 3.55.42 7.015 1.692 10.468 2.754 2.053.63 4.03 1.522 6.008 2.38 5.732 2.487 11.79 1.874 17.738 1.67 6.79-.232 13.1 1.013 19.352 3.73 8.533 3.707 17.29 6.908 26.004 10.183 1.813.68 3.877 1.112 5.79 1.01 4.314-.234 8.626-.73 12.896-1.4 2.768-.435 5.166-.13 7.637 1.283 6.645 3.797 13.438 7.335 20.086 11.127 1.526.87 2.937 2.172 4.005 3.575 3.633 4.767 7.16 9.617 10.586 14.534 2.65 3.8 5.814 6.604 10.48 7.8 5.306 1.36 10.565 3.008 14.866 6.74.5.434 1.574.207 3.344.38-1.494-1.753-2.238-2.82-3.168-3.69-7.084-6.625-13.828-13.488-17.24-22.885-.275-.76-.754-1.605-1.39-2.05-6.835-4.777-10.274-11.772-13.25-19.258-2.58-6.5-8.34-10.177-13.935-13.83-2.947-1.926-4.908-4.262-4.97-8.085-.044-2.61-.823-5.206-1.397-8.533-3.643 0-7.266.167-10.863-.058-2.438-.152-5.28-.185-7.178-1.433-6.974-4.584-14.228-4.643-21.845-2.487-.48.136-.955.318-1.445.39-7.045 1.05-13.932 3.212-21.232 2.366-11.732-1.358-23.484-2.573-35.25-3.606-4.096-.36-7.816-1.367-11.23-3.618-5.49-3.62-11.524-5.76-17.96-7.104-5.258-1.098-10.395-2.79-15.982-4.33-.002 5.812-.002 11.098-.002 16.978zm-36.662-1.56c10.96.396 21.81.79 33.063 1.2V169.9l-33.063-6.555v22.076zm-39.28-8.768c11.88 2.396 23.252 6.36 35.782 7.975V163c-12.668-1.464-24.71-.49-35.783 6.55v7.104zm-5.696 24.65c.44-.02.878-.042 1.318-.063l-.613-8.392c-4.322 2.97-.85 5.66-.704 8.456zm9.995 33.22c4.446-6.144 3.825-7.32-.61-14.3-1.018-1.6-2.88-2.718-4.482-3.878-3.633-2.63-6.296-5.73-6.985-10.433-.396-2.702-1.64-5.28-2.673-8.437-1.785 2.36-3.118 4.24-4.574 6.02-1.97 2.405-2.762 4.904-2.56 8.186.413 6.632.16 13.307.122 19.964-.024 4.23-.99 8.104-3.56 11.675-2.886 4.012-5.304 8.358-8.106 12.85 8.652 5.98 16.972 11.762 25.34 17.474.775.53 1.854.892 2.784.875 10.57-.197 21.14-.48 32.173-.753-2-4.962-4.244-8.435-8.46-10.45-2.538-1.213-4.762-3.077-7.284-4.336-5.848-2.918-9.456-7.696-11.874-13.57-1.547-3.76-1.737-7.45.75-10.885zm48.087 83.042c.158-.9-.395-1.915-.572-2.886-.53-2.91-1.04-5.822-1.547-8.736-.197-1.134-.053-2.453-.592-3.38-4.42-7.62-8.957-15.17-13.473-22.733-1.513-2.535-3.694-3.357-6.686-3.204-9.634.493-19.286.645-28.923 1.105-3.188.154-5.75-.808-8.303-2.624-7.583-5.398-15.29-10.627-23.224-16.113-4.22 6.004-8.303 11.815-12.337 17.558 7.197 9.546 7.232 9.782 2.257 17.382 3.396 2.275 6.833 4.518 10.207 6.85 20.13 13.912 40.264 27.813 60.33 41.816 1.986 1.388 3.413 3.553 5.268 5.162 4.905 4.25 8.634 10.21 16.128 10.77 1.377.102 2.852 1.553 3.91 2.72 2.77 3.055 5.334 6.296 8.033 9.526 3.426-5.266 4.064-10.27 1.363-16.034-3.307-7.06-5.81-14.496-8.654-21.77-1.937-4.95-4.177-9.82-3.185-15.406zm5.424 73.73c.306-3.29 1.226-6.527 1.882-9.786 1.36-6.76-3.047-16.46-8.928-19.59-.428-.228-.943-.348-1.432-.404-7.828-.906-12.102-7.003-17.25-11.812-1.68-1.568-3.105-3.475-4.963-4.77-14.207-9.908-28.49-19.705-42.753-29.532-2.584-1.78-5.18-3.546-8.04-5.504-7.125 10.16-14.05 20.036-21.286 30.358l-28.36-19.797c-1.18 1.61-2.09 2.79-2.936 4.014-15.41 22.347-30.947 44.61-46.127 67.112-3.85 5.707-6.556 12.185-9.916 18.55 1.942.974 3.242 1.662 4.57 2.288 12.493 5.88 24.905 11.94 37.517 17.553 8.31 3.698 15.315 8.532 19.373 16.98.422.875 1.73 1.45 2.747 1.89 1.98.853 4.108 1.38 6.065 2.28 3.39 1.563 6.66 1.407 10.144.204 5.182-1.788 10.476-3.246 15.712-4.882 3.66-1.144 6.715-.243 9.718 2.116 3.093 2.433 6.417 4.63 9.847 6.562 9.262 5.212 19.497 7.41 29.832 9.29 5.467.994 10.663.193 15.365-2.485 4.312-2.457 8.503-5.27 12.3-8.458 5.07-4.258 10.238-7.926 17.13-8.3.76-.04 1.49-.56 3.294-1.284-3.578-5.295-1.508-9.77.287-14.562 1.036-2.763.925-6.243.405-9.24-1.074-6.212-3.014-12.272-4.102-18.482-.584-3.345-.406-6.894-.092-10.307zm-.804 63.832c1.637-2.123 3.127-4.358 5.152-7.2-7.19.706-12.83 2.008-17.28 6.66-2.052 2.146-4.55 3.905-6.99 5.636-8.723 6.183-17.997 9.817-28.947 6.544-3.76-1.125-7.737-1.534-12.36-2.41-.34 2.948-.695 5.07-.8 7.202-.11 2.212-1.21 3.48-3.3 3.672-5.122.47-10.28 1.292-15.38 1.048-6.79-.323-13.546-1.46-20.297-2.386-2.095-.287-3.396.208-4.472 2.117-2.204 3.914-4.613 7.712-6.992 11.523-2.398 3.84-3.275 4.07-7.19 2.107-3.313-1.66-6.133-.994-8.057 2.067-1.325 2.11-2.453 4.344-3.698 6.507-2.34 4.07-2.362 4.093-6.508 2.063-7.095-3.472-14.17-6.98-21.348-10.52-2.142 3.542-1.87 6.982-.02 10.416 1.023 1.902 2.19 3.73 3.15 5.665 2.318 4.674 1.45 7.48-3.24 9.703-2.075.985-4.474 1.27-6.6 2.164-1.658.698-3.122 1.852-5.71 3.438 5.7 2.75 10.185 4.81 14.573 7.058 4.36 2.234 8.672 2.47 13.49 1.317 5.107-1.222 10.442-1.808 15.7-1.987 3.598-.122 7.222 1.06 10.856 1.424 4.945.497 9.934 1.237 14.866 1.02 5.444-.242 10.607-.045 15.354 2.862 2.265 1.387 4.487 1.585 7.128.962 7.112-1.676 14.327-2.915 21.456-4.524 5.14-1.16 9.836-3.124 12.013-8.568 1.684-4.21 4.59-6.806 9.36-6.89.817-.014 1.633-.29 2.446-.458l25.35-5.285c3.043-8.312 2.354-16.016 1.29-23.797-1.44-10.576.315-20.468 7.006-29.148zm-180.19 481.408c2.012-.79 3.596-1.477 4.502-3.375 1.208-2.526 2.277-5.12 3.517-7.63.567-1.15 1.19-2.828 2.146-3.13 3.268-1.026 3.797-3.81 4.946-6.335 1.276-2.805 2.806-5.492 4.34-8.455-2.67.145-5.32.275-7.97.434-10.13.604-20.257 1.436-30.397 1.693-3.124.078-4.89 1.045-6.46 3.502-3.853 6.03-7.645 12.124-11.885 17.88-3.344 4.54-4.156 8.87-.437 14.564 3.563-1.334 7.04-2.816 10.634-3.916 2.11-.645 4.46-1.13 6.61-.895 3.775.418 7.482 1.445 10 1.967 4.057-2.53 7.04-4.963 10.455-6.304zm-10.71 9.673c-3.448-.796-6.49-1.57-9.568-2.17-1.27-.25-2.763-.507-3.903-.085-4.16 1.537-8.214 3.36-12.386 5.107v14.38c7.77-.49 15.313-.968 22.332-1.41.426-3.048-.118-6.585 1.305-7.776 2.89-2.425 2.924-4.812 2.22-8.047zm-18.773-34.565c-8.817.098-16.264-2.89-22.465-6.81-2.953 1.505-5.01 3.065-7.306 3.597-3.202.742-3.918 2.56-3.743 5.396.357 5.81.81 11.62.896 17.436.08 5.363.46 10.54 4.127 15.03 5.116.095 10.172-.34 14.744-3.66-1.584-5.26.088-9.747 2.988-14.077 3.602-5.377 6.96-10.916 10.758-16.912zm-11.35 35.14l-20.166 3.665.4 7.607c6.838.99 13.197 5.424 20.45.398-.22-3.736-.458-7.78-.685-11.67zm-36.985-50.04c-2.77 2.834-2.29 5.81-.675 9.098 4.166-1.51 7.044-4.43 8.05-8.332 1.708-6.63 2.662-13.454 3.96-20.33-8.378-2.944-15.77 3.968-24.238 2.43-1.432 6.802-1.43 6.8 4.024 9.19 2.58 1.13 5.158 2.266 7.736 3.4 2.327 1.025 3.14 2.502 1.142 4.545zm-23.24 32.285c-1.843-3.865-3.723-7.494-7.237-8.914-7.15-2.89-12.57-7.938-18.11-12.914-4.39-3.947-8.666-8.02-13.626-12.625.69 8.975 1.297 17.04 1.958 25.1.063.785.25 2.004.745 2.236 3.473 1.62 6.147 4.98 10.84 4.025 2.54-.516 6.082-.334 8 1.1 5.51 4.125 11.142 2.716 17.43 1.992zm-1.657 3.76c-2.08 0-3.77-.283-5.33.057-4.02.875-7.427-.053-10.784-2.37-1.525-1.056-3.736-1.843-5.52-1.657-4.77.502-9.244.436-13.346-3.625v5.59c8.704.713 15.912 4.695 22.797 9.47.866.6 2.21.802 3.306.73 2.947-.185 5.88-.616 9.22-.997l-.342-7.198zm-124.83-18.63c.24.122.634-.06 1.414-.153 13.778-18.773 27.738-37.797 42.05-57.3-17.934-13.09-35.64-26.017-53.77-39.253l-53.045 72.07c6.434 3.654 11.937 6.98 17.63 9.947 3.79 1.976 7.714 3.937 11.81 5.032 11.356 3.04 23.248 4.155 33.91 9.657zm-36.365-5.687c-.314 5.045-.675 9.322-.78 13.605-.026 1.02.503 2.453 1.275 3.035 6.17 4.646 12.458 9.133 18.947 13.84 5.273-7.21 10.154-13.88 15.36-20.994-11.244-5.91-22.868-7.665-34.802-9.487zm-33.833-94.238c2.02 1.496 3.74 2.768 6.23 4.61 6.718-9.22 13.144-18.042 19.84-27.23l-11.567-8.34c-3.445 4.98-8.444 5.49-13.402 6.253-1.727.266-3.548.86-4.995 1.81-3.412 2.233-3.642 5.7-.32 8.067 5.46 3.892 7.745 8.49 4.214 14.83zm-27.387-114.943l18.452 13.803 19.913-27.65c-10.523-7.893-20.608-15.455-31.04-23.277-3.576 2.592-4.972 7.615-10.163 6.863-.303-.042-.753.573-1.056.944-3.736 4.615-2.45 10.223 2.896 12.56 1.19.522 2.43.937 3.52 1.35 1.23 6.572 1.23 6.572-2.52 15.408zm74.68-359.692c.117-.88-.416-1.846-.648-2.768-1.558 0-2.907-.2-4.176.03-14.878 2.717-29.737 5.537-44.616 8.25-12.09 2.202-24.09 5.065-36.553 4.392-3.112-.168-6.27.7-9.418.927-6.632.478-13.268.93-19.91 1.234-7.733.354-15.476.542-23.215.802-.08.313-.162.625-.243.938 51.216 27.12 102.432 54.24 154.324 81.72l33.018-63.055c-1.696-1.02-2.784-1.747-3.934-2.355-12.65-6.676-25.218-13.523-38.02-19.893-4.556-2.265-7.327-4.864-6.608-10.222zm310.51-106.69c-.574 2.294-.882 5.01-.197 7.19 1.533 4.88 3.762 9.545 5.705 14.296 1.564-.305 3.27-.85 5-.93 3.82-.173 7.65-.123 11.475-.145 5.503-.032 6.44-1.08 5.488-6.452-.224-1.27-.82-2.475-1.228-3.66-.72-.1-1.206-.24-1.687-.223-4.235.14-4.975-.603-4.796-4.67.155-3.568 1.28-6.516 5.225-7.867l-1.876-24.68c-6.51-.024-12.42-.05-18.15 2.47 1.014 6.58-2.89 10.73-7 14.858 2.964 2.948 2.95 6.18 2.04 9.815zm28.24.136c-3.585.998-6.213 2.506-4.93 6.565 5.643.35 5.643.35 7.592 6.532 3.926-5.67 7.747-10.54 7.087-17.544-.493-5.243.11-10.58-.212-15.85-.292-4.764-.272-9.27 3.733-12.99-4.29-.552-7.726 6.67-11.627.42-3.154 2.576-3.91 5.455-3.407 9.386.988 7.693 1.21 15.483 1.766 23.482zm17.945-40.854c2.742-2.014 5.237-4.366 7.826-6.588 2.34-2.008 1.875-6.77-1.037-9.333-2.664 3.16-4.99 6.87-9.79 7.12-.316.018-.717.695-.874 1.137-1.303 3.66-2.557 7.336-3.825 11.008 3.212-.728 5.618-1.815 7.7-3.343zm-25.922 98.057c2.525-3.328 2.54-4.448-.123-7.79-.684-.858-1.604-1.527-1.548-1.476-7.35 1.38-8.646 6.966-10.693 12.148-.958 2.425-2.747 4.53-4.22 6.742-3.855 5.788-7.745 11.554-11.945 17.812 8.69 6.115 16.955 11.93 25.613 18.02l19.28-27.63c-1.174-.91-2.05-1.663-2.995-2.313-4.238-2.912-8.62-5.632-12.71-8.738-3.56-2.703-3.44-3.117-.66-6.776zm4.025-33.56c-5.06 0-9.356-.127-13.642.047-2.712.11-4.106 2.14-3.356 4.836 1.208 4.343 2.66 8.618 4.16 13.4 4.388-6.244 8.45-12.032 12.84-18.282zm-29.154 22.034l-16.937-11.33c-20.333 29.98-41.047 59.11-60.635 89.314 8.624 5.98 16.66 11.555 25.088 17.4.876-1.24 1.357-1.902 1.822-2.577 13.5-19.6 27.055-39.16 40.468-58.82 5.247-7.688 10.317-15.508 15.198-23.435 3.53-5.736 3.33-13.475.022-18.545l-5.027 7.994zM552.242 681.75l-26.82-13.792c-.81 3.467-1.94 6.236-2.017 9.033-.24 8.964-.104 17.937-.074 26.905.005 1.406.212 2.813.37 4.777l22.295-7.775c-.94-7.74 4.56-12.773 6.246-19.148zm-29.268-15.382c-3.075-1.334-5.75-2.572-8.486-3.658-2.688-1.066-4.754-.53-6.146 2.324-6.337 12.998-12.788 25.94-19.126 38.94-.463.948-.888 2.772-.434 3.175 2.808 2.478 3.736 5.608 4.118 9.134.062.566 1.2 1.016 1.757 1.453 3.542-1.783 6.383-3.617 9.488-4.662 3.12-1.05 6.516-1.27 9.773-1.934 4.998-1.017 5.33-1.456 5.384-6.6.013-1.167-.067-2.34.014-3.5.802-11.473-2.4-23.305 3.657-34.672zm-15.327 158.394l-24.904-18.504-18.327 25.22c8.602 6.317 16.863 12.388 25.38 18.645l17.85-25.36zm-10.823 30.373c2.07 1.734 3.91 3.275 5.68 4.76 7.82-5.932 8.213-6.744 10.18-15.37.946-4.142 2.48-8.146 3.624-12.247.154-.56-.413-1.318-.997-2.99l-18.488 25.847zm-24.778 33.614l25.13 18.09 19.604-26.513-24.938-18.46-19.795 26.882zm43.814-1.443c3.18 1.12 5.845 2.063 8.51 3.004.22-.33.44-.66.66-.993-1.766-1.975-3.532-3.95-5.54-6.19-1.365 1.57-2.283 2.63-3.63 4.18zm-15.756 22.047l10.092 7.38c6.54-6.786 9.107-15.08 12.114-23.464l-8.633-3.21c-4.445 6.32-8.83 12.554-13.573 19.294zm13.834 10.168c4.07 2.418 7.07 7.86 14.463 7.912-.693-11.436-1.346-22.17-2.03-33.44l-12.432 25.528zm26.463-25.438c1.396-4.348 2.388-7.633 3.523-10.87.358-1.02.96-2.038 1.698-2.825 1.946-2.07 4.028-4.013 6.14-6.087l-22.445-6.033c-1.623 2.285-3.522 4.96-5.72 8.06l16.806 17.754zm-.666-45.525c-6.84-5.118-13.37-10.003-20.752-15.524-1.06 3.67-2.178 6.41-2.61 9.256-1.148 7.566-3.172 14.568-9.988 19.143-.168.11-.103.57-.205 1.27 4.82 3.61 9.797 7.335 14.94 11.185l18.614-25.33zm1.964-2.718c6.794-9.223 13.34-18.107 20.036-27.2-8.44-6.317-16.636-12.454-25.143-18.823l-19.802 27.32 24.91 18.702zM564.07 816.1c7.72-9.352 14.908-18.076 22.118-26.78 1.79-2.163.988-3.802-.684-5.647-7.15-7.895-17.294-9.967-26.447-14.465l-20.448 28.016c8.644 6.41 16.98 12.59 25.46 18.876zm-12.067-51.422l-25.176-18.467c-6.67 9.362-13.098 18.388-19.78 27.77l24.727 18.157c6.785-9.21 13.288-18.035 20.23-27.46zm-46.914 12.028c-6.635 9.027-13.176 17.932-19.94 27.14l24.607 18.313c6.82-9.23 13.41-18.15 20.128-27.237-8.31-6.106-16.433-12.075-24.796-18.217zm-2.576-2.032c-7.012-5.363-13.26-10.307-19.697-14.994-3.084-2.246-7.16-1.396-9.607 1.623-2.51 3.096-4.952 6.248-7.366 9.42-2.915 3.828-5.777 7.695-8.648 11.557-6.926 9.314-13.844 18.635-21.07 28.365l25.597 18.586 40.79-54.556zm-72.69 31.54l18.74-25.456c-7.004-5.123-13.354-9.936-19.89-14.482-3.825-2.662-6.008-2.057-8.814 1.576-2.52 3.266-5.176 6.426-7.706 9.684-2.508 3.23-4.934 6.523-7.664 10.145 8.718 6.377 16.87 12.342 25.335 18.533zm-29.784-12.11l-19.828 27.188 25.338 17.96 19.705-26.804-25.215-18.344zm17.47-87.016l26.935 19.928c6.125-8.326 11.897-16.176 17.61-23.943-6.14-10.207-8.65-11.338-24.745-23.16l-19.8 27.175zm17.145-29.16l-27.06-20.4c-6.683 9.11-13.163 17.947-20.055 27.344l27.31 20.11c6.746-9.214 13.106-17.9 19.805-27.054zm13.124 50.24c7.407 7.73 14.472 15.1 21.724 22.67.564-1.274 1.24-2.562 1.722-3.917 1.67-4.704 4.993-8.083 8.454-11.534 4.538-4.527 8.57-9.563 13.12-14.72l-25.733-18.575-19.288 26.077zm35.407-27.994c5.395-9.697 10.454-19.58 15.918-29.898-2.156-1.316-4.038-2.57-6.014-3.652-13.358-7.31-27.217-13.688-40.32-21.477-.715-.424-1.47-.78-2.206-1.17-4.102-2.172-8.246-4.268-12.295-6.533-5.81-3.256-11.547-6.916-18.32-7.438-4.04-.313-7.44-1.326-10.35-4.055-1.867-1.757-3.837-2.128-6.327-1.17-5.7 2.198-11.3 2.24-16.57-1.433-1.052-.736-2.35-1.12-3.887-1.826l-3.615 10.15c1.296 1.08 2.393 2.077 3.57 2.968 13.4 10.113 27.014 19.963 40.17 30.387 14.127 11.197 30.546 19.67 41.54 34.73 3.774-2.37 5.872.806 8.415 2.368 3.913 2.405 8.143 1.915 10.292-1.95zm-105.67-65.377c-6.737 9.502-13.147 18.545-19.72 27.814l27.07 20.306 19.936-27.3c-9.22-7.033-17.924-13.672-27.287-20.82zm-12.265 80.33l27.404 19.883c4.65-6.252 9.17-11.984 13.272-18 1.724-2.527 2.596-5.64 3.813-8.504.78-1.836.044-3.107-1.5-4.234-7.5-5.475-14.952-11.014-22.848-16.844-6.79 9.342-13.37 18.39-20.14 27.7zm30.214 22.375l14.323 9.69c2.616-1.052 4.514-2.013 6.523-2.577 4.145-1.162 8.3-2.66 12.538-3.03 7.552-.66 10.286-6.124 13.613-11.837l-29.12-21.594c-2.825 12.11-12.313 19.292-17.877 29.348zm17.77 12.077c2.237 2.77 4.254 4.985 5.946 7.425 4.207 6.063 9.612 7.18 14.65 2.04 5.106-5.214 10.973-6.427 17.733-5.534 1.152.153 2.295.43 3.45.507 3.712.252 7.427.438 12.243.71-6.91-8.894-12.68-17.104-21.94-22.49-1.64 2.44-3.292 4.532-4.54 6.845-1.384 2.566-3.376 3.89-6.167 4.5-5.83 1.27-11.634 2.674-17.418 4.145-1.322.334-2.52 1.164-3.955 1.852zm35.083 6.946c-7.242-.97-10.804 4.053-15.59 8.305 6.247 4.667 11.907 8.894 17.787 13.284L465.4 757.98c-6.34-.52-11.743-.74-17.08-1.454zm46.53-9.963c-3.19-4.65-3.934-9.426-.196-14.234.188-.245.023-.763.023-1.392-3.307 3.693-6.06 7.54-9.566 10.49-4.342 3.654-6.32 8.232-7.772 13.793 8.4-.77 11.975 6.855 18.67 9.716.288-2.213.657-4.014.732-5.828.176-4.287.797-8.63-1.89-12.545zm29.922-83.162l28.376-54.342c-1.596-.99-3.016-1.816-4.38-2.727-7.513-5.024-8.646-10.606-1.752-17.504 2.057-2.06 4.453-3.778 6.827-5.765-.743-.56-1.236-1-1.79-1.337-4.935-3.022-9.867-6.05-14.826-9.03-2.132-1.28-4.188-2.426-7-1.775-1.384.32-3.21-.522-4.63-1.243-6.373-3.23-12.66-6.628-19.005-9.914-1.646-.853-3.39-1.517-5.09-2.27-.324.19-.65.378-.975.567 3.367 7.422-.63 13.327-3.21 19.564-1.948 4.712-3.604 9.543-5.454 14.294-.286.736-.916 1.338-1.39 2-1.727 2.412-3.687 4.69-5.14 7.258-6.065 10.7-12.026 21.458-17.92 32.253-2.124 3.893-3.955 7.94-6.133 12.352 2.283 1.395 4.174 2.688 6.186 3.75 9.4 4.973 18.857 9.842 28.245 14.838 2.27 1.207 4.354 2.764 6.768 4.318.847-1.44 1.844-3.123 2.83-4.814 3.092-5.31 4.816-6.054 10.537-4.105 2.926 1 5.74 2.325 8.927 3.636zM421.41 466.36c1.465 3.678 4.16 5.983 7.504 7.733 16.645 8.706 33.266 17.46 49.91 26.167 1.4.733 2.91 1.26 4.02 1.733 6.585-12.363 12.973-24.33 19.334-36.312 3.273-6.165 6.562-12.324 9.736-18.542 6.866-13.448 13.665-26.933 20.688-40.788-1.858-1.035-2.846-1.637-3.877-2.15-6.275-3.13-12.23-.726-14.323 5.94-3.728 11.885-7.005 23.92-11.1 35.675-2.875 8.255-7.91 15.402-15.44 20.18-9.05 5.743-18.794 7.807-29.493 4.896-9.604-2.61-19.376-4.596-29.062-6.906-3.128-.745-5.88-.554-7.9 2.377zm11.916-10.13c6.44 1.62 12.876 3.27 19.35 4.75 6.116 1.4 12.122 3.608 18.61 2.443 11.158-2.004 19.52-7.86 23.3-18.612 4.676-13.3 8.6-26.872 12.62-40.395.613-2.06.613-4.736-.182-6.688-1.683-4.133-4.03-7.737-8.598-9.802-7.105-3.212-13.877-7.16-20.8-10.778-2.316-1.212-4.656-2.373-7.163-3.647-.63 1-1.106 1.65-1.475 2.358-11.675 22.4-23.304 44.825-35.048 67.19-1.656 3.152-3.87 6.014-6.253 9.665.662 2.506 3.242 2.916 5.64 3.518zm205.6 33.788c.21-6.202 2.98-11.412 6.907-16.056 1.654-1.956 4.1-3.4 4.144-6.396l-12.962-7.045-15.485 30.545c6.837 3.615 13.09 6.92 20.176 10.668-.794-2.545-1.418-4.204-1.818-5.916-.447-1.91-1.026-3.878-.962-5.8zm-26.072-8.18c-1.06 1.197-1.503 2.93-2.26 4.403-4.098 7.97-8.155 15.962-12.337 23.888-1.518 2.877-3.447 5.393-7.456 3.67-1.56 2.96-3.034 5.73-4.462 8.522-.116.23.092.624.2 1.23l7.37 1.996 27.115-52.27c-2.486-1.265-4.5-2.29-6.377-3.243-2.4 1.472-1.82 3.243-1.028 4.93 1.165 2.485 1.204 4.65-.764 6.875zm13.56 15.414l-6.46-3.08-10.883 20.924h10.716c2.304-6.206 4.407-11.867 6.628-17.844zm-16.236 21.28c-1.057.088-2.453 1.01-2.955 1.947-1.692 3.162-3.053 6.503-4.7 10.13l11.013 5.868c2.02-6.145 7.473-10.5 6.327-18.04-3.467 0-6.593-.165-9.685.093zm-23.32 20.513c1.85-3.52 3.517-6.698 5.188-9.88-6.556-3.31-8.714-2.21-12.374 6.24l7.187 3.64zm-8.927-.734c-1.866 3.78-3.507 7.097-5.224 10.57l7.08 4.215c1.86-3.77 3.58-7.26 5.475-11.105l-7.33-3.68zm33.114-70.135l-17.824-9.498c-1.008 1.784-1.934 3.322-2.764 4.91-4.078 7.805-7.938 15.734-12.28 23.39-2.01 3.54-4.963 6.545-7.466 9.81-2.317 3.02-5.237 5.77-6.783 9.148-3.72 8.135-6.783 16.57-10.13 24.875-.915 2.27-1.896 4.515-3.02 7.186 6.264 3.344 12.204 6.512 18.445 9.844 1.076-1.914 1.914-3.31 2.664-4.754 2.526-4.864 4.958-9.777 7.563-14.596.856-1.587 3.048-2.945 3.05-4.41.01-4.8 3.844-7.565 5.418-11.48.42-1.042 2.263-2.26 3.322-2.147 2.796.292 3.913-1.253 4.94-3.27 4.674-9.183 9.393-18.343 13.968-27.574.505-1.02.747-2.89.17-3.596-2.363-2.898-1.636-5.39.726-7.84zm-65.447 66.767l1.703.683c5.967-7.864 7.12-17.783 11.088-26.65l-5.738-4.094-7.053 30.062zm10.287-49.314c-5.174-2.044-10.067-3.977-15.372-6.07l-4.255 8.17c5.527 3.61 10.703 6.987 16.055 10.48 2.073-4.22 4.443-8.044 3.572-12.58zm42.707-44.55l-12.864-7.064c-5.282 10.094-10.394 19.86-15.695 29.993l12.93 6.866 15.63-29.796zm-30.68 25.536c-3.137 6.33-6.71 12.024-7.826 18.975-.854 5.31-2.755 10.452-4.45 16.613l3.862 3.322c3.066-3.888 5.276-7.76 8.46-10.502 6.604-5.686 9.245-13.578 13.544-21.224l-13.59-7.186zm-3.705-2.067l-12.532-6.238-9.458 17.883c4.893 2.712 9.325 5.09 14.327 5.525l7.663-17.17zm-15.445-7.934l-19.81-10.52c-6.673 10.137-7.4 21.75-10.858 32.752 4.233 2.177 8.637 4.45 13.05 6.703.557.284 1.163.47 2.06.827 5.196-9.94 10.302-19.71 15.558-29.762zm-29.95 64.79c7.934 4.03 15.228 7.73 23.12 11.738 2.756-10.868 5.29-20.856 7.907-31.183-4.89-5.625-9.23-8.52-15.722-10.124-4.954 9.574-9.96 19.244-15.305 29.57zm16.783 44.924c6.027 6.445 12.695 10.467 20.8 13.508 3.762-7.232 7.55-14.01 10.838-21.02 2.2-4.692.703-7.995-3.803-10.39-3.953-2.104-7.874-4.268-11.862-6.303-2.58-1.314-5.255-2.445-8.438-3.913l-7.534 28.117zm11.892 28.04c-1.894 1.82-1.8 4.247.452 6.093 2.03 1.664 4.132 3.248 5.74 4.506 3.542-2.614 6.24-4.605 8.77-6.475v-12.134c-1.584-.155-3.655-1.03-4.667-.342-3.646 2.48-7.113 5.298-10.295 8.354zm2.78 27.407c6.003 3.145 11.53 6.037 17.776 9.307-1.72-9.657-3.292-18.5-4.865-27.34l-1.31-.273c-5.44 4.95-8.133 11.68-11.6 18.307zm-1.62 2.85l-11.91 22.938c2.662 1.055 5.118 1.902 7.46 2.992 2.55 1.186 4.94 2.72 7.5 3.877 3.01 1.358 5.634.528 7.168-2.29 3.072-5.645 6.006-11.365 9.17-17.38l-19.39-10.136zM533.66 653.75c-2.26 3.4-3.952 7.183-6.247 11.472l24.285 12.62c2.89-5.878 5.42-11.02 7.967-16.204-.906-2.787-2.564-4.17-5.86-3.883-1.815.156-3.827-.746-5.598-1.523-2.568-1.127-4.946-2.69-7.503-3.85-2.59-1.176-5.408-1.1-7.043 1.367zm22.273 22.434l.786 1.248 14.177-.793V662.8c-3.495-.024-6.907-1.04-8.95 2.196-2.255 3.573-4.03 7.446-6.014 11.188zm14.882-17.066c-.39-6.37-.746-12.225-1.104-18.082-.42-.043-.84-.088-1.26-.13-2.08 3.937-4.03 7.948-6.28 11.784-1.67 2.85-1.747 5.168 1.203 7.23 2.342-.253 4.75-.51 7.442-.802zm7.627-103.008l-6.833-3.8c-.642 11.508-8.63 19.258-11.627 29.425 2.654.812 4.58 1.477 5.833-.97 4.155-8.11 8.307-16.22 12.626-24.655zm-5.916 29.65c2.25 2.25 4.448 1.862 6.922.802 2.82-1.21 5.79-2.066 9.785-3.455l7.112-17.34-10.416-5.56-13.404 25.554zm25.79-22.842c4.012-9.66 12.568-7.763 19.89-8.696 1.29-5.52 1.088-10.365-3.942-13.473-4.47-2.762-9.23-5.052-14.32-7.797l-12.627 24.22c3.89 2.032 7.328 3.826 11 5.745zm23.512-8.614l14.638 2.015c1.592-5.13.06-8.843-2.83-12.1-2.642-2.977-5.334-5.924-8.21-8.67-1.6-1.526-3.62-2.612-5.812-4.15l-3.42 6.892c6.622 3.52 5.095 9.73 5.634 16.012zm8.573-19.662c3.26-2.75 6.474-5.49 7.808-10.246-4.374-2.916-8.9-4.94-14.087-5.562-.937 3.85-1.67 6.858-2.4 9.85l8.68 5.958zm10.09-13.57c2.03-4.12 4.09-8.295 6.254-12.685l-17.037-9.41c-2.124 5.785-6.456 10.05-5.324 15.854 5.5 2.134 10.54 4.086 16.106 6.243zm-10.442-65.318l-6.66-3.718-7.996 14.49 7.158 3.85c2.553-4.98 4.95-9.65 7.498-14.622zm-9.43-6.007l-19-7.412-6.926 13.39c6.194 3.307 11.934 6.372 17.788 9.5l8.138-15.478zm-18.206-26.518l5.016-.278c11.283-22.36 19.905-45.62 34.005-64.778l-27.8-29.018c-14.36 31.136-28.582 61.98-42.784 92.774 9.766 5.143 19.416 10.225 29.76 15.67.646-5.166 1.228-9.8 1.802-14.37zm-48.675-6.155c-2.484 4.16-4.836 7.758-3.714 12.767.87 3.88-1.025 6.59-5.103 7.886-3.127.993-6.457 1.497-9.735 1.816-2.42.235-3.96 1.002-4.66 3.72l35.215 18.583c7.164-9.246 10.88-19.784 16.688-29.582l-28.69-15.19zm-3.473-1.697c-5.048-2.644-9.833-5.15-14.64-7.665l-32.21 63.018c5.707 4.04 7.895 4.964 12.437 5.016.73-3.35 1.504-6.854 2.245-10.364.477-2.256.638-4.618 1.408-6.765 1.282-3.568 2.874-7.032 4.46-10.48 1.178-2.56 2.522-5.042 3.847-7.53 1.547-2.9 3.93-4.234 7.296-4.28 2.455-.032 4.97-.42 7.336-1.086 3.807-1.072 5.078-2.742 4.363-6.535-.675-3.58.265-6.496 1.97-9.45.633-1.095.93-2.382 1.49-3.877zm-64.184 88.655c10.058 5.287 19.817 10.42 29.93 15.735 5.296-10.246 10.308-19.94 15.647-30.272-10.56-5.484-20.525-10.66-30.918-16.056-4.91 10.244-9.69 20.22-14.66 30.593zm15.974 49.806c9.525 4.92 18.707 9.666 28.11 14.524 5.256-10.666 7.183-21.414 9.606-32.483l-22.303-11.593-15.413 29.552zm47.348 145.92c4.19-1.416 7.767-2.672 11.377-3.828 3.606-1.154 7.245-2.21 10.827-3.295v-13.045l-15.62 1.12c-.962 6.69-7.05 11.343-6.585 19.048zm36.286-111.91c-4.67 1.153-8.83 4.785-14.413 1.564-.19 3.044-.334 5.32-.547 8.704 6.24-3.033 12.73-3.21 14.96-10.27zm-14.044 13.932l4.92 28.28 1.05.345c5.885-7.334 13.104-13.633 17.484-22.364l-16.045-9.212c-2.03.81-4.726 1.884-7.41 2.952zm24.58 2.983c.806-.938 1.345-1.375 1.64-1.938 6.724-12.816 13.466-25.624 20.055-38.508.74-1.45.585-3.36.844-5.05-10.963-1.723-14.924-.155-18.52 7.81-.616 1.364-1.28 2.706-1.948 4.045-4.474 8.97-6.476 19.23-14.67 26.844l12.6 6.795zm21.41-31.53l13.993 5.124c.654-.74 1.22-1.163 1.498-1.73 1.625-3.313 3.987-4.136 7.708-3.515 2.992.498 6.282-.12 9.328-.768 4.75-1.012 7.728-6.846 6.114-11.276-11.336-.896-22.643-1.79-33.294-2.63l-5.347 14.795zm25.926-17.732c6.752-12.707 13.418-25.46 20.27-38.532l-13.828-7.34c-5.47 9.76-8.772 20.472-17.24 27.91 2.37 3.357 4.885 5.975 6.232 9.094 1.29 2.99 1.37 6.504 2.042 10.096 1.145-.533 2.228-.672 2.524-1.227zm21.88-41.348l15.668-30.33-27.084-14.19c-2.505 2.875-4.917 5.183-6.774 7.873-4.023 5.826-7.495 11.846-3.717 19.306.938 1.854 1.206 4.047 1.935 6.622 6.095 3.27 12.634 6.78 19.97 10.72zm49.648-15.884c1.59-2.73 2.77-4.704 3.9-6.708 3.65-6.466 8.108-7.822 15.11-4.213 2.835-4.59 5.8-9.162 8.517-13.877 1.342-2.33 2.896-3.344 5.647-2.852 3.756.673 7.567 1.04 11.358 1.51 8.4 1.042 16.8 1.93 25.262-.48.39-2.628.775-5.24 1.228-8.308-5.165-2.364-9.898-4.378-14.48-6.69-2.33-1.177-4.714-2.578-6.496-4.433-2.8-2.918-5.693-3.492-9.417-2.242-5.508 1.848-11.1 3.458-16.68 5.074-1.408.408-3.19 1.074-4.342.57-6.203-2.72-13.546-2.356-17.708-10.123-5.393-10.063-16.677-12.75-26.443-17.398L669.17 473.92l45.918 24.35zM687.72 426.6c-9.984-4.61-19.215-8.87-28.558-13.183l-20.202 44.435c8.92 4.723 17.775 9.408 27.184 14.39L687.72 426.6zm-17.5-49.718l-25.392-17.63c-1.145 1.634-2.07 2.974-3.014 4.3-12.834 18.02-20.493 38.727-29.993 58.458-1.653 3.438-3.167 4.98-6.855 4.746-.395 4.303-.77 8.374-1.143 12.454l28.24 12.877c1.892-3.718 3.974-7.49 5.77-11.395 9.918-21.568 17.67-44.22 32.387-63.81zm34.74-111.565c-1.222.262-2.03.34-2.77.608-22.794 8.285-45.355 17.26-68.89 23.343-2.315.6-3.174 2.072-3.992 3.95-2.522 5.79-5.132 11.542-7.666 17.325-2.188 4.99-4.318 10.004-5.677 13.157l28.09 30.908c20.518-30.078 40.556-59.456 60.905-89.29zm-78.763 27.015c-.263-.282-.525-.564-.79-.846l-35.318 9.995c7.754 7.49 14.867 14.357 22.515 21.742 4.733-10.76 9.163-20.826 13.592-30.89zm-40.824 9.64c-1.32 4.784-1.813 8.833-3.495 12.306-12.312 25.426-24.875 50.73-37.324 76.09-2.33 4.744-4.503 9.567-6.917 14.717l30.2 15.71 43.4-94.16c-8.88-8.38-16.8-16.726-25.864-24.663zm2.72-24.67c1.62-13.013 3.325-26.017 5.03-39.02.253-1.916.704-3.804 1.064-5.705-.378-.2-.755-.402-1.133-.603-5.48 7.837-11.188 15.53-16.356 23.567-3.052 4.746-4.52 10.233-5.51 15.877-1.43 8.167-3.342 16.25-5.12 24.355-1.313 5.976 1.15 8.672 7.02 7.318 3.392-.78 6.69-1.956 10.04-2.925 1.8-.52 2.685-1.587 2.87-3.543.607-6.447 1.294-12.89 2.094-19.32zm-26.405 34.327c-1.108 2.95-1.765 6.116-3.18 8.905-11.426 22.53-22.982 44.994-34.5 67.478-1.288 2.514-2.71 4.97-3.812 7.563-.47 1.106-.77 2.82-.227 3.653.455.696 2.254.528 3.462.716 1.892.294 3.857.34 5.66.908 1.848.58 3.538 1.66 5.474 2.61.923-1.78 1.73-3.223 2.437-4.712 7.484-15.76 14.816-31.594 22.47-47.27 6.127-12.55 12.638-24.91 18.983-37.352 1.5-2.94 2.824-5.907 2.164-9.38-3.834.618-7.382 1.537-10.96 1.672-3.973.152-6.556 1.44-7.972 5.207zm-7.418-3.984c-3.528 1.903-6.205 4.14-9.234 4.833-9.052 2.063-18.243 3.516-27.378 5.22-8.63 1.61-17.258 3.235-25.996 4.874-2.213 18.172-13.588 31.835-19.563 48.007 10.078 5.318 19.95 10.412 29.686 15.753 2.066 1.134 3.956 2.937 5.366 4.845 2.728 3.69 4.048 3.727 6.182-.372 2.148-4.124 4.074-8.39 6.532-12.323 13.08-20.93 22.39-43.727 32.83-65.962.656-1.395.965-2.954 1.574-4.874zm-65.83 15.556l-66.815 12.444c.217 1.746.543 2.75.424 3.7-.535 4.238 1.937 6.133 5.34 7.792 6.416 3.13 12.677 6.582 19.005 9.895 7.333 3.84 14.67 7.673 22.063 11.54.64-.785 1.165-1.233 1.443-1.803 5.48-11.185 11.07-22.32 16.295-33.624 1.32-2.857 1.453-6.262 2.246-9.944zm-212.893 31.352c-2.598-1.38-5.128-2.122-8.063-1.934-6.97.45-13.952.71-20.925 1.126-6.6.396-13.19.895-20.418 1.392.378 2.754.46 5.226 1.08 7.553 4.575 17.172 9.358 34.29 13.81 51.492.72 2.782 2.093 4.188 4.438 5.416 11.342 5.936 22.474 12.29 33.947 17.95 24.325 12.006 47.217 26.977 71.627 35.463 10.438-5.532 19.646-10.446 28.894-15.287 1.608-.842 3.342-1.832 5.08-1.972 9.882-.792 19.5-4.557 29.623-2.667.773.145 1.722.08 2.424-.243 6.803-3.13 13.98-5.904 15.344-15.275-9.65-5.075-19.367-10.154-29.056-15.282-42.613-22.554-85.228-45.105-127.805-67.73zm84.776 123.116c4.766 3.21 8.724 6.06 12.866 8.608 3.535 2.177 7.31 3.962 10.933 6.005 5.065 2.857 10.912 4.71 13.506 11.456 4.94-8.833 9.174-16.945 13.942-24.73 3.244-5.294 3.518-10.853 3.268-17.384-20.402-2.494-37.337 4.94-54.517 16.044zm-.238 107.723c-2.66 5.296-5.395 10.556-8.172 15.983 1.552.943 2.632 1.688 3.786 2.288 10.615 5.51 21.4 10.717 31.804 16.604 5.458 3.092 10.604 3.434 16.077 1.055 2.69-1.168 4.665-.463 6.87 1.11 2.25 1.61 4.704 3.75 7.232 3.997 8.045.79 14.96 4.14 21.83 7.938 6.075 3.36 12.266 6.504 18.67 9.885 2.892-5.492 5.587-10.602 8.275-15.713 9.737-18.514 21.162-36.117 29.478-55.414 2.152-4.995 2.987-9.74 1.71-14.857-.625-2.502.043-4.314 1.285-6.493 5.334-9.365 10.372-18.9 15.734-28.77-1.87-1.07-3.25-1.915-4.678-2.667-27.067-14.256-54.16-28.46-81.186-42.793-3.607-1.913-6.88-4.454-9.988-6.495-1.353 2.855-2.743 6.206-4.475 9.37-5.346 9.773-11.126 19.32-16.188 29.235-12.845 25.164-25.385 50.486-38.065 75.736zm-9.323 19.24l-1.673 5.36c9.172 6.945 17.895 13.55 27.1 20.518 1.164-3.548 2.265-6.897 3.48-10.59-9.904-5.24-19.278-10.197-28.908-15.288zm-2.99 8.578c-7.395 10.142-14.43 19.786-21.194 29.062 10.017 6.22 19.396 12.047 28.857 17.92l18.96-26.8c-9.034-6.85-17.716-13.43-26.623-20.18zm3.152 95.24l-11.676 5.4c-.838 5.924-1.384 10.852-2.263 15.72-1.027 5.696.036 8.02 5.716 10.726l17.824-24.584c-3.467-2.624-6.485-4.907-9.6-7.262zm-10.066 40.123c13.895-1.014 21.41 8.738 31.006 14.443l19.097-25.045-27.748-20.233-22.354 30.836zm33.583 16.638l27.504 19.927c5.936-7.42 11.6-14.5 17.11-21.393-5.186-11.674-15.657-16.594-25.58-23.55L374.44 765.21zm-16.467 85.603l12.472 8.783c2.212-11.92 9.3-20.236 14.438-30.037-2.38-2.118-4.327-3.855-6.802-6.058l-20.107 27.31zM373.19 860.9c3.226 2.327 6.925 5 10.835 7.825 6.555-9.002 12.8-17.578 19.432-26.69l-15.375-11.27c-5.65 10.023-12.4 18.743-14.89 30.134zm76.897 57.83l24.992 18.25 20.062-27.4c-8.294-6.028-16.35-11.886-24.937-18.128l-20.118 27.277zm27.115 21l21.103 14.235c.898-1.043 1.824-1.826 2.38-2.816 1.71-3.042 3.785-3.165 6.527-1.323 1.775 1.19 3.785 2.805 5.72 2.846 5.596.12 11.205-.463 17.31-.797-.543-6.443-.916-12.396-1.664-18.3-.134-1.056-1.672-2.173-2.813-2.815-2.552-1.437-5.507-2.25-7.862-3.93-6.492-4.626-12.76-9.567-19.735-14.853-7.35 9.73-14.31 18.94-20.966 27.754zm96.005-18.536c4.233-5.596 6.884-11.848 13.316-13.475l.746-13.374c-.867-.383-2.458-1.37-4.187-1.8-6.694-1.657-9.73-5.554-8.18-12.536.057-.262-.22-.596-.536-1.38-5.917-1.194-12.764-.423-17.888-5.77-2.475 3.326-3.997 6.365-6.386 8.367-4.226 3.54-4.89 8.357-5.79 13.14-.21 1.12.314 2.806 1.118 3.618 3.142 3.172 6.207 6.596 9.9 9.006 6.34 4.14 13.694 6.817 17.885 14.204zm32.543-46.89l3.434-4.84c-3.69-7.58-2.693-10.927 4.73-14.614 2.656-1.32 3.16-3.613 4.134-5.836.885-2.016 1.78-4.025 2.403-5.438 4.608.836 8.23 1.49 11.85 2.146.2-.35.403-.7.605-1.05-3.068-4.696-5.945-9.536-9.28-14.038-2-2.703-4.81-4.44-8.61-4.09-2.8.258-5.66-.2-8.485-.117-9.725.28-17.926-9.758-15.936-19.148 1.052-4.962 2.528-10.343-1.37-15.597-20.53 23.055-38.827 47.564-56.806 72.643 2.198 3.303 5.802 2.115 8.17 3.383 5.19 2.784 10.54 2.53 15.992 2.6.81.01 1.858-.007 2.385.458 4.76 4.193 10.82 3.566 16.426 4.754 3.987.846 7.89 1.652 11.747.11 6.045-2.42 12.187-2.9 18.613-1.33zm86.657-38.04l-8.885-4.232c-2.207 4.97-6.06 7.215-10.355 8.432-7.448 2.107-11.704 7.787-16.083 13.42-.383.492-.684 1.213-.673 1.82.076 4.09.246 8.176.398 12.66 4.123-.275 7.606-.326 11.022-.83 1.247-.186 2.64-1.213 3.442-2.258 3.434-4.47 6.67-9.094 9.98-13.656 3.585-4.94 7.173-9.873 11.155-15.356zM691 845.59l-.92-.27c-5.275 7.06-10.55 14.123-15.824 21.184l.616 1.053c5.646-.38 11.29-.758 17.52-1.176l-1.39-20.79zm-58.353 49.397c-1.95 3.416-3.28 7.188-5.2 11.52 4.77.682 8.99 1.38 13.24 1.82 1.002.104 2.336-.398 3.104-1.084 2.845-2.54 5.507-5.28 8.253-7.932 6.272-6.048 9.255-14.08 13.024-21.634.917-1.834 1.614-3.78 2.715-6.393-6.116 0-11.43.236-16.706-.11-2.278-.15-3.9-.146-5.86 1.403-1.662 1.313-4.238 1.898-6.444 1.994-3.94.168-7.907-.275-13.005-.516.678 2.316.912 4.123 1.72 5.62 1.013 1.882 2.25 3.782 3.826 5.19 3.476 3.103 3.568 6.213 1.334 10.123zm9.71-34.795c2.15 5.656 5.02 7.633 11.472 7.65l-.926-11.852c-5.138-1.503-7.468 2.194-10.546 4.202zm8.348-7.715c2.303-.36 3.955-.928 5.45-2.7 2.96-3.51 6.112-6.864 9.653-10.804l-3.178-3.965c-2.284 1.684-4.422 3.123-6.41 4.748-4.945 4.04-8.033 10.193-14.562 12.484-2.138.75-1.458 2.455-.86 3.594 3.554-1.263 6.646-2.845 9.907-3.357zm27.277-22.863c-1.626-1.623-3.012-3.486-4.688-5.457l-7.272 9.41 3.895 5.053c2.716-1.465 5.236-2.664 7.583-4.14 2.06-1.292 2.423-2.93.482-4.866zm-6.25-12.957c-.747-.24-1.502-.723-2.224-.678-3.916.243-7.883.32-11.706 1.083-1.635.326-3.53 1.88-4.327 3.39-2.48 4.7-1.105 7.997 4.694 12.815 6.68-2.14 10.063-6.586 13.56-16.61zm-21 13.568c-6.368 5.21-8.19 12.436-11.632 18.77 6.823-2.803 10.09-9.215 15.458-13.775l-3.827-4.995zm-15.15 24.54c-.52.185-1.41.27-1.985.74-4.61 3.79-9.16 7.653-13.73 11.493 3.955 4.994 19.355 6.307 23.176 2.623l-7.46-14.856zm-.387-4.737l-.47-1.146-12.925-.89c-1.35 4.68-3.09 8.763-8.342 10.827-3.97 1.558-3.955 4.73-.297 8.058 7.275-5.563 14.655-11.208 22.035-16.85zm-31.266 48.055c7.724-1.41 13.877 3.318 20.666 6.502 1.944-4.18 3.503-7.846 5.342-11.365 1.177-2.252.873-3.87-.798-5.754-3.083-3.477-6.11-7.047-6.418-12.088-.05-.842-.876-1.78-1.58-2.406-1.474-1.305-3.105-2.43-4.89-3.795-8.518 5.183-14.136 18.034-12.323 28.906zm62.38 43.646l.255.82c9.827-.528 19.655-1.058 30.21-1.624l-1.666-33.02c-4.842 3.4-7.07 7.188-8.564 11.517-.48 1.395-.944 3.563-1.912 3.885-3.832 1.275-4.088 4.75-5.58 7.56-2.133 4.017-3.84 8.597-9.617 8.886-1.073.05-2.086 1.286-3.127 1.975zm28.03-37.89l-1.917-34.287c-5.386.387-10.01 1.143-14.588.928-4.503-.21-6.777 1.37-8.55 5.52-4.556 10.675-9.505 21.204-18.126 29.415-.075.072.007.307.066 1.32l43.115-2.895zm.654-70.63c4.848-6.612 10.18-13.366 14.924-20.51 4.76-7.167 8.93-14.724 13.62-22.546-6.978-4.87-13.094-10.3-21.366-12.912-.762 2.723-1.115 4.7-1.862 6.516-1.825 4.438-3.145 9.313-5.934 13.072-3.72 5.016-8.592 9.188-13.058 13.633-3.06 3.047-6.23 5.967-7.168 10.852 2.788 2.494 5.31 5.543 8.52 7.406 3.363 1.95 7.386 2.76 12.324 4.49zm13.192-68.12l.688.648c.083-.98.062-1.98.268-2.932.724-3.346 1.3-6.52-2.29-8.846-3.363-2.178-6.443-2.955-10.108-.402-1.138.79-3.65.65-4.983-.076-4.047-2.207-5.273-2.313-8.38.898-1.376 1.422-2.582 3.008-3.834 4.482.35 3.22 2.356 4.502 5.102 5.46 2.123.74 4 2.196 5.97 3.364 2.91 1.73 5.806 3.482 7.946 4.768 3.812-2.916 6.717-5.14 9.622-7.364zm-33.41 4.795c-2.455 4.58-4.266 9.506-6.392 14.367 2.325 2.492 5.06 2.56 7.793 1.328 3.854-1.736 6.898-.86 9.835 1.994 1.882 1.83 4.172 3.238 7.354 5.65l5.692-16.176c-4.867-3.32-8.977-6.266-13.23-8.984-3.836-2.45-9.14-1.745-11.052 1.82zm-11.46 14.6c-1.8-2.03-4.25-3.484-6.527-5.297-.83.977-1.336 1.416-1.648 1.965-3.11 5.47-8.412 8.457-13.515 11.504-3.137 1.873-6.756 2.557-10.47.826-3.31-1.54-6.865-2.572-10.117-4.213-3.65-1.844-7.324-2.824-11.454-2.705-1.6.045-3.273-1.158-4.852-1.92-4.16-2.008-8.217-4.25-12.46-6.055-1.633-.693-3.66-.455-5.354-.625 2.383 4.32 4.638 8.063 6.555 11.97 2.802 5.706 1.77 11.65.793 17.608-.805 4.916.85 8.934 4.728 12.297 3.85 3.336 8.297 3.19 12.682 2.682 7.303-.848 12.585 1.818 16.402 7.93 2.798 4.48 5.702 8.89 8.814 13.73.888-1.178 1.526-1.89 2.016-2.695 2.148-3.535 3.992-7.29 6.455-10.584 2.02-2.703 3.688-5.22 4.232-8.732.99-6.384 3.2-8 9.69-8.483 3.313-.246 6.826-1.354 9.89-.604 4.668 1.143 6.534-1.838 9.048-4.31 4.12-4.052 8.282-8.062 13.133-12.774-4.227-3.263-7.482-5.772-10.707-8.26-.847.255-1.485.413-2.1.64-5.974 2.197-10.948.935-15.234-3.895zm-9.87-7.485c-3.887-1.877-7.47-3.84-11.23-5.357-3.51-1.416-7.203-2.375-10.823-3.51-2.986-.936-6.042-1.68-8.962-2.785-3.662-1.39-7.382-2.77-10.775-4.69-3.266-1.847-5.98-4.67-9.237-6.534-4.6-2.63-9.478-4.775-14.24-7.12-4.934-2.427-11.98-1.233-15.288 3.056-3.943 5.11-7.494 10.527-11.28 15.902.667.568 1.098 1.123 1.663 1.39 5.986 2.817 11.976 5.63 18.018 8.323.775.344 1.915.21 2.78-.05 4.696-1.4 9.13-.86 13.39 1.497 3.46 1.92 6.892 3.908 10.428 5.684 1.123.564 2.548.51 3.822.797 3.03.684 6.13 1.168 9.057 2.164 3.922 1.336 7.778 2.924 11.522 4.7 2.574 1.222 5.093.952 7.165-.345 5.158-3.23 10.792-6.057 13.99-13.122zm-75.227-52.412c1.74-3.953 2.86-8.027 1.547-12.096-1.31-4.06-3.52-7.83-5.54-12.164-2.99.744-5.78 1.19-8.393 2.13-14.055 5.04-28.065 10.204-42.096 15.315-.617.227-1.267.398-1.915.496-5.205.782-10.494 1.21-15.586 2.452-2.404.586-4.71 2.44-6.514 4.264-.878.887-.36 3.05-.73 4.574-.39 1.596-.776 3.334-1.7 4.63-2.617 3.675-1.855 6.944.084 10.663 1.404 2.693 2.192 5.87 2.527 8.912.32 2.93-.15 5.98-.53 8.94-.537 4.21 1.173 7.024 5.18 9.003 6.077-8.508 11.94-16.787 17.885-25.01 3.148-4.355 4.292-4.547 8.496-1.52 6.758 4.862 13.452 9.813 20.196 14.696.883.64 1.9 1.09 3.036 1.73 8.587-12.244 18.078-23.457 24.05-37.016zm9.806-14.73c2.16-3.81 4.01-7.088 5.877-10.357.895-1.563 1.443-3.804 2.8-4.544 6.235-3.4 11.495-8.47 17.61-11.625 8.71-4.493 18.43-6.56 27.96-.642 3.533 2.195 7.55 2.1 11.596.908 5.574-1.643 11.21-3.096 16.853-4.494 2.636-.654 4.273-2.03 5.366-4.596 2.798-6.578 5.887-13.03 8.833-19.545 1.866-4.126 4.7-7 9.118-8.6 8.123-2.942 16.125-6.222 24.126-9.487 3.216-1.31 6.574-2.56 9.38-4.53 5.924-4.16 12.183-7.503 19.163-9.345 5.77-1.52 9.166-5.443 10.663-10.805 1.854-6.646 5.434-12.02 10.275-16.74 1.052-1.025 1.93-2.228 3.054-3.55-.958-.5-1.634-1.026-2.396-1.224-7.58-1.976-13.864-6.255-19.96-10.944-3.957-3.043-8.208-5.71-12.085-8.844-3.03-2.45-6.552-3.442-9.782-2.023-8.096 3.552-14.73 1.315-21.03-3.894-1.015-.84-2.21-1.493-3.395-2.084-1.018-.508-2.133-1.107-3.22-1.14-11.645-.35-23.292-.575-34.938-.878-2.223-.058-3.214.764-3.54 3.104-.955 6.82-4.972 10.847-11.84 11.85-3.558.52-7.19.535-11.238.81-.284.37-.9 1.144-1.484 1.938-2.724 3.69-2.998 3.728-7.45 2.056-4.035-1.518-8.114-2.92-12.754-4.58-1.11 2.076-2.17 3.945-3.126 5.867-4.438 8.917-8.114 18.32-13.47 26.644-5.532 8.605-12.53 16.302-19.24 24.09-1.698 1.972-2.412 3.56-2.242 6.054 1.025 15.1 2.43 30.2 2.66 45.316.144 9.266 3.218 17.152 7.854 25.834zm89.586-185.627l-11.064-5.674-19.913 38.64c6.722.376 12.293.69 17.133.96 4.773-11.698 9.245-22.658 13.844-33.925zm9.077-10.626c6.014-1.758 6.65-3.106 3.448-8.247-3.35-5.382-4.738-10.907-2.436-17.04.09-.24-.165-.608-.343-1.193-1.016-.425-2.195-.92-3.526-1.476-5.18 10.066-10.25 19.925-15.477 30.084l8.095 4.22c2.378-4.55 6.41-5.23 10.237-6.348zm99.95-352.936c.155-5.462-4.175-6.77-7.746-8.768-4.72 4.358-7.216 10.965-14.432 11.312-.505 4.892 1.636 8.175 6.126 9.962 2.393.953 4.735 2.033 6.918 2.977l5.86-4.32c1.11-3.167 2.058-5.71 2.883-8.295.288-.907.36-1.906.39-2.867zm-4.232-45.522c-.408-.038-.815-.075-1.224-.11-.577 1.112-1.3 2.175-1.706 3.35-1.834 5.31-3.624 10.636-5.325 15.99-.383 1.208-.7 2.62-.454 3.816 1.328 6.428 4.9 10.976 12.76 13.308l-4.052-36.354zm-24.376 1.055c4.097 5.383 8.57 10.48 13.462 16.396 1.3-3.828 2.358-7.246 3.62-10.588 1.277-3.378 2.064-7.28 4.312-9.87 2.983-3.44 3.123-6.425 1.082-9.925-2.857-4.9-3.078-10.055-1.912-15.423.09-.414-.033-.875-.098-2.062-6.663 7.083-12.91 13.715-19.146 20.356-3.04 3.236-3.832 7.817-1.32 11.117zm-33.167 71.4c-3.3 5.957-.323 9.89 4.104 13.44.774.623 1.353 1.615 2.217 1.976 1.453.608 3.09 1.27 4.596 1.16 4.124-.3 8.22-1.406 12.327-1.4 3.822.004 6.083-1.61 8.192-4.495 3.4-4.65 3.918-4.556 7.408-.206.114.142.603-.017 1.066-.044 1.196-7.397 2.292-14.908 8.373-20.335-.25-.216-.485-.6-.75-.623-4.478-.37-7.107-3.97-10.57-6.09-.666-.41-1.17-1.64-1.162-2.484.023-2.612.33-5.222.515-7.684 8.36-2.813 9.238-3.486 14.275-10.708-.845-1.476-2.02-2.804-2.41-4.333-2.124-8.3-7.33-14.8-12.192-21.518-2.94-4.063-6.824-6.63-11.95-7.89-3.81 5.484-7.62 10.59-7.7 17.882-.167 14.664-5.19 27.832-13.568 39.86-2.083 2.99-4.355 6.387-2.6 10.608.338.814.256 2.11-.173 2.885zm-3.658 36.003c2.887-2.705 5.7-4.94 8.004-7.614 2.147-2.495 3.224-5.773 1.003-8.67-2.248-2.934-5.15-5.364-7.922-8.172-4.455 8.214-3.797 15.87-1.083 24.455zm-5.243 8.924c-5.203 3.763-5.566 5-3.69 10.21 1.066 2.966 2.156 5.948 2.873 9.008 1.768 7.544 1.683 7.563-4.578 11.75-.115.077-.13.302-.486 1.22l13.506 9.55c1.048-1.796 1.744-3.335 2.747-4.64 2.476-3.217 2.646-6.58 1.163-10.235-2.682-6.61-5.23-13.278-7.963-19.868-.992-2.39-2.35-4.627-3.573-6.995zm-96.846-23.557l.324 1.09c5.09.446 10.258.49 15.252 1.442 5.898 1.124 11.052-.47 16.392-2.533 14.575-5.63 29.28-10.924 43.864-16.53 4.78-1.837 9.582-2.536 14.644-2.155 4.603.346 4.608.262 5.743-5.272-7 2.67-13.6 3.974-20.836 3.056-8.052-1.022-16.344-1.447-24.23 1.35-15.196 5.39-30.327 10.964-45.453 16.55-1.998.737-3.805 1.987-5.7 3zm-20.846 19.665c-4.118 17.9-5.33 36.188-7.764 54.31-.66 4.907-.954 9.86-1.435 14.983.976-.05 1.456.014 1.88-.11 25.027-7.367 50.146-14.443 75.035-22.244 14.42-4.52 28.475-10.2 42.69-15.37 4.83-1.757 4.82-1.773 3.37-6.81-.646-2.237-1.016-4.596-1.968-6.692-3.196-7.04-3.112-13.258 4.378-17.924-5.97-11.25-3.277-22.528-.787-33.604-5.776-2.73-10.907-2.164-16.062-.237-16.818 6.29-33.617 12.633-50.494 18.763-2.537.92-5.48 1.266-8.182 1.09-8.248-.533-16.47-1.45-23.345-2.092-3.493 2.063-6.068 3.572-8.63 5.1-4.237 2.53-7.474 5.573-8.685 10.837zm-91.15-61.224c.424 20.478.78 40.957 1.35 61.43.16 5.66.537 7.004-6.38 6.932-.438-.004-.878.358-1.762.745v19.868l-11.35.72c.58 21.01.992 41.524 2.37 62.195 17.25-3.162 33.73-6.326 50.27-9.145 6.555-1.117 9.864-6.324 14.314-10.125.653-.56.81-1.8 1.02-2.762 1.43-6.493 2.92-12.975 4.18-19.5 1.86-9.666 3.472-19.602 9.162-27.752 8.18-11.715 17.284-22.784 25.994-34.13.938-1.22 1.874-2.44 3.054-3.98-1.504-.503-2.265-.904-3.063-1.002-14.193-1.763-28.385-3.565-42.596-5.186-6.196-.707-11.353-2.96-15.692-7.64-9.982-10.766-19.536-21.832-27.206-34.414-.795-1.303-1.844-2.45-2.774-3.67-.897 2.782-.938 5.1-.89 7.417zm-65.946 7.904c.206 23.798.78 47.592 1.23 71.387.054 2.78.283 5.557.44 8.504 18.528-.522 36.556-1.03 55.05-1.553-.225-5.037-.533-9.152-.562-13.27-.05-7.17-.85-7.305 7.148-8.14.284-.03.54-.337.93-.593-.462-20.885-.917-41.84-1.393-62.792-.114-4.985.983-10.504-.812-14.802-1.795-4.294-6.53-7.352-9.95-10.978-3.083-3.27-6.86-4.458-11.273-4-5.453.568-10.927.952-16.37 1.608-7.562.913-15.105 2.005-23.478 3.13-.358 10.968-1.05 21.238-.96 31.5zm-11.952 79.714c-1.473-.606-3.274-.582-4.92-.565-8.827.09-17.652.227-26.477.44-4.83.117-9.482.884-14.066 2.766-3.122 1.282-6.737 1.754-10.155 1.864-16.305.523-32.618.78-48.927 1.188-1.984.05-4.016.236-5.928.732-11.515 2.987-23.28 3.687-35.086 3.93-26.8.55-53.603.943-80.4 1.565-4.162.096-8.304 1.064-12.927 1.693 2.455 5.01 4.392 9.242 6.575 13.344 3.232 6.074 5.5 12.41 6.373 19.273.29 2.265 1 4.542 1.898 6.65 4.567 10.708 9.353 21.323 13.86 32.055 1.555 3.705 2.527 7.656 3.937 12.022 6.05-.267 12.986-.585 19.924-.876 20.11-.843 40.225-1.604 60.33-2.537 14.113-.655 28.216-1.535 42.322-2.326.494-.028.98-.183 1.47-.272 41.362-7.556 82.728-15.09 124.08-22.693 5.645-1.038 11.227-2.416 16.918-3.654-.794-21.178-1.563-41.72-2.317-61.88-10.427 0-20.227-.276-30.002.08-9.003.33-17.9.733-26.48-2.8zm9.85-35.977c-1.396-.28-2.18-.582-2.96-.572-9.324.117-18.65.15-27.97.458-22.61.75-45.212 1.692-67.82 2.453-21.784.732-43.57 1.37-65.357 1.986-28.443.803-56.888 1.6-85.335 2.276-8.76.208-17.258 1.877-26.398 3.405l25.557 36.364c4.273-.455 8.215-1.07 12.175-1.255 7.143-.332 14.296-.426 21.445-.584 19.47-.43 38.937-.92 58.406-1.23 10.98-.175 21.894-.352 32.687-2.994 5.277-1.292 10.846-1.693 16.304-1.888 15.3-.546 30.612-.735 45.917-1.176 2.104-.06 4.438-.286 6.237-1.24 4.755-2.524 9.774-2.975 14.97-2.95 2.155.01 4.312-.284 6.47-.29 11.403-.024 22.952-2.234 34.072 2.216.537.214 1.234.027 1.604.027-.002-11.766-.002-23.325-.002-35.004zm-299.79 51.106c9.36-4.97 19.665-4.07 29.708-4.765 4.746-.328 9.498-.554 15.09-.874-1.68-2.377-2.814-3.98-3.944-5.584-14.958-21.24-59.037-85.376-74-106.612l1.21.01c.605.22 1.283.33 1.87.018 1.01 1.206 26.387 37.652 27.165 38.75 7.52 10.59 15.084 21.152 22.463 31.84 1.536 2.226 3.024 3.073 5.735 2.538 16.43-3.247 33.104-2.985 49.74-3.39 21.303-.522 42.6-1.333 63.9-1.946 24.797-.714 49.6-1.258 74.393-2.05 23.46-.748 46.908-1.753 70.364-2.57 4.984-.175 9.98-.026 15.532-.026v-71.58c-3.298 0-7.05-.106-10.795.017-18.803.62-37.602 1.34-56.404 1.945-22.296.717-44.596 1.32-66.893 2.036-19.132.614-38.26 1.336-57.39 1.972-20.963.697-41.925 1.454-62.89 1.99-15.814.404-31.636.512-47.454.71-.316.005-11.57-.09-27.467-.23l-1.87-.018c-1.267-.46-2.195-1.41-1.21-.01-8.927-.08-19.096-.173-29.522-.27 1.512 3.23 60.374 114.96 61.766 117.933.596.117.795.227.905.17zm49.54 87.074c8.663-1.516 17.39-2.664 26.086-3.994 3.464-.53 4.61-2.126 3.857-5.51-.284-1.276-.96-2.47-1.487-3.688-4.873-11.283-9.822-22.534-14.582-33.864-1.206-2.87-1.897-5.972-2.68-9.004-.87-3.364-1.092-6.978-2.444-10.117-2.955-6.858-6.542-13.44-9.67-20.23-1.155-2.506-2.716-3.36-5.418-3.177-8.29.56-16.598.877-24.895 1.366-5.975.352-11.91.94-17.47 5.185 3.495 8.048 7.112 15.88 10.325 23.875 8.108 20.178 18.563 38.964 32.365 55.83 1.59 1.942 2.795 3.89 6.014 3.328zm70.653 139.24l-37.44-141.11c-11.237 1.657-22.81 3.364-34.008 5.017 2.223 6.956 4.494 13.364 6.32 19.896 6.438 23.03 12.735 46.102 19.057 69.165 2.292 8.36 6.1 16.124 12.57 21.74 10.41 9.032 21.547 17.228 32.376 25.78l1.124-.487zm20.88 28.998c2.16-4.002 5.54-6.56 9.183-8.955 3.198-2.104 6.344-4.29 9.504-6.453 14.29-9.774 28.587-19.538 42.852-29.35 2.116-1.454 4.675-2.707 4.435-6.056-2.365-.718-4.872-1.076-6.988-2.182-29.93-15.63-59.807-31.365-89.7-47.068-1.85-.972-3.73-1.886-6.313-3.188.323 1.813.423 2.756.664 3.662 5.302 19.907 10.48 39.85 15.996 59.696 2.462 8.86 3.144 18.24 8.233 26.39 2.326 3.724 3.267 8.29 5.112 12.348.672 1.48 1.956 3.237 3.325 3.646.94.28 3.037-1.265 3.698-2.49zm7.902 50.263l4.562-7.153c17.977 13.205 35.46 26.05 52.85 38.822 2.806-5.79 5.326-11.157 7.988-16.452 13.367-26.582 26.72-53.173 40.236-79.68 1.48-2.9 1.537-5.454-.214-7.802-1.537-2.063-3.49-4.056-5.69-5.34-6.89-4.025-13.996-7.68-20.99-11.53-1.44-.793-2.87-1.68-4.11-2.75-3.394-2.938-6.14-3.166-9.716-.635-17.526 12.403-34.95 24.957-52.63 37.14-9.766 6.728-14.484 16.647-18.53 27.084-2.463 6.352 1.507 11.928 2.872 17.803.525 2.264 1.15 4.508 1.827 6.73.353 1.164.917 2.26 1.544 3.764zm18.85 68.005c4.34-.398 7.966-.93 11.6-.998 2.858-.057 4.57-1.406 6.12-3.572 5.42-7.58 10.955-15.078 16.417-22.625 1.236-1.71 2.357-3.504 3.688-5.49-17.217-12.698-34.057-25.12-50.997-37.617-3.38 4.48-4.987 8.46-3.016 14.02 3.102 8.74 5.124 17.866 7.67 26.812 2.767 9.72 5.61 19.417 8.518 29.47zm33.22 99.623c-7.534-4.063-7.43-10.27-6.04-17.068.685-3.352.955-6.838.968-10.264.01-2.877.846-4.69 3.662-5.725 2.758-1.01 5.37-2.413 8.715-3.95-2.187-1.848-3.744-3.28-5.425-4.55-1.95-1.476-2.365-3.077-.876-5.103.59-.803 1.098-1.668 1.604-2.53 2.867-4.868 2.44-7.065-2.643-9.392-4.41-2.018-5.895-5.375-5.138-9.664.507-2.872 1.94-5.604 3.145-8.317.26-.586 1.376-1.23 2.003-1.145 4.405.594 5.62-2.68 7.357-6.027-11.745-8.815-23.142-17.5-39.25-12.177 9.693 33.738 17.155 67.727 27.907 101.926 1.706-2.56 2.76-4.137 4.01-6.012zm2.872 47.892c.314 1.76 1.414 3.822 2.813 4.87 5.834 4.36 11.914 8.397 17.915 12.536 1.56 1.076 3.164 2.088 4.72 3.113 2.337-2.954 1.43-5.198-.28-7.22-.838-.994-2.073-1.646-3.088-2.502-4.827-4.072-4.766-9.947.432-13.332 1.975-1.285 4.507-1.947 6.877-2.34 3.943-.656 7.903-.986 10.29-4.78-.214-.41-.288-.788-.517-.956-9.495-7.01-18.902-14.145-28.56-20.926-4.488-3.152-9.754-3.244-14.86-2.555 1.05 7.647 2.072 14.67 2.953 21.71.517 4.12.578 8.306 1.306 12.38zm3.342 45.522c.305 5.47 2.516 9.01 7.434 11.05.438.18.92.255 1.676.458 6.483-8.795 12.98-17.605 19.655-26.662-9.138-8.383-27.78-21.375-31.718-22.105 1.02 12.448 2.26 24.837 2.952 37.26zm.674 10.748l1.29 10.146 4.803-6.127-6.092-4.02zm3.607 66.2c10.298-13.997 20.596-27.993 31.26-42.49-8.913-5.993-17.398-11.7-25.813-17.36-5.735 5.148-9.43 10.896-7.995 18.842.23 1.28-.135 2.656-.09 3.982.424 12.24.876 24.48 1.32 36.717l1.318.31zm42.206 59.034c-.92-1.63-1.234-3.002-2.08-3.54-5.372-3.41-5.38-8.587-5.166-14.058.185-4.746-.046-4.783-4.954-5.428-4.6-.604-5.664-1.764-5.75-6.414-.045-2.328.014-4.658.025-6.988.042-8.2 4.664-12.932 12.644-12.926 3.328.002 6.658.078 9.986.03 1.252-.017 2.5-.292 3.94-.472.128-2.51.085-4.674.377-6.793.872-6.326-.235-11.424-7.257-13.607-1.68-.523-3.162-1.834-4.6-2.957-4.18-3.272-9.06-4.696-14.75-5.784-7.607 10.46-15.39 21.012-22.945 31.725-1.034 1.47-1.382 3.75-1.303 5.624.653 15.285 1.474 30.563 2.285 45.84.04.736.46 1.453.753 2.32 12.89-2.183 25.458-4.31 38.796-6.57zm29.506-30.832c-3.077-2.39-5.66-4.453-8.304-6.438-12.064-9.06-12.07-9.05-27.147-8.877-4.516.053-8.362 3.627-8.72 8.217-.13 1.654-.034 3.328-.003 4.992.112 6.06.415 6.59 6.27 7.26 2.655.303 3.983 1.322 4.053 3.94.04 1.464.143 2.942 0 4.392-.41 4.133-.18 7.81 3.75 10.592 2.06 1.457 3.423 3.9 5.482 6.352 1.396-.768 3.39-1.225 4.324-2.477 6.76-9.054 13.307-18.267 20.296-27.953zm36.393 25.49c3.683-5.144 7.774-10.028 11.052-15.41 1.736-2.853 2.29-6.49 3.003-9.855.213-1.006-.51-2.713-1.363-3.36-7.66-5.82-15.446-11.478-23.467-17.38-12.005 16.367-23.685 32.293-35.728 48.71 14.345 0 27.665-.03 40.985.028 2.385.012 4.128-.795 5.517-2.734zm11.208 19.903l3.104-7.953c-5.3-1.78-10.103-3.39-15.035-5.047-2.71 3.713-5.192 7.11-7.918 10.846 6.704 2.89 13.142 2.11 19.848 2.155zm16.72-.676c.017-1.077-.697-2.763-1.544-3.142-2.793-1.252-5.798-2.033-8.94-3.068l-3.183 8.45c4.252 1.974 7.854 4.388 12.672 4.25.382-2.272.967-4.378.997-6.49zm23.348-13.423c-2.25-.74-3.855-.92-5.02-1.73-2.1-1.46-4.44-3.012-5.648-5.117-.53-.928 1.466-3.305 2.425-5.248-8.488-5.035-15.255-12.906-25.177-17.008-1.8 11.582-11.677 17.766-15.53 27.66l45.746 15.146c1.024-4.382 2.064-8.832 3.204-13.703zm22.17 15.87l-2.245-34c-9.22-.022-17.975 3.09-25.866-3.073l-2.975 4.184c5.99 5.402 6.002 5.475 1.494 10.4 1.547.785 2.94 1.674 4.456 2.23 5.465 2.002 5.652 1.973 5.136 7.99-.317 3.693-1.26 7.332-1.903 10.893 6.922 3.316 13.907 1.16 21.902 1.378zm8.805-38.483c.494.07.987.295 1.468.262 8.236-.58 16.47-1.188 25.287-1.834l-1.197-5.934c-9.445 2.928-16.587-1.412-23.903-5.922-3.003-1.85-6.926-2.205-10.437-3.244 0 3.04-.123 5.2.022 7.344.493 7.24 1.538 8.305 8.76 9.328zm-7.622 5.232c4.794.486 7.022 3.338 8.31 7.53 1.798 5.853 7.916 7.036 12.19 2.526.57-.604 1.097-1.252 1.607-1.906 3.257-4.174 6.422-8.45 11.886-10.02.096-.026.04-.57.088-1.505-4.8.255-9.55.47-14.29.77-6.28.395-12.584 1.505-18.73-.896-.234-.092-.58.11-1.06.213v3.29zm36.583 30.532l-2.256-29.236c-2.065 1.447-3.802 2.322-5.085 3.64-2.2 2.26-4.154 4.763-6.147 7.216-3.166 3.9-7.336 3.865-11.807 3.38-4.253-.46-5.09-3.474-6.037-6.788-.65-2.27-1.363-4.877-5.19-4.797.64 9.56 1.262 18.9 1.928 28.87 11.578-.766 22.644-1.496 34.593-2.285zm.753-38.88c.077.614 1.264 1.093 1.938 1.634.36-.785 1.17-1.69.998-2.334-.823-3.107-1.91-6.146-2.905-9.21l-.77.173c.22 3.25.34 6.51.74 9.737zm11.53 37.69c-1.108-11.648-4.488-22.148-6.94-33.12-1.63.313-2.73.526-4.515.872l2.228 32.97 9.228-.722zm24.563-38.914c-.87-2.525-1.877-4.332-2.077-6.225-.735-6.948-1.31-13.917-1.718-20.892-.173-2.973.185-5.98.362-8.97.133-2.216 1.096-3.614 3.503-4.14 1.97-.432 3.807-1.475 5.703-2.246l-.177-1.03c-2.21-.417-4.452-.712-6.623-1.28-2.91-.762-4.912-.13-6.71 2.537-1.228 1.82-3.316 3.222-5.287 4.34-3.027 1.72-6.324 2.954-9.434 4.54-3.986 2.03-9.013 9.973-8.076 13.47 1.964 7.337 4.355 14.563 6.673 22.17 8.158-1.272 16.097-.573 23.86-2.276zm-1.67 37.84c-.897-1.262-1.373-1.87-1.784-2.52-2.655-4.204-3.878-8.917-.833-13.046 4.308-5.84 3.237-11.814 2.103-18.574-7.053.506-13.607.977-20.316 1.457l6.608 32.685h14.222zm22.62-21.078c-3.88 2.795-7.31 1.76-10.877.416-2.273-.855-4.71-1.273-6.722-1.797-4.988 7.568-10.01 14.756-.24 22.066 4.74-.72 10.15.687 14.278-2.73l3.56-17.954zm70.216-6.984l-1.313-12.006c-11.686.678-23.014 1.338-34.105 1.982-1.17 4.115 1.72 8.98-4.068 10.178-.07.662-.26 1.184-.154 1.637 1.574 6.82 1.365 7.113-5.648 7.578-.83.056-1.663.11-2.493.155-6.295.338-12.59.674-19.385 1.037l-2.668 13.35c8.28-.582 15.57-1.178 22.872-1.584 6.61-.367 12.763-1.375 16.957-7.434 1.682-2.432 4.246-4.23 6.164-6.523 4.133-4.942 9.564-6.84 15.748-7.312 2.6-.2 5.177-.668 8.09-1.056zm2.06-15.37l15.643-1.068-2.295-32.445h-15.455l2.108 33.512zm16.88 14.3c-.44-4.144-.853-7.997-1.305-12.24-5.302.44-10.28.855-15.627 1.298l1.125 12.252 15.808-1.31zm1.866-16.62c5.47 1.172 9.7 2.078 14.435 3.094l-2.58-35.996c-4.887.22-9.367.424-14.18.643.828 11.51 1.597 22.167 2.325 32.26zm14.994 9.277c-.028-.67-.63-1.66-1.217-1.905-4.13-1.74-8.04-4.863-13.533-2.25l1.04 11.293c4.827.777 9.174 1.477 13.768 2.215 0-3.137.07-6.248-.058-9.354zm1.045-45.688c-.217-6.172.452-11.773-4.442-16.154-1.027-.918-1.304-2.955-1.453-4.52-.436-4.577-.634-9.18-.918-13.66-.475-.255-.776-.565-1.048-.542-10.374.924-20.746 1.877-31.543 2.865l2.534 34.005 36.87-1.993zM731.2 868.82c.44 5.056.71 8.82 1.135 12.563.103.908.472 2.11 1.14 2.574 2.932 2.047 3.374 5.14 3.878 8.254.472 2.91.946 5.815 1.517 9.32l16.606-1.35c1.136-3.2.534-5.64-1.812-7.448-4.957-3.82-5.383-8.746-3.433-14.73-6.054-2.92-12.036-5.806-19.03-9.183zm12.293-7.925c-3.033-3.865-5.554-7.354-8.364-10.592-3.768-4.338-6.992-8.81-6.817-14.936.03-1.09-.453-2.195-.77-3.613-8.325 0-16.436-.08-24.544.035-3.866.054-9.584 6.036-9.33 9.972.523 8.076 1.384 16.133 2.118 24.334 3.264 0 6.406.307 9.47-.057 9.014-1.07 17.963-3.355 27.078-.622.83.25 1.98-.166 2.854-.553 2.57-1.136 5.078-2.413 8.303-3.97zm61.47-48.56c.335-1.442 1.13-2.77 1.575-4.194 1.67-5.323.776-7.042-4.513-8.85-1.73-.59-3.518-1.036-5.174-1.784-.99-.445-2.37-1.217-2.554-2.063-1.286-5.936-5.805-9.127-10.177-12.434-3.33-2.52-6.828-3.07-10.587-.634-6.456 4.186-13.478 7.197-20.884 9.207-9.56 2.592-18.11 7.033-26.46 12.37-7.838 5.007-14.793 10.386-18.7 19.083-.784 1.748-2.228 3.2-3.778 5.36 7.677 0 14.65-.038 21.624.017 4.368.033 5.447 1.117 6.06 5.467.367 2.623.105 5.758 1.47 7.738 4.188 6.08 9.025 11.713 13.844 17.814 8.636-7.227 17.077-13.744 24.853-20.98 5.706-5.308 11.677-8.448 19.573-7.173 1.124.18 2.323-.062 3.482-.157 5.053-.41 8.163-4.047 8.504-9.156.215-3.238 1.1-6.445 1.84-9.63zm37.596-75.41c-3.903.687-7.907.784-11.835 1.35-3.552.513-7.317.74-10.515 2.157-2.793 1.238-4.98 3.713-8.475 3.525-.68-.035-1.69 1.064-2.1 1.87-1.87 3.67-3.94 7.302-5.272 11.175-3.493 10.154-4.045 21.248-9.88 30.51 3.686 6.877 3.686 6.877 10.893 9.53.31.112.638.187.955.29 2.733.887 4.3 2.836 3.9 5.63-.516 3.573-1.527 7.077-2.36 10.604-.53 2.242-1.33 4.44-1.636 6.707-.372 2.752-.35 5.557-.516 8.643 3.896 2.006 8.157 3.332 13.455.592 0 1.91.253 2.818-.042 3.484-1.492 3.367-.63 6.48.685 9.637 1.982 4.753 3.887 9.538 5.784 14.327 1.495 3.773 1.518 7.535-.834 10.955-3.46 5.033-5.33 10.62-6.614 16.525-.48 2.197-1.255 4.738-2.776 6.22-3.79 3.685-8.113 6.815-12.167 10.23-4.644 3.913-8.524 8.206-8.95 14.808-.364 5.613-.798 11.283-3.42 16.48-1.09 2.16-.836 4.272 1.055 5.895 2.105 1.805 4.15 3.81 6.56 5.104 3.823 2.06 4.573 3.13 3.683 7.484-.354 1.73-.617 3.475-.912 5.162h6.738c1.002-2.172 2.137-4.56 3.213-6.98 2.19-4.92 6.32-9.062 5.97-15.03-.04-.666.775-1.41 1.253-2.074 2.423-3.367 5.45-5.887 9.783-6.063 3.28-.133 4.948-1.87 6.325-4.676 2.56-5.225 5.38-10.332 8.342-15.34.83-1.402 2.383-2.854 3.887-3.277 2.518-.71 3.99-2.188 5.17-4.285 3.465-6.16 8.328-10.12 15.71-10.734 1.69-.14 4.032-1.48 4.724-2.92 2.58-5.36 4.84-10.907 6.765-16.542 2.516-7.357 3.217-15.287 7.287-22.193.764-1.295.465-3.578-.037-5.188-1.428-4.572-1.498-9.023-.666-13.752.886-5.043.833-10.244 1.38-15.355.367-3.418.855-6.85 1.666-10.184.86-3.535 2.426-6.902 3.215-10.447 1.476-6.638-3.614-11.128-6.08-16.407-.694-1.484-3.595-1.84-5.315-2.97-1.344-.882-2.832-1.944-3.56-3.3-3.24-6.06-7.26-11.418-12.472-15.943-1.32-1.146-1.912-3.098-2.977-4.582-.54-.756-1.422-1.883-2.084-1.838-4.84.318-7.15-3.203-9.527-6.3-2.048-2.666-4.306-3.053-7.376-2.514zm37.768-140.918c-4.088-3.854-8.094-1.707-11.75-.838-16.73 3.978-33.465 4.814-50.453 1.66-6.023-1.116-11.023-3.497-15.077-7.968-4.23-4.665-9.836-4.83-15.56-5.282-4.366-.345-6.25 2.75-8.584 5.085-7.944 7.955-16.422 15.433-19.57 27.095-.884 3.27-4.152 7.166-7.246 8.33-9.238 3.48-18.025 7.557-26.222 13.06-2.296 1.544-5.178 2.22-7.807 3.255-7.272 2.865-14.502 5.852-21.85 8.51-4.405 1.596-7.163 4.492-8.987 8.686-2.785 6.403-5.905 12.663-8.624 19.09-1.23 2.9-3.03 4.458-6.1 5.16-5.182 1.187-10.374 2.466-15.383 4.218-6.586 2.305-12.646 1.426-18.8-1.467-8.46-3.978-19.935-1.808-26.48 4.862-2.38 2.428-4.877 4.385-8.27 5.254-3.183.814-5.385 2.82-6.834 5.992-1.646 3.602-3.96 6.893-5.938 10.346-.73 1.273-1.942 2.656-1.872 3.93.318 5.797-2.036 10.66-4.703 15.488-2.048 3.707-4.044 7.44-6.188 11.395 2.47.197 4.353-.004 5.98.55 3.435 1.165 6.84 2.52 10.068 4.167 7.35 3.748 15.377 6.27 21.278 12.656 1.605 1.738 4.735 2.14 7.228 2.967 3.287 1.088 6.66 1.908 9.948 2.994 2.36.782 4.606 2.487 6.958 2.595 5.522.25 9.703 3.227 14.098 5.854 3.965 2.368 7.828 4.91 11.8 7.417 5.19-5.104 4.12-14.324 11.986-17.443-.708-2.492-1.28-4.51-1.808-6.36 11.635-10.235 14.064-11.028 19.246-6.417.452-.195.952-.328 1.364-.598 4.478-2.93 8.532-1.333 12.552 1.09 3.855 2.325 4.552 5.782 3.88 9.903-.17 1.04.13 2.264.54 3.27 1.532 3.74.747 5.268-3.24 5.086-3.345-.155-5.242 1.24-6.192 3.437 8.05 5.22 15.804 10.244 23.976 15.543-2.894 5.37-5.513 10.23-8.13 15.092 2.863-.998 5.28-2.357 7.492-3.992 5.96-4.404 12.524-7.383 19.622-9.53 8.25-2.5 16.48-5.09 23.927-9.757 6.563-4.11 11.064-3.53 17.256 1.262 1.268.98 2.57 1.916 4.507 3.355 1.36-3.27 2.762-5.89 3.55-8.682 2.163-7.674 3.563-15.602 6.24-23.08 2.02-5.637 3.575-12.555 11.816-12.902.585-.023 1.21-.514 1.71-.918 4.386-3.547 9.518-4.615 14.957-4.23 4.918.35 9.47-.913 14.2-2.108-1.815-7.953-2.005-15.406 1.317-22.73 1.434-3.16 1.986-6.713 3.38-9.896 1.642-3.752 1.3-7.285.427-11.14-.715-3.15-1.367-6.854-.38-9.743 2.34-6.856 4.897-13.77 10.837-18.743 1.62-1.355 3.077-3.715 3.323-5.766 1.318-11.065 2.37-22.167 3.232-33.276.45-5.83 2.117-11.03 5.744-15.638 2.565-3.263 4.983-6.638 7.608-10.15zm4.336-17.467c-4.467-7.553-9.9-14.56-12.438-23.21-2.477-8.446-5.525-16.724-8.217-25.108-1.642-5.115-4.72-8.26-10.33-8.584-1.458-.084-2.894-.654-4.323-1.053-4.592-1.28-6.146-5.12-7.248-9.31-9.786 1.975-19.18 3.965-28.617 5.72-3.07.57-5.13 1.952-6.254 4.854-2.505 6.46-8 9.08-14.16 10.503-7.28 1.68-14.677 2.857-21.954 4.545-3.506.813-6.57.302-9.568-1.44-4.202-2.44-8.697-2.914-13.46-2.31-2.27.29-4.647.264-6.915-.05-12.66-1.76-25.253-4.24-37.95.242-2.206.78-5.298.007-7.68-.868-5.063-1.858-9.93-4.256-14.93-6.456-.555.946-1.053 1.625-1.377 2.378-3.476 8.077-6.983 16.143-10.32 24.275-.592 1.438-.44 3.183-.743 5.726 8.52 0 16.157.185 23.78-.057 6.196-.196 11.93.722 16.772 4.866 4.985 4.268 10.262 5.096 16.518 2.662 4.32-1.682 8.734-.912 12.67 2.19 4.7 3.71 9.69 7.046 14.533 10.572 4.434 3.226 8.99 6.038 14.155 8.192 5.313 2.213 8.908 1.613 12.43-2.764 1.264-1.57 3.404-3.457 5.138-3.45 8.278.036 16.615-.022 22.88 7.26 2.13 2.48 5.607 4.583 8.798 5.226 14.597 2.94 29.253 3.594 44.062.594 7.428-1.506 14.938-5.26 22.57-1.256 6.575-6.714 6.46-6.647 2.176-13.892zm8.43-3.776c1.615-2.483 3.143-5.353 5.465-6.97 4.33-3.018 9.056-5.6 13.903-7.7 3.857-1.672 7.07-3.33 7.813-7.933.23-1.41.887-3.118 1.934-3.972 5.783-4.717 8.902-10.876 10.824-17.93.684-2.514 2.52-4.69 3.535-7.14 1.253-3.04 2.83-6.143 3.163-9.334 1.154-10.997 15.42-15.804 22.96-9.904 4.458 3.49 9.33 5.766 14.92 6.29 3.038.283 4.362 1.737 4.864 4.637.186 1.063 1.25 2.49 2.22 2.807 3.087 1.01 4.99 3.024 6.507 5.755.703 1.265 1.8 2.47 3.004 3.267 3.402 2.247 5.36 5.334 6.17 9.26.838 4.063 3.184 7.114 6.076 10.04 3.484 3.527 7.06 7.2 9.52 11.434 2.44 4.196 5.614 5.59 10.017 5.878 2.558.168 5.077.88 8.558 1.523.695-1.797 1.91-3.862 2.27-6.064 1.437-8.79 4.978-16.47 11.173-22.91.687-.71 1.34-1.53 1.743-2.423.863-1.923 1.95-3.865 2.25-5.902 1.738-11.836 3.05-23.734 7.14-35.11.997-2.777 1.638-5.826 1.688-8.764.064-3.64 1.853-5.907 3.923-8.67 3.32-4.428 10.05-7.15 8.402-14.52-.076-.35.395-.912.736-1.245 1.64-1.597 1.31-3.358.296-5.014-3.568-5.84-1.94-11.037 1.52-16.28 2.856-4.323 5.374-5.047 9.782-2.055 3.02 2.05 5.98 4.186 8.998 6.305.385-.43.625-.654.813-.917.286-.406.626-.808.79-1.266 2.14-6.044 6.756-9.002 12.656-10.765 6.46-1.93 12.31-5.972 19.576-4.995 2.025.272 2.818-1.524 2.586-3.436-.73-5.98 1.11-11.508 2.816-17.087 1.3-4.24.406-5.965-3.713-7.69-1.067-.447-2.188-.846-3.325-1.053-5.627-1.03-8.38-5.017-10.148-9.913-.732-2.02-.832-4.283-1.643-6.26-1.86-4.53-.982-8.07 2.428-11.69 3.87-4.105 3.666-9.914.52-14.57-2.88-4.264-6.167-8.383-8.224-13.03-2.262-5.11-4.605-9.698-9.262-13.16-4.314-3.207-7.385-7.497-8.11-13.224-.83-6.597-2.24-13.12-3.065-19.718-.34-2.73-1.538-4.61-3.442-6.362-5.635-5.178-11.21-10.42-17.04-15.856-3.077 1.497-5.995.655-8.843-1.67-1.63-1.33-3.63-2.63-5.64-3.003-10.79-2.002-18.15-8.35-23.37-17.637-.406-.722-.986-1.344-1.414-2.056-3.343-5.56-7.792-9.765-13.872-12.357-3.656-1.56-7.137-3.62-10.484-5.787-3.846-2.488-7.674-3.117-12.268-2.348-7.338 1.23-14.67 1.77-21.865-1.86-6.06-3.057-12.782-4.782-18.938-7.678-7.77-3.656-15.844-4.988-24.242-4.256-7.945.694-15.1-1.436-22.082-4.872-1.893-.932-4.09-1.905-6.102-1.816-6.537.288-10.71-2.536-12.97-8.532-.292-.774-.548-1.69-1.122-2.203-1.313-1.176-2.695-2.808-4.254-3.077-5.887-1.017-11.838-1.883-17.8-2.217-10.8-.605-21.626-.783-32.44-1.157-.994-.035-2.008-.093-2.97-.32-8.414-1.974-16.812-4.013-25.226-5.982-3.306-.773-6.644-1.418-10.094-2.148-.25 3.15.266 6-.812 7.99-1.533 2.83-1.193 5.365-.79 8.16.455 3.157.77 6.308-1.718 8.954-1.45 1.544-.906 3.177.387 4.43 2.146 2.08 4.437 4.012 6.716 5.95 5.32 4.52 8.588 13.44 4.38 18.618-3.73 4.588-3 9.077-.068 13.292 2.035 2.93 4.744 5.546 7.6 7.71 3.433 2.6 7.39 4.5 11.018 6.854 1.352.877 2.716 2 3.572 3.33 6.735 10.49 13.502 20.965 19.94 31.637 4.025 6.672 3.404 14.62 5.084 21.946.54 2.363.27 4.97 1.093 7.2 3.574 9.67 7.2 19.333 11.254 28.807 1.998 4.674 2.072 8.98-.092 13.382-3.793 7.72-5.47 16.03-6.826 24.405-.413 2.548-.39 5.295.08 7.83 1.034 5.55 2.312 11.068 3.81 16.513 1.57 5.708 1.262 11.076-1.137 16.536-.852 1.934-1.2 4.704-.482 6.6 2.394 6.313 1.388 11.492-3.136 16.517-6.283 6.98-7.895 15.686-7.082 24.667.78 8.622 1.297 17.058.023 25.76-1.053 7.19 1.887 10.498 8.762 11.21 7.043.726 11.17 4.55 13.02 11.186.402 1.44.873 2.862 1.35 4.28 5.064 15.11 9.193 30.633 19.184 43.57.75.97 1.528 1.916 2.593 3.25 1.05-2.387 1.628-4.334 2.69-5.966zm77.43 97.307c-1.636-4.61.446-7.68 4.247-9.9 5.44-3.175 8.02-8.144 9.142-14.114.557-2.97 1.344-5.807 4.197-7.6.75-.475 1.343-1.57 1.546-2.486 1.178-5.283 4.295-7.36 9.773-7.887 5.378-.514 10.206-3.234 12.058-9.04 2.465-7.72 5.426-15.252 4.936-23.727-.477-8.247 3.873-11.348 12.1-9.607 3.15.665 4.377-.258 3.3-3.132-1.96-5.226-2.665-10.26.39-14.992-2.686-4.195-6.773-3.525-10.2-3.69-3.472-.172-5.278-1.635-7.142-4.33-3.104-4.48-6.44-8.895-10.275-12.745-3.643-3.65-6.145-7.618-7.564-12.555-1.87-6.49-8.453-9.414-11.852-14.807-.15-.242-.558-.4-.872-.455-3.78-.66-5.03-3.372-5.463-7.45-7.44-.642-13.5-3.71-19.408-7.663-5.367-3.59-14.68-.418-16.19 7.67-1.038 5.546-3.51 10.314-5.853 15.256-1.34 2.827-2.607 5.747-3.4 8.76-.883 3.35-2.363 6.12-4.982 8.396-2.902 2.52-5.658 5.25-6.45 9.234-.772 3.87-3.14 5.998-6.845 6.95-1.28.33-2.547.812-3.727 1.41-7.434 3.784-14.783 7.456-17.805 16.34-1.18 3.477-1.21 5.705 1.39 8.366 6.558 6.715 11.45 14.508 15.27 23.16 3.27 7.412 7.667 14.326 11.466 21.514 1.073 2.03 2.25 4.18 2.577 6.395.734 4.952 2.322 9.25 6.313 12.536.96.79 1.576 2.154 2.05 3.37 2.56 6.587 8.2 9.91 14.032 12.65 4.78 2.245 10.025 3.5 15.053 5.222 2.815.963 5.458.822 8.188-1.047zm113.99 147.782c12.504-9.135 24.8-17.938 36.86-27.05 3.274-2.476 5.937-5.808 8.657-8.94.747-.86 1.044-2.46.93-3.662-.556-5.842 1.33-11.05 4.995-15.225 4.87-5.545 6.506-11.756 6.088-18.844-.176-2.99-.06-5.997-.234-8.987-.26-4.404.573-8.525 2.204-12.64 4.904-12.386 8.738-25.038 10.787-38.298 1.407-9.102.9-17.154-4.233-25.23-4.213-6.626-2.816-12.616 3.24-17.778 7.31-6.238 7.8-14.44 5.932-22.75-2.423-10.768-4.54-9.28 4.85-17.243 3.565-3.028 6.222-7.382 5.22-12.312-1.377-6.777-.945-13.25 1.477-19.592.936-2.45.01-3.924-1.275-5.83-1.62-2.4-2.863-5.12-3.88-7.846-1.448-3.883-.474-7.57 1.92-10.818 2.575-3.492 2.388-6.943.673-10.745-1.916-4.242-3.564-8.61-2.775-13.483.14-.873-.363-1.914-.748-2.8-2.307-5.302-4.973-10.474-6.883-15.913-1.005-2.854-.77-6.16-.99-9.27-.22-3.09.14-6.294-.554-9.262-1.174-5.026-.076-8.997 3.47-12.723 2.595-2.73 4.688-5.944 6.915-9.008 2.565-3.528 5.132-7.222 9.444-8.564 4-1.246 6.064-3.706 6.87-7.6.968-4.69 3.706-8.025 7.78-10.48 1.965-1.183 3.668-2.803 5.117-3.934.356-6.886-2.937-10.308-8.63-12.817-5.78-2.55-11.62-2.03-17.14-1.028-7.32 1.324-13-1.315-18.737-4.792-1.264-.767-2.3-1.914-3.43-2.898-3.496-3.043-6.988-6.09-10.867-9.474-1.523 6.722-4.95 12.425-3.512 19.317.766 3.665-2.225 6.54-6.086 5.923-3.555-.568-6.545.426-9.64 1.637-3.87 1.515-7.675 3.23-11.622 4.5-3.09.995-5.084 2.796-6.467 5.682-1.196 2.493-2.794 4.793-4.565 7.77l-15.354-10.452c-2.19 4.932-6.88 8.258-4.058 14.345 3.324 7.17 2.3 13.747-3.113 19.746-5.163 5.72-11.224 11.12-9.956 20.098.06.432-.34.924-.51 1.393-4.21 11.483-6.016 23.47-7.396 35.54-.365 3.19-1.203 6.13-3.4 8.655-2.184 2.51-4.313 5.115-6.074 7.924-1.643 2.62-3.172 5.44-4.047 8.382-1.7 5.72-2.91 11.515-5.984 16.82-2.44 4.214-3.54 8.976-1.03 13.79.304.58.376 1.275.626 1.89 1.204 2.975.005 5.005-2.794 5.823-1.584.464-3.484.297-5.15-.04-5.38-1.088-8.277.834-7.94 6.346.466 7.693-1.837 14.683-3.85 21.908-2.546 9.14-8.51 13.53-17.392 14.54-2.768.315-4.135 1.435-4.986 3.948-.63 1.854-1.734 3.55-2.69 5.283-1.245 2.262-3.228 4.357-3.704 6.762-1.307 6.586-4.332 11.754-10.1 15.283-2.63 1.61-4.182 3.764-3.11 7.07.634 1.96-.138 3.172-2.105 3.773-1.058.324-2.048.87-3.134 1.344 1.027 2.94 1.82 5.66 2.91 8.252 3.01 7.15 4.63 14.513 4.225 22.32-.323 6.274.856 12.138 4.583 17.493 1.023 1.47 1.018 4.184.53 6.08-1.847 7.172-2.937 14.162-.642 21.553 1.042 3.355 2.51 5.004 5.798 4.68 3.436-.338 6.865-.922 10.242-1.652 5.383-1.162 8.145.314 9.652 5.494.742 2.55 1.598 5.082 2.127 7.68.593 2.924 1.878 5.258 4.37 6.96 9.61 6.57 19.332 12.894 30.906 15.59 1.924.446 4.02.837 5.625 1.884 11.66 7.605 24.628 13.44 33.696 24.605.704.87 1.665 1.534 2.068 1.895zm180.615-136.426c.82-4.787-.36-9.06-2.782-13.246-2.063-3.566-4.982-5.662-9.135-5.107-3.37.45-5.42-.94-6.734-3.822-.413-.903-.782-1.85-1.005-2.813-.725-3.11-2.73-3.42-5.29-2.475-.93.344-1.757.973-2.69 1.307-12.182 4.368-23.936 6.132-33.395-5.647-.207-.258-.488-.453-.717-.697-5.994-6.404-14.295-8.55-22.166-10.605-4.61-1.206-9.346-1.616-12.768-4.175-2.698 3.844-4.82 7.826-7.83 10.96-5.304 5.51-5.708 6.558-1.58 13.23 3.345 5.4 4.974 11.24 4.382 17.583-1.316 14.115-3.637 28.053-9.158 41.2-3.668 8.735-5.912 17.58-4.88 27.11.952 8.826-.89 16.674-7.233 23.43-1.995 2.123-3.546 5.717-3.4 8.54.19 3.75.657 7.253-1.605 10.814 4.32-1.576 7.842.02 11.375 1.53 1.836.784 3.625 1.694 5.51 2.327 1.043.35 2.508.726 3.32.27 4.324-2.44 9.307-4.4 12.525-7.93 4.06-4.448 8.434-6.052 14.035-5.835 1.992.076 4.004.014 5.99-.178 3.848-.375 6.156 1.34 7.865 4.744 3.002 5.974 5.492 12.06 6.666 18.69.536 3.024 1.27 6.173 4.48 7.98.65-.42 1.304-.67 1.72-1.134 2.422-2.707 5.02-4.78 9.063-4.13.768.122 1.986-.962 2.596-1.784 1.08-1.46 1.692-3.277 2.815-4.695.74-.938 1.98-1.945 3.084-2.055 7.13-.713 10.558 1.744 12.638 8.79.326 1.108.426 2.282.654 3.423 1.588 7.934 2.287 16.26 9.508 21.584 2.307-1.1 4.572-2.66 7.068-3.27 5.074-1.233 7.838-4.667 9.84-9.04 4.246-9.277 9.463-17.893 16.293-25.557 1.52-1.703 2.427-4.367 2.704-6.697 1.596-13.373 2.838-26.79 4.412-40.166.238-2.012 1.19-4.246 2.514-5.766 4.033-4.63 8.236-9.143 12.695-13.36 5.467-5.177 5.354-8.862-1.225-11.997-5.393-2.568-9.766-5.994-13.26-10.916-1.963-2.765-4.94-4.864-7.664-7-.855-.67-2.645-1.034-3.553-.597-4.313 2.082-6.676.38-8.834-3.393-1.79-3.123-7.163-3.465-6.868-8.426.02-.332-.038-.674.017-.998zm-184.425 191.912c1.215.346 2.14.74 3.096.863 6.1.786 12.202 1.564 18.314 2.245 4.727.525 8.592 1.932 11.967 5.912 3.355 3.957 7.673 8.232 12.386 9.654 8.957 2.706 18.498 3.476 27.826 5.056.592-1.266.88-1.84 1.13-2.428 2.56-5.973 4.542-7.373 11.1-6.23 5.237.912 10.218.713 15.138-1.105 7.076-2.613 14.21-2.61 21.55-1.23 4.69.88 9.515 1.035 14.294 1.518 1.313-2.438 2.338-4.52 3.518-6.503 2.373-3.99 4.52-8.172 7.354-11.81 2.322-2.98 4.148-5.97 4.637-9.702.598-4.574 2.566-8.477 5.287-12.174 3.645-4.948 6.994-10.116 10.484-15.208-.658-.977-1.094-1.918-1.787-2.596-5.16-5.047-6.836-11.516-7.955-18.354-.582-3.55-1.535-7.17-3.074-10.398-1.893-3.975-7.146-3.824-9.395-.06-.77 1.284-1.297 2.763-2.262 3.866-.784.895-2.136 2.014-3.103 1.9-3.738-.44-6.205 1.215-8.697 3.732-2.607 2.633-6.18 2.166-7.955-1.012-1.514-2.707-2.416-5.773-3.455-8.727-1.59-4.52-2.78-9.205-4.658-13.6-2.89-6.766-3.076-6.682-10.7-6.37-1.665.07-3.337.177-4.995.09-2.53-.136-4.32.972-6.174 2.634-2.928 2.63-6.328 4.725-9.322 7.287-6.06 5.193-12.003 4.27-18.63.834-6.63-3.438-12.62-1.898-17.9 3.29-1.18 1.16-2.494 2.204-3.838 3.173-7.828 5.647-15.725 11.204-23.516 16.903-2.95 2.158-6.125 4.256-8.383 7.043-2.428 2.996-4.693 6.563-5.648 10.24-3.5 13.485-5.267 27.292-6.63 41.272zm122.46 49.032c1.937-7.496 4.983-14.39 8.93-21.014 1.827-3.064 2.892-6.582 4.49-10.338-5.358-.744-9.946-1.385-14.538-2.014-.988-.135-2.008-.12-2.973-.348-5.564-1.31-10.848-.078-16.104 1.64-5.256 1.72-10.5 2.505-16.123 1.4-5.898-1.155-6.404-.636-8.688 5.24-1.02 2.626-2.35 3.495-5.253 2.956-6.37-1.184-12.793-2.41-19.242-2.785-9.674-.564-16.398-5.992-22.316-12.66-2.794-3.145-5.778-4.744-9.837-4.814-1.322-.023-2.635-.357-3.955-.523-5.713-.72-11.428-1.432-17.418-2.18-.924 5.346-1.783 10.238-2.61 15.137-.794 4.705-3.005 8.414-7.386 10.602-6.943 3.466-12.893 8.157-17.777 14.204-1.148 1.424-2.492 2.688-3.727 4.04-4.926 5.4-8.32 11.52-9.133 18.933-.525 4.79-1.252 9.563-1.885 14.342-.314 2.392 3.83 8.66 6.23 9.08 1.02.177 2.163-.51 3.265-.583 1.893-.125 3.828-.293 5.684-.027 1.427.205 2.76 1.053 4.286 1.676 5.363-7.125 8.754.49 13.064 1.643 3.828-1.524 3.828-1.524 12.16 1.245-.04-.72-.117-1.33-.098-1.94.16-4.956 1.598-6.622 6.377-8.005 1.35-.39 2.608-1.297 3.75-2.176 4.204-3.234 8.685-5.486 14.22-4.795 5.28.655 10.563 1.442 15.87 1.75 6.534.382 13.14 2.82 19.65-.456.897-.453 2.335-.156 3.423.146 9.094 2.527 17.53 6.072 23.057 14.424 1.027 1.557 2.906 2.602 4.512 3.71 1.85 1.282 3.203.522 4.717-1.03 4.397-4.516 8.897-8.953 13.612-13.133 1.82-1.614 3.127-3.167 3.79-5.556 2.576-9.29 5.562-18.466 7.972-27.794zm179.513-70.356c-4.998-.396-9.76-.898-14.533-1.102-2.822-.12-4.97-1.18-7.166-2.914-3.35-2.65-6.774-5.627-10.683-7.055-6.41-2.344-11.91-5.637-16.707-10.432-2.992-2.99-5.787-6.57-10.86-6.144-.853.072-1.75-.896-2.685-1.227-3.24-1.147-6.453-2.466-9.79-3.218-1.394-.314-3.833.115-4.49 1.09-3.198 4.732-7.587 3.844-12.07 3.273-7.093-.902-14.188-1.8-21.304-2.48-1.464-.14-3.74.206-4.4 1.175-1.98 2.9-4.802 4.027-7.856 4.854-4.113 1.113-6.928 3.752-9.242 7.162-3.46 5.096-7.195 10.016-10.432 15.246-1.79 2.895-3.113 6.176-4.088 9.45-1.19 3.99-2.06 7.95-5.006 11.226-2.197 2.44-4.156 5.242-5.61 8.184-4.993 10.1-9.75 20.316-14.52 30.525-1.26 2.693-2.463 5.45-3.313 8.29-2.998 10.028-5.84 20.103-8.72 30.165-.345 1.203-.565 2.443-.767 3.334 2.6.85 5.127 1.068 6.846 2.363 3.584 2.694 6.957 2.423 10.56.495 2.032-1.09 4-2.3 6.04-3.375 1.143-.602 2.354-1.445 3.563-1.494 7.3-.295 14.674-.89 21.088 3.896 2.355 1.758 4.975 1.998 8.008 1.396 6.36-1.26 11.833.395 15.647 6.137.875 1.316 2.09 2.816 3.477 3.314 5.873 2.104 11.87 3.866 18.654 6.017-.15.13.338-.12.572-.52 2.508-4.277 6.02-5.81 10.95-4.63 2.222.532 4.677.017 6.96.388 1.89.305 4.203.7 5.42 1.947 3.898 3.99 7.92 3.36 12.27 1.25 2.242-1.09 4.596-1.98 6.734-3.238 1.2-.707 2.55-1.813 2.996-3.043 1.76-4.874 5.146-6.622 10.082-6.087.98.105 1.996-.06 2.988-.168 5.762-.63 6.16-1.06 6.64-7.03.04-.497.02-1.003.097-1.493 1.07-7.08-.623-14.768 4.717-20.928.55-.635.377-1.918.488-2.906 1.3-11.402 2.69-22.795 3.824-34.213.373-3.758 1.55-6.678 4.906-8.68 2.28-1.36 4.484-2.918 6.463-4.68 1.14-1.016 2.355-2.545 2.52-3.96.762-6.587 1.17-13.216 1.733-20.16zM1404.38 687.1c-.735 3.258-1.53 6.133-2.02 9.06-1.2 7.157-3.94 13.452-8.26 19.437-4.672 6.47-10.54 11.504-16.46 16.576-2.962 2.54-5.354 5.34-7.003 8.91-2.576 5.582-5.463 11.02-8.11 16.572-3.76 7.87-10.683 11.678-18.49 13.906-9.886 2.82-20.017 4.784-29.878 7.675-3.862 1.133-7.294 3.75-10.897 5.736-3.46 1.907-6.877 3.894-10.334 5.806-1.446.8-3.32 1.158-4.358 2.3-7.297 8.01-13.9 16.513-17.748 27.435 9.24.995 18.3 2.07 27.387 2.837 1.35.115 2.82-1.22 4.24-1.877 2.18-1.008 4.41-2.936 6.528-2.818 4.21.234 8.684.395 12.303 3.346.858.7 2.08 1.326 3.142 1.336 4.23.043 6.95 2.55 9.844 5.17 4.514 4.088 8.568 8.88 14.914 10.46 5.285 1.315 9.68 4.216 13.588 8 1.254 1.214 3.004 2.437 4.648 2.632 5.045.598 10.148.697 14.848.97 1.393-5.687 1.797-11.024 4.035-15.433 2.276-4.488 6.356-8.064 9.65-12.035.532-.64 1.16-1.215 1.61-1.906.63-.96 1.416-1.945 1.646-3.023 1.352-6.33 3.205-12.644 3.678-19.05.857-11.605.826-23.273 1.25-34.912.102-2.814.31-5.66.844-8.418 2.49-12.877 5.188-25.715 7.645-38.6.74-3.887 1.908-8.06 1.188-11.777-1.29-6.67-4.298-12.862-9.43-18.313zm-165.79-240.588c-1.295-.91-3.346-1.386-4.914-1.15-5.943.887-11.492.266-17.018-2.29-3.893-1.8-8.133-2.897-12.29-4.05-1.1-.306-2.702-.016-3.67.618-5.028 3.293-9.903 6.702-11.005 13.38-.756 4.59-4.104 7.134-8.313 8.437-3.604 1.115-5.79 3.708-7.875 6.563-2.14 2.927-4.113 6.036-6.635 8.6-2.248 2.29-2.803 4.57-2.396 7.62.5 3.746.447 7.564.73 11.344.168 2.257.406 4.52.814 6.745 1.586 8.674 9.352 15.443 7.77 25.137-.114.716.522 1.554.81 2.335 1.03 2.808 1.955 5.66 3.125 8.41 1.14 2.68 1 5.157-.44 7.64-.835 1.44-1.526 2.963-2.4 4.376-2.356 3.808-1.978 7.55 1.155 10.442 4.342 4.008 4.635 8.245 2.58 13.447-1.836 4.647-2.646 9.512-1.348 14.62.592 2.33.96 5.165.168 7.304-1.953 5.263-3.94 10.735-8.996 14.055-2.37 1.56-2.814 3.523-1.81 5.986 1.677 4.108 1.985 8.35 1.642 12.743-.1 1.283.367 3.238 1.275 3.863 3.376 2.316 6.68 5.094 11.304 4.48 1.117-.147 2.396-.02 3.443.386 8.955 3.48 18.496 6.088 24.762 14.14 4.405 5.665 10.397 6.296 16.614 5.474 4.053-.535 8.068-2.002 11.88-3.584 6.524-2.71 8.813-2.033 11.237 4.66 1.122 3.096 2.71 4.13 5.983 3.52 1.598-.296 3.81.075 5.066 1.034 5.312 4.053 9.222 9.14 8.49 16.305-.47 4.597.63 7.974 4.864 10.358 1.607.906 2.615 2.875 3.19 3.54 3.263 0 6.198-.83 8.183.19 3.322 1.704 6.73 4.1 8.86 7.09 4.104 5.765 9.046 10.16 15.573 12.69 4.797 1.86 5.275 4.693 3.96 10.236-.46 1.943-2.065 3.754-3.5 5.3-4.07 4.38-8.3 8.612-12.51 12.862-1.86 1.877-2.575 4.03-2.724 6.7-.238 4.308-1.03 8.583-1.502 12.884-.977 8.912-1.895 17.83-2.838 26.748.396.322.795.646 1.19.97 3.194-1.966 6.644-3.622 9.52-5.974 3.964-3.24 8.27-5.53 13.18-6.785 9.49-2.423 18.985-4.827 28.472-7.26 7.703-1.976 14.11-5.73 17.793-13.147 2.59-5.215 5.32-10.367 7.69-15.682 1.883-4.222 4.533-7.688 8.152-10.515 7.537-5.887 14.145-12.646 19.004-20.95 1.156-1.976 2.242-4.077 2.87-6.26 4.5-15.632 4.9-31.812 6.306-47.862.355-4.068-1.102-6.965-4.186-9.52-7.955-6.59-15.63-13.522-23.676-19.993-4.527-3.643-6.555-8.213-7.084-13.738-.412-4.306-.852-8.61-1.244-12.92-.283-3.088-1.297-5.696-3.795-7.808-7.883-6.662-15.895-13.205-23.38-20.297-6.595-6.25-13.687-9.7-23.073-9.316-5.875.243-10.998-2.386-14.08-8.47-3.678-7.256-8.2-14.098-12.537-21.005-1.2-1.915-2.77-3.867-4.648-5.038-4.517-2.817-6.847-6.8-8.632-11.716-5.9-16.234-11.285-32.74-21.73-46.91-1.213-1.644-1.37-4.034-2.227-5.986-.835-1.905-1.546-4.135-3.007-5.445-3.833-3.44-7.954-6.59-12.173-9.558z" transform="translate(-133 -34)" mask="url(#b)" fill="#000"/></g></svg>